<?xml version="1.0" encoding="utf-8"?>
<!-- Generator: Adobe Illustrator 25.2.0, SVG Export Plug-In . SVG Version: 6.00 Build 0)  -->
<svg version="1.1" id="Layer_1" xmlns="http://www.w3.org/2000/svg" xmlns:xlink="http://www.w3.org/1999/xlink" x="0px" y="0px"
	 viewBox="0 0 500 502" style="enable-background:new 0 0 500 502;" xml:space="preserve">
<style type="text/css">
	.st0{fill:#ADD2D9;}
</style>
<g>
	<path class="st0" d="M5.9,6.9c5.7,4.6,12.5,4.5,17.7,4c5-0.5,8.8,0.4,11.8,2.8c2.9,2.3,4.4,5.7,4.6,10.1c0.3,6.3-1.9,12-6.6,16.8
		c-1.9,2-4,3.9-6,5.7c-0.8,0.7-1.6,1.4-2.3,2.2c-5.4,5-6.9,10.8-4.7,17.2c2.3,6.3,5.7,11.1,10.4,14.8c3.8,2.9,8.3,3.7,11.7,4.1
		c2,0.2,4,0.2,6,0.3c2.3,0,4.6,0.1,6.9,0.4c6.4,0.9,12.7,2.1,18.1,3.3c6.9,1.5,13.1,5.2,19.6,11.5c7.1,7,15.9,12.6,28.5,18.2
		c1.3,0.6,2.6,1.2,3.9,1.7c3.2,1.4,6.5,2.8,9.6,4.5c5.6,3,8.5,8.3,10.8,13.6c0.5,1.1,0.9,2.2,1.4,3.2c3.4,8,7,16.2,11.5,23.8
		c3.8,6.5,9.4,9.5,17,9.3c0,0,0.1,0,0.1,0c8.8-2,16.4-1.6,22.6,1.4c2,0.9,2.9,1.7,4.5,3c1.6,1.3,3.7,3,8.1,5.8
		c6.5,4.2,10.8,7,17.1,8.6c3,0.8,5.8,1.2,8.5,1.2c2.4,0,4.7-0.3,6.8-1c2.7-0.8,4.8-2,6-3.6c2.4-3.1,2-7.1,1.7-10
		c-0.7-5.8-1.6-9.6-2.8-14.4c-0.6-2.5-1.3-5.3-2.1-8.9c0-0.1-1.4-6.8-0.9-15.4c0.1-1.8,0.3-3.6,1.4-5.4c1.3-1.9,3.4-3,7.5-4.5
		c4.3-1.6,7.5-2.5,9-3l0.5-0.2c7.1-2.2,11.1-8.7,15-15.1l0.1-0.1c3.3-5.3,6.1-12.2,11.7-26.1c0.6-1.4,1.9-4.8,5.2-7.5
		c1.7-1.4,3.2-2.1,6-3.3c2.5-1.1,4.1-1.6,5.5-2c1.4-0.4,2.7-0.8,4.5-1.6c1-0.5,4.2-1.9,7.2-4.6c2.2-2,4.7-6,7.2-11.6
		c1.6-3.6,3.9-9,5.2-16.6c1.1-6.4,0.8-11.3,0.5-17.4l0-0.1c-0.2-4.1-0.5-7-0.8-9.4c-0.5-4.3-0.8-6.5,0.5-10c0.4-1,0.8-2,1.2-2.9
		h-1.1c-0.4,0.8-0.7,1.7-1.1,2.6c-1.4,3.7-1.1,6.1-0.6,10.5c0.3,2.3,0.6,5.3,0.8,9.3l0,0.1c0.3,6.1,0.5,10.9-0.5,17.2
		c-1.3,7.5-3.6,12.8-5.2,16.4c-2.4,5.5-4.8,9.4-7,11.3c-2.9,2.6-5.9,4-6.9,4.5c-1.8,0.8-3,1.2-4.4,1.6c-1.5,0.4-3.1,0.9-5.7,2
		c-2.9,1.2-4.5,1.9-6.3,3.4c-3.4,2.8-4.8,6.3-5.4,7.8c-5.6,13.8-8.4,20.7-11.7,26l-0.1,0.1c-3.8,6.2-7.8,12.6-14.5,14.7l-0.5,0.2
		c-1.5,0.5-4.7,1.4-9.1,3c-4.3,1.6-6.5,2.7-7.9,4.9c-1.3,2-1.5,4-1.6,5.9c-0.5,8.8,1,15.6,1,15.6c0.8,3.5,1.5,6.4,2.1,8.9
		c1.2,4.7,2.1,8.5,2.8,14.2c0.3,2.8,0.7,6.5-1.5,9.3c-1.4,1.7-3.8,2.7-5.6,3.2c-4.2,1.4-9.2,1.3-14.7-0.2
		c-6.1-1.6-10.2-4.2-16.8-8.5c-4.3-2.8-6.5-4.5-8-5.8c-1.6-1.3-2.6-2.1-4.7-3.1c-6.4-3-14.2-3.5-23.2-1.5
		c-7.2,0.2-12.4-2.7-16.1-8.8c-4.5-7.6-8-15.8-11.4-23.7c-0.5-1.1-0.9-2.2-1.4-3.2c-2.4-5.5-5.4-10.9-11.2-14
		c-3.2-1.7-6.5-3.1-9.7-4.5c-1.3-0.6-2.6-1.1-3.9-1.7c-12.5-5.6-21.2-11.2-28.2-18.1c-6.7-6.5-13-10.2-20.1-11.8
		c-5.4-1.2-11.8-2.4-18.2-3.3c-2.3-0.3-4.7-0.3-7-0.4c-1.9,0-3.9-0.1-5.9-0.2c-4.9-0.5-8.4-1.7-11.2-3.9c-4.6-3.6-7.9-8.3-10.1-14.4
		c-2.2-6.1-0.7-11.4,4.4-16.2c0.8-0.7,1.6-1.4,2.3-2.2c2-1.8,4.1-3.8,6-5.7c4.9-5,7.2-10.9,6.9-17.5c-0.2-4.7-1.9-8.3-5-10.8
		c-3.2-2.5-7.2-3.5-12.5-3c-5.1,0.5-11.6,0.6-17-3.8C4.4,4.4,2.3,2.4,0.1,0H0v1.3C2,3.4,3.9,5.3,5.9,6.9z"/>
	<path class="st0" d="M82.4,29.7c0.7,1.9,1.4,4.1,2.8,6.7c2.1,3.8,4.8,6.8,9.7,11.2c4.3,3.8,6.8,5.4,8.9,6.8
		c2.1,1.4,3.7,2.5,6.5,5.2c1.2,1.2,1.5,1.6,3.6,4.1c1.2,1.5,3,3.7,5.8,7.2c4.8,5.9,6.9,8.4,8.4,10c1.3,1.5,2,2.3,3.5,4.3
		c2.6,3.5,4.1,5.7,5.6,7.9c1.8,2.6,3.4,5.1,6.9,9.5l0.8,1c3.7,4.6,5.7,7.1,7.9,8.6c6.6,4.6,14.5,5.8,17.9,6.3
		c2.1,0.3,3.7,0.4,5.2,0.5l0.1,0c6.6,0.4,15.6,0.9,23.4-3.6c1-0.6,1.9-1.2,2.7-1.8c0.3-0.2,0.6-0.4,0.9-0.6c1.2-0.8,5.1-3.8,7.9-6.7
		c4.1-4.3,6-9,7.5-12.8c3.6-9.1,4.3-16.9,4.6-21.2c0.1-0.7-0.1-8.8-0.5-22.2c0,0-0.1-5.1-1-12.2c-1.1-8-2-9.7-2.8-10.7
		c-4.5-5.5-13.4-5-13.5-5c-2,0.1-3.3,0.5-4.2,0.8c-1,0.3-1.4,0.4-2,0.1c-4.7-2.4-1.7-18.6,0.5-23c0,0,0-0.1,0-0.1h-1
		c-2.2,5-5.2,21.3,0.1,24c1,0.5,1.8,0.3,2.8-0.1c0.8-0.3,2-0.7,3.9-0.8c0.1,0,8.6-0.5,12.7,4.6c0.5,0.6,1.5,1.8,2.6,10.2
		c0.8,6.3,1,11.4,1,12.1c0.4,15.6,0.5,21.6,0.5,22.2c-0.3,4.2-1,12-4.6,20.9c-1.6,3.9-3.3,8.3-7.3,12.5c-2.7,2.9-6.7,5.8-7.8,6.6
		c-0.3,0.2-0.6,0.4-0.9,0.6c-0.8,0.6-1.7,1.2-2.7,1.8c-7.6,4.4-16.4,3.9-22.9,3.5l-0.1,0c-1.5-0.1-3-0.2-5.2-0.5
		c-3.3-0.5-11-1.6-17.4-6.1c-2.1-1.4-4.1-3.9-7.7-8.4l-0.8-1c-3.4-4.3-5.1-6.8-6.8-9.4c-1.5-2.2-3-4.5-5.6-8
		c-1.6-2.1-2.2-2.8-3.5-4.4c-1.4-1.6-3.6-4.1-8.4-10c-2.9-3.5-4.6-5.7-5.8-7.2c-2.1-2.6-2.4-3-3.6-4.2c-2.8-2.8-4.6-3.9-6.6-5.3
		c-2.1-1.4-4.5-3-8.8-6.8c-4.9-4.3-7.4-7.2-9.5-10.9c-1.4-2.5-2.1-4.6-2.8-6.6c-1-3.1-1.9-6.5-3.1-20.2c0,0-0.4-3.8-0.5-9.2h-1
		c0.1,5.4,0.5,9.2,0.5,9.3C80.5,23,81.4,26.5,82.4,29.7z"/>
	<path class="st0" d="M88,18.1l0,0.1c1.2,5.8,2.6,13,8.7,18.3c4.7,3.9,9.7,4.8,11.8,5.2c1.3,0.2,2.3,0.3,3.1,0.3
		c1.5,0,2.4-0.3,3.1-0.7c1.7-0.8,2.7-2.2,4.3-4.4c1-1.3,1.5-2.3,2-3.1c0.3-0.4,0.5-0.9,0.8-1.4c0,0,2.1-3.2,5.4-6.2
		c4-3.5,8.5-4.7,13.6-6.1l0.1,0c0.2-0.1,0.5-0.2,0.9-0.2c1.8-0.5,4.9-1.3,8.5-2.9c1.8-0.8,2.6-1.2,3.4-1.8c2.6-2,3.6-4.6,4.7-7.3
		c0.7-1.7,1-2.9,1.3-4.1c0.2-1,0.5-2.1,1.1-3.8h-1c-0.5,1.5-0.8,2.6-1,3.5c-0.3,1.3-0.6,2.3-1.2,4c-1,2.6-2,5-4.4,6.9
		c-0.6,0.5-1.3,0.9-3.2,1.7c-3.6,1.5-6.6,2.4-8.4,2.8c-0.3,0.1-0.6,0.2-0.9,0.2l0,0c-5.3,1.4-9.8,2.7-14,6.3c-3.5,3-5.5,6.2-5.6,6.4
		c-0.3,0.5-0.6,1-0.9,1.5c-0.5,0.9-1,1.7-1.9,3c-1.6,2.2-2.4,3.4-3.9,4.1c-0.9,0.5-2.3,0.9-5.6,0.2c-2.1-0.4-6.9-1.2-11.4-5
		c-5.9-5-7.3-12.1-8.4-17.7l0-0.1c-1.2-6.1-0.8-11.6-0.5-16.8c0-0.4,0-0.7,0.1-1.1h-1c0,0.3,0,0.7-0.1,1C87.2,6.3,86.8,11.8,88,18.1
		z"/>
	<path class="st0" d="M98.7,12.7c0.4,2,1.3,3.7,2.5,4.9c0.5,0.5,1.7,1.9,3.7,2.2c1.4,0.2,2.5-0.2,3-0.3l0.2-0.1
		c1.9-0.7,3.9-1.1,6.1-1.6c4.3-0.9,9.6-2,18.3-6c7-3.2,9.1-5,10.2-6.5c1.3-1.7,2-3.3,2.6-5.3h-1c-0.6,1.7-1.2,3.2-2.3,4.7
		c-0.7,0.9-2.1,2.7-9.9,6.3c-8.6,4-13.8,5.1-18.1,6c-2.3,0.5-4.3,0.9-6.2,1.7l-0.2,0.1c-0.5,0.2-1.4,0.5-2.5,0.3
		c-1.7-0.3-2.8-1.5-3.2-1.9c-1.1-1.2-1.9-2.7-2.3-4.5C98.5,7.4,98.2,3.1,98.2,0h-1C97.2,3.1,97.5,7.5,98.7,12.7z"/>
	<path class="st0" d="M23.8,163c8.1,5.7,16.7,7.1,25.5,4.2c2.5-0.9,5.3-1.6,8.5-2.1l0.1,0c2.8-0.5,5.7-1,7.7,1.3
		c1.1,1.3,2.1,3,3,5.3c2.8,7,4.1,14.5,3.8,23c-0.2,5.4-1.5,9.9-4,13.8c-1.1,1.7-2.3,3.4-3.5,5.1c-1.3,1.8-2.6,3.8-3.9,5.7
		c-2.1,3.5-4.1,7.3-3.9,12c0.1,2.4,0.6,8.2,4.3,10.8c1.4,1,3.2,1.4,4.9,1.8l0.1,0c9.2,2,18.7,4.1,28.4,3.4c2.4-0.2,5.4-0.6,8-2.1
		c2.7-1.6,3.3-3.7,4-6.2l0.1-0.2c0.7-2.3,2.2-4.7,3.4-6.7c3.2-5.1,7.5-9.3,11-12.4c4.3-3.9,9.6-5.8,15.6-5.8c4.1,0.1,7.9,1.1,12,2.3
		c10.5,3.1,20.9-2.7,27.9-7.4c9.4-6.4,12.6-13,9.5-19.8c-1.6-3.5-5.4-5.7-10.5-6c-1.1-0.1-2.2-0.2-3.2-0.2c-1.1-0.1-2.1-0.2-3.2-0.2
		c-5.2-0.3-9.2-3.1-11.7-8.3c-2-4-3.9-8.2-5.8-12.1c-1.9-4-3.8-8.1-5.8-12.2c-3-6-6.7-11.1-10.9-15.1c-4.8-4.6-10.9-7.4-16.8-10
		c-1-0.5-2-0.9-3-1.4c-5.8-2.6-11.2-5.4-16.2-8.3c-4.6-2.7-8.4-6.6-12.1-10.3c-1-1-2.1-2.1-3.1-3.1c-3.1-3-6.7-5.3-11.2-6.8
		c-8.1-3-16.6-3.5-24.9-4c-1.5-0.1-2.9-0.2-4.3-0.3c-0.4,0-0.9-0.1-1.3-0.1c-1.7-0.1-3.6-0.3-5.3-0.6c-5.7-1.3-10.6-4-14.5-8.2
		c-3-3.2-5.8-6.5-8.6-9.7c-1.9-2.2-4-4.5-6-6.8c-4.4-4.9-5.4-9.8-3-15.3c0.3-0.7,0.6-1.3,0.8-2c0.9-2.2,1.9-4.4,3-6.6
		c2.7-5.5,2.4-10.1-1.2-14.6C4.3,22.5,1.9,19,0,15.6v1.9c1.8,3,4,6.1,6.7,9.6c3.3,4.2,3.7,8.5,1.1,13.6c-1.1,2.2-2,4.5-3,6.7
		c-0.3,0.7-0.6,1.3-0.8,2c-2.5,5.8-1.5,11.1,3.2,16.3c2,2.2,4,4.5,6,6.7c2.8,3.2,5.7,6.5,8.7,9.7c4.1,4.3,9.1,7.2,15,8.5
		c1.8,0.4,3.6,0.5,5.4,0.7c0.4,0,0.9,0.1,1.3,0.1c1.5,0.1,2.9,0.2,4.4,0.3c8.2,0.5,16.7,1.1,24.6,4c4.3,1.5,7.8,3.7,10.8,6.6
		c1,1,2.1,2.1,3.1,3.1c3.7,3.8,7.6,7.7,12.3,10.5c5,2.9,10.5,5.7,16.3,8.4c1,0.5,2,0.9,3,1.4c5.8,2.6,11.9,5.3,16.6,9.9
		c4.2,3.9,7.8,8.9,10.7,14.9c2,4,3.9,8.2,5.8,12.2c1.9,4,3.8,8.1,5.8,12.2c2.7,5.6,6.9,8.5,12.5,8.9c1.1,0.1,2.1,0.2,3.2,0.2
		c1.1,0.1,2.2,0.2,3.2,0.2c2.2,0.2,7.6,1,9.7,5.5c2.9,6.3-0.2,12.6-9.2,18.7c-7.4,5-17.1,10.3-27.1,7.3c-4.2-1.2-8.1-2.3-12.3-2.4
		c-6.3-0.1-11.8,1.9-16.3,6c-3.5,3.1-7.9,7.4-11.2,12.6c-1.2,1.9-2.8,4.4-3.5,6.9l-0.1,0.2c-0.7,2.5-1.3,4.3-3.6,5.7
		c-2.3,1.4-5.2,1.8-7.5,1.9c-9.5,0.7-19-1.4-28.1-3.4l-0.1,0c-1.6-0.4-3.2-0.7-4.5-1.7c-3.3-2.4-3.8-7.8-3.9-10.1
		c-0.1-4.4,1.7-8.1,3.8-11.4c1.2-1.9,2.6-3.8,3.9-5.7c1.2-1.7,2.4-3.4,3.5-5.1c2.7-4.1,4-8.8,4.2-14.3c0.3-8.6-1-16.2-3.9-23.4
		c-1-2.4-2-4.2-3.2-5.6c-2.4-2.7-5.7-2.1-8.6-1.6l-0.1,0c-3.3,0.6-6.1,1.3-8.7,2.2c-8.6,2.8-16.7,1.5-24.7-4
		c-3.9-2.7-7.8-5.6-11.7-8.4c-4.2-3.1-8.4-6.2-12.7-9.1v1.2c4.1,2.8,8.1,5.8,12.1,8.7C16,157.4,19.9,160.3,23.8,163z"/>
	<path class="st0" d="M14,284.7c2.7-0.1,5.7-0.2,10.2-1.2c3.9-0.8,7.6-1.6,11.2-3.9c5-3.2,7.2-7.6,8.7-10.5c0.3-0.5,0.5-1,0.7-1.3
		c5.9-10.4,24.9-13,41.7-15.2c14.4-1.9,26.9-3.6,29-9.9l0.1-0.3c0.4-1.5,1.6-5.7,4.8-9.9c1-1.3,2.2-2.6,3.5-3.9
		c5-4.6,10.7-6.1,17-4.4c3.4,0.9,7,1.9,11,3.1c5.5,1.6,10.1,1.8,14.3,0.6c2.3-0.7,4.4-1.9,6.5-3.1c0.8-0.5,1.7-1,2.6-1.4
		c0.1,0,0.3,0,0.4-0.1c4.5-2.8,8.9-1.4,13.2,4.1c0.5,0.6,1,1.3,1.6,2.2c2.2,3.3,5.4,7.9,9.2,7.9c0.8,0,1.6-0.2,2.4-0.6
		c1-0.5,1.8-1.4,2.5-2.2l0.2-0.2c1.6-1.9,3.3-3.7,4.9-5.6c1.6-1.9,3.3-3.7,4.9-5.6c0.5-0.6,1-1.2,1.5-1.7c2.3-2.7,4.6-5.4,7.7-7.1
		c8-4.4,16.6-4.2,24.6-3.2c1,0.1,2,0.3,3,0.4c2.6,0.4,5.2,0.8,7.8,0.7c5.2-0.1,10.2-1.6,14.8-4.5c5-3.1,7.2-7.3,6.6-12.6
		c-0.5-4-2.1-7.7-4.8-11c-4.2-5.1-8.2-10.2-10-16.8c-1.6-5.7-1-10.5,1.7-14.6c3.8-5.8,7.9-11.4,11.9-16.8l1.9-2.5
		c7-9.5,14.9-20.6,20.6-33c2.2-4.7,5.2-8.3,8.9-10.8c5.2-3.5,10.9-7.2,16.5-10.7c6.8-4.2,11.3-10.1,13.6-17.9
		c0.7-2.4,1.6-4.9,2.5-7.2c0.7-1.8,1.4-3.8,2-5.7c0.3-0.9,0.6-1.7,0.9-2.6c1-3,2.1-6.1,2.7-9.2c0.4-2.2,0.7-4.4,1-6.6
		c0.7-4.7,1.4-9.7,2.8-14.4c0.4-1.3,0.8-2.7,1.2-4.1c1.1-3.7,2.2-7.5,3.6-11.2h-1c-1.4,3.6-2.5,7.3-3.5,11c-0.4,1.3-0.8,2.7-1.2,4
		c-1.5,4.8-2.2,9.7-2.9,14.5c-0.3,2.2-0.6,4.4-1,6.6c-0.6,3.1-1.6,6.1-2.6,9.1c-0.3,0.9-0.6,1.7-0.9,2.6c-0.6,1.9-1.3,3.8-2,5.6
		c-0.9,2.4-1.8,4.8-2.5,7.3c-2.3,7.6-6.6,13.3-13.2,17.4c-5.6,3.5-11.2,7.3-16.5,10.8c-3.9,2.6-7,6.3-9.2,11.2
		c-5.7,12.3-13.5,23.4-20.5,32.9l-1.9,2.5c-4,5.5-8.1,11.1-12,16.9c-2.9,4.4-3.5,9.4-1.8,15.4c1.8,6.7,5.9,12,10.2,17.1
		c2.6,3.1,4.2,6.7,4.6,10.5c0.6,5-1.4,8.8-6.1,11.7c-4.5,2.8-9.3,4.2-14.3,4.3c-2.5,0.1-5.1-0.3-7.7-0.7c-1-0.1-2-0.3-3-0.4
		c-8.2-1-16.9-1.2-25.2,3.4c-3.3,1.8-5.7,4.6-8,7.4c-0.5,0.6-1,1.2-1.5,1.7c-1.6,1.9-3.3,3.7-4.9,5.6c-1.6,1.9-3.3,3.7-4.9,5.6
		L204,234c-0.7,0.8-1.4,1.6-2.2,2c-4.2,2.2-7.8-3.1-10.4-6.9c-0.6-0.9-1.1-1.6-1.6-2.2c-4.5-5.8-9.3-7.3-14.1-4.6
		c-0.1,0-0.2,0-0.3,0c-1,0.5-2,1.1-3,1.6c-2,1.2-4.1,2.4-6.3,3c-4,1.2-8.5,1-13.8-0.6c-4-1.2-7.6-2.2-11-3.1
		c-6.6-1.8-12.6-0.2-17.9,4.6c-1.4,1.3-2.6,2.6-3.6,4c-3.3,4.4-4.5,8.7-5,10.2l-0.1,0.3c-1.9,5.7-14.7,7.4-28.2,9.2
		c-17,2.3-36.3,4.9-42.4,15.7c-0.2,0.4-0.5,0.9-0.7,1.4c-1.4,2.8-3.6,7.1-8.4,10.2c-3.4,2.2-6.9,2.9-10.9,3.8c-4.4,0.9-7.3,1-10,1.2
		c-1.4,0.1-2.8,0.1-4.2,0.3c-3.6,0.4-6.6,1.4-9.7,2.8v1.1c3.1-1.5,6.2-2.5,9.8-2.9C11.2,284.8,12.6,284.8,14,284.7z"/>
	<path class="st0" d="M172,76.5c1,0.4,2.4,0.7,3.9,0.8c1,0.1,2,0.2,3.1,0.2c3.4,0,7-0.6,8.9-2.2c1-0.8,1.5-1.8,1.6-3
		c0.1-1.2-0.3-2.2-1.1-3c-1.9-1.8-6-2.4-12.2-1.7c-1,0.1-2,0.2-2.9,0.3c-1,0.1-2,0.2-2.9,0.3c-1,0.1-2.7,0.3-3.5,1.7
		c-0.8,1.4,0,3,0.9,4C168.8,75,170.1,75.8,172,76.5z M167.7,70.3c0.5-0.8,1.7-1.1,2.7-1.2c1-0.1,2-0.2,2.9-0.3c1-0.1,2-0.2,2.9-0.3
		c1.8-0.2,3.3-0.3,4.6-0.3c4.1,0,6,0.9,6.8,1.7c0.6,0.6,0.9,1.3,0.8,2.2c-0.1,0.9-0.5,1.7-1.2,2.4c-2.3,2-7.6,2.2-11.3,1.9
		c0,0,0,0,0,0c-1.5-0.1-2.8-0.4-3.7-0.7c-1.7-0.7-2.9-1.4-3.8-2.4C167.8,72.5,167.2,71.3,167.7,70.3z"/>
	<path class="st0" d="M175.6,157.8c0.9,0,1.8-0.3,2.7-0.7c3.3-1.3,6.3-2.2,9.1-2.8c2.5-0.5,5.3-1,7.9-0.1c3.2,1,5.4,3.6,7.6,6.1
		l0.2,0.2c2.3,2.6,4.8,5.2,7.3,7.6c1.7,1.7,2.5,2.5,3,2.9c2.6,2.2,7.7,5.9,13.3,5.9c0.2,0,0.4,0,0.6,0c1.6-0.1,2.8-0.5,3.8-1.2
		c1.1-0.8,1.8-1.8,2.3-3.4c1.1-3.1,1-7.1-0.2-12l0-0.1c-0.8-3-1.7-6.7-4.3-11.1c-1.7-3-6.4-10.9-16.2-15.1
		c-7.4-3.1-16.4-3.2-25.2-0.2c-5.2,1.8-9.3,3.9-12.4,6.1c0,0,0,0,0,0c-4.1,3-6.1,6.2-6,9.5c0.1,2.3,1.3,4.8,2.6,6.3
		C172.7,157,174.2,157.8,175.6,157.8z M175.6,140.7c3-2.2,7.1-4.2,12.1-6c8.6-3,17.3-2.9,24.5,0.1c9.6,4,14.1,11.8,15.8,14.7
		c2.5,4.3,3.5,7.9,4.2,10.9l0,0.1c1.2,4.7,1.2,8.5,0.2,11.4c-0.5,1.4-1.1,2.3-2,3c-0.9,0.6-1.9,0.9-3.3,1
		c-5.5,0.2-10.7-3.4-13.2-5.7c-0.4-0.4-1.3-1.2-2.9-2.9c-2.4-2.4-5-5-7.2-7.6l-0.2-0.2c-2.3-2.6-4.6-5.3-8-6.4
		c-1.2-0.4-2.4-0.5-3.6-0.5c-1.7,0-3.3,0.3-4.9,0.6c-2.8,0.7-5.9,1.6-9.2,2.9c-0.8,0.3-1.6,0.6-2.3,0.6c-1.2,0-2.3-0.6-3.3-1.7
		c-1.1-1.4-2.3-3.6-2.4-5.7C169.9,146.4,171.8,143.5,175.6,140.7z"/>
	<path class="st0" d="M46.9,62.7c0.9,2.1,3,3.5,6,4.3c2.3,0.6,4.6,1,6.8,1.5c2.2,0.4,4.6,0.9,6.8,1.5c2.1,0.5,4.2,1.2,6.3,1.9
		c2.1,0.6,4.2,1.3,6.4,1.9c2.3,0.6,4.8,0.9,7.5,1c0.1,0,0.1,0,0.2,0c2,0,3.6-0.7,4.3-2c0.8-1.4,0.6-3.2-0.5-5.2
		c-2.5-4.3-6.3-7.2-9.8-9.4c-6.1-4-10.4-8.7-13-14.4c-0.8-1.6-2.1-4.4-5.3-4.4c0,0-0.1,0-0.1,0c0,0-0.1,0-0.1,0
		c-0.1,0-0.3,0-0.4,0.1c-0.4,0.3-0.8,0.5-1.2,0.7c-1,0.6-2,1.2-2.9,2c-4.3,4-7.8,8.6-10.4,13.5C46.2,58.2,45.9,60.7,46.9,62.7z
		 M58.6,42.8c0.8-0.7,1.7-1.3,2.7-1.9c0.4-0.2,0.8-0.5,1.1-0.7c0,0,0.1,0,0.1,0c2.4,0,3.5,1.8,4.5,3.8c2.7,5.9,7.1,10.7,13.4,14.8
		c3.4,2.2,7.1,5,9.4,9.1c1,1.7,1.1,3.2,0.5,4.2c-0.6,1-1.9,1.5-3.7,1.5c-2.6-0.1-5.1-0.4-7.3-0.9c-2.1-0.5-4.2-1.2-6.3-1.9
		c-2.1-0.6-4.2-1.3-6.4-1.9c-2.3-0.6-4.6-1-6.8-1.5c-2.2-0.4-4.6-0.9-6.8-1.5c-2.7-0.7-4.6-1.9-5.4-3.7c-0.8-1.7-0.5-3.9,0.7-6.3
		C50.9,51.2,54.4,46.8,58.6,42.8z"/>
	<path class="st0" d="M22.7,157c3.1,1.9,6.7,4,10.9,5.1c1.9,0.5,3.8,0.8,5.6,0.8c5.3,0,10.3-2.1,15.6-6.4c3.9-3.2,6-7.6,8-11.9
		c0.3-0.6,0.5-1.2,0.8-1.8c0.6-1.4,1.3-2.8,2.1-4.2c2.4-3.9,5-6.6,8.1-8.5c1.1-0.6,2.1-1.4,2.9-1.9c4.5-3.3,5.3-8,2.5-14.7
		C76.2,106.2,70,101.8,60,100c-6.5-1.2-13-2.2-20.8-3.3c-6.8-1-13-4-19.6-9.4c-4.8-3.9-9.1-7.3-13.2-10.3c-2-1.4-4.2-2.5-6.5-3.1v1
		c2.1,0.6,4.1,1.5,5.9,2.9c4,3,8.3,6.3,13.1,10.3c6.7,5.5,13.1,8.6,20.1,9.7c7.8,1.1,14.3,2.1,20.8,3.3c9.7,1.8,15.5,5.9,18.5,13
		c2.6,6.3,1.9,10.5-2.2,13.5c-0.8,0.6-1.8,1.3-2.8,1.9c-3.3,1.9-6,4.7-8.5,8.8c-0.8,1.4-1.5,2.8-2.1,4.3c-0.3,0.6-0.5,1.2-0.8,1.8
		c-2,4.2-4.1,8.5-7.8,11.5c-6.8,5.6-13.3,7.3-20.4,5.4c-4.1-1.1-7.6-3.2-10.6-5c-9.1-5.6-15.7-11.2-20.9-17.5
		c-0.7-0.9-1.5-1.7-2.2-2.5v1.4c0.5,0.6,1,1.1,1.5,1.7C6.8,145.7,13.5,151.3,22.7,157z"/>
	<path class="st0" d="M26.3,153.6c2.6,1.3,6.1,2.8,10.2,2.8c0,0,0.1,0,0.1,0c6.8,0,11.9-3.1,15.6-9.6c2.2-3.9,3.2-8.1,3.8-11.6
		c0.7-4.1,1.3-8.6,1.7-13.7c0.5-5.1-1.8-9.3-6.7-12.1c-2.6-1.5-5.6-2.7-8.4-3.8l-1-0.4c-1.8-0.7-3.7-1.3-5.5-2
		c-3.3-1.1-6.6-2.2-9.7-3.9c-3.8-2.1-7.4-4.7-10.8-7.3c-1.5-1.1-3-2.2-4.5-3.3C7.4,86.1,3.8,84.5,0,83.9v1c3.6,0.6,7,2.1,10.7,4.7
		c1.5,1.1,3,2.2,4.4,3.3c3.5,2.6,7.1,5.3,10.9,7.4c3.1,1.7,6.5,2.8,9.8,4c1.8,0.6,3.7,1.2,5.4,1.9l1,0.4c2.8,1.1,5.7,2.2,8.2,3.7
		c4.5,2.6,6.6,6.5,6.2,11.2c-0.4,5-1,9.5-1.7,13.6c-0.6,3.5-1.6,7.6-3.7,11.3c-3.5,6.2-8.4,9.2-14.9,9.1c-3.9-0.1-7.3-1.5-9.8-2.7
		c-9.8-4.8-17-12.1-21.3-21.6c-1.4-3-3.2-5.7-5.4-8v1.4c1.8,2,3.3,4.3,4.5,7C9,141.2,16.3,148.6,26.3,153.6z"/>
	<path class="st0" d="M11.5,122.5l0.1,0.8c0.6,4.5,1.3,9.1,3.5,13.3C19,143.7,25.3,148,33.4,149c0.6,0.1,1.2,0.1,1.8,0.1
		c5.1,0,9.2-3.1,11.1-8.4c3.1-8.2,2-15.9-3.2-22.9c-2.1-2.8-5.3-4.9-10-6.4c-0.8-0.3-1.6-0.5-2.3-0.8c-2.4-0.8-5-1.6-7.5-2.3
		c-3.6-0.9-6.8-2.9-10-6.1c-1.9-1.9-3.7-3.5-5.5-4.8c-2.5-1.9-5-2.6-7.7-2.3v0.9c0,0,0.1,0,0.1,0c2.4-0.3,4.7,0.4,7,2.1
		c1.8,1.3,3.6,2.8,5.4,4.7c3.3,3.3,6.7,5.4,10.5,6.3c2.5,0.6,5,1.5,7.4,2.3c0.8,0.3,1.6,0.5,2.3,0.8c4.5,1.5,7.5,3.4,9.5,6.1
		c5,6.7,6,14,3.1,22c-2,5.5-6.5,8.4-11.9,7.7c-7.8-1-13.8-5.2-17.6-12c-2.2-4-2.8-8.6-3.4-12.9l-0.1-0.8c-0.8-5.4-3-8.7-7.2-10.7
		c-1.7-0.8-3.5-2-5.3-3.4v1.2c1.6,1.2,3.2,2.3,4.9,3C8.7,114.3,10.8,117.4,11.5,122.5z"/>
	<path class="st0" d="M78.8,229.1c3.1,1.2,6.2,1.8,9.2,1.8c5.5,0,10.9-2,16-6c2.3-1.8,4.5-3.8,6.6-5.8c1-0.9,2-1.9,3-2.8
		c5-4.6,9.6-8.5,15.8-9.9c4.3-1,8.8-1.7,13.1-2.4c0.9-0.1,1.9-0.2,2.8-0.3c1.5-0.2,3-0.3,4.4-0.7c4.2-1,6.3-2.7,5.1-8.6
		c-0.5-2.3-1.1-4.7-1.7-6.9c-0.8-3.2-1.7-6.5-2.2-9.8c-0.9-5.1-2.1-11-4.4-16.5c-5.4-12.6-13.1-21.3-23.4-26.5
		c-6.6-3.3-14.3-4.7-22.9-4.2c-0.1-0.1-0.2-0.1-0.4-0.1c-0.5,0.1-1,0.2-1.6,0.4c-0.5,0.1-1,0.2-1.5,0.4c-5.2,1.1-7.6,5.1-9.2,8.9
		c-1.8,4.2-3.8,8.3-6,12.1c-4.1,7.4-5.8,15.4-5.3,23.7c0.2,2.4,0.4,4.9,0.6,7.3c0.3,3.9,0.6,7.9,0.8,11.8c0.3,6.5-1.3,12.8-2.8,17.5
		l-0.1,0.5c-0.7,2.4-1.5,5-1.7,7.5C72.7,224.5,74.8,227.6,78.8,229.1z M74.1,220.6c0.3-2.5,1-5,1.7-7.3l0.1-0.5
		c1.4-4.8,3.1-11.2,2.8-17.8c-0.2-3.9-0.5-7.9-0.8-11.8c-0.2-2.4-0.4-4.9-0.6-7.3c-0.6-8.1,1.2-15.9,5.1-23.1c2.1-3.9,4.1-8,6-12.2
		c1.6-3.7,3.8-7.3,8.6-8.3c0.5-0.1,1-0.2,1.6-0.4c0.5-0.1,1-0.2,1.5-0.3c0.1,0.1,0.2,0.1,0.3,0.1c8.4-0.6,15.9,0.8,22.4,4.1
		c10.1,5.1,17.6,13.6,22.9,26c2.3,5.5,3.5,11.3,4.4,16.3c0.6,3.3,1.4,6.6,2.2,9.9c0.6,2.2,1.2,4.6,1.7,6.9c0.9,4.2,0.5,6.3-4.4,7.5
		c-1.4,0.3-2.9,0.5-4.3,0.6c-0.9,0.1-1.9,0.2-2.8,0.3c-4.3,0.7-8.8,1.4-13.2,2.4c-6.4,1.4-11.1,5.4-16.2,10.1c-1,0.9-2,1.9-3,2.8
		c-2.1,1.9-4.2,4-6.5,5.7c-7.6,5.9-15.8,7.3-24.3,4C75.5,226.9,73.7,224.2,74.1,220.6z"/>
	<path class="st0" d="M84,208.2c0.4,4,2,6.9,4.8,8.5c1.5,0.9,3.2,1.3,5.1,1.3c2,0,4.1-0.5,6.2-1.4c3.5-1.5,6.5-4.2,9.2-6.5
		c0.6-0.5,1.1-1,1.7-1.4c3.7-3.2,7.6-6.6,12.1-8.7c2.4-1.1,4.8-2.1,7.2-3.1c1.4-0.6,2.8-1.2,4.3-1.8c5-2.2,7.8-6.2,8.7-12.8
		c0.6-4.6,0.5-9.3-0.4-14.2c-1-5.4-3.4-10.6-7.2-15.4c-4.8-6-10.6-9.8-17.4-11.4c-1.6-0.4-3.3-0.4-5-0.3c-0.7,0-1.4,0-2,0
		c0,0-0.1,0-0.1,0c-0.1,0-0.1,0-0.2,0c-5.2,1.4-9.5,4.4-13.7,9.7c-1.4,1.7-2.8,3.4-4.3,5c-1.4,1.6-2.9,3.3-4.3,5.1
		c-4.1,5.3-6.2,11.3-6.1,17.9c0,1,0,2,0,3c0,2.3-0.1,4.7,0.1,7.1C82.9,194.5,83.4,201.3,84,208.2z M83.5,181.8c0-1,0-2,0-3
		c0-6.4,1.9-12.2,5.9-17.3c1.4-1.7,2.8-3.4,4.3-5c1.4-1.6,2.9-3.3,4.3-5.1c4-5.1,8.2-8,13.1-9.3c0,0,0.1,0,0.1,0c0.7,0,1.4,0,2.1,0
		c1.7,0,3.3-0.1,4.8,0.3c6.6,1.5,12.2,5.2,16.8,11.1c3.7,4.7,6.1,9.7,7,15c0.9,4.8,1,9.4,0.4,13.9c-0.9,6.3-3.4,10-8.1,12
		c-1.4,0.6-2.8,1.2-4.2,1.8c-2.4,1-4.8,2-7.2,3.1c-4.7,2.2-8.6,5.5-12.4,8.8c-0.5,0.5-1.1,1-1.6,1.4c-2.6,2.3-5.6,4.8-9,6.3
		c-3.9,1.7-7.7,1.8-10.5,0.2c-2.5-1.5-4-4.1-4.3-7.8c-0.7-6.8-1.1-13.6-1.4-19.3C83.4,186.4,83.4,184,83.5,181.8z"/>
	<path class="st0" d="M97.3,205.8c0.1,0,0.3,0,0.4,0c2.2,0,4.5-1,7.1-3.1c1.2-1,2.5-2.1,3.7-3.1c2.4-2.1,5-4.2,7.6-6.2
		c2.1-1.6,4.6-3.1,7.8-5c6.4-3.7,9.9-8.1,10.9-13.9c1.8-10.2-3.7-19.6-13-21.8c-1.1-0.3-2.2-0.3-3.3-0.3c-0.5,0-1.1,0-1.6,0
		c-0.1,0-0.2,0-0.2,0c0,0-0.1,0-0.1,0c-3.4,0.8-6,2.8-8.5,4.8c-0.4,0.3-0.9,0.7-1.3,1c-1.2,1-2.5,2-3.6,3c-1.5,1.3-3.1,2.6-4.7,3.9
		c-6.5,4.8-9.7,11.4-9.7,20.2c0,3.9,0.2,9.1,1.9,14.2C92,203.7,94.2,205.7,97.3,205.8z M99.1,166c1.7-1.2,3.3-2.6,4.8-3.9
		c1.2-1,2.4-2,3.6-3c0.4-0.3,0.9-0.7,1.3-1c2.5-2,4.9-3.9,8.1-4.6c0,0,0.1,0,0.1,0c0.5,0,1.1,0,1.6,0c1.1,0,2.1,0,3,0.2
		c10,2.4,13.8,12.4,12.3,20.7c-1,5.5-4.3,9.7-10.5,13.3c-3.3,1.9-5.8,3.4-7.9,5.1c-2.6,2-5.1,4.1-7.6,6.2c-1.2,1-2.5,2.1-3.7,3.1
		c-2.6,2.1-4.7,3-6.8,2.9c-2.7-0.1-4.5-1.9-5.8-5.5c-1.3-3.9-1.9-8.2-1.9-13.9C89.8,177,92.8,170.6,99.1,166z"/>
	<path class="st0" d="M7.4,231.5c2,0,4.1-0.2,6.3-0.6c2.2-0.4,4.6-0.6,6.8-0.7c1.1-0.1,2.3-0.2,3.4-0.3c7.9-0.8,14.1-4.1,18.8-10.1
		c2.4-3.1,5.2-5.9,8-8.6c1.4-1.4,2.9-2.9,4.3-4.4c2.5-2.7,5.5-6.4,6.3-11.5c0.7-4.1-0.2-8.1-2.5-10.9c-2-2.6-5.1-4-8.7-4.3l-1.3-0.1
		c-4-0.3-8.1-0.5-12-1.2c-6.6-1.1-12-4.8-17.5-8.9c-2.9-2.2-5.8-4.2-8.6-6c-3.5-2.2-7.1-3.4-10.8-3.9v1c3.5,0.4,6.9,1.7,10.3,3.7
		c2.8,1.8,5.7,3.8,8.6,5.9c5.5,4.1,11.1,8,17.9,9.1c4,0.6,8.1,0.9,12.1,1.2l1.3,0.1c3.4,0.2,6.2,1.6,8,3.9c2.1,2.6,2.9,6.3,2.3,10.1
		c-0.6,3.7-2.5,7.1-6.1,11c-1.4,1.5-2.9,2.9-4.3,4.3c-2.8,2.7-5.6,5.6-8.1,8.7c-4.6,5.8-10.5,9-18.2,9.8c-1.1,0.1-2.3,0.2-3.4,0.3
		c-2.3,0.2-4.6,0.3-6.9,0.7c-4.9,0.9-9.2,0.8-13.2-0.4c-0.1,0-0.2-0.1-0.4-0.1v1c0,0,0.1,0,0.1,0C2.4,231.2,4.8,231.5,7.4,231.5z"/>
	<path class="st0" d="M34.2,216.6c4.1-3.7,8.3-7.9,13.4-13.4c1.7-1.9,3-4.3,3.4-6.4c0.7-3.8,0-6.4-5.7-8.6c-2.2-0.8-4.4-1.5-6.7-2.1
		c-0.7-0.2-1.3-0.4-2-0.6c-8.1-2.3-14.7-6.9-20.1-11.1c-3.5-2.7-7.4-5.8-12.4-6.7c-1.4-0.2-2.7-0.3-4.1-0.3v1c1.3,0,2.7,0,3.9,0.2
		c4.7,0.9,8.6,3.9,12,6.5c5.5,4.3,12.2,8.9,20.5,11.3c0.7,0.2,1.3,0.4,2,0.6c2.2,0.6,4.5,1.3,6.6,2.1c5.1,2,5.7,4.1,5.1,7.5
		c-0.4,2-1.6,4.2-3.2,5.9c-5,5.4-9.2,9.7-13.3,13.3c-9.5,8.5-20.7,10.9-33.4,7.3c-0.1,0-0.1,0-0.2-0.1v1c3.9,1.1,7.6,1.7,11.2,1.7
		C19.7,225.7,27.4,222.7,34.2,216.6z"/>
	<path class="st0" d="M10,219.3c5.2,0,10.2-2,15-6.1c3.8-3.2,6.6-6.5,8.5-10.1c2.1-4,1.6-7-1.6-9.8c-2.6-2.3-5.6-4.5-8.4-6.5
		c-0.5-0.4-1.1-0.8-1.6-1.2c-1.4-1-2.8-2-4.1-2.9c-1.6-1.1-3.2-2.2-4.7-3.4c-4.1-3.1-8.6-4.6-13.1-4.5v1c4.4-0.1,8.5,1.3,12.6,4.3
		c1.6,1.2,3.2,2.3,4.8,3.4c1.3,0.9,2.7,1.9,4.1,2.9c0.5,0.4,1.1,0.8,1.6,1.2c2.8,2,5.7,4.2,8.3,6.5c2.9,2.6,3.3,5.1,1.4,8.7
		c-1.8,3.5-4.5,6.7-8.2,9.8c-6.5,5.5-13.1,7.1-20.3,5c-1.4-0.4-2.8-0.9-4.2-1.5v1c1.3,0.5,2.6,1,3.9,1.4C6,219,8,219.3,10,219.3z"/>
	<path class="st0" d="M30.5,137.2c0.2,0,0.4,0,0.6,0c1.6,0,2.9-0.8,3.9-2.2c1.2-1.7,1.2-3.8,0-6c-1.5-2.6-3.4-3.7-5.9-3.4
		c-0.1,0-0.1,0-0.1,0c-0.1,0-0.2,0-0.2,0c-2.7,1.2-4.2,3.4-3.9,5.5C25.2,134.3,27.7,136.9,30.5,137.2z M29,126.7
		C29.1,126.7,29.1,126.7,29,126.7c0,0,0.1,0,0.1,0c2.1-0.3,3.7,0.6,5,2.9c0.5,0.8,1.4,3,0,4.9c-0.9,1.3-2.1,1.9-3.6,1.8
		c-2.3-0.3-4.5-2.5-4.8-5.1C25.5,129.5,26.8,127.7,29,126.7z"/>
	<path class="st0" d="M23.9,1.1c4.5,0,10.4,0.2,16.1,2.2c7.4,2.5,11.1,7.7,11.7,16.3c0.6,9.8-3.5,17.6-9.9,26.4
		c-0.6,0.8-1.2,1.6-1.8,2.4c-2.2,2.8-4.4,5.8-6,8.9c-1.7,3.4-2,7.3-0.6,10.8c1.3,3.5,4.1,6.2,7.7,7.6c2.9,1.1,5.8,1.4,8.8,1.8
		l2.2,0.3c5,0.6,10.2,1.2,15.3,2.3c7.7,1.5,16.6,3.7,24.7,8.3c2.5,1.4,4.9,3,7.3,4.6c1.8,1.2,3.6,2.4,5.4,3.5
		c3.1,1.9,5.8,3.2,8.9,3.2c0.2,0,0.4,0,0.6,0c2.5-0.2,4.1-1.7,4.3-4.3c0.3-4.2-1.2-8-2.6-11.6l-0.3-0.8c-2.6-6.5-5.9-13.9-12.1-19.2
		c-3.7-3.2-7.7-6.4-11.5-9.4c-0.8-0.6-1.6-1.2-2.3-1.8c-7.1-5.7-11.4-12.3-13.2-20.3c-0.9-4-2-8.1-3-12C71.9,13.9,70.3,7.4,69,1
		c-0.1-0.3-0.1-0.7-0.2-1h-1c0.1,0.4,0.1,0.8,0.2,1.2c1.3,6.4,3,12.9,4.5,19.1c1,3.9,2,8,3,12c1.9,8.2,6.3,15,13.5,20.8
		c0.8,0.6,1.5,1.2,2.3,1.8c3.8,3,7.8,6.2,11.5,9.4c6,5.2,9.3,12.5,11.8,18.9L115,84c1.5,3.7,2.8,7.2,2.5,11.2
		c-0.2,2.1-1.3,3.3-3.4,3.4c-3.2,0.2-5.9-1.1-9-3c-1.8-1.1-3.6-2.3-5.4-3.5c-2.4-1.6-4.8-3.2-7.3-4.6c-8.2-4.6-17.2-6.9-25-8.4
		c-5.1-1.1-10.3-1.7-15.4-2.3l-2.2-0.3c-3-0.3-5.8-0.7-8.6-1.7c-3.4-1.3-5.9-3.8-7.1-7c-1.2-3.2-1-6.9,0.6-10c1.6-3.1,3.8-6,5.9-8.8
		c0.6-0.8,1.2-1.6,1.8-2.4c6.5-9,10.8-17,10.1-27.1C52,10.4,48.1,5,40.3,2.4c-5.9-2-11.8-2.2-16.4-2.2c-1.2,0-2.4,0-3.6-0.1h-6.8
		c0.6,0.2,1.1,0.3,1.7,0.4C18.4,0.9,21.2,1.1,23.9,1.1z"/>
	<path class="st0" d="M8.7,209.7c4,0,7.5-2.1,9.6-5.8c2-3.5,1.7-7-0.8-10.1c-3-3.7-6.9-7.7-12.7-9c-0.9-0.2-1.7-0.2-2.6-0.2
		c-0.3,0-0.6,0-0.8,0c0,0-0.1,0-0.1,0c-0.1,0-0.1,0-0.2,0c-0.4,0.1-0.7,0.2-1.1,0.3v1c0.4-0.1,0.8-0.3,1.3-0.4c0,0,0,0,0,0
		c0,0,0.1,0,0.1,0c0.3,0,0.6,0,0.8,0c0.8,0,1.6,0,2.4,0.2c5.5,1.2,9.2,5.1,12.2,8.7c2.2,2.8,2.5,5.8,0.7,9c-2,3.5-5.3,5.5-9.1,5.3
		c-3-0.1-5.9-1.2-8.4-3v1.2c2.5,1.7,5.4,2.7,8.3,2.8C8.5,209.7,8.6,209.7,8.7,209.7z"/>
	<path class="st0" d="M364.4,20.7c-3.3,5.8-6.1,12-8.9,18l-0.3,0.6c-2.2,4.9-4.4,10.2-7.2,17.2c-1.3,3.3-2.1,6.2-2.7,8.9
		c-1.1,6.1-4.4,10.8-10.4,14.8c-0.6,0.4-1.2,0.8-1.8,1.2c-4.5,3-9.2,6.1-13.1,10.2c-3.1,3.3-4.9,6.9-5.2,10.8
		c-0.3,2.9,0.8,5.4,3.1,7.1c3.2,2.4,6.9,3.4,10.2,4.3c4.6,1.2,8.7,2.3,12.7,3.1c1.8,0.4,3.4,0.6,4.9,0.6c2.9,0,5.5-0.7,7.7-2.1
		c2.9-1.8,5.2-4.7,7.5-9.3c0.6-1.3,1.2-2.5,1.8-3.8c0.9-1.9,1.8-3.9,2.8-5.7c1.9-3.4,5-5.3,9.9-6c6.6-1.1,13.2,0,19.6,1.1
		c1.2,0.2,2.4,0.4,3.7,0.6c3.5,0.5,6.1,0.7,8.5,0.4c7.5-0.7,9.7-6.6,10.7-11.1c0.6-2.5,1.1-4.9,1.7-7.4c1.3-5.6,2.6-11.3,4.1-17
		c2.8-10.9,9.6-17.5,20.2-19.6c5.3-1.1,10.6,0.4,15.3,4.3c1.2,1,2.4,2.1,3.6,3.1c1.8,1.6,3.8,3.3,5.8,4.8c3.3,2.4,7,3.5,10.6,2.9
		c4-0.6,7-3.2,8.7-7.7c1.6-4.1,2.9-8.7,1.8-13.7c-0.2-0.9-0.2-1.9-0.1-2.9c0-0.7,0.1-1.5,0-2.3c-0.1-0.8-0.1-1.5-0.2-2.3
		c-0.3-3.3-0.5-6.7-1.1-10c-0.9-5.1-3.4-9.5-7-14.3h-1.2c0.1,0.1,0.2,0.2,0.2,0.3c3.6,4.8,6.2,9.1,7,14.1c0.5,3.2,0.8,6.6,1.1,9.9
		c0.1,0.8,0.1,1.5,0.2,2.3c0.1,0.7,0,1.4,0,2.1c-0.1,1-0.1,2.1,0.1,3.2c1.1,4.7-0.2,9.1-1.7,13.1c-1.1,2.8-3.3,6.4-7.9,7.1
		c-3.3,0.5-6.8-0.5-9.9-2.7c-2-1.5-3.9-3.1-5.7-4.7c-1.2-1-2.4-2.1-3.6-3.1c-5-4.1-10.5-5.7-16.1-4.5c-11,2.2-18,9-20.9,20.3
		c-1.5,5.6-2.8,11.4-4.1,17c-0.6,2.5-1.1,4.9-1.7,7.4c-1.5,6.7-4.6,9.9-9.9,10.3c-2.3,0.2-4.9,0.1-8.2-0.4c-1.2-0.2-2.4-0.4-3.7-0.6
		c-6.4-1.1-13.1-2.2-19.9-1.1c-5.2,0.8-8.5,2.9-10.6,6.5c-1,1.9-2,3.8-2.8,5.8c-0.6,1.2-1.2,2.5-1.8,3.8c-3.4,6.7-8,12.6-19.1,10.3
		c-3.9-0.8-8.1-1.9-12.6-3.1c-3.2-0.9-6.9-1.9-9.9-4.2c-2-1.5-3-3.7-2.8-6.3c0.3-3.7,2-7.2,5-10.3c3.8-4,8.5-7.1,12.9-10.1
		c0.6-0.4,1.2-0.8,1.8-1.2c6.2-4.1,9.6-9,10.8-15.4c0.5-2.6,1.4-5.5,2.6-8.8c2.7-7,4.9-12.3,7.2-17.2l0.3-0.6
		c2.7-6,5.6-12.1,8.8-17.9c2.7-4.8,5.8-11.4,5.1-19.4c-0.1-0.6-0.1-1.2-0.1-1.8h-1c0,0.6,0,1.2,0.1,1.9
		C369.8,7.9,368.3,13.7,364.4,20.7z"/>
	<path class="st0" d="M500,0h-1c0.3,0.4,0.7,0.7,1,1.1V0z"/>
	<path class="st0" d="M500,17.4v-1.9c-0.2-0.3-0.3-0.6-0.5-0.9c-3.1-5.8-5.9-10.5-8.8-14.7h-1.2c3,4.2,5.8,9.1,9.1,15.1
		C499.1,15.9,499.5,16.7,500,17.4z"/>
	<path class="st0" d="M165.7,162.3c4.8,4.2,11,5.3,15.3,5.6c0.9,0.1,2,0.1,3.2,0.2c6,0.3,17.2,0.9,18.4,2.2c0,0,0,0,0,0
		c7.8,7.4,16.6,14.4,28.2,15.6c0.6,0.1,1.4,0.1,2.2,0.1c1.4,0,2.9-0.2,4.2-0.9c4.7-2.3,5.3-8.4,5-13.2c-0.9-14.4-6-28.5-14.4-39.8
		c-4.6-6.3-9.3-9.8-14.4-10.6c-3.8-0.6-7.7,0.3-11.7,1.3c-9.1,2.3-18.7,4.8-28.4,6.2l-0.3,0c-4.4,0.7-9.4,1.4-12.7,4.7
		c-3.6,3.7-4.4,10-2.1,16.9C160.1,155.7,162.5,159.6,165.7,162.3z M161.2,134.5c3-3.1,7.7-3.8,12.1-4.5l0.3,0
		c9.7-1.4,19.4-3.9,28.5-6.2c4-1.1,7.7-1.9,11.3-1.3c4.8,0.8,9.3,4.1,13.7,10.2c8.3,11.2,13.3,25.1,14.2,39.3
		c0.3,4.5-0.3,10.3-4.5,12.3c-1.9,0.9-4.3,0.8-5.9,0.6c-11.3-1.2-20-8.1-27.7-15.3c-1.4-1.4-9.4-1.9-19-2.4
		c-1.2-0.1-2.3-0.1-3.2-0.2c-4.2-0.3-10.1-1.4-14.7-5.4c-3.1-2.6-5.4-6.4-7-11.2C158.5,148,156.2,139.6,161.2,134.5z"/>
	<path class="st0" d="M388.1,319.9c0.7,0.5,1.6,1.3,3,1.8c0.8,0.3,1.6,0.4,2.4,0.4c1.7,0,3.2-0.5,4.6-0.9c1.6-0.5,2.7-1.1,4-1.8
		l0.3-0.2c1.8-1,4.5-2.6,7.1-5l0,0c0.9-0.8,2.1-1.9,3.3-3.6c1.4-1.9,2-3.3,2.8-5.2c0.3-0.8,0.7-1.7,1.2-2.8c1.6-3.6,2.5-5.5,3.9-7.2
		c1-1.2,3.1-3,9.3-5.3c5.8-2.1,11.7-3.3,19.1-4.8l0.6-0.1c1.1-0.2,4.6-1,8.3-3.1l0.2-0.1c1.2-0.7,1.9-1.1,2.7-2
		c2.6-2.7,3-6.3,3.3-8.5l0-0.2c0.2-1.9,0.1-3.4,0-3.9c-0.7-7.3-4.7-22.9-5.3-25c0,0,0-0.1,0-0.1c-4.7-9.3-10.1-17.9-16-25.7
		c-2.2-2.9-5.9-7.3-11.9-10.7c-6.9-4-13.6-3.9-19.6,0.2c-7.9,5.5-8.1,16.8-8.1,21l0,0.1c-0.1,5.2,1,10.4,3.1,15.4
		c1,4.2,3.1,14.9,2.4,24.8c-0.4,4.6-1.3,8.1-1.6,9.3l-0.1,0.2c-1,3.5-1.7,5.7-3.4,8.1c-2.3,3.2-5.1,5-9,7.3l-0.1,0
		c-1.4,0.8-2.4,1.4-3.3,1.8c-1.5,0.8-2.7,1.4-4.6,2.9c-2.4,1.9-4.2,3.3-4.9,5.7c-0.8,2.4-0.2,4.4,0.8,7.7
		C383.2,312.8,384.4,317,388.1,319.9z M382.7,303.2c0.7-2.1,2.2-3.4,4.6-5.2c1.9-1.5,3-2.1,4.5-2.8c0.9-0.5,2-1,3.3-1.9l0.1,0
		c3.8-2.3,6.9-4.2,9.3-7.6c1.8-2.5,2.5-4.9,3.6-8.4l0.1-0.2c0.3-1.2,1.3-4.7,1.6-9.4c0.8-9.7-1.2-19.9-2.4-25.1c0,0,0-0.1,0-0.1
		c-2.1-4.9-3.1-10-3.1-15.1l0-0.1c0-4.1,0.2-15,7.7-20.2c2.8-2,5.9-3,9.1-3c3.1,0,6.3,0.9,9.5,2.8c5.9,3.4,9.5,7.6,11.7,10.5
		c5.9,7.7,11.2,16.3,15.9,25.5c0.6,2.3,4.6,17.6,5.2,24.8c0.1,0.5,0.2,1.9,0,3.7l0,0.2c-0.2,2.1-0.6,5.5-3,8
		c-0.7,0.8-1.3,1.1-2.5,1.8l-0.2,0.1c-3.6,2.1-6.9,2.8-8,3l-0.6,0.1c-7.5,1.5-13.4,2.7-19.2,4.8c-6.4,2.4-8.6,4.3-9.7,5.6
		c-1.5,1.8-2.4,3.8-4.1,7.5c-0.5,1.1-0.9,2-1.2,2.8c-0.8,1.9-1.3,3.2-2.6,5c-1.2,1.6-2.2,2.6-3.1,3.4l0,0c-2.5,2.3-5.1,3.9-6.9,4.8
		l-0.3,0.2c-1.3,0.7-2.4,1.2-3.9,1.7c-1.9,0.6-4.1,1.3-6.4,0.5c-1.3-0.4-2.1-1.1-2.7-1.6c-3.5-2.7-4.6-6.6-5.3-8.9
		C382.5,307.1,382,305.3,382.7,303.2z"/>
	<path class="st0" d="M318.2,214.7c-0.5-1.5-1.1-2.4-2-2.8c-0.9-0.4-2-0.2-3.5,0.6c-1.8,1-3.6,2-5.4,3c-2.2,1.3-4.5,2.6-6.9,3.8
		c-2.7,1.5-5.6,2.8-8.3,4.1c-0.6,0.3-1.3,0.6-1.9,0.9c-5.9,2.8-6.3,7.6-6.7,12.6c-0.1,1.5-0.3,3-0.5,4.6c-0.4,2.2-1,4.4-1.5,6.5
		c-0.6,2.1-1.2,4.3-1.6,6.5c-0.9,5.4-0.4,9.9,1.7,13.3c1.9,3.1,4.3,4.7,6.9,4.8c0.1,0,0.2,0,0.4,0c6.5,0,13.3-8.7,16.7-13
		c3.9-4.9,7.4-11,9.9-17.1C318.4,235.5,321.2,224.8,318.2,214.7z M314.6,242.3L314.6,242.3c-2.4,6-5.9,12-9.7,16.8
		c-3,3.8-9.8,12.6-15.9,12.6c-0.1,0-0.2,0-0.3,0c-2.3-0.1-4.4-1.6-6.2-4.4c-2-3.2-2.5-7.4-1.6-12.6c0.4-2.2,1-4.3,1.5-6.5
		c0.6-2.1,1.2-4.3,1.6-6.5c0.3-1.6,0.4-3.1,0.5-4.7c0.4-5,0.8-9.3,6.2-11.9c0.6-0.3,1.3-0.6,1.9-0.9c2.8-1.3,5.6-2.6,8.4-4.1
		c2.3-1.2,4.6-2.6,6.9-3.9c1.7-1,3.6-2,5.3-3c0.8-0.4,1.5-0.6,2-0.6c0.2,0,0.4,0,0.6,0.1c0.6,0.2,1.1,1,1.4,2.2
		C320.2,224.8,317.4,235.3,314.6,242.3z"/>
	<path class="st0" d="M488,498.4c-3.1-5.2-4.6-7.8-5-8.8c-3-7.9-2.3-15.9-1.8-21.8l0-0.1c0-0.4,0.1-0.8,0.1-1.2
		c0.3-3.1,0.7-7.3-0.2-12.5c-0.3-2-0.8-3.5-1.5-5c-2.2-4.5-5.7-6.8-6.9-7.6c-1.9-1.2-2.9-1.4-15.5-4c-5.2-1-7-1.4-9.4-2.6
		c-3-1.4-5.1-3.2-6.8-4.7c-6.2-5.8-10.9-13-16.8-23.3c-1.9-3.5-3.9-7-7.8-14.3c-8.2-15.3-9.9-18.8-11.2-23.8
		c-1.5-5.4-2.8-10.6-1-16.6c1.7-5.6,5.3-9.1,7.2-11c2.5-2.4,4.1-3.2,12.9-7.8l2.3-1.2c11.5-6,16.8-8.8,17.7-9.3l0.5-0.3
		c2.3-1.4,6.5-4,12.6-6.6l1.2-0.5c0.5-0.2,0.9-0.4,1.2-0.5c5.7-2.2,10.8-6.3,16.6-11c4.4-3.5,8.9-7.1,14.2-10.5l0.1-0.1
		c3.4-2.1,6.3-3.9,9.1-5.3v-1.1c-3,1.4-6,3.3-9.6,5.5l-0.1,0.1c-5.4,3.4-10,7-14.3,10.5c-5.8,4.7-10.8,8.7-16.4,10.9
		c-0.2,0.1-0.6,0.3-1.2,0.5l-1.2,0.5c-6.2,2.6-10.4,5.2-12.7,6.7l-0.5,0.3c-0.8,0.5-6.4,3.4-17.6,9.2l-2.3,1.2
		c-8.8,4.5-10.6,5.5-13.1,8c-1.8,1.8-5.7,5.6-7.5,11.4c-1.9,6.3-0.5,11.6,1,17.2c1.3,5,3,8.6,11.3,24c3.9,7.3,5.9,10.9,7.8,14.3
		c6,10.5,10.7,17.7,17,23.6c1.7,1.6,3.9,3.4,7,4.9c2.6,1.2,4.4,1.6,9.7,2.7c12.2,2.5,13.4,2.7,15.2,3.9c1.1,0.7,4.5,2.9,6.5,7.2
		c0.7,1.4,1.1,2.8,1.4,4.8c0.9,5.1,0.5,9.2,0.2,12.2c0,0.4-0.1,0.9-0.1,1.2l0,0.1c-0.5,6-1.3,14.1,1.8,22.2c0.4,1,1.9,3.6,5.1,8.9
		l0.7,1.1c0.4,0.7,0.8,1.3,1.2,2h1.1c-0.5-0.8-0.9-1.6-1.5-2.4L488,498.4z"/>
	<path class="st0" d="M417.9,267.5c0.2,2.6,0.5,5.2,2.3,7.6c2.2,2.8,5.2,3.8,6.8,4.3c2.1,0.7,4.5,1,6.9,1c5.1,0,10.6-1.6,14.7-5.5
		c2.1-1.9,3.8-4.5,4.9-7.3c1.4-3.5,3.9-13.1-3.6-25.6c-3-7.2-7.4-13.2-11.5-15.7c-3.2-1.9-6.2-2.2-6.3-2.2c-4.2-0.6-7.5,1.5-9.7,6.4
		c-0.4,0.9-0.9,1.9-1.2,2.9c-1.3,3.5-2.3,6.5-2.9,8.8c-1.9,7.2-1.4,14.2-0.5,24.8L417.9,267.5z M419.3,242.6
		c0.6-2.3,1.6-5.2,2.9-8.7c0.3-1,0.8-1.9,1.2-2.9c1.9-4,4.3-6,7.5-6c0.4,0,0.8,0,1.3,0.1c0,0,2.9,0.3,6,2.1c3,1.8,7.5,6.8,11.1,15.3
		c0,0,0,0,0,0.1c7.4,12.1,5,21.3,3.6,24.7c-1.1,2.6-2.7,5.1-4.7,6.9c-6,5.6-14.7,6.2-20.7,4.2c-1.5-0.5-4.4-1.4-6.4-3.9
		c-1.7-2.2-2-4.5-2.1-7.1l0-0.4C418,256.6,417.4,249.7,419.3,242.6z"/>
	<path class="st0" d="M165.1,88.1c7.5,4.8,15.7,7.3,23.7,7.3c0.7,0,1.5,0,2.2-0.1c1.9-0.1,4.4-0.4,6.6-1.5
		c8.2-4,14.4-16.3,12.7-25.2c-0.8-4.7-5.2-14.1-11.4-14.4c0,0,0,0,0,0l-0.5,0c-1.6,0-3.1,0.6-4.6,1.1c-0.3,0.1-0.6,0.2-0.8,0.3
		c-6.9,2.2-14.5,2.1-20.9,1.7c-6.5-0.4-12.7-0.4-18.2,3.4c-1.3,0.9-3.2,2.2-4,4.5c-0.7,2.1-0.4,4.3,0.9,7.5
		C151.9,75.3,155.5,82.1,165.1,88.1z M150.7,65.5c0.7-2,2.4-3.2,3.6-4.1c3.9-2.7,8.3-3.4,12.9-3.4c1.5,0,3.1,0.1,4.7,0.2
		c6.6,0.4,14.2,0.5,21.3-1.8c0.3-0.1,0.6-0.2,0.9-0.3c1.4-0.5,2.8-1,4.3-1h0.5c5.4,0.3,9.6,8.9,10.5,13.7
		c1.6,8.6-4.3,20.3-12.2,24.2c-2.1,1-4.4,1.3-6.2,1.4c-8.5,0.5-17.3-1.9-25.4-7c-9.3-5.8-12.9-12.4-14-15
		C150.4,69.4,150.1,67.3,150.7,65.5z"/>
	<path class="st0" d="M316.6,259.7c1-1.9,2-3.6,2.9-5.4c6.8-12.2,12.5-25.4,17.4-40.3c0.8-2.4,1.5-4.7,1.7-8.1
		c0.5-8.9-3.4-15.6-4.7-17.8c-1.8-3.1-3.9-5.7-6.3-7.8c-1.7-1.5-3.5-3-6.1-3.9c-5.1-1.7-9.7,0.1-11.4,0.7c-2.8,1-5.3,2.6-7.3,4.6
		c-4,4-5.2,9.3-6.5,14.3c-1.3,5.3-2.5,10.3-6.5,14.1c-3.9,3.7-8.9,6.2-13.3,8.5c-4.4,2.3-8.8,4.3-13.4,4.5c-4,0.1-7.9-1.3-11.6-2.6
		c-1.2-0.4-2.4-0.9-3.6-1.3c-7.1-2.3-13.7-1.4-19.2,2.6c-2.5,1.8-4.4,3.9-8.7,11.4c-2.2,3.7-7.4,6.9-15.7,9.4
		c-3,0.9-6.5,0.9-9.8,0.8c-2,0-4-0.1-6,0.1c-2.2,0.2-5.1,1-6.7,3.4c-1,1.6-1.2,3.6-1.3,5.3c-0.4,22.2,17.2,30.4,34.3,38.3
		c2,0.9,4.1,1.9,6.1,2.9c1.2,0.6,2.1,1,2.8,1.4c2.2,1.1,2.9,1.5,4.1,1.5c0.1,0,0.1,0,0.2,0c5.5-0.1,9.5-5.7,10.6-7.5l0.1-0.1
		c1.1-1.8,1.5-3.4,2.2-6.8c1.5-6.9,2.3-10.7,2.7-14.4c0.8-7,3.3-15.3,7.6-24.9c1.7-4.5,5.5-10,9.7-11.3c2.1-0.6,4.2-0.2,6.1,1.2
		c2.2,1.6,3.7,4,5.2,6.3l0.1,0.1c0.6,1,1.2,1.9,1.4,2.9c0,0.1,0,0.2,0,0.2c0,0,0,0.1,0,0.1c0,0,0,0,0,0c0.2,1.6-0.6,3.2-1.3,4.7
		l-0.2,0.4c-2.8,6.1-3.8,13.3-2.8,20.2c1,7.3,4.3,13.7,9.1,18.1c1.9,1.7,5.7,4.6,10.2,4.1c2.3-0.3,4.5-1.4,5.9-2.3
		C304.9,281.3,310.8,270.3,316.6,259.7z M294.1,286.7c-1.3,0.8-3.4,1.9-5.5,2.1c-4.1,0.4-7.7-2.2-9.5-3.8
		c-7.9-7.1-12.7-22.5-6.1-37.1l0.2-0.4c0.8-1.6,1.6-3.3,1.4-5.2c0-0.1,0-0.2,0-0.3c0,0,0-0.1,0-0.1c0,0,0-0.1,0-0.1
		c-0.2-1.2-0.8-2.2-1.5-3.3l0-0.1c-1.5-2.4-3.1-4.9-5.5-6.6c-2.2-1.6-4.6-2.1-7-1.4c-4.6,1.4-8.5,6.9-10.4,11.8
		c-4.3,9.6-6.9,18-7.7,25.1c-0.4,3.7-1.2,7.4-2.7,14.3c-0.7,3.4-1.1,4.8-2.1,6.5l-0.1,0.1c-1,1.6-4.7,6.9-9.8,7
		c-1.1,0-1.6-0.2-3.9-1.4c-0.7-0.4-1.7-0.8-2.8-1.4c-2-1-4.1-1.9-6.1-2.9c-16.8-7.8-34.1-15.8-33.7-37.4c0-1.6,0.2-3.5,1.1-4.8
		c1.4-2.1,4-2.7,6-2.9c1.1-0.1,2.3-0.1,3.5-0.1c0.8,0,1.6,0,2.4,0c3.4,0.1,6.9,0.1,10.1-0.9c8.6-2.7,13.9-5.9,16.2-9.9
		c4.3-7.4,6.1-9.4,8.5-11.1c5.2-3.8,11.6-4.6,18.3-2.4c1.2,0.4,2.4,0.8,3.6,1.2c3.8,1.4,7.8,2.8,12,2.7c4.8-0.1,9.2-2.3,13.8-4.6
		c4.5-2.3,9.5-4.8,13.5-8.6c4.2-4,5.5-9.4,6.7-14.6c1.2-4.9,2.4-10.1,6.2-13.9c1.9-1.9,4.3-3.4,7-4.4c1.8-0.7,6-2.3,10.8-0.7
		c2.5,0.8,4.1,2.2,5.8,3.7c2.3,2,4.3,4.5,6.1,7.5c1.3,2.2,5.1,8.7,4.6,17.3c-0.2,3.2-0.9,5.5-1.6,7.8c-4.8,14.9-10.5,28-17.3,40.2
		c-1,1.8-2,3.6-2.9,5.4C310,269.8,304.2,280.6,294.1,286.7z"/>
	<path class="st0" d="M397.4,46.5c-4.6-0.2-9.2-0.3-13.6-0.4c-1.5,0-3-0.1-4.5-0.1c-0.1,0-0.1,0-0.2,0c-0.1,0-0.2,0-0.2,0
		c-0.8,0.2-1.5,0.3-2.3,0.5c-0.8,0.2-1.5,0.3-2.3,0.5c-7.4,1.7-12,7.2-12.7,15c-0.4,4.4,1.4,8.5,5.1,11.8c4.3,3.9,9.8,5.8,17.3,6
		c0.6,0,1.3,0,2.1,0c2.4,0,5.4-0.1,8.3-0.8c6.7-1.5,10.9-6.1,13-14.1c0.9-3.4,1.1-6.9,0.5-10.2C407.1,50.1,402.8,46.7,397.4,46.5z
		 M406.4,64.7c-2,7.6-6,12-12.3,13.4c-3.7,0.8-7.5,0.8-10.2,0.7c-7.3-0.2-12.5-2.1-16.7-5.8c-3.5-3.1-5.2-7-4.8-11
		c0.6-7.4,5-12.5,11.9-14.1c0.8-0.2,1.5-0.3,2.3-0.5c0.8-0.2,1.5-0.3,2.3-0.5c0,0,0,0,0,0c0,0,0.1,0,0.1,0c1.5,0,3,0.1,4.5,0.1
		c4.5,0.1,9.1,0.2,13.6,0.4c5,0.2,8.9,3.3,9.6,7.5C407.5,58.1,407.3,61.5,406.4,64.7z"/>
	<path class="st0" d="M239.5,1.1c-2.4,0.4-4.8,0-7.2-1.1h-2c2.4,1.4,4.9,2.2,7.4,2.2c0.7,0,1.3-0.1,2-0.2c1.8-0.3,3.5-1,5.1-2h-1.9
		C241.8,0.5,240.7,0.9,239.5,1.1z"/>
	<path class="st0" d="M392.5,56.8c-2.9-1.5-6-1.7-8.6-1.7c0,0-0.1,0-0.1,0c-0.1,0-0.2,0-0.2,0c-1.2,0.3-2.4,0.7-3.6,0.9
		c-3.6,0.8-5.8,2.8-6.5,5.9c-0.7,3.1,0.6,6,3.7,8.3c1.8,1.4,4.6,2.2,7.4,2.2c1.2,0,2.5-0.1,3.7-0.4c3.6-0.9,6.2-2.9,7.5-5.7
		C397.8,62,396.7,59,392.5,56.8z M395,65.9c-1.2,2.5-3.6,4.4-6.9,5.2c-3.7,0.9-7.9,0.3-10.3-1.6c-2.8-2.1-3.9-4.6-3.4-7.3
		c0.6-2.7,2.6-4.4,5.8-5.1c1.2-0.3,2.4-0.6,3.6-1c0,0,0.1,0,0.1,0c2.5,0,5.4,0.2,8.1,1.6C395.8,59.6,396.7,62.1,395,65.9z"/>
	<path class="st0" d="M487.5,149c-3.5-0.7-7.2-1.5-9.4-4.4c-3-3.9-5.1-7.1-6.4-10.2c-3.9-9.2-5.7-18.9-7-27.1
		c-0.8-5.6-0.6-11.5,0.9-18.5c0.6-2.9,0.6-5.9,0.5-8.2c-0.1-3.3-1.6-6.2-4.2-8.4c-3.8-3.1-8.3-5.5-13.5-7c-0.8-0.2-1.7-0.3-2.5-0.3
		c-0.4,0-0.8,0-1.2,0c-0.1,0-0.2,0-0.3,0.1c0,0,0,0,0,0c0,0-0.1,0-0.1,0c-5.5,1.6-7.9,6-10,10.8c-2.2,5-2.8,10.5-3.4,15.4
		c-1.3,12.1-10.8,16.6-18.5,16.9c-4.8,0.1-9.1-1.5-13.3-3.2c-1.2-0.5-2.5-1-3.7-1.4c-0.4-0.2-0.9-0.3-1.3-0.5
		c-2.6-0.9-5.3-1.9-8.1-2.1c-6.1-0.5-10.4,2.3-12.9,8.3l-0.2,0.4c-1.5,3.7-3,7.4-3.9,11.3c-1.4,6-4.6,11.3-10.2,16.9
		c-4,4-7,8-9.2,12.3c-3.3,6.4-3.1,12.6,0.7,18.9c3.3,5.5,5.7,11.4,7.4,18.3c0.9,3.5,2.4,6.2,4.6,8.4c3.2,3,7.6,3.4,11.3,1
		c1.7-1.2,3.2-2.4,4.4-3.6c8.7-9.1,19.5-15.5,27.8-20c7.3-4,13.2-8.6,17.9-14.1c4.4-5,9.4-8.3,14.9-9.7c4.2-1.1,8.2,0,12.4,1.2
		l0.7,0.2c2.9,0.8,5.8,1.6,8.6,2.3c1.6,0.4,3.2,0.8,4.8,1.3c0.4,0.1,0.8,0.2,1.3,0.3c0.4,0.1,0.8,0.1,1.1,0.2c2.4,0.6,4,1.8,4.6,3.4
		c0.6,1.6,0.2,3.4-1.1,5.4c-1.8,2.7-3.9,5.2-6,7.7c-0.4,0.4-0.7,0.9-1.1,1.3c-3,3.7-6,7.7-7,12.9c-1,4.9-0.9,9.8,0.5,15
		c1.3,5.1,3.3,11.8,6.9,18.1c2.7,4.7,6.5,8.1,11.3,10.3c6.8,3.1,13.8,5.4,19.8,7.2c1.4,0.4,2.9,0.7,4.4,0.9v-1
		c-1.4-0.2-2.8-0.4-4.1-0.8c-6-1.8-13-4.1-19.7-7.2c-4.7-2.1-8.3-5.4-10.9-9.9c-2.7-4.9-4.8-10.4-6.8-17.8
		c-1.3-5.1-1.5-9.8-0.5-14.6c1-5,3.9-8.9,6.8-12.4c0.4-0.4,0.7-0.9,1.1-1.3c2.1-2.5,4.2-5.1,6-7.8c1.5-2.2,2-4.4,1.2-6.3
		c-0.7-1.9-2.6-3.3-5.3-4c-0.4-0.1-0.8-0.2-1.2-0.2c-0.4-0.1-0.8-0.1-1.2-0.2c-1.6-0.4-3.2-0.9-4.8-1.3c-2.8-0.7-5.7-1.5-8.6-2.3
		l-0.7-0.2c-2.9-0.8-6-1.7-9.1-1.7c-1.2,0-2.5,0.1-3.8,0.5c-5.7,1.5-10.9,4.8-15.4,10c-4.7,5.4-10.5,9.9-17.7,13.8
		c-8.4,4.5-19.2,10.9-28.1,20.1c-1.2,1.2-2.6,2.4-4.2,3.5c-3.3,2.2-7.3,1.9-10.2-0.9c-2.1-2-3.5-4.6-4.4-7.9
		c-1.7-6.9-4.1-13-7.5-18.5c-3.6-6-3.8-11.8-0.7-17.9c2.2-4.2,5.1-8.2,9-12.1c5.8-5.7,9.1-11.2,10.5-17.4c0.9-3.8,2.4-7.6,3.8-11.2
		l0.2-0.4c2.3-5.6,6.2-8.2,11.9-7.7c2.6,0.2,5.3,1.1,7.8,2c0.4,0.2,0.9,0.3,1.3,0.5c1.2,0.4,2.5,0.9,3.7,1.4
		c4.3,1.7,8.7,3.4,13.7,3.2c8.1-0.3,18-5.1,19.4-17.7c0.5-4.8,1.1-10.3,3.3-15.1c2.1-4.5,4.4-8.8,9.4-10.2c0.1,0,0.1,0,0.2-0.1
		c0.4,0,0.8,0,1.2,0c0.8,0,1.6,0,2.2,0.2c5.1,1.5,9.5,3.8,13.2,6.8c2.5,2,3.8,4.7,3.9,7.7c0.1,2.2,0.1,5.2-0.5,8
		c-1.5,7.1-1.8,13.1-0.9,18.8c1.3,8.3,3.1,17.9,7.1,27.3c1.4,3.2,3.4,6.5,6.5,10.4c2.4,3.1,6.4,4,10,4.7l0.2,0.1
		c4.4,1,8.6,2.2,12.4,3.8v-1c-3.8-1.5-7.9-2.8-12.2-3.7L487.5,149z"/>
	<path class="st0" d="M256.8,72.3c-0.3,0-0.6,0-0.8,0c0,0-0.1,0-0.1,0c-0.1,0-0.2,0-0.3,0c-0.2,0.1-0.5,0.2-0.7,0.3
		c-0.7,0.3-1.4,0.5-2,1c-1.3,1-1.9,2.4-1.6,3.9c0.3,1.8,1.5,3.3,3.4,4c0.6,0.2,1.3,0.4,1.9,0.4c1.4,0,2.8-0.6,4.1-1.9
		c1.6-1.5,1.9-3.3,1.1-5.3C260.6,72.2,258.6,72.3,256.8,72.3z M259.9,79.3c-1.5,1.5-3.2,2-4.9,1.3c-1.6-0.6-2.6-1.8-2.8-3.3
		c-0.2-1.2,0.3-2.3,1.3-3c0.5-0.4,1.1-0.6,1.8-0.9c0.2-0.1,0.5-0.2,0.7-0.3c0,0,0,0,0.1,0c0.3,0,0.6,0,0.9,0c1.8,0,3.2,0,4,1.9
		C261.5,76.7,261.2,78.1,259.9,79.3z"/>
	<path class="st0" d="M494.6,73.2c-0.1,0-0.1,0-0.2,0c-4.4,0.8-7.7,3.4-10.8,8.3c-3.3,5.2-5.2,9.8-6,14.5
		c-1.4,7.7-0.2,14.9,3.7,21.8c2.1,3.9,5.4,6.8,8.5,9.7c0.4,0.3,0.7,0.7,1.1,1c3.4,3.1,6.4,5.9,9.2,9v-1.4c-2.6-2.8-5.4-5.4-8.5-8.2
		c-0.4-0.3-0.7-0.7-1.1-1c-3.2-2.9-6.2-5.7-8.3-9.4c-3.7-6.7-4.9-13.7-3.6-21.2c0.8-4.5,2.7-9,5.9-14.2c3-4.7,6.1-7.1,10.2-7.9
		c0,0,0.1,0,0.1,0c0,0,0,0,0.1,0c1.8,0,3.6,0.2,5.2,0.7v-1c-1.7-0.4-3.4-0.6-5.2-0.6C494.7,73.2,494.6,73.2,494.6,73.2z"/>
	<path class="st0" d="M497.9,83.7c-0.1,0-0.1,0-0.2,0c-5.7,1-9.6,4-11.9,9.1c-3.4,7.4-2.5,14.4,2.5,20.7c2.5,3.1,5.7,5.8,8.1,7.7
		c1.2,1,2.4,2,3.4,3.2v-1.4c-0.9-0.9-1.8-1.7-2.8-2.5c-2.4-1.9-5.6-4.5-8-7.6c-4.8-6-5.6-12.7-2.4-19.8c2.2-4.8,5.8-7.6,11.2-8.6
		c0,0,0,0,0,0c0,0,0,0,0.1,0c0.7,0,1.3,0.1,2,0.2v-1c-0.6-0.1-1.3-0.2-1.9-0.2C498,83.7,498,83.7,497.9,83.7z"/>
	<path class="st0" d="M348.8,86.1c-0.1,0-0.2,0-0.2,0c-0.1,0-0.2,0-0.3,0c-0.4,0.1-0.8,0.2-1.1,0.3c-3.1,0.7-6.3,1.4-9.1,3.4
		c-0.2,0.2-0.5,0.3-0.7,0.5c-1.3,0.9-2.6,1.8-3.6,3c-1.5,1.7-2.2,3.6-2,5.6c0.2,2,1.4,3.8,3.3,5.1c2.5,1.7,5.3,3.2,8.6,3.2
		c1.1,0,2.2-0.2,3.3-0.6c1.9-0.6,3.7-1.9,4.7-3.3c2.3-3,3.2-6.8,2.8-11.8C353.9,87.7,352.5,86.8,348.8,86.1z M350.8,102.7
		c-0.9,1.2-2.6,2.4-4.3,2.9c-4.2,1.5-7.9-0.5-11-2.6c-1.6-1.1-2.6-2.7-2.8-4.4c-0.2-1.7,0.4-3.4,1.7-4.8c1-1.1,2.2-2,3.5-2.8
		c0.2-0.2,0.5-0.3,0.7-0.5c2.6-1.9,5.6-2.5,8.7-3.2c0.4-0.1,0.8-0.2,1.1-0.3c0,0,0,0,0,0c0,0,0,0,0.1,0c3.6,0.6,4.5,1.4,4.8,4.6
		C353.9,96.3,353,100,350.8,102.7z"/>
	<path class="st0" d="M455.7,110.3c-0.8-3.3-1.5-6.7-2.1-10c-0.3-1.4-0.5-2.7-0.8-4.1c-0.6-2.9-1.2-5.9-4.6-7.3
		c-0.2-0.1-0.3,0-0.5,0.1c0,0-0.1,0-0.1,0c-3.6,0.9-4.8,4-5.8,6.6l-0.2,0.6c-3.5,9.2-10.1,15.3-19.6,18.3l-0.9,0.3
		c-3.5,1.1-7.1,2.2-10.7,2.7c-4.3,0.6-8.4-1.2-11.9-3c-0.7-0.3-1.4-0.7-2.1-1c-2.3-1.1-4.6-2.3-7-3.2c-1.9-0.7-3.8-0.6-5.5,0.3
		c-1.9,0.9-3.3,2.7-3.9,4.9c-1,3.5-0.9,7.1,0.3,11c0.4,1.1,0.7,2.3,1.1,3.4c0.8,2.3,1.6,4.7,2.2,7.1c0.6,2.5,0.8,5.1,1,7.7l0,0.1
		c0.1,0.7,0.1,1.4,0.1,2.1c0.2,3.4,0.4,7,2.1,10.2c1,2,2.7,3.4,5.2,4.3c1.7,0.7,3.5,0.9,5.1,0.9c2.6,0,5.1-0.6,7.3-1.2
		c5.9-1.6,10.5-5.5,13.8-8.7c6.1-5.8,13.1-10.9,20.9-15c3.6-1.9,7.6-2.5,11.6-3.1c6.4-1,6.9-4.2,7.3-9.2c0.3-4.8-0.9-9.4-2-13.9
		L455.7,110.3z M457,125.2c-0.3,5-0.8,7.4-6.5,8.3c-4,0.6-8.1,1.2-11.9,3.2c-7.8,4.1-14.9,9.2-21.1,15.1c-3.3,3.1-7.7,6.9-13.4,8.4
		c-3.6,1-7.7,1.9-11.9,0.3c-2.3-0.9-3.8-2.1-4.7-3.9c-1.6-3.1-1.8-6.4-2-9.8c0-0.7-0.1-1.4-0.1-2.2l0-0.1c-0.2-2.6-0.4-5.3-1-7.8
		c-0.6-2.4-1.4-4.8-2.2-7.1c-0.4-1.1-0.8-2.3-1.1-3.4c-1.2-3.7-1.2-7.1-0.3-10.5c0.6-2,1.8-3.5,3.4-4.3c0.8-0.4,1.7-0.6,2.7-0.6
		c0.7,0,1.4,0.1,2.1,0.4c2.4,0.9,4.7,2,6.9,3.2c0.7,0.4,1.4,0.7,2.1,1.1c3.6,1.8,7.9,3.7,12.5,3.1c3.7-0.5,7.4-1.6,10.9-2.7l0.9-0.3
		c9.8-3.1,16.5-9.4,20.2-18.9l0.2-0.6c1-2.7,2-5.3,5.1-6.1c0,0,0.1,0,0.1-0.1c2.8,1.2,3.3,3.8,3.9,6.5c0.3,1.4,0.5,2.7,0.8,4.1
		c0.6,3.3,1.3,6.7,2.1,10l0.3,1.1C456.1,116,457.3,120.6,457,125.2z"/>
	<path class="st0" d="M499.8,95.2c-0.1,0-0.2,0-0.3,0c-2.7,1.2-4.5,3.1-4.9,5.4c-0.4,2.2,0.5,4.6,2.7,6.6c0.9,0.8,1.8,1.6,2.7,2.3
		v-1.2c-0.7-0.5-1.4-1.1-2-1.7c-1.9-1.8-2.7-3.8-2.4-5.7c0.4-2,1.9-3.6,4.3-4.7c0,0,0,0,0,0c0,0,0,0,0,0v-0.9c0,0,0,0,0,0
		C499.9,95.2,499.9,95.2,499.8,95.2z"/>
	<path class="st0" d="M386.9,1.8c1.4,1.6,2.9,3.3,4.3,4.9c3.3,4,5,8.9,5,14.3c0,4.3-0.6,8.6-4.9,10.5c-2.7,1.2-5.9,1.7-8.4,2.2
		c-0.6,0.1-1.2,0.2-1.8,0.3c-5.1,0.8-10.3,1.7-14.7,5.1c-3.9,3.1-7,7.2-9.9,12.8c-2.8,5.5-4,11.5-3.6,17.9c0.2,2.9,0.8,6,1.7,9.4
		c0.7,2.6,2.5,4.1,4.9,4.2c1.2,0.1,2.3,0.3,3.5,0.5c1,0.2,2.1,0.4,3.2,0.4c1.2,0.1,2.4,0.2,3.6,0.3c4.7,0.4,9.6,0.9,14.4,1.1
		c2.8,0.1,5.7,0.2,8.7,0.2c2.5,0,5.1-0.1,7.6-0.3c5.5-0.4,9.3-3.9,11.6-10.5c2.3-6.6,3.6-13.5,4.8-21.1c0.5-2.9,1-5.6,1.9-8.3
		c1.3-3.8,3.9-6.7,7.8-8.9c6.5-3.5,12.2-5.5,17.7-6.1c6-0.6,12,0,17.7,1.8l0.4,0.1c2.7,0.9,5.5,1.8,8.7,0.9c2.2-0.6,3.7-1.8,4.6-3.6
		c3.1-6.4,3.3-12.8,0.4-19.2c-1.3-3-2.9-6-4.4-8.9c-0.3-0.6-0.7-1.3-1-1.9h-1.1c0.4,0.8,0.8,1.6,1.2,2.4c1.5,2.9,3.1,5.8,4.4,8.8
		c2.7,6.1,2.6,12.3-0.4,18.4c-0.8,1.6-2.1,2.6-4,3.2c-2.8,0.8-5.4,0-8.1-0.9l-0.4-0.1c-5.8-1.9-11.9-2.5-18.1-1.8
		c-5.7,0.6-11.4,2.6-18.1,6.2c-4.1,2.2-6.8,5.4-8.2,9.4c-1,2.7-1.5,5.5-2,8.4c-1.3,7.6-2.5,14.4-4.8,20.9c-2.2,6.3-5.7,9.5-10.8,9.9
		c-5.4,0.4-11,0.3-16.2,0c-4.8-0.2-9.6-0.6-14.3-1.1c-1.2-0.1-2.4-0.2-3.6-0.3c-1-0.1-2.1-0.3-3.1-0.4c-1.2-0.2-2.4-0.4-3.6-0.5
		c-2.5-0.1-3.6-2-4-3.5c-0.9-3.4-1.4-6.4-1.7-9.2c-0.4-6.2,0.7-12.1,3.5-17.4c2.8-5.5,5.9-9.5,9.7-12.5c4.2-3.3,9.1-4.1,14.2-4.9
		c0.6-0.1,1.2-0.2,1.8-0.3c2.6-0.4,5.8-1,8.7-2.2c2.7-1.2,5.4-3.5,5.4-11.3c0-5.6-1.8-10.7-5.3-14.9c-1.4-1.7-2.9-3.4-4.4-5l-0.9-1
		c0-0.1-0.1-0.1-0.1-0.2h-1.3c0.2,0.3,0.4,0.5,0.7,0.8L386.9,1.8z"/>
	<path class="st0" d="M290.8,144c0.5,0.4,1.1,0.6,1.6,0.6c1,0,2-0.5,2.7-1.3c0.9-0.8,1.2-2.2,0.9-3.5c-0.3-1.3-1.2-2.2-2.3-2.5
		c-0.1,0-0.2,0-0.2,0c-0.1,0-0.3,0-0.4,0.1c-0.2,0.2-0.5,0.4-0.7,0.6c-0.6,0.5-1.2,1-1.7,1.6c-0.7,0.8-1,1.7-1,2.5
		C289.8,142.8,290.2,143.5,290.8,144z M291.4,140.2c0.5-0.5,1-1,1.6-1.5c0.2-0.2,0.4-0.3,0.6-0.5c0.7,0.2,1.3,0.9,1.5,1.8
		c0.2,1,0,2-0.6,2.6c-0.8,0.8-2.1,1.4-3.1,0.6c-0.4-0.3-0.7-0.7-0.7-1.2C290.7,141.4,290.9,140.7,291.4,140.2z"/>
	<path class="st0" d="M494.7,160.2C494.7,160.2,494.7,160.2,494.7,160.2c-0.1,0-0.2,0-0.3,0c-4.4,1-8.4,3.4-12.2,7.3
		c-1.1,1.1-2.2,2.3-3.4,3.4c-3.1,3.1-6.2,6.2-9,9.6c-4.6,5.5-6.1,12.3-4.8,20.9c0.9,5.4,2.2,11.1,6.1,16c2.4,3,5.6,5.2,9.8,6.6
		c2.4,0.8,4.8,1.7,7.1,2.5c3.9,1.4,7.9,2.9,11.9,4v-1c-3.9-1.1-7.8-2.6-11.6-3.9c-2.3-0.9-4.8-1.7-7.2-2.5c-4.1-1.4-7-3.4-9.3-6.3
		c-3.8-4.7-5.1-10.2-5.9-15.5c-1.3-8.3,0.2-14.8,4.6-20.1c2.8-3.3,5.9-6.5,9-9.5c1.1-1.1,2.3-2.3,3.4-3.4c3.6-3.7,7.5-6,11.7-7
		c0,0,0,0,0,0c0.1,0,0.1,0,0.2,0c1.8-0.2,3.5-0.1,5.2,0.1v-1C498.3,160,496.5,160,494.7,160.2z"/>
	<path class="st0" d="M497.5,167.3c-0.1,0-0.2,0-0.2,0c-9.2,2.8-16.3,8.9-20.9,18c-4.5,8.6-4.8,16.9-0.9,24.6c2,4,5.4,6.2,8.5,7.7
		c5.8,2.9,11.1,5.1,16,6.5c0,0,0.1,0,0.1,0v-1c-4.9-1.4-10-3.5-15.7-6.4c-2.9-1.5-6.2-3.5-8.1-7.3c-3.7-7.4-3.4-15.4,0.9-23.7
		c4.5-8.8,11.3-14.7,20.3-17.5c0,0,0,0,0.1,0c0.7,0,1.5,0,2.2,0c0.1,0,0.2,0,0.3,0v-1c-0.8,0-1.6,0-2.4,0
		C497.5,167.3,497.5,167.3,497.5,167.3z"/>
	<path class="st0" d="M498.3,175c0,0-0.1,0-0.1,0c-10.7,3.1-16.9,13.1-15.8,25.3c0.3,3.7,2.3,7.1,5.6,9.6c3.9,3,7.9,5.4,12,7v-1
		c-3.9-1.6-7.7-3.9-11.4-6.8c-3.1-2.3-4.9-5.5-5.2-9c-1.3-14.3,7.3-22.1,15.1-24.3c0,0,0.1,0,0.1,0c0,0,0,0,0,0
		c0.5-0.1,1-0.1,1.4-0.1v-1c-0.5,0-1,0-1.5,0.1C498.4,174.9,498.4,174.9,498.3,175z"/>
	<path class="st0" d="M411.9,6.9c1.2,3.2,2.4,6.6,4.3,9.6c3.7,5.8,7.7,8.4,13.6,8.4c1.1,0,2.3-0.1,3.6-0.3c2.4-0.3,4.9-0.6,7.3-0.8
		c2.4-0.2,4.9-0.4,7.3-0.8c3.5-0.5,7-1.2,10.3-2.2c5.3-1.5,6.6-6.5,5.6-10.6c-0.9-3.5-1.8-7-2.8-10.3h-1c1,3.4,1.9,7,2.8,10.6
		c1.3,5.2-1.5,8.5-4.9,9.4c-3.3,0.9-6.8,1.7-10.2,2.1c-2.4,0.3-4.9,0.6-7.3,0.8c-2.4,0.2-4.9,0.4-7.3,0.8c-7.7,1.1-12.1-1-16.3-7.7
		c-1.9-3-3.1-6.3-4.2-9.4c-0.4-1-0.8-2.1-1.2-3.2c-0.5-1.2-0.7-2.3-0.8-3.4h-1c0.1,1.2,0.4,2.4,0.9,3.7
		C411.1,4.8,411.5,5.8,411.9,6.9z"/>
	<path class="st0" d="M428.9,3.6c0.8,5.7,4.6,9.1,10.7,9.5c0.4,0,0.7,0,1,0c3,0,5.7-0.9,7.6-2.6c1.7-1.6,2.7-3.7,2.8-6.2
		c0.1-1.4,0-2.9-0.3-4.3h-1c0.2,1.4,0.3,2.8,0.3,4.2c-0.1,2.3-1,4.2-2.5,5.6c-1.9,1.7-4.7,2.5-7.9,2.3c-5.6-0.3-9-3.4-9.8-8.7
		c-0.2-1.2-0.2-2.3-0.1-3.5h-0.9C428.7,1.2,428.7,2.5,428.9,3.6z"/>
	<path class="st0" d="M315.1,2c2.8,4.7,4.9,10.1,7.1,17.3c2.2,7.4,2,14.2-0.5,20.7c-0.7,1.8-1.4,3.6-2,5.4c-1.2,3.3-2.4,6.6-3.8,9.8
		c-1,2.2-2.7,4.6-5.1,7c-2.7,2.8-6.5,3.8-10.1,4.7l-0.8,0.2c-7.4,1.9-11.6,5.3-13.7,10.8l-0.3,0.9c-1.1,3-2.2,6-3.3,9.1
		c-3.1,9.5-7.2,17.3-12.4,23.9c-3.7,4.7-8.2,6.9-13.7,6.8c-6-0.1-11-2.7-16-5.4c-4.7-2.6-8-6.1-10-10.4c-1.7-3.7-2.6-8.1-2.6-12.7
		c0-3.1,0.3-6.2,0.5-9.2c0.1-1.5,0.3-3.1,0.4-4.7c0.4-7.2,1.6-14.3,3.4-20.9c2-7.3,5.5-11.8,11.1-14c2.1-0.8,4.3-1.6,6.4-2.4
		c2.8-1,5.7-2,8.4-3.2c4.4-1.9,9.5-5,10-11.6c0.2-2.7-0.1-5.5-0.3-8.2l-0.1-1.2c-0.1-1.3-0.3-2.6-0.5-3.8c-0.3-2.2-0.6-4.4-0.6-6.6
		c0-1.7,0.2-3.2,0.5-4.5h-1c-0.3,1.4-0.5,2.9-0.5,4.5c0,2.3,0.3,4.6,0.6,6.8c0.2,1.2,0.4,2.5,0.5,3.8l0.1,1.2c0.3,2.7,0.5,5.4,0.3,8
		c-0.5,6.1-5.3,9-9.5,10.8c-2.7,1.2-5.6,2.2-8.4,3.2c-2.1,0.8-4.3,1.5-6.4,2.4c-5.9,2.3-9.6,7-11.7,14.6c-1.8,6.7-3,13.8-3.4,21.1
		c-0.1,1.5-0.2,3.1-0.4,4.6c-0.3,3-0.5,6.1-0.5,9.3c0,4.7,0.9,9.2,2.7,13c2,4.5,5.5,8.1,10.4,10.8c5.2,2.8,10.3,5.4,16.5,5.6
		c0.1,0,0.2,0,0.3,0c5.6,0,10.4-2.4,14.2-7.2c5.3-6.7,9.4-14.6,12.5-24.2c1-3.1,2.1-6.1,3.2-9.1l0.3-0.9c2-5.2,6-8.4,13-10.2
		l0.8-0.2c3.8-1,7.7-2,10.6-5c2.5-2.5,4.2-5,5.3-7.3c1.5-3.2,2.7-6.6,3.9-9.9c0.6-1.8,1.3-3.6,2-5.4c2.6-6.7,2.7-13.7,0.5-21.3
		c-2.2-7.3-4.4-12.7-7.2-17.5c-0.3-0.5-0.6-1-1-1.5h-1.2C314.3,0.6,314.7,1.3,315.1,2z"/>
	<path class="st0" d="M305.6,4.8c4.9,4.9,8.1,11.1,10.1,18.9c0.6,2.5,0.5,5.4,0.3,7.7c-0.4,4.9-2.8,9.3-5,13.5l-0.1,0.1
		c-2.4,4.6-5.4,9.2-10.8,11.6c-1.7,0.8-3.5,1.3-5.3,1.8c-1,0.3-2,0.6-2.9,0.9c-6.6,2.2-10.9,6.9-12.7,13.9c-0.2,0.7-0.4,1.4-0.6,2.2
		c-1,3.8-2,7.7-3.3,11.4c-2.6,7.5-6.6,12.7-12,15.9c-2.2,1.4-4.5,2-6.1,1.8c-8.9-1.2-15.4-6.1-19.2-14.6c-1.8-4-2.4-8.4-2-14.3
		c0.4-5.4,2.1-10.3,5-14.5c3.9-5.6,9.4-8.9,16.5-12.3c1.1-0.5,2.2-1,3.3-1.5c3.7-1.6,7.5-3.3,10.7-6c2.6-2.2,4.5-5.1,5.6-8.8
		c1.6-5,1-10.1,0.5-14.9c-0.1-0.8-0.2-1.6-0.3-2.5c-0.3-2.6-0.7-11.4,6-14.8c0.3-0.2,0.7-0.3,1-0.4H282c-2.3,1.4-6.8,5.6-5.8,15.3
		c0.1,0.8,0.2,1.6,0.3,2.5c0.5,4.8,1.1,9.7-0.4,14.5c-1.1,3.5-2.8,6.3-5.3,8.4c-3.1,2.6-6.8,4.2-10.5,5.8c-1.1,0.5-2.2,1-3.3,1.5
		c-7.2,3.4-12.9,6.8-16.9,12.6c-3.1,4.4-4.8,9.4-5.2,15c-0.4,6.1,0.2,10.7,2,14.8c4,8.8,10.7,13.9,20,15.2c0.3,0,0.5,0.1,0.8,0.1
		c2.5,0,5.1-1.5,5.9-2c5.6-3.4,9.7-8.8,12.4-16.4c1.3-3.8,2.3-7.7,3.3-11.5c0.2-0.7,0.4-1.4,0.6-2.2c1.8-6.9,5.8-11.2,12.1-13.3
		c1-0.3,1.9-0.6,2.9-0.9c1.8-0.5,3.7-1,5.5-1.8c5.6-2.5,8.7-7.3,11.3-12.1l0.1-0.1c2.3-4.3,4.7-8.8,5.1-13.9c0.2-2.3,0.4-5.3-0.3-8
		c-2-8-5.3-14.3-10.3-19.4c-1.7-1.7-3.5-3.1-5.5-4.1h-2.4C301.1,1,303.5,2.6,305.6,4.8z"/>
	<path class="st0" d="M293.3,44.4c0.7,0.2,1.3,0.3,2,0.3c2.5,0,4.6-1.4,6.1-2.6c5-4.1,7.6-9.7,7.3-15.7c-0.3-6.4-3.9-12.3-9.5-16
		c-1.2-0.8-2.8-1-4.3-1.3c-0.7-0.1-1.3-0.2-2-0.3c-0.1,0-0.2,0-0.2,0c-0.1,0-0.2,0-0.3,0c-4.3,1.5-6,3.7-6.3,8.5
		c-0.5,7.3,0.8,14.3,2,20.4C288.5,40.1,289.6,43.3,293.3,44.4z M287,17.4c0.3-4.4,1.6-6.3,5.6-7.7c0,0,0,0,0,0
		c0.7,0.2,1.4,0.3,2.1,0.4c1.5,0.2,2.9,0.4,3.9,1.1c5.3,3.5,8.7,9.2,9.1,15.2c0.3,5.7-2.2,11-6.9,14.9c-2.6,2.1-4.9,2.8-7.2,2.1
		c-2.5-0.7-4-2.5-4.6-5.8C287.8,31.6,286.5,24.6,287,17.4z"/>
	<path class="st0" d="M492.9,194.2c-0.4,3.1,0.8,6.4,3.4,9.4c1.1,1.3,2.3,2.3,3.7,3.2v-1.2c-1-0.8-2-1.7-2.9-2.7
		c-1.7-2-3.6-5.1-3.2-8.7c0.6-4.4,2.6-7.3,6.1-8.5v-1C495.9,186.1,493.6,189.3,492.9,194.2z"/>
	<path class="st0" d="M13,277.3c5.4-0.5,11.3-1.7,14.9-7.1c2.7-4,3.7-10.3,0.3-14.2c-1.1-1.2-2.5-2.3-4.6-3.4
		c-2.6-1.5-5.5,1.1-8.3,3.5c-2.5,2.2-5,4.4-7.2,3.8c-3.3-0.9-5.7-1.7-8.1-2.4v1c2.3,0.7,4.6,1.5,7.9,2.3c2.6,0.7,5.4-1.7,8-4
		c2.7-2.3,5.2-4.5,7.2-3.4c2,1.1,3.3,2.1,4.3,3.2c3,3.4,2.1,9.3-0.4,13c-3.3,5-9,6.2-14.2,6.7c-2.6,0.2-5,0.4-7.4,0.5
		c-1.9,0.1-3.7,0.2-5.5,0.4v1c1.8-0.1,3.6-0.3,5.5-0.4C7.9,277.7,10.4,277.6,13,277.3z"/>
	<path class="st0" d="M337.3,495.3c1.1-1.5,3.6-5,5.2-8.7l0-0.1c0.4-0.9,1-2.6,0.3-4.4c-0.1-0.3-0.5-1.3-1.4-2
		c-1.5-1.1-3.6-1.1-6.3-0.1l-0.1,0c-1.1,0.5-1.7,0.9-2.4,1.5c-0.6,0.5-1.3,1-2.4,1.8l-0.2,0.1c-1.6,1-2.9,1.7-3.8,2.1
		c-0.8,0.3-3,1.3-10.5-0.8c-3.1-0.9-4.8-1.6-6.4-2.3c-1.7-0.7-3.1-1.4-5.7-1.8c-3.1-0.6-5.5-0.5-7.6-0.4c-0.4,0-0.7,0-1.1,0.1
		c-7.8,0.3-16.1-2.1-31.2-6.4c-6.4-1.8-9.1-2.8-10.7-3.3c-1.6-0.6-2.1-0.7-3.9-0.9c-10.1-0.9-18.3,2.5-26.3,5.9
		c-5.5,2.3-11.6,5.2-15.3,9.6c0,0-3.4,4.1-5.3,8.7c-0.1,0.3-0.4,1-0.9,2c-1.1,2.5-2,4.4-2.4,5.3c-0.1,0.3-0.2,0.5-0.3,0.6
		c0,0.1-0.1,0.2-0.1,0.3h1.1c0-0.1,0.1-0.2,0.2-0.4c0.4-0.9,1.4-2.9,2.4-5.3c0.4-1,0.7-1.7,0.9-2c1.9-4.4,5.2-8.4,5.2-8.5
		c3.5-4.3,9.5-7.1,14.9-9.4c7.8-3.3,15.9-6.7,25.8-5.8c1.6,0.1,2,0.3,3.6,0.8c1.6,0.6,4.4,1.6,10.8,3.3c15.2,4.3,23.6,6.7,31.5,6.4
		c0.4,0,0.7,0,1.1-0.1c2.1-0.1,4.3-0.2,7.3,0.4c2.5,0.5,3.8,1,5.5,1.8c1.6,0.7,3.3,1.5,6.5,2.4c7,1.9,9.7,1.3,11.1,0.7
		c1.5-0.6,3.3-1.8,3.9-2.1l0.2-0.1c1.2-0.8,2-1.4,2.5-1.9c0.7-0.6,1.2-1,2.1-1.4l0.1,0c2.4-0.9,4.2-0.9,5.4,0c0.7,0.6,1,1.3,1.1,1.6
		c0.5,1.4,0,2.8-0.4,3.7l0,0.1c-1.5,3.6-4,7-5,8.5c-0.1,0.2-0.3,0.4-0.3,0.5c-0.1,0.1-2.2,3-4,6.8h1.1c1.7-3.6,3.7-6.2,3.7-6.3
		C337.1,495.6,337.2,495.5,337.3,495.3z"/>
	<path class="st0" d="M9.4,405.1c2.7,1.3,4,1.8,4.9,2.2c0.9,0.4,1.4,0.6,2.5,1.2c2.5,1.4,3.5,2.5,5.7,4.8c1.2,1.2,2.6,2.7,4.7,4.8
		c8.3,8.1,11.1,9,12.3,9.4c2.6,0.8,4.7,0.8,9,0.7c5.4-0.1,8.9-0.7,17.5-2.2c1.3-0.2,2.7-0.5,4.3-0.7c7.6-1.3,10-1.6,13.5-1.4
		c3.1,0.2,6.6,0.5,9.9,2.6c3.8,2.4,5.3,6,6.7,9.2c2.9,6.7,2.6,12.9,2.4,15.5l0,0.1c-0.1,2.4-0.3,5.6-1.8,9.6
		c-1.7,4.7-4.3,7.7-6.6,10.4c-1.5,1.7-2.8,3-4.3,4.4c-2,1.9-4.1,3.9-6.9,7.4c-0.7,0.9-1.5,1.8-2.3,3.2c-2.1,3.9-2.2,7.5-2.2,9.9
		c0,2.1,0,4,0,5.8h1c0-1.8-0.1-3.7,0-5.8c0-2.3,0.1-5.8,2.1-9.5c0.7-1.3,1.5-2.2,2.1-3.1c2.8-3.4,4.9-5.4,6.9-7.3
		c1.4-1.4,2.8-2.7,4.3-4.5c2.3-2.7,5-5.8,6.8-10.6c1.5-4.1,1.7-7.4,1.9-9.9l0-0.1c0.2-2.7,0.5-9-2.5-15.9c0,0,0,0,0,0
		c-1.4-3.1-3.1-7-7.1-9.6c-3.5-2.3-7.2-2.6-10.4-2.8c-3.6-0.2-6,0.1-13.7,1.4c-1.6,0.3-3,0.5-4.3,0.7c-8.8,1.5-12.1,2.1-17.4,2.2
		c-4.2,0.1-6.3,0.1-8.7-0.6c-1.7-0.5-4.7-2.1-11.9-9.2c-2.1-2.1-3.6-3.6-4.7-4.8c-2.2-2.3-3.3-3.5-5.9-5c-1.1-0.7-1.7-0.9-2.6-1.3
		c-0.9-0.4-2.2-0.9-4.9-2.2c-5.3-2.5-8.2-4-9.9-6.1v1.4C1.8,401.5,4.7,402.9,9.4,405.1z"/>
	<path class="st0" d="M14,292.6c1.5,0,2.9,0,4.4,0c3.4,0,6.8,0.1,10.2-0.1c3.7-0.1,6.9-0.5,9.9-1.2c5.7-1.3,9.6-5.6,12.9-9.4
		c1.4-1.6,2.6-3,3.6-4.2c2.3-2.8,3.9-4.8,7.6-7.1c1.9-1.2,3.7-2,4.6-2.4c2.1-0.4,7-1.1,10.1,0c0.4,0.1,2.4,0.9,4.8,1.9l0.8,0.3
		c0.5,0.2,0.8,0.3,0.9,0.4c0.8,0.4,7.3,3.1,15.3,1.6c4.7-0.8,8.2-2.8,10.2-4.3c5.4-4,8.4-9.9,12.2-17.5c1.3-2.6,2.6-5.2,4.2-8.1
		l0.1-0.2c0.2-0.4,0.6-1.1,1.3-1.9c1.9-2.2,4.1-3.6,6.5-4.1c1.9-0.4,3.5-0.1,4.9,0.2c7.3,1.7,13,6,13.2,6.2
		c4.3,3.3,14.5,10.9,20.1,25c1.5,3.7,1.7,5.4,1.8,6.7c0.1,1.3,0.2,2.4,1.6,4.8c2.9,5.3,6.9,8.6,12.4,13.3c3.2,2.7,6.8,5.7,11.1,9.8
		c1.1,1.1,1.8,1.8,2.6,2.6c2.5,2.7,3.7,4.6,4.9,6.5c1,1.5,1.9,3,3.4,4.7c2.5,2.8,4.6,5.2,8.1,6.2c4.4,1.2,8.4-0.5,12.6-2.3
		c3.7-1.6,5.5-3,7.3-4.3c1.6-1.2,3.3-2.5,6.6-4c3.3-1.5,7.3-3.3,12.7-3.3c0.1,0,0.1,0,0.2,0c4.5,0,8.8,1.2,12.8,3.6
		c5.4,3.3,8.1,7.7,9.2,9.5c2.9,5,3.6,9.5,4.5,15.2l0,0.2c0.7,4.5,0.5,7.3,0.5,8.4l0,0.1c-0.2,3.7-0.4,6.9-2.5,9.8
		c-2.3,3.2-5.8,4.6-8.6,5.8c-0.8,0.3-1.5,0.6-2.4,0.9c-1.4,0.5-3.1,1.1-5.9,2.2c-2.4,0.9-2.9,1.2-3.4,1.5c-2.5,1.6-3.6,3.5-5,5.7
		c-0.2,0.3-0.3,0.5-0.5,0.8l-0.3,0.5c-2.9,4.8-4.4,7.2-6.8,8.9c-2.4,1.7-5.4,2.6-8.9,2.8c-1.8,0-3,0-4.5-0.5
		c-3.8-1.6-5.7-6.8-5.9-10.9c-0.1-2.2,0.4-3.5,0.9-4.9c0.5-1.3,1-2.8,1.2-5.3c0.3-4.6-1.2-8.1-2.2-10.7
		c-4.1-10.5-12.8-16.3-16.1-18.4c-6.3-4.2-12-5.9-14.2-6.5c-5.7-1.5-10-1.4-13.4-1.3c-3.9,0.1-6.7,0.2-9.6-2.2
		c-3.8-3.1-5-7.9-6-12.2c-0.6-2.2-0.8-4.1-1-6.1c-0.3-2.7-0.6-5.8-2-10.4c-0.7-2.3-1.5-4.6-3.6-6.7c-1.7-1.6-3.5-2.2-6.7-3.2
		c-2.3-0.7-3.7-0.9-6.4-1.3c-1.7-0.2-3.9-0.6-7.3-1.2c-1.6-0.2-3.2-0.5-4.8-0.8l-0.5-0.1c-3.4-0.6-5.1-0.9-7.4-0.9
		c-1.5,0-2.3,0-3.3,0.3c-2.5,0.7-4.1,2.4-5.4,3.9c-4.8,5.6-7.7,11.9-10.3,17.4l-0.2,0.4c-1.5,3.2-1.9,5.4-2.3,7.3
		c-0.1,0.3-0.1,0.6-0.2,0.8c-0.5,2.5-1.2,4.3-2,6.4c-1.5,3.8-2.5,6.6-5.1,8.9l-0.1,0.1c-1.3,1.2-3.2,2.9-5.5,2.8
		c-2.1-0.1-3.6-1.6-5.6-3.4l-0.1-0.1c-1.5-1.4-2.1-2.5-3-3.8c-0.6-1-1.4-2.1-2.6-3.6l-0.1-0.1c-1.8-2.2-3.1-3.8-5-5
		c-4.6-3-11.6-3-16.5,0c-3.5,2.2-5.1,5.4-7.6,10.2c-1.5,3-1.9,4.7-2.3,6.1c-0.3,1.4-0.7,2.5-1.8,4.6c-3.6,6.8-9.3,11-12.8,13.4
		c-2.3,1.6-3.6,2.3-4.7,2.9c-1.3,0.7-2.4,1.2-4.4,2.8c-2.5,2-3.4,3.3-5.1,5.8c-1.1,1.6-2.5,3.5-4.8,6.5
		c-4.5,5.8-10.1,12.9-15.4,15.6l-0.1,0.1c-0.5,0.3-2,1.1-3.5,2.4c-0.3,0.2-0.6,0.5-0.9,0.8v1.3c0.5-0.5,1.1-0.9,1.5-1.3
		c1.5-1.2,2.8-2,3.4-2.3l0.1-0.1c5.5-2.8,11.1-10.1,15.7-15.9c2.3-3,3.7-4.9,4.8-6.5c1.7-2.4,2.5-3.6,4.9-5.6c1.9-1.6,3-2.1,4.2-2.7
		c1.2-0.6,2.5-1.3,4.9-3c3.5-2.5,9.3-6.8,13-13.8c1.2-2.2,1.5-3.5,1.8-4.8c0.4-1.5,0.8-3,2.2-5.9c2.6-5.1,4.1-7.8,7.2-9.8
		c4.6-2.8,11.1-2.8,15.4,0c1.8,1.1,3,2.7,4.8,4.8l0.1,0.1c1.2,1.4,1.9,2.5,2.5,3.5c0.8,1.3,1.6,2.4,3.1,3.9l0.1,0.1
		c2,1.9,3.7,3.6,6.2,3.7c2.8,0.1,4.8-1.8,6.2-3l0.1-0.1c2.7-2.5,3.9-5.5,5.3-9.3c0.8-2.1,1.5-4,2-6.5c0.1-0.3,0.1-0.6,0.2-0.9
		c0.4-1.9,0.8-4,2.2-7.1l0.2-0.4c2.5-5.5,5.4-11.7,10.1-17.2c1.2-1.4,2.7-2.9,5-3.6c0.9-0.3,1.6-0.3,3.1-0.3c2.3,0,3.9,0.3,7.3,0.9
		l0.6,0.1c1.5,0.3,3.1,0.6,4.7,0.8c3.4,0.6,5.6,0.9,7.3,1.2c2.7,0.4,4,0.6,6.3,1.3c3.1,0.9,4.7,1.5,6.3,3c2,1.9,2.7,4.1,3.4,6.2
		c1.3,4.5,1.7,7.6,2,10.3c0.2,2,0.4,3.9,1,6.2c1,4.2,2.3,9.4,6.4,12.7c3.2,2.6,6.3,2.5,10.2,2.4c3.4-0.1,7.5-0.2,13.1,1.3
		c2.1,0.6,7.8,2.3,13.9,6.4c3.2,2.1,11.7,7.7,15.7,18c1,2.5,2.4,5.8,2.1,10.3c-0.1,2.3-0.6,3.7-1.1,5c-0.5,1.5-1,2.8-1,5.3
		c0.2,4.5,2.2,9.9,6.5,11.7c1.6,0.6,2.9,0.7,4.9,0.6c0,0,0,0,0.1,0c3.7-0.2,6.8-1.1,9.4-2.9c2.5-1.8,4-4.2,7.1-9.2l0.3-0.5
		c0.2-0.3,0.3-0.6,0.5-0.8c1.3-2.1,2.4-4,4.6-5.4c0.5-0.3,0.9-0.6,3.2-1.4c2.8-1.1,4.5-1.7,5.9-2.2c0.9-0.3,1.6-0.6,2.5-0.9
		c2.9-1.2,6.6-2.6,9-6.1c2.2-3.1,2.4-6.6,2.7-10.3l0-0.1c0.1-1.1,0.2-4-0.5-8.6l0-0.2c-0.9-5.8-1.5-10.4-4.6-15.5
		c-1.2-1.9-3.9-6.5-9.5-9.9c-4.2-2.4-8.7-3.7-13.3-3.7c-5.7,0-9.9,1.8-13.3,3.3c-3.4,1.5-5.1,2.8-6.8,4.1c-1.8,1.4-3.5,2.6-7.1,4.2
		c-4.1,1.7-7.9,3.4-12,2.3c-3.2-0.9-5.1-3.1-7.6-5.9c-1.5-1.7-2.4-3.1-3.3-4.6c-1.2-1.9-2.5-3.9-5-6.6c-0.8-0.8-1.5-1.5-2.6-2.6
		c-4.3-4.1-7.9-7.1-11.1-9.8c-5.5-4.6-9.4-7.9-12.2-13c-1.2-2.2-1.3-3.2-1.4-4.5c-0.1-1.4-0.3-3.1-1.9-7
		c-5.8-14.3-16.1-22.1-20.5-25.4c-0.2-0.2-6-4.6-13.6-6.3c-1.5-0.3-3.3-0.6-5.4-0.2c-2.6,0.6-5,2.1-7,4.5c-0.7,0.9-1.2,1.6-1.4,2.1
		l-0.1,0.2c-1.6,2.9-2.9,5.6-4.2,8.2c-3.7,7.4-6.7,13.3-11.9,17.1c-2,1.4-5.3,3.3-9.8,4.1c-7.8,1.5-14.1-1.2-14.8-1.5c0,0,0,0,0,0
		c-0.1,0-0.4-0.2-0.8-0.4l-0.8-0.3c-2.3-1-4.4-1.8-4.8-1.9c-3.3-1.2-8.6-0.5-10.7-0.1c0,0-0.1,0-0.1,0c-0.9,0.4-2.8,1.2-4.8,2.5
		c-3.8,2.4-5.5,4.6-7.8,7.4c-1,1.2-2.1,2.6-3.5,4.1c-3.5,3.8-7.1,7.8-12.5,9.1c-2.9,0.7-6.1,1.1-9.7,1.2c-3.4,0.1-6.8,0.1-10.2,0.1
		c-1.5,0-2.9,0-4.4,0c-5.2,0-9.8,1.4-14,4.2v1.2C4.2,294,8.8,292.6,14,292.6z"/>
	<path class="st0" d="M89.6,493.7c1.1-4.3,2.7-6.7,6.2-11.9c0.8-1.1,1.6-2.4,2.6-3.9l0.4-0.6c5.4-8.3,8.1-12.5,9.5-16.5
		c2.2-6.7,2.2-12.5,2.2-15.9l0-0.4c0-4.9-0.1-11.7-1.9-17.9c-0.5-1.8-0.7-3.9-1-8l-0.1-0.7c0-0.7-0.1-1.8,0.4-3
		c0.7-1.5,1.9-2.3,2.7-2.8l0.9-0.5c3.9-2.5,6.1-3.8,8.4-4.6c3.4-1.2,6.4-2.4,9.5-2.4c1,0,2.1,0.1,3.1,0.4c1.6,0.4,3.6,1.3,5.3,2.3
		c1.5,0.9,2.6,1.7,3.1,2.2l0.2,0.1c2.9,2.4,8.4,5.1,14.2,5.2c5,0,8.6-1.9,10.2-2.7c4-2.1,5.7-4.4,6.9-6.2c1-1.5,1.7-2.4,3.2-2.6
		c3.8-0.5,8.7,4.7,13,9.4c4.1,4.3,7.6,8.1,10.3,7.8c0.9,0,1.9-0.2,2-0.2c2.7-0.4,4.6-1.1,5.6-1.4l0.3-0.1c4-1.2,8.5-0.5,10.2-0.2
		l0.1,0c0.1,0,5.7,1.1,8.3,4.1c0,0,0.1,0.1,0.1,0.2c0.3,0.3,0.7,0.9,0.6,1.4c0,0,0,0.1,0,0.1c0,0,0,0.4-0.7,1
		c-1.1,1.1-2.4,1.3-2.4,1.3c-8.3,2-10.6,2.1-10.7,2.1l-0.5,0c-4.8,0.1-8.3,0.2-12.8-0.6c-6.6-1.2-10.4-3.7-13.3-5.6
		c-3.1-2-5.6-3.6-10-3.3c-2.9,0.3-4.3,1.2-5.8,2.4c-1.6,1.2-3.5,2.5-7.9,3.6l-0.2,0c-2.9,0.6-9.8,2.2-17.5,0c-1-0.3-1.9-0.6-2.9-0.9
		c-2.2-0.8-4.5-1.5-8.1-1.9c-4.7-0.5-6.6,0.1-7.6,0.6c-3.3,1.7-4.8,5.1-5.7,7.8c-2.3,6.8-3.1,12.1-3.8,16.7
		c-0.4,2.7-0.8,5.3-1.5,7.9c-0.2,1-0.3,1.1-2.5,5.8c-1.5,3.2-3.9,8.4-8,17.5c-4.1,9.1-5.7,12.5-6.6,17.8c0,0.2-0.4,2.1-0.4,5.3h1
		c0-3.2,0.3-5.1,0.3-5.2c0.9-5.1,2.3-8.3,6.6-17.6c4.1-9.1,6.6-14.3,8-17.5c2.2-4.8,2.2-4.9,2.5-6c0.6-2.7,1.1-5.3,1.5-8
		c0.8-4.9,1.6-9.9,3.8-16.6c0.6-1.7,1.9-5.6,5.3-7.3c0.9-0.5,2.7-1,7.1-0.5c3.5,0.4,5.8,1.2,7.9,1.9c1,0.3,1.9,0.7,3,0.9
		c7.9,2.2,14.9,0.7,17.9,0l0.2,0c4.6-1.1,6.6-2.6,8.2-3.7c1.5-1.1,2.7-1.9,5.3-2.2c4-0.4,6.4,1.2,9.4,3.1c3.1,2,6.8,4.4,13.7,5.7
		c4.6,0.9,8.3,0.8,13,0.6l0.5,0c0.1,0,2.4-0.1,10.8-2.1c0.5-0.1,1.9-0.5,2.9-1.6c0.8-0.8,0.9-1.4,1-1.6c0.1-1-0.4-1.7-0.8-2.1
		c0,0-0.1-0.1-0.1-0.2c-2.8-3.3-8.6-4.4-8.9-4.5l-0.1,0c-1.7-0.3-6.4-1.1-10.6,0.2l-0.3,0.1c-0.9,0.3-2.8,0.9-5.4,1.3
		c0,0-1,0.2-1.9,0.2c-2.3,0.2-6-3.7-9.6-7.5c-4.7-5-9.5-10.2-13.8-9.7c-1.9,0.2-2.8,1.5-3.9,3c-1.3,1.7-2.8,3.9-6.6,5.9
		c-1.5,0.8-5,2.7-9.8,2.6c-5.6,0-10.8-2.7-13.6-5l-0.2-0.1c-0.6-0.5-1.7-1.4-3.2-2.3c-1.8-1.1-3.9-2-5.5-2.4
		c-4.5-1.2-8.5,0.2-13.2,2c-2.3,0.8-4.5,2.2-8.5,4.7l-0.9,0.5c-0.9,0.5-2.3,1.5-3.1,3.2c-0.7,1.4-0.6,2.8-0.5,3.5l0,0.7
		c0.3,4.2,0.5,6.4,1,8.2c1.7,6.1,1.8,12.7,1.8,17.6l0,0.4c0,3.4,0,9.1-2.1,15.6c-1.3,3.9-4,8-9.3,16.3l-0.4,0.6
		c-1,1.5-1.8,2.7-2.6,3.9c-3.6,5.3-5.2,7.7-6.3,12.2c-0.7,2.7-0.8,4.8-1.1,8.6h1C88.8,498.3,89,496.3,89.6,493.7z"/>
	<path class="st0" d="M145.9,499.8l0.2-0.8c1.9-6.8,3.1-10,4.1-12.7c1.1-2.9,2-5.2,3.2-10.8l0-0.2c1.5-6.9,2.3-10.3,2.2-13.1
		c0-0.4,0-0.7,0-1.1c-0.1-1.9-0.2-4.2,0.6-7.1c0.6-2.6,1.6-4.5,2.9-5.7c1.5-1.3,3.3-1.7,5-1.9c5.4-0.9,9.8-0.3,11.5-0.1l0.3,0
		c5,0.6,11.4-0.1,23-1.4l1.3-0.2c3.7-0.5,6.7-0.8,11.1-0.7c2.6,0,6.1,0.3,10.1,1.6c1.4,0.5,2.3,0.9,3.1,1.3c0.2,0.1,0.4,0.2,0.7,0.3
		l0,0c2.4,1.1,8.8,4,16.2,3.3c8-0.8,13.5-5.5,15.8-7.5c1.6-1.4,3-2.8,4.2-4.6l0.1-0.1c1.2-1.9,2.9-4.6,2.7-7.8
		c-0.2-2.6-1.6-4.4-3.8-7c-3.3-3.8-7.7-7.1-13-9.4l-0.1-0.1c-1.2-0.5-3.2-1.3-8.4-2.6l-0.1,0c-5.5-1.4-12.4-3.2-21.7-4.1
		c-7.8-0.8-11.1-0.4-13.2-0.1c-1.8,0.2-2.7,0.3-4.8-0.5c-5.4-2-7.4-5.7-10-10.4c-2.6-4.8-5.6-10.2-13.1-15.6
		c-6.9-4.9-13.3-6.7-17.4-7.4c-0.4-0.1-0.8-0.1-1.2-0.2c-3.7-0.7-8.7-1.6-13.6,0.9c-1.1,0.5-2.1,1.1-3.2,1.7c-1.8,1-3.6,1.9-5.4,2.8
		c-3.1,1.5-5.8,2.8-8.8,3.7c-4.3,1.4-8.3,0.2-12.6-3.7c-4.7-4.2-8.7-9.5-12.3-16.3c-1.4-2.6-2.1-5.8-2-8.6c0.1-3.5,2-6.8,4.1-9.8
		c4.9-7.1,9.1-15.4,13-25.4c3.4-8.7,7.6-15.3,13.2-20.7c5.2-5,15.8-6.8,22.2-1.9c6,4.7,7.2,11.2,7.6,16.9c0.2,2.1,0.1,4.2,0.1,6.3
		c0,1.8-0.1,3.6,0,5.4c0.2,3.1,0.9,5.5,2.3,7.4c1.1,1.5,2.3,2.3,3,2.8c0.9,0.6,1.6,1.2,2.2,1.7c2.1,1.8,3.2,2.5,9,0.9
		c6.1-1.6,16.9,7.5,20.9,11c1.1,0.9,1.6,1.3,1.8,1.5c1.3,0.8,2.5,1.7,2.5,1.8c0,0,0.5,0.3,0.8,0.6c0.9,0.7,2.8,2.7,3.6,4.8
		c1.1,2.5,0.5,4.9-0.2,8.2l-0.1,0.2c-0.3,1-0.5,1.9-2.3,6.8l-0.9,2.4c-1.8,4.8-2.1,5.6-2.1,7.1c-0.1,3.9,1.7,6.9,2.4,8.1
		c2.5,4.1,6.4,6.3,11.5,8.3c6.3,2.5,11.4,3.4,21.6,5.1c18.6,3.1,20.4,3.4,24.7,3.2l0.2,0c7.8-0.3,11.7-0.5,16.2-3
		c0.7-0.4,1.8-1,3.2-1.9c2.6-1.6,6.3-3.7,9.9-5.7c0.9-0.5,2.7-1.4,5.1-1.6l0.2,0c1.1-0.1,2.9-0.2,4.4,0.6c2,1.1,2.8,3.2,3.4,4.6
		c2.2,6,3.3,9,4.2,13.9c1.1,6.3,1.4,11.2,0.9,15.9c-0.2,2.4-0.7,4.9-2.6,7c-1.3,1.5-2.7,2.2-3.6,2.6c-3.3,1.6-6.3,3.7-9.3,5.7
		c-1.7,1.1-3.5,2.3-5.3,3.4l-0.5,0.3c-4.7,2.9-6.3,3.8-9.2,4.4c-2.1,0.4-3.8,0.3-4.9,0.3l-0.1,0c-4.8-0.2-10.8,0.7-22.7,2.6
		l-1.5,0.2c-1.4,0.2-2.6,0.4-3.7,0.6c-2.7,0.5-5,0.8-8.7,1.3c-2.6,0.3-6.1,0.7-10.4,0.5c-1.4-0.1-1.9-0.2-2.4-0.2
		c-0.5-0.1-1-0.1-2.1-0.2c-0.1,0-9.3-0.3-18.6,3.9l-0.9,0.4c-0.9,0.4-1.6,0.8-2,1.1c-0.2,0.1-0.4,0.2-0.4,0.2c0,0,0,0-0.1,0
		c-0.8,0.4-2.7,0.9-4.8,1.4c-6,1.5-15.2,3.7-18.8,8.8c-0.6,0.9-2.5,3.9-4.1,6.6c-0.2,0.3-0.3,0.5-0.5,0.8c-0.2,0.4-0.5,0.8-0.9,1.5
		c-5.9,10.1-7,12.2-8.1,14.7c-0.6,1.4-1,2.5-1.2,3l-0.1,0.2c-0.3,0.7-0.5,1.3-0.7,1.9h1c0.2-0.5,0.3-1,0.5-1.6l0.1-0.2
		c0.2-0.5,0.6-1.6,1.2-2.9c1-2.4,2.1-4.5,8-14.6c0.4-0.6,0.6-1.1,0.9-1.5c0.2-0.3,0.3-0.5,0.5-0.8c1.8-3,3.7-6,4.1-6.6
		c3.4-4.8,12.3-7,18.2-8.4c2.3-0.6,4.1-1,5-1.5c0.1,0,0.2-0.1,0.5-0.3c0.4-0.2,1.1-0.6,2-1l0.9-0.4c9-4.1,18.1-3.8,18.2-3.8
		c1.1,0,1.5,0.1,2,0.2c0.5,0.1,1.1,0.2,2.5,0.2c4.5,0.2,8-0.2,10.6-0.5c3.7-0.4,6-0.8,8.7-1.3c1.1-0.2,2.3-0.4,3.7-0.6l1.5-0.2
		c11.8-1.9,17.8-2.8,22.5-2.6l0.1,0c1.1,0,2.9,0.1,5.1-0.3c3-0.6,4.8-1.6,9.5-4.5l0.5-0.3c1.8-1.1,3.6-2.3,5.3-3.4c3-2,6-4,9.2-5.6
		c0.9-0.4,2.5-1.2,3.9-2.8c2-2.3,2.5-5.1,2.8-7.6c0.5-4.8,0.3-9.8-0.9-16.2c-0.9-5-2.1-8.3-4.2-14.1c-0.5-1.4-1.5-3.9-3.8-5.1
		c-1.8-1-3.7-0.8-5-0.7l-0.2,0c-2.6,0.3-4.5,1.2-5.4,1.7c-3.6,2-7.3,4.1-9.9,5.7c-1.4,0.9-2.6,1.5-3.2,1.9
		c-4.3,2.4-8.1,2.6-15.8,2.9l-0.2,0c-4.2,0.2-6-0.1-24.5-3.2c-10.1-1.7-15.2-2.6-21.4-5c-4.9-1.9-8.6-4-11-7.9
		c-0.7-1.2-2.3-3.9-2.2-7.5c0-1.3,0.3-2,2.1-6.8l0.9-2.4c1.9-5,2.1-5.8,2.4-6.9l0.1-0.3c0.8-3.5,1.3-6,0.1-8.8
		c-0.9-2.2-2.9-4.3-3.9-5.1c-0.3-0.3-0.8-0.6-0.8-0.6c0,0-1.2-0.9-2.6-1.8c-0.2-0.1-0.9-0.7-1.7-1.4c-4.6-3.9-15.3-13-21.8-11.2
		c-5.6,1.5-6.3,0.9-8.1-0.7c-0.6-0.5-1.3-1.1-2.3-1.8c-0.7-0.5-1.8-1.2-2.8-2.6c-1.3-1.8-2-4-2.2-6.9c-0.1-1.8-0.1-3.6,0-5.4
		c0-2.1,0.1-4.2-0.1-6.3c-0.8-10.7-4.7-15-8-17.6c-5.6-4.3-16.6-4.6-23.4,1.9c-5.7,5.4-10,12.1-13.4,21c-3.8,9.9-8,18.1-12.9,25.2
		c-2.1,3.1-4.1,6.5-4.2,10.3c-0.1,2.9,0.7,6.3,2.2,9c3.6,6.9,7.7,12.4,12.5,16.6c4.5,4.1,9,5.4,13.6,3.9c3-1,5.8-2.3,8.9-3.8
		c1.9-0.9,3.7-1.9,5.5-2.8c1-0.6,2.1-1.1,3.1-1.7c4.6-2.4,9.3-1.5,13-0.8c0.4,0.1,0.8,0.2,1.2,0.2c4.1,0.7,10.3,2.4,17,7.2
		c7.3,5.2,10.2,10.5,12.8,15.2c2.6,4.7,4.8,8.7,10.5,10.8c2.3,0.9,3.4,0.8,5.3,0.5c2.1-0.3,5.3-0.7,13,0.1c9.2,0.9,16,2.7,21.5,4.1
		l0.1,0c5.1,1.3,7.1,2.1,8.3,2.6l0.1,0c5.1,2.2,9.5,5.4,12.6,9.1c2.1,2.4,3.4,4,3.6,6.4c0.2,2.9-1.4,5.4-2.6,7.2l-0.1,0.1
		c-1.1,1.7-2.4,3.1-4,4.4c-2.3,2-7.5,6.5-15.3,7.3c-7.1,0.7-13.4-2.2-15.7-3.2l0,0c-0.2-0.1-0.4-0.2-0.7-0.3
		c-0.8-0.4-1.8-0.8-3.2-1.3c-4.1-1.4-7.7-1.7-10.4-1.7c-4.5-0.1-7.6,0.3-11.2,0.8l-1.3,0.2c-11.6,1.3-18,2.1-22.8,1.4l-0.3,0
		c-1.5-0.2-6.2-0.8-11.8,0.1c-1.8,0.3-3.7,0.7-5.5,2.2c-1.5,1.3-2.6,3.4-3.2,6.2c-0.8,3-0.7,5.4-0.6,7.4c0,0.4,0,0.8,0,1.1
		c0.1,2.7-0.7,6.1-2.2,12.9l0,0.2c-1.2,5.5-2.1,7.7-3.2,10.6c-1,2.6-2.2,5.9-4.1,12.7l-0.2,0.8c-0.3,0.9-0.5,1.7-0.7,2.4h1
		C145.5,501.3,145.7,500.6,145.9,499.8z"/>
	<path class="st0" d="M180.3,350c-2.6-0.6-5.3-0.7-7.9-0.8c-1.6,0-3.2-0.1-4.8-0.3c-6.7-0.7-11-4-14.2-10.9c-2.2-5-3.5-10.4-4.1-17
		c-0.2-2.8-0.7-5.6-1.4-8.2c-0.7-2.5-2.1-4.3-4-5.1c-2.1-0.9-4.7-0.5-7.4,0.9c-5.8,3.2-10.6,8-14.2,14.3c-4,6.8-7.5,14.6-11,24.4
		c-3.1,8.7,0.8,17.4,9.3,20.7c1.5,0.6,3.1,0.9,4.7,0.9c2.1,0,4.2-0.5,6.6-1.4c2.1-0.8,4.3-1.8,6.4-2.7c1.5-0.7,3.1-1.4,4.6-2
		c5.9-2.5,11.9-2.8,18.3-1c0.8,0.2,1.7,0.5,2.5,0.7c3.8,1.1,8.1,2.4,12.2,2.4c3.2,0,5.8-0.8,8-2.4c2.2-1.5,3.5-3.6,3.5-5.7
		C187.4,353.3,183.9,350.8,180.3,350z M183.4,361.8c-2,1.5-4.5,2.2-7.5,2.2c-3.9,0-8.2-1.3-11.9-2.4c-0.9-0.3-1.7-0.5-2.5-0.7
		c-6.6-1.9-12.8-1.5-18.9,1c-1.6,0.6-3.1,1.3-4.7,2c-2.1,0.9-4.2,1.9-6.3,2.7c-4.1,1.6-7.5,1.8-10.6,0.5c-8-3.1-11.7-11.2-8.7-19.5
		c3.5-9.8,7-17.5,10.9-24.3c3.6-6.1,8.2-10.8,13.9-13.9c1.6-0.9,3.1-1.3,4.4-1.3c0.8,0,1.5,0.1,2.1,0.4c1.6,0.7,2.8,2.2,3.5,4.4
		c0.7,2.6,1.2,5.3,1.4,8c0.5,6.8,1.9,12.3,4.1,17.4c3.3,7.3,7.9,10.8,15,11.5c1.6,0.2,3.2,0.2,4.8,0.3c2.6,0.1,5.2,0.2,7.7,0.7
		c3.1,0.7,6.4,2.9,6.4,5.9C186.5,358.6,185.3,360.4,183.4,361.8z"/>
	<path class="st0" d="M12.4,354l0.1-0.2c3-5.6,7.2-9.9,12.7-13c3.1-1.8,7-4.4,9.8-8.7c1.6-2.5,2.1-5.7,1.4-8.6
		c-0.6-2.6-2.1-4.7-4.3-5.9c-3.7-2.2-8.8-4.7-14.8-4.9c-0.4,0-0.9-0.1-1.4-0.2c-0.1,0-0.3,0-0.4-0.1c0,0,0,0-0.1,0
		c-0.1,0-0.2-0.1-0.2,0c-8.9,0.6-11.8,7-13.4,12.5c-0.6,2-1.2,4-1.8,5.8v2.6c1.1-2.7,2-5.4,2.8-8.1c2.2-7.8,6.1-11.4,12.5-11.8
		c0,0,0.1,0,0.1,0c0.1,0,0.3,0,0.4,0.1c0.5,0.1,1,0.2,1.5,0.2c5.8,0.2,10.7,2.6,14.3,4.8c2.5,1.5,3.5,3.7,3.9,5.3
		c0.6,2.7,0.1,5.6-1.3,7.9c-2.7,4.1-6.5,6.6-9.5,8.3c-5.7,3.2-9.9,7.6-13.1,13.4l-0.1,0.2c-1.8,3.4-3.7,7-7.1,9.1
		c-1.6,1-3.1,1.6-4.4,1.9v1c1.5-0.3,3.1-1,4.9-2.1C8.6,361.1,10.5,357.5,12.4,354z"/>
	<path class="st0" d="M86.1,386.4c-3.7-7-5.9-14.4-7.8-21.4l-0.1-0.3c-0.4-1.4-0.7-2.8-1.4-4.1c-2.3-4.5-2.2-9.2,0.2-14.2
		c3.2-6.4,3.2-12.6,0-18.6c-1.2-2.4-3.4-5.4-7.9-4.8c-0.1,0-0.1,0-0.2,0.1c-0.1,0-0.2,0-0.3,0c-5.1,1.7-6.5,6.1-7.9,10.4l-0.2,0.7
		c-0.5,1.5-0.8,3-1.1,4.5c-0.1,0.7-0.3,1.3-0.4,2c-1,5.1-4.7,7.5-9.8,9.7c-1.2,0.5-2.4,1-3.6,1.5c-2.7,1.1-5.5,2.2-8.1,3.6
		c-5.4,2.9-9.4,7.6-12.2,14.3c-1,2.4-2.1,4.9-3.1,7.3c-1,2.4-2.1,4.8-3.1,7.3c-1.9,4.5-1.3,7.7,2.1,10.8c4.6,4.2,7.2,9.5,9.4,14.6
		c1.5,3.5,3.5,7.4,7.3,9.8c2.7,1.7,5.6,2.5,8.9,2.5c1.1,0,2.2-0.1,3.4-0.3c11-1.8,21.5-5.7,31.7-9.5c1.2-0.4,2.4-0.9,3.5-1.3
		c1.8-0.7,3.6-1.9,4.9-3.2c2.8-3,2-6.9,1.2-9C90.3,394.4,88.2,390.2,86.1,386.4z M89.8,407c-1.2,1.3-2.9,2.4-4.5,3
		c-1.2,0.4-2.4,0.9-3.5,1.3c-10.1,3.8-20.6,7.7-31.5,9.5c-4.4,0.7-8.2,0-11.6-2.1c-3.6-2.2-5.4-5.8-6.9-9.3
		c-2.3-5.2-4.9-10.7-9.7-15c-3.1-2.8-3.6-5.5-1.8-9.7c1-2.4,2.1-4.9,3.1-7.3c1-2.4,2.1-4.9,3.1-7.3c2.8-6.5,6.6-11,11.8-13.8
		c2.6-1.4,5.3-2.5,8-3.6c1.2-0.5,2.4-1,3.6-1.5c5.4-2.3,9.2-4.9,10.3-10.4c0.1-0.7,0.3-1.3,0.4-2c0.3-1.5,0.6-3,1.1-4.4l0.2-0.7
		c1.4-4.2,2.6-8.2,7.3-9.7c0,0,0.1,0,0.1,0c0.1,0,0.1,0,0.2,0c3-0.4,5.1,0.9,6.9,4.3c3,5.7,3,11.6-0.1,17.7
		c-2.6,5.3-2.7,10.2-0.2,15c0.6,1.2,1,2.6,1.3,3.9l0.1,0.3c1.9,7,4.1,14.5,7.9,21.6c2,3.8,4.1,7.9,5.6,12.1
		C91.5,400.9,92.2,404.4,89.8,407z"/>
	<path class="st0" d="M139.8,331.5c-1.3-2.2-3.4-3.3-6.1-3.1c-0.1,0-0.2-0.1-0.3,0c-2.8,0.7-5.1,2.5-7,5.7c-3,5-4.3,9.5-4.1,14.1
		c0.1,2.3,1,4.3,2.6,5.5c1.2,0.9,2.7,1.4,4.2,1.4c0.6,0,1.2-0.1,1.9-0.2c3.4-0.8,6.5-2.3,9.2-4.4c3-2.4,4.2-9.4,2.3-13.9
		C141.7,334.8,140.7,333.1,139.8,331.5z M139.6,349.7c-2.6,2.1-5.6,3.5-8.8,4.3c-2,0.4-3.9,0.1-5.3-1c-1.4-1.1-2.2-2.8-2.2-4.8
		c-0.2-4.4,1.1-8.7,4-13.6c1.8-2.9,3.8-4.6,6.3-5.2c0.1,0,0.1,0,0.2,0c2.4-0.1,4.1,0.7,5.3,2.6c0.9,1.6,1.9,3.2,2.6,5
		C143.3,341,142.3,347.6,139.6,349.7z"/>
	<path class="st0" d="M65.7,370.8c-4.2-3.9-9-7.5-15.6-8.1c-0.3,0-0.7-0.2-1-0.3c-0.1,0-0.2-0.1-0.3-0.1c-0.1,0-0.2,0-0.3,0
		c-0.1,0-0.2,0-0.2,0c-0.5,0.1-1,0.2-1.4,0.3c-1.2,0.2-2.4,0.5-3.4,1c-5.2,2.7-7.2,7.4-5.9,13.6c0.6,2.8,1.5,5.6,2.4,8.3
		c0.3,1,0.6,2,0.9,3c1.4,4.5,1.3,9.1,1.2,13.7c0,0.5,0,1,0,1.5c0,3.1,1,5.6,2.9,7.3c1.6,1.3,3.7,2,6.1,2c0.8,0,1.5-0.1,2.3-0.2
		c7-1.3,12.7-3.4,17.6-6.5c6.1-3.9,7.7-8.1,5.8-15.3C74.3,381.9,70.8,375.5,65.7,370.8z M70.4,405.4c-4.8,3-10.4,5.1-17.3,6.4
		c-3,0.6-5.7,0-7.6-1.6c-1.7-1.5-2.6-3.7-2.6-6.5c0-0.5,0-1,0-1.5c0.1-4.6,0.2-9.4-1.2-14c-0.3-1-0.6-2-0.9-3
		c-0.9-2.7-1.8-5.4-2.3-8.2c-1.2-5.8,0.6-10,5.4-12.6c0.9-0.5,2-0.7,3.1-0.9c0.5-0.1,1-0.2,1.5-0.3c0,0,0,0,0,0
		c0.1,0,0.2,0.1,0.2,0.1c0.4,0.2,0.8,0.3,1.3,0.4c6.2,0.5,10.9,4.1,15,7.8c4.9,4.5,8.4,10.8,10.8,19.6
		C77.6,397.9,76.1,401.7,70.4,405.4z"/>
	<path class="st0" d="M156.6,397.3c0.1,0,0.3,0,0.4,0c0.9-0.2,1.8-1.3,2-2.2c0.6-2.2-0.5-3.1-1.4-3.4c-0.5-0.2-1-0.3-1.5-0.5
		c-0.1,0-0.2,0-0.3,0c-0.1,0-0.3,0-0.4,0.1c-1.4,1.1-2.1,1.9-2.2,2.8c-0.1,0.7,0.2,1.4,1,2.2C154.7,396.8,155.7,397.3,156.6,397.3z
		 M154.2,394.1c0.1-0.5,0.6-1.2,1.7-2c0.5,0.1,0.9,0.3,1.4,0.5c0.6,0.2,1.3,0.7,0.8,2.3c-0.2,0.6-0.8,1.4-1.3,1.5
		c-0.5,0.1-1.4-0.3-1.9-0.8C154.3,395,154.1,394.5,154.2,394.1z"/>
	<path class="st0" d="M0.1,463.1c0.5,6.7,1.1,13.7,4.4,20c4.3,8,10.9,12.3,20.3,12.9c2.4,0.2,4.8,0.3,7.1,0.5
		c4.9,0.3,9.9,0.7,14.8,1c0.3,0,0.6,0,0.9,0c4.7,0,8.7-2.1,11.7-6.2c2.3-3.1,4.3-6.5,6.3-9.8c3.3-5.4,7.8-10,14.2-14.5
		c4.3-3,6.7-6.5,7.4-10.8c0.5-2.9-0.4-5.6-2.5-8.3c-2.7-3.3-6.5-4.7-10.5-5.8c-7-2.1-14.4-2.1-21.9-2c-4.1,0.1-8.4,0.2-12.6,0
		c-3.9-0.2-7.6-1.9-11.1-4.9c-2.7-2.3-5.4-4.8-8.6-8.1c-5.1-5.1-11.2-7.8-18.7-8.4c-0.4,0-0.9-0.1-1.3-0.1v1c0.4,0,0.8,0.1,1.3,0.1
		c7.3,0.6,13.2,3.3,18.1,8.2c3.2,3.3,6,5.9,8.6,8.1c3.7,3.2,7.6,4.9,11.7,5.1c4.2,0.2,8.5,0.1,12.7,0c7.4-0.1,14.7-0.1,21.6,1.9
		c3.9,1.1,7.5,2.4,10,5.5c2,2.5,2.7,4.9,2.3,7.5c-0.7,4-3,7.3-7,10.1c-6.4,4.4-11.2,9.3-14.5,14.8c-2,3.3-4,6.7-6.2,9.8
		c-3,4.1-6.9,6-11.7,5.8c-4.9-0.3-10-0.6-14.8-1c-2.4-0.2-4.8-0.3-7.1-0.5c-9-0.6-15.4-4.7-19.5-12.4c-3.2-6.2-3.8-13-4.3-19.6
		l-0.1-1c-0.2-2.8-0.5-5.3-1-7.8v7.2c0,0.2,0,0.4,0,0.6L0.1,463.1z"/>
	<path class="st0" d="M5,443c1,3,1.9,6.1,2.6,9.2c0.8,4,1.1,8.2,1.5,12.3l0,0.1c0.4,5.5,1.3,9.5,3,13.1c3.3,7,9.1,11.2,17.3,12.2
		c0.7,0.1,1.5,0.2,2.2,0.3c1.7,0.3,3.5,0.6,5.3,0.6c10.1-0.1,16.3-3.1,20.2-10c0.3-0.6,0.7-1.2,1.1-1.8c1-1.7,2-3.4,2.7-5.1
		c1.8-3.9,4.3-7.8,7.6-11.8c2-2.4,2.8-4.7,2.2-6.6c-0.6-1.9-2.6-3.4-5.7-4.1c-2.2-0.5-4.6-0.9-7.7-1c-1.5-0.1-3.1,0-4.5,0
		c-1.8,0-3.7,0.1-5.5-0.1c-7.8-0.5-16.1-1.4-22.9-6.8c-2-1.6-3.8-3.4-5.6-5.1c-0.9-0.9-1.8-1.8-2.8-2.7c-2.1-2-4.9-4-8.7-4
		c0,0-0.1,0-0.1,0c-0.1,0-0.3,0-0.4,0.1c-2.7,1.9-3.6,4.9-2.6,8.4C4.4,441,4.7,442,5,443z M7.1,432.5C7.1,432.5,7.1,432.5,7.1,432.5
		c3.5-0.1,6.1,1.8,8.1,3.7c0.9,0.9,1.9,1.8,2.8,2.7c1.8,1.8,3.7,3.6,5.7,5.2c7,5.6,15.4,6.5,23.4,7c1.9,0.1,3.7,0.1,5.6,0.1
		c1.5,0,3,0,4.5,0c3,0.1,5.4,0.4,7.5,0.9c2.8,0.7,4.5,1.9,5.1,3.5c0.5,1.6-0.2,3.6-2,5.7c-3.4,4.1-6,8.1-7.8,12.1
		c-0.8,1.7-1.7,3.4-2.7,5c-0.4,0.6-0.7,1.2-1.1,1.8c-3.7,6.5-9.7,9.4-19.4,9.5c-1.7,0-3.4-0.3-5.1-0.6c-0.7-0.1-1.5-0.2-2.2-0.3
		c-7.8-1-13.4-4.9-16.5-11.7c-1.6-3.4-2.5-7.4-2.9-12.7l0-0.1c-0.3-4.1-0.7-8.3-1.5-12.4c-0.6-3.1-1.6-6.3-2.6-9.3
		c-0.3-1-0.6-1.9-0.9-2.9C4.1,436.7,4.8,434.2,7.1,432.5z"/>
	<path class="st0" d="M131.3,445.8c-0.1,0-0.2,0-0.3,0c0,0,0,0-0.1,0c-5.5,1.1-7.4,5.5-9.3,9.8l-0.1,0.3c-3.5,8.2-7.2,17-10.8,26
		c-1.3,3.4-2.5,7.8,0.2,12.1l0.2,0.3c0.6,0.9,1.2,1.9,2.1,2.4c2.3,1.5,5.1,2.3,7.9,2.3c1,0,1.9-0.1,2.9-0.3c3.2-0.7,5.9-2.6,7.7-5.5
		c4.9-7.8,9.6-15.5,11.9-24.4c1.3-4.8,0.4-9.8-2.7-15.1C139,450.3,136.3,446.7,131.3,445.8z M142.7,468.6
		c-2.3,8.8-6.8,16.5-11.7,24.2c-1.7,2.7-4.1,4.4-7.1,5c-3.3,0.7-7.2,0-10-1.8c-0.7-0.5-1.3-1.3-1.8-2.2l-0.2-0.3
		c-2-3.1-2-6.6-0.1-11.2c3.5-9,7.3-17.8,10.7-26l0.1-0.3c1.7-4.1,3.5-8.3,8.6-9.3c0,0,0.1,0,0.1,0c4.5,0.8,6.9,4.1,8.9,7.4
		C143.1,459.4,143.9,464,142.7,468.6z"/>
	<path class="st0" d="M36.4,481.8c0.2,0,0.4,0,0.5,0c3.5,0,6.6-1.2,8.7-3.3c2.1-2.2,3-5.1,2.4-7.8c-0.6-2.7-2.6-4.9-5.7-6.1
		c-3-1.1-6.1-1.6-9.5-1.5c0,0-0.1,0-0.1,0c-0.1,0-0.2,0-0.3,0c-0.3,0.1-0.6,0.2-0.9,0.3c-1.8,0.5-3.7,1.1-5.1,2.9
		c-2,2.5-3,7,0.6,11.3C29.1,480.1,32.6,481.6,36.4,481.8z M27.3,466.9c1.2-1.6,2.9-2.1,4.6-2.6c0.3-0.1,0.6-0.2,0.9-0.3
		c0,0,0.1,0,0.1,0c3.3-0.1,6.3,0.3,9.1,1.4c2.7,1.1,4.6,3,5.1,5.4c0.5,2.4-0.3,5-2.2,7c-2,2-5.1,3.2-8.5,3c-3.5-0.1-6.8-1.5-8.6-3.8
		C24.6,473.2,25.5,469.2,27.3,466.9z"/>
	<path class="st0" d="M63,299.2c2-0.1,4-0.4,6-0.7c1.3-0.2,2.6-0.4,3.8-0.5c0.7-0.1,1.4-0.2,2.2-0.3c2.4-0.3,4.9-0.6,7.3-0.3
		c2.2,0.3,4.3,1.5,6.4,2.8l0.7,0.4c1.2,0.7,2.5,1.5,3.8,1.5c0.6,0,1.1-0.1,1.7-0.5c2.4-1.3,2.8-3.9,3-6.3c0.2-3.7-1.2-5.7-4.5-6.4
		c-5.9-1.3-11.1-3-15.9-5.4c-1.5-0.7-3.4-0.8-5.1-0.9c-0.7,0-1.5-0.1-2.2-0.2c0,0-0.1,0-0.1,0c-0.1,0-0.2-0.1-0.3,0
		c-5.4,1.5-9,5.2-10.8,11.6c-0.4,1.3-0.2,2.7,0.6,3.7C60.4,298.8,61.6,299.3,63,299.2z M59.9,294.4c1.8-6,5-9.5,10.1-10.9
		c0,0,0.1,0,0.1,0c0.7,0.1,1.5,0.1,2.2,0.2c1.7,0.1,3.4,0.2,4.7,0.8c4.9,2.4,10.2,4.2,16.2,5.5c2.8,0.6,3.9,2.1,3.7,5.4
		c-0.1,2.2-0.5,4.4-2.5,5.5c-1.5,0.8-3-0.1-4.6-1l-0.7-0.4c-2.2-1.3-4.4-2.6-6.8-2.9c-0.7-0.1-1.4-0.1-2.2-0.1
		c-1.8,0-3.6,0.2-5.4,0.4c-0.7,0.1-1.4,0.2-2.1,0.3c-1.3,0.1-2.6,0.3-3.9,0.5c-1.9,0.3-3.9,0.5-5.9,0.7c-1.1,0.1-2-0.3-2.6-1.1
		C59.7,296.5,59.6,295.4,59.9,294.4z"/>
	<path class="st0" d="M70.9,488.8c2.9-7.7,8.9-12.7,13.9-16.3c5.3-3.8,8.6-7.7,10.4-12.4c1.6-4.2,1.8-9,0.7-13.3
		c-1.2-4.6-3.9-8.2-7.6-10.1c-3.3-1.7-7.3-2.6-11.1-3.2c-4.5-0.7-9-1.1-13.5-1c-2.8,0.1-5.7,0.3-8.4,0.6c-3,0.3-6.2,0.6-9.2,0.6
		c-6.4,0.1-11.3-1.5-15.2-4.8c-2.9-2.5-6-5.3-8.8-8.3c-3.5-3.7-7.9-6.4-13.9-8.4c-0.7-0.2-1.3-0.4-2-0.7c-2.1-0.7-4.2-1.4-6.2-2.2v1
		c2,0.8,4,1.4,5.9,2.1c0.7,0.2,1.3,0.4,2,0.7c5.8,2,10.1,4.6,13.5,8.2c2.9,3.1,6,5.8,8.9,8.4c4.1,3.5,9.2,5.2,15.8,5.1
		c3.1,0,6.3-0.3,9.3-0.6c2.7-0.3,5.6-0.5,8.4-0.6c4.4-0.1,8.8,0.2,13.3,0.9c3.7,0.6,7.6,1.4,10.8,3.1c7.7,4,9.3,14.6,6.5,22.2
		c-1.7,4.5-4.9,8.3-10.1,12c-5.1,3.6-11.3,8.8-14.3,16.7c-1.4,3.8-2.9,8.7-2.3,13.6h1C68,497.2,69.5,492.5,70.9,488.8z"/>
	<path class="st0" d="M7.5,303.3c1.2-0.4,2.4-0.7,3.6-1.1c0.7-0.2,1.4-0.4,2.2-0.6c0.1,0,0.1,0,0.2-0.1c5.3-0.3,10.5,0.6,14.4,1.4
		c5,1,10.1,2.2,15,3.3l0.1,0c3.9,0.9,5.5,3,5.4,7.4c0,0.5,0,1.1,0,1.6c0,2.1,0,4.4-0.5,6.4c-1.1,4.6-2.2,8.3-4,11.8
		c-2.8,5.5-8.1,8.8-12.8,11.5c-6.2,3.4-11.2,8.5-15.2,15.5c-4.1,7-9.2,11.2-15.5,12.8v1c6.7-1.6,12.1-5.9,16.4-13.3
		c4-6.8,8.8-11.8,14.9-15.2c4.9-2.8,10.3-6.2,13.2-11.9c2-3.9,3.2-8.3,4.1-12c0.5-2.1,0.5-4.4,0.5-6.6c0-0.5,0-1.1,0-1.6
		c0.1-4.8-1.8-7.4-6.1-8.4l-0.1,0c-4.9-1.1-10-2.3-15-3.3c-4-0.8-9.3-1.8-14.7-1.4c-0.1,0-0.2,0-0.3,0.1c0,0,0,0,0,0
		c-0.7,0.2-1.4,0.4-2.1,0.6c-1.2,0.3-2.4,0.7-3.6,1.1c-2.7,1-5.1,2.5-7.2,4.5v1.4C2.2,306,4.6,304.3,7.5,303.3z"/>
	<path class="st0" d="M15.3,501.4c-4.3-0.6-8.1-2.9-12.1-7.4c-1.2-1.3-2.2-2.6-3.1-3.9v1.6c0.7,1,1.5,2,2.4,2.9
		c3.7,4.1,7.2,6.4,11,7.4h7.4C19.1,501.9,17.2,501.7,15.3,501.4z"/>
	<path class="st0" d="M500,501.8c-0.5-0.6-1.1-1.2-1.6-1.8c-3-3.6-6.4-7.9-8.4-13.2c-2.3-6.2-2.2-12.8-1.7-18.4
		c0.4-4.8,0.5-10.1-0.6-15.4c-1.9-8.8-6.4-15-13.6-18.9c-4.4-2.4-9.4-3.4-14.1-4.3l-0.1,0c-5.4-1.1-9.4-2.7-12.7-5.2
		c-6.6-4.9-11.2-11.6-14.2-20.5l-0.5-1.5c-1.7-4.8-3.4-9.8-5.3-14.6c-0.5-1.2-1-2.4-1.5-3.7c-2.1-4.9-4.2-10-5.4-15.4
		c-1.3-6.4,0.1-9.8,5.3-12.7c2.6-1.4,5.9-3.4,8.7-6c5.9-5.7,12.4-9.5,19.9-11.5c9.6-2.7,17.7-8.3,24.7-17.3c1.2-1.6,2.5-3.2,3.7-4.8
		c4.4-5.8,8.9-11.8,14.4-16.9c1.1-1,2.1-1.9,3.3-2.6v-1.2c-1.3,0.9-2.6,1.9-3.9,3.1c-5.5,5.1-10.1,11.2-14.5,17
		c-1.2,1.6-2.4,3.2-3.7,4.8c-6.8,8.8-14.7,14.4-24.2,17c-7.7,2.1-14.3,6-20.3,11.8c-2.6,2.5-5.9,4.5-8.5,5.9
		c-5.5,3.1-7.1,6.9-5.7,13.7c1.2,5.4,3.3,10.6,5.4,15.5c0.5,1.2,1,2.4,1.5,3.7c1.9,4.8,3.6,9.7,5.3,14.5l0.5,1.5
		c3.1,9.1,7.8,15.9,14.5,21c3.4,2.6,7.6,4.3,13.1,5.3l0.1,0c4.7,0.9,9.6,1.9,13.9,4.2c7,3.8,11.3,9.8,13.1,18.3
		c1.1,5.2,1,10.4,0.6,15.1c-0.4,5.7-0.6,12.4,1.8,18.8c2,5.4,5.4,9.9,8.5,13.5c0.4,0.5,0.8,1,1.3,1.5h1.1V501.8z"/>
	<path class="st0" d="M499.2,398.6c0.3,0.3,0.6,0.6,0.8,0.9v-1.4c0,0-0.1-0.1-0.1-0.1c-3.4-4.6-3.3-9.1,0.1-12.6v-1.3
		C495.6,388,495.3,393.3,499.2,398.6z"/>
	<path class="st0" d="M227.4,252.2c-7.9-4.6-17.7-3.7-27.2-2c-6.7,1.2-10.9,3.5-12.5,6.9c-1.4,3-0.7,6.8,2,11.3
		c1.1,1.8,2.2,3.7,3.7,5.2c4.4,4.5,13.8,6.9,21.3,6.9c2,0,3.9-0.2,5.5-0.6c4-0.9,7.9-3.7,11.2-8.1c0.9-1.2,1.7-2.6,2.3-4
		c0.8-2.2,1.1-4.4,0.8-6.5C233.9,257.8,231.3,254.5,227.4,252.2z M232.8,267.5C232.8,267.5,232.8,267.5,232.8,267.5
		c-0.5,1.3-1.2,2.6-2.1,3.8c-3.2,4.2-6.9,6.9-10.7,7.8c-7.3,1.7-20.7-0.8-26-6.1c-1.4-1.5-2.5-3.3-3.6-5.1
		c-2.5-4.2-3.2-7.7-1.9-10.4c1.4-3.1,5.4-5.3,11.8-6.4c4.2-0.7,8.5-1.3,12.7-1.3c4.9,0,9.7,0.8,13.8,3.2c3.7,2.2,6.1,5.3,6.7,8.6
		C233.9,263.5,233.6,265.5,232.8,267.5z"/>
	<path class="st0" d="M213.5,259.1c-4-0.4-8.1,0.1-11.6,0.6c-1,0.1-2,0.3-2.9,0.7c-1.1,0.5-2,1.2-2.4,2.1c-0.5,1.1-0.5,2.2-0.1,3.1
		c1,2.2,4.3,3.5,6.2,4.1c2,0.6,4.1,0.9,6.1,0.9c1.1,0,2.2-0.1,3.2-0.3c1.3-0.3,2.6-0.6,3.9-1c1-0.3,2.1-0.6,3.1-0.8
		c0.7-0.1,1.4-0.3,2.1-0.4l0,0c1-0.1,2-0.2,2.8-0.9c1.2-1.1,0.9-2.8,0.1-3.9C222.1,260.4,217.2,259.4,213.5,259.1z M223.5,266.5
		c-0.5,0.5-1.4,0.6-2.3,0.7l-0.1,0c-0.8,0.1-1.5,0.3-2.2,0.4c0,0,0,0,0,0c-1.1,0.2-2.2,0.5-3.2,0.8c-1.2,0.4-2.5,0.7-3.8,1
		c-2.6,0.5-5.8,0.3-8.8-0.6c-1.7-0.5-4.7-1.7-5.6-3.6c-0.3-0.7-0.3-1.5,0.1-2.4c0.3-0.7,1-1.2,1.9-1.6c0.8-0.4,1.7-0.5,2.6-0.6
		c2.6-0.4,5.6-0.7,8.6-0.7c0.9,0,1.9,0,2.8,0.1c2.8,0.3,7.9,1.1,10,3.8C224,264.6,224.2,265.8,223.5,266.5z"/>
	<path class="st0" d="M493.3,363.1c-2.7-1.8-4-6.3-3.2-10.5c0.8-4.1,2.5-7.7,5-10.8c2.1-2.6,3.6-5.5,4.9-8.4v-2.6
		c-1.4,3.9-3.1,7.3-5.6,10.4c-2.6,3.2-4.3,7-5.2,11.2c-0.9,4.6,0.6,9.5,3.6,11.5c1.9,1.2,3.6,1.8,5.5,1.8c0.6,0,1.1-0.1,1.7-0.2v-1
		C497.7,365.1,495.6,364.6,493.3,363.1z"/>
	<path class="st0" d="M254,352.9c2.3,0.5,4.9,0.9,7.7,0.9c3.8,0,7.9-0.8,11.8-3.2c2.7-1.7,4.3-4.1,4.9-7
		c2.5-12.8-2.7-23.5-13.8-28.7c-3.1-1.4-6.5-1.4-9.7-1.3c-0.4,0-0.8,0-1.2,0c0,0-0.1,0-0.1,0c-0.1,0-0.2,0-0.2,0
		c-7,1.4-12.7,5.2-17.4,11.6c-1.1,1.5-2,3.2-2.8,4.8l-0.1,0.3c-1.5,3.1-1,6.4,1.5,9.8C239.7,347,246.3,351.4,254,352.9z
		 M233.8,330.7l0.1-0.3c0.8-1.6,1.6-3.2,2.7-4.7c4.6-6.3,10.1-10,16.9-11.3c0,0,0,0,0.1,0c0,0,0.1,0,0.1,0c0.4,0,0.8,0,1.2,0
		c3.1-0.1,6.4-0.1,9.3,1.2c10.7,4.9,15.7,15.3,13.3,27.6c-0.5,2.7-2.1,4.9-4.5,6.4c-5,3.2-10.8,3.9-18.8,2.2
		c-7.5-1.5-13.9-5.7-19-12.5C232.9,336.4,232.4,333.5,233.8,330.7z"/>
	<path class="st0" d="M249.4,497.5c1.5-2.1,2.6-4.3,3.4-6.3c0.9-2.5,0.9-5.1-0.2-7.1c-1.1-2.1-3.1-3.6-5.8-4.2
		c-1.1-0.3-2.2-0.3-3.3-0.4c-0.6,0-1.2-0.1-1.8-0.1c-0.1,0-0.1,0-0.2,0c-0.1,0-0.2,0-0.3,0c-0.9,0.3-1.9,0.6-2.8,1
		c-2,0.7-4.1,1.4-6,2.2c-2.8,1.2-5,3.4-6.4,6.1c-2.4,4.6-0.3,10.1,3,12.6c0.4,0.3,0.8,0.6,1.2,0.8h2c-0.9-0.4-1.8-0.9-2.7-1.6
		c-3-2.2-4.9-7.2-2.7-11.3c1.3-2.6,3.4-4.6,6-5.7c1.9-0.8,3.9-1.5,5.9-2.2c0.9-0.3,1.9-0.6,2.8-1c0,0,0.1,0,0.1,0
		c0.6,0.1,1.2,0.1,1.8,0.1c1.1,0.1,2.1,0.1,3.1,0.4c2.4,0.6,4.2,1.9,5.2,3.7c1,1.8,1,4,0.2,6.3c-0.7,2-1.8,4-3.3,6.1
		c-1.6,2.3-3.6,4-5.7,5.1h1.9C246.5,500.9,248.1,499.4,249.4,497.5z"/>
	<path class="st0" d="M247.6,339.4c3.9,3.7,8.6,5.7,13.6,5.7c0.3,0,0.6,0,0.8,0c3.9-0.2,6.8-1.5,8.6-3.8c1.8-2.4,2.2-5.7,1.3-9.7
		c-1.3-5.9-5.3-9.9-11.5-11.5c-1.4-0.4-2.8-0.3-4.2-0.3c-0.5,0-1.1,0-1.6,0c0,0-0.1,0-0.1,0c-0.1,0-0.2,0-0.2,0
		c-2.5,0.8-5.4,1.9-7.4,4.2C242.2,329.3,242.5,334.5,247.6,339.4z M247.5,324.6c1.9-2.2,4.5-3.2,6.9-3.9c0,0,0.1,0,0.1,0
		c0.6,0,1.1,0,1.7,0c1.3,0,2.7,0,3.9,0.3c5.8,1.5,9.6,5.3,10.8,10.8c0.8,3.7,0.4,6.7-1.2,8.9c-1.6,2.1-4.2,3.2-7.8,3.4
		c-5,0.2-9.7-1.7-13.7-5.4C243.5,334.2,243.3,329.6,247.5,324.6z"/>
	<path class="st0" d="M160.7,40.1c5,3.8,10.9,5.9,17.1,5.9c0.3,0,0.7,0,1.1,0c5-0.2,8.6-1.5,10.8-3.9c2.3-2.4,2.8-5.9,1.7-9.9
		c-1.7-6.1-6.7-10.2-14.5-11.9c-1.7-0.4-3.5-0.3-5.3-0.3c-0.7,0-1.4,0-2.1,0c0,0-0.1,0-0.1,0c-0.1,0-0.2,0-0.3,0
		c-3.2,0.8-6.8,1.9-9.3,4.3C153.9,29.8,154.3,35.1,160.7,40.1z M160.6,25c2.4-2.2,5.7-3.3,8.7-4c0,0,0.1,0,0.1,0c0.7,0,1.4,0,2.1,0
		c1.7,0,3.4,0,5,0.3c7.3,1.6,12.1,5.4,13.7,11.1c1.1,3.8,0.6,6.9-1.5,9.1c-2,2.1-5.3,3.3-9.9,3.5c-6.3,0.2-12.3-1.7-17.3-5.6
		C155.6,34.8,155.3,30,160.6,25z"/>
	<path class="st0" d="M383.5,487.2c1.6-4.1,3.6-8,5.7-11.6c2.6-4.6,3.9-8.6,4.3-12.4c0.4-4.5-0.9-9.1-3.8-13.9
		c-1.1-1.8-2.3-3.6-3.5-5.3c-1.3-1.9-2.6-3.9-3.9-6l-1.3-2.1c-3.7-6.1-7.5-12.3-12-18.1c-8.8-11-12-22.2-9.9-34.4
		c1.9-10.9,6.8-16.8,15.7-19.2c0,0,0,0,0,0c0,0,0,0,0.1,0c0.3,0,0.6,0.1,0.9,0.1c0.3,0,0.5,0.1,0.8,0.1c2.6,0.5,4.5,2.1,6.3,5.3
		c4.2,7.4,7.9,14,11.4,21c0.5,1,1,1.9,1.5,2.9c2.1,4.2,4.3,8.6,7.3,12.4c4.3,5.5,7.6,10.9,10,16.6l0,0.1c1.5,3.5,3,7.1,5.9,9.9
		c1.7,1.6,3.4,3.2,5,4.8c2.6,2.5,5.2,5,7.9,7.4c2.7,2.4,5.5,4.2,8.2,5.5c4.3,2.1,8.9,3.7,12.9,5.1c4.7,1.6,7.6,4.1,8.9,7.7
		c1,2.8,1.3,5.9,1.7,9l0,0.2c0.3,2.6,0.4,5.3,0.6,7.9c0.1,1.9,0.2,3.8,0.4,5.7c0.4,4.8,1.7,9.4,3.9,13.8c0.4,0.8,0.8,1.6,1.2,2.4
		h1.1c-0.5-0.9-1-1.9-1.5-2.8c-2.1-4.3-3.4-8.8-3.8-13.4c-0.2-1.9-0.3-3.8-0.4-5.7c-0.2-2.6-0.3-5.3-0.6-8l0-0.2
		c-0.3-3.1-0.7-6.3-1.7-9.2c-1.4-3.9-4.5-6.6-9.5-8.3c-4-1.3-8.5-3-12.8-5c-2.6-1.3-5.3-3.1-8-5.4c-2.7-2.3-5.3-4.9-7.9-7.3
		c-1.6-1.6-3.3-3.2-5-4.8c-2.8-2.6-4.3-6.1-5.7-9.6l0-0.1c-2.5-5.8-5.8-11.3-10.1-16.8c-3-3.7-5-7.9-7.2-12.2c-0.5-1-1-1.9-1.5-2.9
		c-3.5-7-7.3-13.7-11.4-21c-1.2-2.1-3.2-5.1-7-5.7c-0.3,0-0.6-0.1-0.9-0.1c-0.3,0-0.5-0.1-0.8-0.1c-0.1,0-0.2,0-0.2,0
		c-0.1,0-0.2,0-0.3,0c-9.3,2.5-14.5,8.8-16.4,20c-2.2,12.5,1.1,24,10.1,35.2c4.5,5.7,8.3,11.9,12,18l1.3,2.1c1.2,2,2.6,4,3.9,6
		c1.2,1.7,2.3,3.5,3.5,5.3c2.9,4.6,4.1,9,3.7,13.3c-0.3,3.7-1.6,7.5-4.1,12c-2,3.7-4.1,7.6-5.7,11.8c-2.1,5.3-1.2,10.4,2.7,15.1h1.3
		C382.4,497.4,381.4,492.5,383.5,487.2z"/>
	<path class="st0" d="M381.6,386.9c-0.1-0.2-0.3-0.4-0.4-0.6c-1.8-2.5-3.8-5.4-7.9-4.8c0,0,0,0-0.1,0c-0.1,0-0.2,0-0.2,0
		c-4.4,1.2-5.7,4.9-6.3,8c-1.9,9.8,4.4,17.8,11.7,20.6c1.8,0.7,3.5,1.2,5.1,1.7c0.5,0.1,1,0.2,1.4,0.2c0.6,0,1-0.1,1.4-0.4
		c0.6-0.5,0.9-1.3,0.9-2.6c0-2.2-0.1-4.6-0.5-7C385.9,396.8,384.9,391.4,381.6,386.9z M385.8,410.8c-0.4,0.3-1,0.3-2,0
		c-1.6-0.4-3.2-1-5-1.7c-6.9-2.6-13-10.2-11.1-19.5c0.8-4.2,2.5-6.4,5.6-7.3c0.1,0,0.1,0,0.2,0c3.5-0.5,5.2,1.9,6.9,4.4
		c0.1,0.2,0.3,0.4,0.4,0.6c3.1,4.4,4.2,9.6,4.9,14.6c0.3,2.3,0.4,4.7,0.5,6.9C386.3,409.9,386.1,410.5,385.8,410.8z"/>
	<path class="st0" d="M395.7,420.6c-0.6-1.4-1.3-3.2-3.6-3.4c-0.1,0-0.1,0-0.2,0c-0.1,0-0.2,0-0.4,0c-0.6,0.3-0.9,0.7-1,1.2
		c-0.2,0.7,0.3,1.4,0.6,1.8c0.1,0.2,0.2,0.3,0.3,0.4c0.4,0.8,1.2,1.2,1.9,1.7c0.3,0.2,0.5,0.3,0.8,0.5c0.1,0.1,0.2,0.1,0.3,0.1
		c0.2,0,0.3-0.1,0.4-0.2c0.1-0.1,0.2-0.3,0.3-0.4c0.4-0.5,0.8-0.9,0.6-1.4L395.7,420.6z M394.4,421.7c0,0-0.1,0.1-0.1,0.1
		c-0.1-0.1-0.3-0.2-0.4-0.3c-0.7-0.4-1.3-0.8-1.6-1.3c-0.1-0.2-0.2-0.4-0.4-0.6c-0.3-0.4-0.5-0.8-0.5-1.1c0-0.2,0.3-0.4,0.5-0.5
		c0,0,0,0,0.1,0c1.7,0.1,2.2,1.3,2.8,2.8l0.1,0.2C394.8,421.3,394.6,421.5,394.4,421.7z"/>
	<path class="st0" d="M492.5,418.2c-0.1,0-0.1,0-0.2,0c-0.1,0-0.2,0-0.3,0c-2.3,0.8-3.6,1.8-4.2,3.2c-0.6,1.4-0.4,3.1,0.6,5.4
		c1,2.3,2.1,4.7,3.1,7c1.6,3.6,3.2,7.2,4.7,10.9c2.1,4.9,3.3,10.3,3.8,17v-7.2c-0.7-3.7-1.7-6.9-2.9-10.1c-1.5-3.7-3.2-7.4-4.7-10.9
		c-1-2.3-2.1-4.7-3.1-7c-0.9-2-1.1-3.5-0.6-4.6c0.5-1.1,1.6-1.9,3.6-2.6c0,0,0,0,0,0c0,0,0.1,0,0.1,0c0.7,0,1.4,0.1,2.2,0.1
		c1.8,0.1,3.6,0.2,5.4,0.3v-1c-1.8-0.1-3.6-0.2-5.4-0.3C493.9,418.2,493.2,418.2,492.5,418.2z"/>
	<path class="st0" d="M326,441.2c-1-0.2-2-0.3-2.9-0.4c-0.5,0-1.1-0.1-1.6-0.2c-0.1,0-0.1,0-0.2,0c-0.1,0-0.1,0-0.2,0
		c-0.4,0.1-0.8,0.2-1.2,0.3c-0.8,0.2-1.7,0.4-2.5,0.7c-2.1,0.9-3.7,2.6-4.4,4.5c-0.6,1.9-0.4,4,0.6,5.9c1.2,2.3,2.8,3.8,4.6,4.3
		c0.5,0.1,1,0.2,1.5,0.2c1.4,0,2.9-0.5,4.5-1.5c2.9-1.8,4.8-4.4,5.6-7.6C330.3,445,329.2,442,326,441.2z M328.8,447.3
		c-0.7,3-2.4,5.4-5.1,7c-2,1.2-3.7,1.6-5.2,1.2c-1.6-0.4-2.9-1.7-4-3.8c-0.9-1.7-1.1-3.5-0.5-5.1c0.6-1.7,2-3.1,3.9-4
		c0.7-0.3,1.5-0.5,2.3-0.7c0.4-0.1,0.8-0.2,1.2-0.3c0,0,0,0,0,0c0.6,0.1,1.1,0.1,1.7,0.2c1,0.1,1.9,0.2,2.8,0.4
		C327.7,442.6,329.5,444.4,328.8,447.3z"/>
	<path class="st0" d="M414.5,494.5c0.3-0.2,0.6-0.5,0.8-0.8c0.2-0.2,0.4-0.5,0.6-0.6c4.2-3.6,7.2-8.6,9.2-15.3
		c0.5-1.9,0.8-3.8,1.1-5.7c0.2-1.1,0.4-2.3,0.6-3.5c0.6-2.9,2.1-4.6,4.6-5.1c0,0,0.1,0,0.1,0c0,0,0,0,0.1,0l0.8,0
		c2.7,0,5.6,0.1,8.3,0.9c5.8,1.7,9.4,5.1,11.1,10.3c2.2,7,4.3,14.2,6.3,21.1l1.1,3.7c0.2,0.8,0.5,1.7,0.7,2.5h1
		c-0.3-0.9-0.5-1.9-0.8-2.8l-1.1-3.7c-2-6.9-4.1-14.1-6.3-21.1c-1.8-5.5-5.6-9.1-11.7-10.9c-2.9-0.8-5.8-0.9-8.6-0.9l-0.8,0
		c-0.1,0-0.2,0-0.2,0.1c-0.1,0-0.1,0-0.2,0c-2.9,0.6-4.7,2.6-5.4,5.9c-0.2,1.2-0.4,2.3-0.6,3.5c-0.3,1.8-0.6,3.7-1.1,5.5
		c-1.9,6.5-4.9,11.3-8.9,14.8c-0.3,0.2-0.5,0.5-0.7,0.7c-0.2,0.3-0.4,0.5-0.7,0.7c-3.1,2.1-4.5,4.9-4.2,8.3h1
		C410.5,498.9,411.7,496.5,414.5,494.5z"/>
	<path class="st0" d="M282.6,425.8c0.1,0,0.2,0,0.3,0c2.7-0.5,5.7-1.4,7-4.2c0.6-1.4,0.8-3.2,0.5-4.6c-0.6-2.3-3-2.2-4.4-2.1
		c-0.1-0.1-0.2-0.1-0.4,0c-2.8,0.9-4.8,2.8-6.2,5.6c-0.4,1-0.8,2.8-0.1,3.7C280,425.1,281.5,425.8,282.6,425.8z M280.3,420.8
		c1.2-2.5,3.1-4.2,5.5-5c0.1,0,0.1,0,0.2,0c1.7-0.1,3.1-0.1,3.5,1.4c0.3,1.2,0.1,2.8-0.4,3.9c-1.1,2.4-3.7,3.2-6.3,3.7
		c-0.8,0.1-2.2-0.5-2.7-1.2C279.8,423.1,279.9,421.7,280.3,420.8z"/>
	<path class="st0" d="M237.1,22.9c0.1,0,0.2,0,0.3,0c2.7-0.5,5.7-1.4,7-4.2c0.6-1.4,0.8-3.2,0.5-4.6c-0.6-2.3-3-2.2-4.4-2.1
		c-0.1-0.1-0.2-0.1-0.4,0c-2.8,0.9-4.8,2.8-6.2,5.6c-0.4,1-0.8,2.8-0.1,3.7C234.4,22.2,235.9,22.9,237.1,22.9z M234.7,18
		c1.2-2.5,3.1-4.2,5.5-5c0.1,0,0.1,0,0.2,0c1.7-0.1,3.1-0.1,3.5,1.4c0.3,1.2,0.1,2.8-0.4,3.9c-1.1,2.4-3.7,3.2-6.3,3.7
		c-0.8,0.1-2.2-0.5-2.7-1.2C234.2,20.2,234.4,18.8,234.7,18z"/>
	<path class="st0" d="M440.2,488.9c0,0,0.1,0,0.1,0c2.7,0.4,4.7,1.8,6,4.1c1.2,2.1,2.2,4.6,3.1,7.3c0.2,0.6,0.3,1.2,0.4,1.8h1
		c-0.1-0.7-0.3-1.4-0.5-2c-0.8-2.8-1.9-5.3-3.1-7.5c-1.4-2.5-3.8-4.1-6.7-4.6c-0.1,0-0.2,0-0.3,0c0,0-0.1,0-0.1,0
		c-6.2,1.3-10.4,7.9-11.1,14.1h0.9C430.4,495.5,435.3,489.9,440.2,488.9z"/>
	<path class="st0" d="M297.9,491c-2.9-0.4-5.9-0.3-8.8-0.2c-1.3,0-2.6,0.1-3.9,0.1c-0.1-0.1-0.3-0.2-0.4-0.1c-0.7,0.1-1.3,0.2-2,0.3
		c-1.3,0.2-2.7,0.4-4,0.7L278,492c-2,0.5-4.2,1-6,2.1c-3.1,1.7-5,4.3-5.9,8h1c0.8-3.3,2.6-5.6,5.4-7.1c1.7-0.9,3.8-1.5,5.8-2
		l0.7-0.2c1.3-0.3,2.6-0.5,3.9-0.7c0.6-0.1,1.3-0.2,1.9-0.3c0.1,0.1,0.2,0.1,0.3,0.1c1.3,0,2.7,0,4-0.1c2.8-0.1,5.8-0.2,8.6,0.2
		c6.6,0.8,12,4.2,16,10h1.2C310.7,495.6,305,491.9,297.9,491z"/>
	<path class="st0" d="M288.9,499.8c-0.1,0-0.1,0-0.2,0.1c-0.1,0-0.1,0-0.2,0c-0.6,0.2-1.3,0.3-1.9,0.5c-1.3,0.3-2.7,0.7-3.9,1.3
		c-0.2,0.1-0.4,0.2-0.7,0.4h2.3c0.8-0.3,1.6-0.5,2.5-0.7c0.6-0.2,1.3-0.3,1.9-0.5c0,0,0.1,0,0.1,0c0,0,0.1,0,0.1,0
		c3.5-0.2,6.5,0.2,9.3,1.2h2.4C297.3,500.3,293.4,499.5,288.9,499.8z"/>
	<path class="st0" d="M351,300.1c2.8,2.3,5.9,3.5,9.1,3.5c1.6,0,3.3-0.3,5-1c2.1-0.8,3.3-2,3.8-3.4c0.5-1.4,0.1-3-1-4.7
		c-2.6-4.2-5.8-6.9-9.8-8.3c-1-0.3-2.2-0.5-3.2-0.6c-0.5-0.1-0.9-0.1-1.4-0.2c0,0-0.1,0-0.1,0c-0.1-0.1-0.2-0.1-0.3,0
		c-2.7,0.8-4.6,3-5.2,5.9C347.2,294.6,348.4,297.9,351,300.1z M348.8,291.5c0.5-2.5,2.1-4.4,4.4-5.1c0,0,0.1,0,0.1,0
		c0.5,0.1,1,0.1,1.4,0.2c1.1,0.1,2.1,0.2,3,0.6c3.8,1.3,6.8,3.9,9.3,7.9c0.9,1.5,1.2,2.8,0.9,3.9c-0.4,1.1-1.5,2.1-3.3,2.8
		c-4.6,1.8-9,1-13.1-2.4C349.3,297.4,348.2,294.4,348.8,291.5z"/>
	<path class="st0" d="M311.3,293C311.3,293,311.3,293,311.3,293c-0.2,0-0.2,0-0.3,0c-2.3,0.8-4.1,2.5-5.5,5.3
		c-1.1,2.3-0.8,4.8,1,6.9c1.1,1.3,2.8,2,4.4,2c0.8,0,1.5-0.2,2.2-0.5c0.5-0.3,2.9-1.6,3-3.2c0.2-2.5-0.2-5.2-0.6-7.5
		C315,293.9,313.4,292.8,311.3,293z M315.1,303.5c-0.1,0.8-1.4,1.8-2.5,2.4c-1.6,0.9-4,0.3-5.3-1.3c-1.5-1.8-1.8-3.9-0.8-5.9
		c1.2-2.5,2.8-4.1,4.9-4.8c0.1,0,0.1,0,0.2,0c2.2-0.3,2.8,1.3,3,2.2C314.8,298.5,315.2,301.1,315.1,303.5z"/>
	<path class="st0" d="M491.4,321.1c-1,2.2-2,4.4-3.1,6.5c-1.4,2.7-3,5.6-5,8.8c-3.2,5.2-4.2,11-4.9,16c-0.4,3.2-1,6.2-1.9,9
		c-0.8,2.5-2.7,3.9-5.8,4.3c-1.3,0.2-2.7,0.4-4,0.6c-1,0.2-2,0.4-3,0.5c-2.6,0.4-4.4,1.9-5.6,4.6c-0.9,2.1-1.3,4-1.2,5.6
		c0.2,8.8-2.3,15.4-7.7,21c-2.8,2.8-4.1,5.6-3.9,8.4c0.2,3.2,2.3,6.4,6.5,9.6c3.1,2.4,6.7,3.8,10.3,5.1c0.4,0.2,0.9,0.3,1.3,0.5
		c10.3,3.9,17.2,8.8,21.9,15.4c4.9,6.8,7.5,14.5,7.9,22.6c0.3,6.6,0.6,13.1,1.5,19.6c0.6,4.3,2.3,8.4,5.2,12.3v-1.6
		c-2.4-3.5-3.8-7-4.3-10.8c-0.9-6.5-1.2-12.9-1.5-19.5c-0.4-8.4-3.1-16.1-8.1-23.1c-4.8-6.8-11.9-11.8-22.4-15.7
		c-0.4-0.2-0.9-0.3-1.3-0.5c-3.5-1.3-7.1-2.6-10-4.9c-3.9-3.1-6-6-6.1-8.9c-0.2-2.5,1-5.1,3.6-7.7c5.7-5.7,8.2-12.6,8-21.7
		c0-1.5,0.3-3.3,1.2-5.2c1-2.4,2.6-3.7,4.8-4.1c1-0.1,2-0.3,3-0.5c1.3-0.2,2.6-0.5,3.9-0.6c3.4-0.4,5.6-2.1,6.6-4.9
		c0.9-2.9,1.5-5.9,1.9-9.2c0.6-4.9,1.7-10.5,4.8-15.6c2-3.3,3.7-6.2,5-8.9c1.1-2.2,2.1-4.4,3.1-6.6c1-2.2,2-4.4,3.1-6.5
		c1.4-2.7,2.9-4.9,4.6-6.7v-1.4c-2,2-3.8,4.5-5.4,7.6C493.5,316.7,492.4,318.9,491.4,321.1z"/>
	<path class="st0" d="M498,373.7c-2.5,0.4-4.9,0.9-7,1.4c-2.8,0.7-5.8,1.9-7,5.3c-0.7,2-1.5,4.5-1.7,6.8
		c-0.8,8.6,2.8,15.3,10.7,19.9c2.2,1.3,4.6,2.3,6.9,3.2v-1c-2.2-0.9-4.4-1.8-6.4-3c-7.7-4.4-11-10.6-10.2-18.9
		c0.2-2.2,0.9-4.6,1.6-6.6c1.1-3,3.8-4,6.3-4.7c2-0.5,4.4-1.1,6.9-1.4c0.6-0.1,1.2-0.2,1.8-0.4v-1
		C499.4,373.5,498.7,373.6,498,373.7z"/>
	<path class="st0" d="M370.5,501.1l0-0.8c0-0.7,0-1.2,0.1-2c0,0,0.1-1.1,0.3-2.3c1.6-9.4,6.2-17.2,6.3-17.3c3.7-6.1,2.9-11.5,2-18.5
		c0-0.2-0.1-0.4-0.1-0.7c-0.1-0.6-0.2-1.2-0.3-2c-1.7-9.1-6.9-16.8-10-21.3c-0.3-0.4-0.6-0.8-0.8-1.2l-0.2-0.2
		c-3.8-5.7-9.1-13.6-12.6-24.2c-3.7-11.3-5.4-16.5-5.8-21.8l0-0.6c-0.1-2.6-0.3-5.4-2.2-8.4c-1.9-2.9-4.2-4-7.7-5.6
		c-0.9-0.4-2-0.9-3.2-1.5c-4.3-2.1-11.5-5.7-17-12.3c0-0.1-4.7-5.9-5.4-13.4c-0.2-2.3,0.1-3.6,1-4.3c0.8-0.7,1.9-0.6,3.7-0.4
		c0,0,2.6,0.3,7.8,3.1c0.3,0.2,0.5,0.3,0.6,0.4c5.2,4.4,13,6.2,13.3,6.3l0.1,0c5.4,1.3,11.1,2.6,17.6,0.2
		c7.4-2.7,11.2-8.3,12.9-10.7c1.2-1.7,1.9-3.2,2.4-4.8c0.9-3.4,0.2-6.2-0.1-7.5c-0.4-1.5-1.1-3.7-2.6-5.9c-1.7-2.5-3.8-4.2-8.3-6.8
		c-3.3-1.9-5-2.6-6.7-3.3c-1.6-0.7-3.2-1.3-5.9-2.9c-6.3-3.7-8.1-6.3-8.9-7.9c-1-2-1.6-4.1-1.8-4.9c-0.7-3-0.6-5.5-0.6-6.6
		c0,0,0-1.3,0.2-2.6c0.3-3,1.5-6.2,2.7-9.4c1.7-4.8,3.2-9,1.7-11.5c-1-1.6-3.3-2.6-6.2-2.8c-3.4-0.2-6.5,0.9-7.9,2.7
		c-1.2,1.6-1,3.3-0.5,6.2c0.4,2.3,0.8,5.4,0.8,9.8c0,2.2-0.1,3.1-0.2,4c-0.1,0.8-0.2,1.7-0.2,3.5c0,4.8,0,14.7,6,21.8
		c2.8,3.3,6.5,5.6,8.7,7l0.1,0.1c1,0.6,1.9,1.1,2.7,1.6c1.8,1,3.3,1.8,5.3,3.6c3.6,3.2,4.2,5.2,4.3,6.4l0,0.1
		c0.1,0.6,0.2,2.1-0.5,3.7c-1.5,3.1-5.7,4.5-9.2,4.4c-2.2-0.1-3.3-0.8-7.2-3.4c-1.1-0.8-2.5-1.7-4.3-2.8c-10.2-6.7-13.4-7.6-14.6-8
		c-2.9-1-5.2-1.3-8.6-1.8c-2.4-0.3-5-0.6-8,0.1c-1.2,0.3-2,0.6-2.5,0.9c-1.7,1.1-2.8,3.1-3.4,5.8c-0.9,4.6-0.1,10.7,2.4,17.7
		c0.9,2.5,1.7,4.2,2.4,5.7c1.1,2.4,1.9,4.3,2.6,7.8c0.6,3.6,0.8,6.1,0.8,6.2c0.1,1.3,0.1,2.4,0.1,3.5c0,2.1,0,4.1,0.5,6.9
		c0.3,1.5,0.6,2.7,1.4,3.8c1.4,1.9,3.6,2.5,4.6,2.8c3.3,1,5.3,1.4,7.1,1.8c1.5,0.3,2.7,0.6,4.3,1.1c2.6,0.8,5.8,1.8,8.9,4.5
		c1,0.8,1.9,1.9,4.1,5l0.1,0.1c3.9,5.7,6.9,10.2,9.1,16.8c0.2,0.7,0.4,1.2,0.6,2c0.3,1.1,0.8,2.8,2,6.8c1.2,3.9,1.6,5.2,2.3,6.8
		c1.6,3.4,3.5,5.8,4.4,6.9l0.3,0.3c7.3,8.7,11.8,17.8,13,26.3c1.2,8.4-1.1,15.4-2.1,18.8l0,0.1c-0.9,2.8-1.6,4.1-2.7,6.2
		c-0.8,1.5-1.8,3.4-3.2,6.4l-0.1,0.1c-0.9,1.9-2,4.4-3.3,7.4h1c1.2-2.9,2.3-5.3,3.1-7l0.1-0.1c1.4-3,2.4-4.9,3.2-6.3
		c1.1-2.1,1.9-3.5,2.8-6.4l0-0.1c1.1-3.4,3.4-10.6,2.2-19.2c-1.2-8.6-5.8-17.9-13.2-26.7l-0.3-0.3c-0.9-1.1-2.8-3.4-4.3-6.7
		c-0.7-1.5-1.1-2.8-2.3-6.7c-1.2-4-1.7-5.7-2-6.8c-0.2-0.9-0.4-1.3-0.6-2c-2.3-6.8-5.5-11.5-9.2-17l-0.1-0.1
		c-2.2-3.2-3.2-4.3-4.2-5.2c-3.2-2.8-6.7-3.9-9.3-4.7c-1.6-0.5-2.9-0.8-4.4-1.1c-1.8-0.4-3.8-0.8-7.1-1.8c-1-0.3-2.9-0.8-4.1-2.5
		c-0.6-0.8-1-1.7-1.2-3.4c-0.5-2.7-0.5-4.6-0.5-6.7c0-1.1,0-2.2-0.1-3.5c0,0-0.2-2.6-0.8-6.3c-0.7-3.6-1.5-5.6-2.7-8
		c-0.7-1.5-1.5-3.2-2.3-5.7c-3.1-8.6-3-14.1-2.4-17.2c0.5-2.5,1.5-4.3,3-5.3c0.3-0.2,0.7-0.5,2.2-0.8c2.9-0.6,5.4-0.4,7.7,0
		c3.4,0.5,5.6,0.8,8.4,1.8c1.8,0.6,5.3,2,14.4,7.9c1.7,1.1,3.1,2.1,4.2,2.8c4,2.7,5.2,3.5,7.7,3.6c3.6,0.2,8.4-1.3,10.1-4.9
		c0.8-1.8,0.7-3.6,0.6-4.2l0-0.1c-0.2-1.4-0.8-3.6-4.6-7c-2.1-1.9-3.7-2.7-5.5-3.8c-0.8-0.5-1.7-0.9-2.7-1.5l-0.1-0.1
		c-2.2-1.3-5.8-3.6-8.4-6.8c-5.8-6.9-5.8-16.6-5.8-21.2c0-1.7,0.1-2.5,0.2-3.3c0.1-0.9,0.2-1.8,0.2-4.1c0-4.5-0.5-7.7-0.9-10
		c-0.4-2.7-0.7-4.2,0.3-5.5c1.2-1.6,4-2.5,7.1-2.4c2.6,0.1,4.7,1,5.5,2.3c1.3,2.1-0.2,6.3-1.8,10.7c-1.2,3.2-2.3,6.5-2.7,9.6
		c-0.1,1.3-0.2,2.6-0.2,2.7c-0.1,1.7,0,4,0.6,6.8c0.2,0.9,0.8,3.1,1.9,5.2c0.9,1.9,2.8,4.5,9.3,8.3c2.8,1.7,4.4,2.3,6.1,3
		c1.7,0.7,3.4,1.4,6.6,3.2c4.3,2.5,6.4,4.2,8,6.5c1.5,2.1,2.2,4.2,2.5,5.6c0.3,1.3,0.9,3.9,0.1,7c-0.4,1.5-1.1,2.9-2.2,4.5
		c-1.6,2.3-5.4,7.7-12.4,10.3c-6.3,2.3-11.5,1.1-17.1-0.2l-0.1,0c-0.1,0-7.9-1.9-12.9-6.1c0,0,0,0,0,0c0,0-0.3-0.2-0.7-0.4
		c-5.4-2.9-8-3.2-8.2-3.3c0,0,0,0-0.1,0c-1.8-0.2-3.3-0.3-4.4,0.6c-1.5,1.1-1.5,3.4-1.3,5.1c0.7,7.8,5.4,13.6,5.6,13.9
		c5.6,6.8,12.9,10.4,17.3,12.6c1.2,0.6,2.3,1.1,3.2,1.5c3.3,1.6,5.5,2.6,7.3,5.3c1.8,2.8,1.9,5.5,2,7.9l0,0.6
		c0.4,5.5,2.1,10.7,5.8,22.1c3.6,10.8,8.9,18.7,12.7,24.5l0.2,0.2c0.3,0.4,0.5,0.8,0.8,1.2c3.1,4.5,8.2,12,9.8,20.9
		c0.1,0.8,0.2,1.4,0.3,2c0,0.2,0.1,0.5,0.1,0.7c1,7.5,1.4,12.3-1.9,17.8c0,0.1-4.8,8.1-6.4,17.7c-0.2,1.2-0.3,2.3-0.3,2.3
		c-0.1,0.9-0.1,1.4-0.1,2.1l0,0.8c0,0,0,0.3-0.1,0.9h1C370.5,501.5,370.5,501.1,370.5,501.1z"/>
	<path class="st0" d="M492.1,139.5c-2.9-1.7-5.2-3.1-7.9-5.8c-1.8-1.7-6.3-6.6-9.5-14.4c-1-2.5-4.1-10-3.3-19.1
		c0.7-7.3,3-14.1,3-14.2c1.3-3.8,1.6-6.2,2.2-10.8c0.1-0.8,0.2-2-0.1-3.4c-0.6-2.7-2.4-4.5-3.5-5.6l-0.1-0.1
		c-0.9-0.9-1.7-1.5-2.2-1.8c-0.1-0.1-0.2-0.1-0.3-0.2c-2.4-1.6-4.4-3.5-6.7-5.7c-2.7-2.6-5.7-5.5-10.3-8.8c-4.2-3.1-5.7-3.5-7-3.6
		c-4.9-0.6-8.8,2.7-10.1,3.8c-3.7,3-6.7,8.7-8.9,17c-1.4,5.4-1.7,9-2,12.1c-0.3,3.7-0.6,6.6-2.8,11.3c-2.6,5.4-5.7,8.8-9.2,9.8
		c-1.3,0.4-2.5,0.5-6.1-0.1c-5.1-0.7-8.1-1.8-10.7-2.7c-2.1-0.7-4-1.4-6.8-1.8l-0.1,0c-3.6-0.6-11.1-1.7-16.8,2.4
		c-2,1.4-3.5,4.3-6.7,10.1l-0.1,0.2c-1.2,2.3-2.2,4.2-3,5.9c-2,4.1-3.2,6.5-6,8.8c-0.8,0.7-3,2.5-6.2,3.4c-1.2,0.3-2.5,0.5-3.8,0.6
		c-3.2,0.2-5.4-0.2-8.3-0.8c-1.5-0.3-3.1-0.6-5.2-0.9c-7.2-1-10.1-0.5-11.9,0.1c-0.8,0.3-2.9,1-4.9,2.6c-2.5,2-3.6,4.3-5.7,9.6
		c-4,10-4.3,12.8-4.7,15.6c-0.2,1.4-0.3,2.8-1.1,5.2c-0.5,1.4-0.4,2.7,0.1,3.6c0.5,0.7,1.3,1.3,2.3,1.5c7,1.8,10.5,2.6,12.3,2.6
		c8.9,0.1,18.2,12,21.7,17.1c3,4.3,10.2,14.2,8.8,25.6c-0.4,3.5-1.9,8.7-3.7,13.3c-0.5,1.2-1,2.4-1.5,3.5c-1.7,3.8-3.1,7.1-2.8,11.6
		c0.1,1.9,0.5,3.3,1.2,5.6c3.9,12.7,5.8,19.1,11.6,25.6c3.9,4.4,7.9,7.2,10.7,8.7c3.6,2,8.5,4.7,15,4.3c4.7-0.2,8.6-1.7,11.7-4.4
		c3.6-3,4.8-6.6,5.6-9c1.8-5.1,3-13.6-1.2-25.5c-0.5-1.4-1.5-4.7-3.3-10.7l0-0.1c-0.2-0.7-0.6-2.3-1-4.3c-0.1-0.4-0.1-0.8-0.1-1.1
		c0-0.3-0.1-0.5-0.1-0.6c0,0-0.2-2.6,0-5.1c0.1-1.5,0.9-6.7,4.4-12.5c2.8-4.6,6.1-7.6,8.4-9.3c1.3-1,3.2-2.4,6.2-3.6
		c5.7-2.3,10.9-1.9,12.4-1.7c5.3,0.7,10.3,3.1,14.7,7.4c2.7,2.6,4.9,6.1,9.2,13.1l0.1,0.2c1.4,2.3,2.8,4.7,2.9,4.8
		c0.2,0.3,0.4,0.6,0.5,0.8c0.1,0.2,0.1,0.3,0.2,0.3c1.6,2.8,12.3,18,16.8,22.9c7.1,7.6,19.5,12.5,31.1,15.9v-1
		c-11.4-3.4-23.5-8.2-30.4-15.6c-4.5-4.9-15.2-20.1-16.7-22.8c0,0,0,0,0-0.1c0,0-0.1-0.1-0.1-0.2c-0.1-0.2-0.3-0.5-0.5-0.9
		c0,0-1.5-2.5-2.9-4.8l-0.1-0.2c-4.4-7.1-6.6-10.7-9.4-13.3c-4.6-4.4-9.8-6.9-15.3-7.6c-1.5-0.2-7-0.6-12.9,1.8
		c-3,1.3-5.1,2.8-6.4,3.7c-2.3,1.8-5.7,4.8-8.6,9.6c-3.6,6-4.4,11.4-4.5,12.9c-0.2,2.6-0.1,5.2,0,5.3c0,0.2,0,0.4,0.1,0.6
		c0,0.3,0.1,0.7,0.1,1.1c0.3,2.1,0.8,3.8,1,4.5l0,0.1c1.8,6.1,2.8,9.4,3.3,10.8c4.1,11.7,2.9,20,1.2,24.9c-0.8,2.3-2,5.7-5.4,8.6
		c-2.9,2.5-6.7,3.9-11.2,4.1c-6.2,0.4-10.8-2.1-14.5-4.2c-2.7-1.5-6.7-4.1-10.4-8.4c-5.6-6.4-7.5-12.7-11.4-25.3
		c-0.7-2.3-1-3.6-1.1-5.4c-0.3-4.3,1.1-7.3,2.7-11.1c0.5-1.1,1-2.2,1.5-3.5c1.8-4.6,3.3-9.9,3.8-13.5c1.5-11.8-5.8-22-8.9-26.3
		c-3.6-5.2-13.1-17.4-22.5-17.5c-1.7,0-5.3-0.9-12.1-2.6c-0.6-0.1-1.3-0.4-1.8-1.1c-0.4-0.7-0.4-1.6,0-2.8c0.8-2.5,0.9-3.9,1.1-5.4
		c0.3-2.7,0.7-5.5,4.6-15.4c2.2-5.6,3.2-7.5,5.4-9.2c1.9-1.5,3.8-2.2,4.6-2.4c1.1-0.3,3.6-1.2,11.5,0c2,0.3,3.7,0.6,5.1,0.9
		c2.9,0.6,5.2,1,8.6,0.8c1.4-0.1,2.7-0.3,4-0.6c3.5-1,5.7-2.9,6.6-3.6c2.9-2.4,4.2-4.9,6.2-9.1c0.8-1.7,1.8-3.6,3-5.8l0.1-0.2
		c3.1-5.6,4.6-8.4,6.4-9.7c5.4-3.9,12.6-2.8,16.1-2.3l0.1,0c2.6,0.4,4.6,1.1,6.6,1.8c2.6,0.9,5.6,2,10.9,2.7c3.3,0.5,4.9,0.5,6.5,0
		c3.8-1.2,7.1-4.6,9.8-10.3c2.3-4.8,2.5-7.8,2.9-11.6c0.3-3.1,0.6-6.5,2-11.9c2.2-8.1,5.1-13.7,8.6-16.5c1.2-1,4.9-4.1,9.4-3.6
		c1.1,0.1,2.5,0.5,6.5,3.4c4.5,3.3,7.5,6.2,10.2,8.8c2.3,2.3,4.3,4.2,6.8,5.8c0.1,0,0.2,0.1,0.3,0.2c0.4,0.3,1.2,0.8,2.1,1.7
		l0.1,0.1c1,1,2.7,2.7,3.2,5.1c0.3,1.2,0.2,2.2,0.1,3c-0.6,4.6-0.8,6.9-2.1,10.6c0,0.1-2.4,7.1-3.1,14.4c-0.8,9.4,2.3,17.1,3.4,19.6
		c3.2,8,7.9,12.9,9.7,14.7c2.9,2.8,5.2,4.2,8.1,6c0.5,0.3,1,0.6,1.5,0.9c2.7,1.7,5,3.2,6.9,4.6v-1.2c-1.8-1.3-3.9-2.7-6.4-4.2
		C493.1,140.1,492.6,139.8,492.1,139.5z"/>
	<path class="st0" d="M474.5,488.6c-0.4-1.9-0.5-3.3-0.7-6.1c-0.3-4.9-0.1-8,0.1-11.1c0.2-3.1,0.4-6.1-0.1-10.4
		c-0.6-4.8-0.9-7.2-2.9-9.7c-2.6-3.1-6.3-4.1-10.6-5.3c-3-0.8-4.8-1-6.4-1.1c-1.3-0.1-2.5-0.2-4.1-0.6c-5.4-1.3-9-4.4-12.5-7.4
		c-3-2.6-5.3-5-20.2-26.9c-3.4-4.9-6-8.8-9-14.3c-0.7-1.3-1-1.9-1.8-3.4c-0.6-1.1-1.4-2.8-2.8-5.6c-2.9-5.8-4.5-8.7-5.4-10.4
		c-1-1.9-1.3-2.5-2-4.1c-2.6-6.3-4.2-12.1-4.6-16.8l0-0.2c-0.2-2.4-0.3-4,0-6.1c0.4-2.7,1.7-7.1,7.6-13.2
		c6.9-7.2,15.9-12.4,21.3-15.6l0.3-0.2c2-1.2,5.7-3.4,8.2-7.6c0.4-0.6,0.6-1,0.8-1.5c0.3-0.5,0.6-1.1,1.2-2.2c0.2-0.3,3-5.2,5.4-7.7
		c3.3-3.4,7.5-4.1,15.1-5.4c4.2-0.7,6.4-0.7,8.1-0.7c1.8,0,3.2,0,6-0.8c3.2-0.9,7.3-3.2,14.6-7.5c3.1-1.8,5.4-3.2,7-4.1
		c3.5-2.1,4.6-2.8,7-3.4c1-0.2,2.8-0.4,5.9-0.7v-1c0,0,0,0,0,0c-3.1,0.3-5,0.4-6.1,0.7c-2.6,0.6-3.7,1.3-7.3,3.5
		c-1.6,1-3.9,2.3-7,4.1c-7.3,4.2-11.3,6.5-14.4,7.4c-2.7,0.7-4,0.7-5.8,0.7c-1.8,0-4,0-8.3,0.7c-7.8,1.3-12.1,2-15.6,5.7
		c-2.5,2.6-5.3,7.6-5.5,7.9c-0.6,1.1-1,1.7-1.2,2.3c-0.2,0.5-0.4,0.9-0.8,1.5c-2.4,4-6,6.1-7.9,7.2l-0.3,0.2
		c-5.4,3.2-14.5,8.5-21.4,15.7c-6.1,6.3-7.4,10.9-7.8,13.7c-0.3,2.2-0.2,3.9,0,6.3l0,0.2c0.4,4.8,2,10.7,4.7,17.1
		c0.7,1.7,1,2.3,2.1,4.2c0.9,1.7,2.4,4.6,5.4,10.4c1.4,2.8,2.3,4.5,2.8,5.6c0.8,1.5,1.1,2.1,1.8,3.4c3,5.6,5.6,9.5,9,14.4
		c15,22,17.3,24.4,20.4,27.1c3.6,3.1,7.3,6.3,12.9,7.6c1.7,0.4,3,0.5,4.3,0.7c1.6,0.1,3.3,0.3,6.2,1.1c4.1,1.1,7.7,2.1,10.1,5
		c1.9,2.2,2.1,4.6,2.7,9.2c0.5,4.2,0.3,7,0.1,10.2c-0.2,2.9-0.4,6.3-0.1,11.3c0.2,2.8,0.3,4.3,0.7,6.2c0.9,4.1,2.4,6.5,4.8,10.5
		c0.5,0.8,1,1.7,1.6,2.7h1.1c-0.7-1.2-1.3-2.2-1.9-3.2C476.8,494.9,475.4,492.5,474.5,488.6z"/>
</g>
</svg>
