<?xml version="1.0" encoding="utf-8"?>
<!-- Generator: Adobe Illustrator 26.1.0, SVG Export Plug-In . SVG Version: 6.00 Build 0)  -->
<svg version="1.1" id="Layer_1" xmlns="http://www.w3.org/2000/svg" xmlns:xlink="http://www.w3.org/1999/xlink" x="0px" y="0px"
	 viewBox="0 0 430 430" style="enable-background:new 0 0 430 430;" xml:space="preserve">
<style type="text/css">
	.st0{fill:#687C80;}
	.st1{fill:#3A4647;}
</style>
<g>
	<path class="st0" d="M381.9-0.6h-3.7c-0.1,0-0.1,0-0.2,0c-4.3,0.9-9.4,4.2-13,6.5l-1.4,0.9c-7.7,5-8.5,12.1-9.3,18.9v0.2
		c-0.1,0.7-0.2,1.4-0.2,2.1c0,0.2-0.1,0.4-0.1,0.7c0,0.2,0,0.4-0.1,0.6c-0.7,4.9-1.7,12.3,3.1,16c4.7,3.6,10.6,5.5,16.4,5.5
		c2.3,0,4.5-0.3,6.6-0.9c0.4,0,0.6-0.2,0.7-0.4l1.1-1.1c0.2-0.2,0.3-0.6,0.1-0.9c-0.2-0.3-0.5-0.4-0.9-0.3c-0.3,0.1-0.5,0.1-0.7,0.2
		c-0.4,0.1-0.8,0.2-1.1,0.3c-6.8,2-14.8,0.4-20.7-4.1c-3.6-2.8-2.8-8.8-2.2-13.6v-0.2c0.1-0.3,0.1-0.5,0.1-0.7s0-0.4,0.1-0.6
		c0.1-0.7,0.2-1.4,0.2-2.1c0.8-7,1.4-13,8.2-17.5l1-0.6c3.6-2.3,9-5.8,13-6.6c0.7-0.1,1.4-0.3,2-0.5c0.4-0.1,0.7-0.2,1-0.3
		c0.4-0.1,0.6-0.4,0.6-0.8C382.6-0.4,382.3-0.6,381.9-0.6z"/>
	<path class="st0" d="M143,213.8c-0.4,0-0.8,0-1.2,0s-0.9,0-1.3-0.1c-2.9-0.1-6.2-0.1-9.6-0.1c-5.2,0-10.6,0-14.9-0.4
		c-6.7-0.8-12.5-5.4-17.4-9.9c-0.2-0.2-0.4-0.4-0.6-0.6c-0.2-0.2-0.4-0.3-0.6-0.5l-0.3-0.2c-3.9-3.6-8.7-8-12.8-8.7
		c-5.5-0.8-9.2,1.5-12.9,3.7l-0.3,0.2l-0.1,0.1c-3.4,2.1-6.5,4.1-11,3.7c-4.6-0.4-8.9-3.3-13.2-6.1l-0.2-0.1
		c-3.7-2.5-7.1-4.7-10.8-5.8c-1.7-0.5-3.8-0.5-5.8-0.5c-1.7,0-3.5,0-4.7-0.4c-4-1-5.7-3.3-7.7-5.9l-0.1-0.2
		c-1.2-1.7-2.3-3.1-3.6-4.3c-5.3-5.1-9.4-10.5-13.1-17.4c-0.2-0.3-0.5-0.5-0.8-0.4s-0.6,0.4-0.6,0.7v2.2c0,0.1,0,0.3,0.1,0.4
		c3.4,6,7.3,11.1,12.4,16c1.1,1.6,2.1,3,3.1,4.3l0,0c2.1,2.9,4.2,5.8,9.2,7.1c1.6,0.4,3.6,0.4,5.5,0.4c1.8,0,3.7,0,5,0.4
		c3.4,1.1,6.8,3.3,10.1,5.4l0.1,0.1c4.5,3,9.2,6.1,14.5,6.5c5.6,0.5,9.7-2.1,12.9-4.2c3.6-2.3,6.7-4.2,11.3-3.6
		c3.4,0.5,8.3,5.1,11.6,8.2l1.2,1.2c5.2,4.8,11.5,9.8,18.9,10.6c4.6,0.5,10.3,0.5,15.3,0.4c3.4,0,6.7,0,9.6,0.1c0.4,0,0.7,0,1.1,0
		c0.4,0,0.9,0.1,1.3,0.1c1.8,0.1,3.8,0.2,5.8,0.2s4-0.1,5.9-0.4c8.6-1.4,14.8-4.7,20.5-10.8c2-2.2,5.6-6.4,6.7-10.3
		c0.5-1.8,0.2-3.4-0.1-4.7l-0.1-0.5c-0.3-1.2-0.6-2.3-0.4-3.5c0.3-2.6,2.1-7,3.8-11l1.1-2.7c0.6-1.4,1.1-2.7,1.5-3.8
		c3.9-10.9,5.7-21.7,5.3-32c-0.2-5.1-0.1-10.2,0-15.2c0-1,0-2,0-2.9c0-1,0-2,0-3c0.1-6.2,1.2-12.2,2.5-19l0.6-3.3
		c1.5-7.9,2.1-16.7,2.6-24.4l0.4-6.1c0.2-3.7,0.4-7.2,0.8-10.4c0.2-1.5-0.2-4.2-0.7-7l-0.3-1.9c-0.4-2.3-0.7-4.4-0.7-5.4v-0.8
		c0-0.4,0-0.9,0-1.2c0.4,0,1.4,0.1,1.8,0.1c2.2,0.3,7.4,4,9.4,5.4c0.7,0.5,1.4,1,2.1,1.4c3.5,2.4,8.9,3.5,14.3,3.1
		c5-0.4,9-2,11.4-4.5c4.6-4.7,4.3-16.5,4.1-24.2c0-0.8,0-1.5-0.1-2.1c0-0.5,0-1,0-1.4c0-5.8-0.1-10.3-0.4-14.4
		c0-0.4-0.4-0.7-0.7-0.7H239c-0.2,0-0.4,0.1-0.5,0.2s-0.2,0.4-0.2,0.6c0.3,4,0.4,8.5,0.4,14.2c0,1,0,2.2,0.1,3.5
		c0.2,6.5,0.5,18.5-3.5,22.6c-2,2-5.6,3.4-9.6,3.7c-4.7,0.4-9.5-0.6-12.5-2.7c-0.6-0.4-1.3-0.9-2-1.4c-3.7-2.6-7.9-5.5-10.6-5.8
		c-1.6-0.2-2.9-0.4-3.8,0.3c-1.1,0.6-1.1,1.7-1.1,3.2V38c0,1.2,0.3,3.2,0.7,5.5l0.3,2c0.4,2.6,0.9,5.4,0.7,6.6
		c-0.4,4-0.7,8.6-1,13.4c-0.4,7.7-1,18.1-2.7,27.4l-0.6,3.3c-1.1,5.6-2.4,12.6-2.5,19.3c0,1,0,2-0.1,3c0,1,0,1.9,0,2.9
		c-0.1,5-0.2,10.1,0,15.2c0.4,10-1.4,20.5-5.3,31.1c-0.3,0.9-0.8,1.9-1.3,3.1c-0.3,0.6-0.5,1.2-0.8,1.8l-0.4,1
		c-1.8,4.2-3.8,8.9-4.1,11.9c-0.2,1.5,0.1,2.8,0.4,3.9l0.1,0.4c0.4,1.5,0.6,2.6,0.2,4c-0.8,2.6-3.1,6.2-6.1,9.4
		c-5.5,5.8-11,8.7-19,10C150.6,214.1,146.7,213.9,143,213.8z"/>
	<path class="st0" d="M52.4,376.5c-3.9-2.3-8.1-5.8-11.7-8.9c-0.7-0.5-1.3-1.1-1.9-1.6c-1-0.8-2-1.6-2.9-2.4l0,0
		c-4.3-3.5-7.6-6.3-10.9-10.6c-0.6-0.7-1.1-1.8-1.8-3l-0.6-1.2c-1.3-2.6-2.9-5.6-5.1-6.9c-3.7-2.4-8.3-3.4-12.8-4.4l-1.1-0.3
		c-0.5-0.1-1-0.2-1.6-0.3c-0.3,0-0.6-0.1-0.8-0.2c-0.3-0.1-0.6-0.2-1-0.2c-0.2,0-0.4,0-0.6,0.2c-0.2,0.1-0.3,0.4-0.3,0.6v0.9
		c0,0.4,0.3,0.7,0.7,0.7c0.5,0.1,0.9,0.2,1.3,0.3c0.5,0.1,1,0.2,1.6,0.3h0.2c4.5,1,9.2,2,12.8,4.3c1.6,1,3,3.6,4.2,5.9l0.8,1.4
		c0.6,1.2,1.2,2.3,1.8,3.2c3.6,4.7,7.1,7.6,11.3,10.9l0.1,0.1c1.6,1.3,3.1,2.5,4.9,4c3.8,3.3,8,6.8,12.1,9.2
		c0.1,0.1,0.2,0.1,0.4,0.1s0.4-0.1,0.5-0.2l0.7-0.7c0.2-0.2,0.2-0.4,0.2-0.6C52.7,376.8,52.6,376.6,52.4,376.5z"/>
	<path class="st0" d="M131.5,296.5c-2.1,0-4.1-0.1-6.1-0.2c-1,0-2-0.1-3-0.1c-0.9,0-1.8,0-2.6-0.1c-4.8-0.1-9.7-0.2-15.1,0.5
		c-1.8,0.2-3.5,0.4-5.2,0.6c-5.2,0.6-10.6,1.2-16.5,3.1c-4.1,1.5-7.2,2.8-10,4s-5.8,2.6-9.7,3.9c-4.4,1.6-8.8,1.7-13,0.3
		c-8-2.6-10.2-3.1-11.5-3.4h-0.2c-1.1-0.3-1.7-0.4-5.7-1.9c-3.3-1.2-7.8-3.2-10.9-5.8c-0.1-0.1-0.1-0.1-0.2-0.2l-0.1-0.1l-0.1-0.1
		c-4-2.6-6.2-6.8-8.4-10.9l-0.2-0.4c-0.7-1.5-1.6-3.1-2.6-4.8c-1.2-1.9-2-4-2.6-5.8c-1.9-4.9-4.1-10.6-5.7-16.2
		c-0.5-1.6-1-2.8-1.7-3.8c-0.2-0.3-0.5-0.4-0.8-0.3c-0.3,0.1-0.5,0.4-0.5,0.7v2.4c0,0.1,0,0.2,0.1,0.3c0.1,0.2,0.2,0.4,0.2,0.7
		c0.1,0.2,0.1,0.5,0.2,0.6c1.2,4.5,2.9,9,4.6,13.4c0.4,1,0.8,2,1.2,3.1l0.2,0.5c0.8,1.9,1.5,3.9,2.7,5.6c0.8,1.3,1.6,2.8,2.5,4.6
		l0.2,0.4c2.3,4.3,4.6,8.8,9.1,11.7c0.6,0.5,3.8,3.5,11.8,6.4c4.2,1.6,4.7,1.7,6.1,2c1.2,0.3,3.2,0.7,11.3,3.4
		c2.3,0.7,4.6,1.1,6.9,1.1c2.6,0,5.3-0.5,7.9-1.4c4.1-1.4,7.2-2.8,10-4s5.8-2.6,9.7-3.9c5.6-1.9,10.8-2.5,15.9-3.1
		c1.7-0.2,3.4-0.4,5.2-0.6c6-0.8,11.4-0.5,17.2-0.2h0.2c0.9,0,1.7,0.1,2.6,0.1c1.8,0.1,3.7,0.2,5.7,0.2c0.2,0,0.4-0.1,0.5-0.2
		l0.9-0.9c0.2-0.2,0.3-0.5,0.2-0.8S131.8,296.5,131.5,296.5z"/>
	<path class="st0" d="M291.9,136.4c-0.1-0.1-0.1-0.2-0.2-0.3c-0.9-1.4-2.8-4.6-6.4-4.2c-1.6,0.2-2.9,1.8-4.2,3.2l-0.2,0.3
		c-0.4,0.5-0.8,0.9-1,1.2c-5,4.6-15.2,4.2-21.2,0.9c-0.8-0.5-2-1.2-3.1-2.1c-3.2-2.2-7.1-4.9-10.6-4.4c-4.6,0.6-4,5.4-3.6,8.1
		c0.1,0.9,0.2,1.7,0.2,2.5c-0.6,23.9-2.3,43.6-17.3,61.2c-4.9,5.8-9.9,11-15.2,16.6l-1.6,1.7L196,232.5l-1.2,1.2
		c-4.8,4.4-9.5,7.8-13.5,9.9c-7.5,4-17.7,6.4-30,7.3c-4.5-0.1-8-0.5-12.5-1.3c-1.7-0.3-3.6-0.6-5.7-0.8h-0.4c-4-0.5-6.8-0.8-17.3,0
		c-9,0.7-11.3,0-19-2.5l-1.4-0.4c-2.3-0.7-7.9-1.2-10.1-1h-0.2c-3.7,0.1-16.6,0.5-24.2-0.7c-8.5-1.4-17.1-5.4-23.2-10.8
		c-1-0.9-2.4-1.9-3.7-2.8c-0.4-0.3-0.9-0.6-1.3-0.9c-1.2-0.8-2.4-1.6-3.3-2.4c-5.8-4.6-14.2-6.3-21.5-7.8c-2.3-0.5-4.8-1-7-1.7
		c-0.2-0.1-0.5,0-0.7,0.1s-0.3,0.4-0.3,0.6v0.9c0,0.3,0.2,0.6,0.6,0.7c1.9,0.5,3.8,0.9,5.6,1.3l1.3,0.3c7.4,1.4,15,3.1,20.4,7.2
		c0.7,0.6,1.5,1.1,2.4,1.7c0.3,0.2,0.7,0.5,1.1,0.7c1.7,1.2,3.5,2.4,4.7,3.5c6.4,5.8,15.6,10,24.6,11.5c7.9,1.2,21,0.9,24.8,0.7h0.2
		c2-0.2,7.1,0.3,9.1,1l1.8,0.5c7.5,2.4,10.4,3.3,19.6,2.5c10.5-0.8,13.1-0.5,17,0c0.8,0.1,1.5,0.2,2.3,0.3c1.2,0.2,2.3,0.3,3.4,0.5
		l0.7,0.1c3.9,0.6,7.5,1.1,12.3,1.2c12.6-0.9,23.1-3.4,31.2-7.6c2.1-1.1,4.3-2.5,6.6-4.2c0,0,0.1,0,0.1-0.1l0.4-0.4
		c6.4-4.9,12.9-11.3,18.4-17l1.2-1.3c5-5.3,10.7-11.3,16-17.4c0.2-0.2,0.3-0.4,0.5-0.5c0.1-0.2,0.3-0.3,0.5-0.5
		c15.6-18.4,17.3-38.4,17.9-62.7c0-0.8-0.1-1.6-0.2-2.5v-0.3c-0.5-4-0.1-5.3,1.5-5.5c2.3-0.3,5.6,1.9,8.3,3.8l0.4,0.3
		c1.2,0.8,2.4,1.6,3.4,2.2c6.9,3.7,18.7,4.1,24.5-1.3c0.3-0.3,0.6-0.6,0.9-1.1l0.3-0.4c1.8-2.2,2.4-2.5,2.6-2.5
		c1.3-0.1,2.6,0.9,3.8,3c0.3,0.5,0.6,1,1.1,1.6c0.1,0.2,0.3,0.3,0.5,0.3s0.4-0.1,0.6-0.2l0.8-0.8c0.1-0.1,0.2-0.3,0.2-0.5
		s-0.1-0.4-0.2-0.5C292.2,136.8,292,136.6,291.9,136.4z"/>
	<path class="st0" d="M0.2,8.2c0.1,0.1,0.3,0.1,0.4,0.2c0,0,0.1,0,0.1,0.1C7.2,11.7,14,15,19.9,16.6c2.8,0.8,5.4,1.3,7.7,1.7
		l1.2,0.2C37,20,42.4,21,50,31.2c3.7,5,4.1,8.8,4.1,17.7c0,4.9,1.6,8.6,3.2,12.2c1.1,2.4,2.2,4.9,2.9,7.9c0.5,2.1,0.9,4.2,1.3,6.3
		v0.2c1.7,8.7,3.2,16.3,11.3,22c6.5,4.6,16.7,5.5,19.7,5.6h1.7c7.4,0,13.8-1.7,17.7-4.5c11.5-8.4,7.6-26.4,3.5-35.7
		c-5.2-11.9-6.2-13.2-14.1-23.1l-1.1-1.3C92.3,28.7,90,24.9,89.9,24.4c0-0.3,0.4-1.8,5.4-9.9c2.4-4,3.5-5.8,3.7-6.7
		c0.8-3.2,1.2-5.7,1.4-7.6c0-0.2,0-0.4-0.2-0.6c-0.1-0.2-0.3-0.3-0.6-0.3h-1.1c-0.4,0-0.7,0.3-0.7,0.6l-0.1,0.8
		c-0.3,1.9-0.6,4-1.3,6.5c-0.2,0.6-1.7,3.2-3.1,5.5l-0.8,1.4c-3.7,6.3-5.3,9.1-5.2,10.5c0.2,1.4,3.1,5.6,10.8,15.4l1.1,1.3
		c7.7,9.7,8.7,10.9,13.8,22.5c3.8,8.7,7.5,25.5-2.8,33c-3.9,2.8-10.5,4.2-17.7,4c-5.6-0.2-13.3-1.6-18.2-5.1
		C67,90.5,65.6,83.3,64,75l-0.3-1.7c-0.3-1.6-0.6-3.2-1-4.8c-0.7-3.2-1.8-5.7-2.9-8.2c-1.5-3.4-3-6.8-3-11.3
		c0-9.2-0.4-13.4-4.4-18.9c-8.1-10.9-14.3-12-22.7-13.7l-1.2-0.2c-2.2-0.4-4.8-0.9-7.5-1.7C15,12.8,8.3,9.6,1.9,6.4
		c-0.5-0.2-1-0.5-1.5-0.7c-0.2-0.1-0.5-0.1-0.8,0C-0.6,5.8-0.8,6-0.8,6.3v1c0,0.3,0.1,0.5,0.3,0.6C-0.2,8,0,8.1,0.2,8.2z"/>
	<path class="st0" d="M89.4,146.9c-4.1-1.2-8.8-1.6-13.9-1.9l-1.3-0.1c-7.2-0.5-14.6-1-20.6-3.7c-2.3-1.1-9.5-7.2-12.2-10.7
		c-13-15.9-26.9-45.5-27.6-67.7c-0.1-1.9,0.6-3.2,1.2-4.4l0.1-0.2c1.1-2.2,2.2-4.4-2-8.4c-1.7-1.7-4.5-1.9-7.4-2.1H4.9
		c-1.5-0.1-3.2-0.2-4.7-0.5c-0.2,0-0.4,0-0.6,0.2c-0.2,0.1-0.3,0.4-0.3,0.6v0.9c0,0.4,0.3,0.7,0.6,0.7c1.7,0.3,3.3,0.4,5,0.5h0.2
		c2.6,0.1,5,0.2,6.1,1.3l0,0c3,2.9,2.5,3.9,1.6,5.7l-0.1,0.2c-0.8,1.5-1.6,3.2-1.5,5.7c0.8,23,15,52.9,28,69.2
		c2.6,3.4,10.3,10,13.2,11.4c6.4,2.9,14.1,3.5,21.6,4l1.4,0.1c4.8,0.4,9.4,0.7,13.1,1.8c5.5,1.6,10.5,4.5,14.5,6.7
		c5.9,3.3,12,6.8,19.2,7.1c0.9,0,1.7,0.1,2.5,0.1c10,0,17-2.9,22.5-9.2c6-7,6.3-9.2,6.8-13.6v-0.2c0.2-2,0.5-4.3,1.3-7.6
		c3.6-15.7,2.7-32.5,1.5-45.3c-1.8-20.2-8.1-40.3-18.2-58.2c0,0-0.1-0.1-0.1-0.2c-0.2-0.2-0.8-1.3-1.3-2.1c-1.7-2.8-2.6-4.1-3.1-4.8
		l0,0c0.2-0.7,1.5-2.8,7.4-9.7l0.5-0.6c3.4-4,5.8-7.8,7.1-11.6c0.1-0.2,0-0.5-0.1-0.7s-0.4-0.3-0.6-0.3h-1.2c-0.3,0-0.6,0.2-0.7,0.5
		c-1.3,3.4-3.5,6.9-6.7,10.7l-0.5,0.6c-4.4,5.1-7.4,8.9-7.9,10.8c0,0.1,0,0.1,0,0.2v0.3c0,0.3,0.1,0.5,0.3,0.6
		c0.4,0.6,2.2,3.4,3.3,5.1c0.6,0.9,1,1.6,1.3,2.1c0,0.1,0,0.1,0.1,0.2c9.9,17.5,16.1,37.2,17.9,57.2c1.3,14.5,1.9,29.9-1.5,44.7
		c-0.8,3.3-1.1,5.7-1.3,7.9c-0.5,4.1-0.7,6-6.3,12.5c-5.4,6.3-12.2,8.7-22.8,8.2c-6.5-0.3-12.1-3.5-18-6.8
		C100.1,151.3,95.1,148.5,89.4,146.9z"/>
</g>
<g>
	<path class="st1" d="M120.6,27.9c0.2,0.2,0.5,0.4,0.7,0.5c0.2,0.2,0.4,0.3,0.5,0.4c9.3,15.1,16.2,37.1,18.5,58.7
		c0.1,1.3,0.9,2.3,1.6,3.2l0.2,0.3c0.6,0.9,1.2,1.7,1.3,2.9c0.1,13.2-1.5,16.7-11.6,24.3c-8.4,6.4-17.5,6.5-37.3,6
		c-3.8-0.1-6.6,0.1-9.6,0.4c-3.2,0.3-6.4,0.5-11.4,0.4c-2.2-0.1-3.8,0-5,0c-0.5,0-1,0-1.4,0c-3.1,0.1-3.1,0.1-7.4-1.6
		c-0.3-0.1-0.7-0.2-0.9-0.3c-0.4-0.1-0.7-0.2-1-0.4c-2.7-0.9-3.3-1.1-7.5-6c-6.3-7-11-14.7-14.5-23.7C32,83.4,30.2,62,32,48
		c0-0.3,0.1-0.6,0.1-0.9l0.1-0.2c0.3-1.6,0.6-3.1-0.9-4.7c-1.3-1.3-4.6-2.5-6.9-3.4c-0.3-0.1-0.6-0.2-0.9-0.3s-0.6-0.2-0.8-0.4
		C17.6,36,12,34.7,4,33l-0.9-0.2c-0.9-0.2-2-0.4-2.9-0.6H0v1h0.1C1,33.3,2,33.5,3,33.7l0.7,0.2c7.7,1.7,13.3,3,18.4,5.2
		c0.3,0.1,0.7,0.3,1.2,0.5c0.2,0.1,0.4,0.1,0.6,0.2c2.2,0.8,5.5,2,6.6,3.3c1.2,1.2,1,2.3,0.8,3.7v0.4c-0.1,0.2-0.1,0.4-0.1,0.6
		c0,0.2,0,0.4-0.1,0.6c-1.8,14,0,35.6,3.8,45.3c3.7,9.2,8.5,17,14.6,23.8c4.4,4.9,5.1,5.2,7.8,6.1c0.2,0.1,0.4,0.2,0.7,0.3
		c0.4,0.1,0.8,0.3,1.2,0.4c3.6,1.4,4.3,1.6,6.2,1.6c0.4,0,1,0,1.6,0c0.4,0,0.9,0,1.4,0c1.3,0,2.8-0.1,5,0c4.3,0.1,7.2-0.1,10-0.3
		c0.5,0,1-0.1,1.5-0.1c0.6,0,1.1-0.1,1.6-0.1c2.3-0.2,4.7-0.4,7.8-0.3c19.9,0.5,29.1,0.4,37.9-6.2c10.3-7.8,11.9-11.3,11.8-24.8
		c0-1.3-0.7-2.3-1.3-3.2l-0.2-0.3c-0.7-0.9-1.4-1.8-1.5-3c-2.2-21.5-9.1-43.6-18.5-59.1c-0.2-0.3-0.6-0.6-1.3-1.1
		c-1.2-0.8-3.2-2.2-3.9-4.4c0.1-0.2,0.1-0.4,0.1-0.7c0-0.2,0-0.3,0.1-0.6c0.1-1,0.6-4.3,1.6-5.7c3.3-4.8,4.6-11,5.3-15.9V0h-0.9v0.1
		c-1,5.5-2.3,11.3-5.3,15.6c-1,1.6-1.5,5-1.6,6c-0.1,0.4-0.2,1-0.2,1.2h-0.1l0.1,0.2C117.1,25.4,119.2,26.9,120.6,27.9z"/>
	<path class="st1" d="M396,29.9L396,29.9l-0.1,0.2c-11.2,5.6-20.5,6-26.1,1.1c-2.4-2-1.1-3.7,0.5-5.8l0,0c1.3-1.7,2.6-3.4,2-5.6
		c1.4-5.1,5.9-9.6,11.9-12c0.9-0.4,2.2-0.9,4-1.5c3.8-1.3,7.7-2.6,9.9-4.4c0.6-0.4,0.9-1.1,1.1-1.9v-0.2h-0.8v0.1
		c-0.2,0.6-0.5,1.1-0.9,1.4c-2.3,1.7-6.5,3.2-9.7,4.3c-1.7,0.6-3,1.1-4.1,1.5c-6.2,2.5-10.9,7.2-12.4,12.6l0,0l0,0
		c0.6,1.9-0.7,3.5-2,5.1c-1.6,1.9-3.3,4.2-0.4,6.7c2.8,2.4,6.4,3.7,10.6,3.7c4.8,0,10.4-1.6,16.5-4.7l0.1-0.1c1.4-0.7,2.5-1,3.4-1.2
		l0,0l0.8-0.8l-0.4,0.1C399.1,28.8,397.7,29.1,396,29.9z"/>
	<path class="st1" d="M193.4,20.4c-2.5-2.5-4.9-4.6-7.3-3.5c-3.8,1.7-2.9,9.3-2.9,9.3c0.3,2.4,0.6,4.8,1.8,7.3c5,10.3,6,22,2.6,32.1
		c-4.1,12.3-4.2,25.4-4.3,36.9c-0.1,7.8-0.2,15.2-1.3,22.2c-0.8,5.5-1.3,11-1.7,16.4c-0.1,1-0.2,2.1-0.2,3.1l-0.1,1
		c-1,13.4-2,27.3-8,40.4c-0.1,0.4-0.3,0.8-0.5,1.2s-0.4,0.8-0.5,1.2c-1.4,3.4-3.1,7.5-6.5,9.8c-5.5,3.8-13.8,6.3-22.2,6.8
		c-14.5,0.8-33.9-0.8-42-6.3c-1.3-0.9-3-2.3-4.8-3.8c-3.5-3-7.9-6.8-11.4-7.7c-3.4-0.9-6.7,0.4-9.9,1.7c-1.9,0.8-3.6,1.3-5.1,1.7
		c-4.7,1-8.9,0.3-13.1-2.3c-0.2-0.2-9.8-5.8-15.4-6.9c-8.7-1.7-23.4-10.7-26.6-14.8c-3.3-4-5.2-8.9-7.2-14l-0.3-0.7
		c-0.2-0.4-0.3-0.8-0.5-1.2c-1.1-2.7-2.1-5.6-3.5-8.2c-0.7-1.3-1.6-3.3-2.5-5.4l-0.2-0.6v2l0,0c0.5,1.3,1.2,2.6,2,4.2
		c1.4,2.5,2.5,5.3,3.6,8.1l0.5,1.3c2.1,5.4,4.1,10.5,7.4,14.6c3.4,4.1,18.4,13.2,27.2,15c5.4,1.1,14.7,6.6,15.1,6.9
		c4.4,2.7,8.7,3.4,13.8,2.4c1.4-0.3,2.7-0.8,4-1.3c0.4-0.1,0.8-0.3,1.2-0.4c3.2-1.3,6.1-2.5,9.2-1.7c3.3,0.8,7.6,4.5,11,7.5
		c0.4,0.4,0.9,0.7,1.3,1.1c1.3,1.1,2.5,2.1,3.5,2.8c7,4.7,22.1,6.6,35.5,6.6c2.5,0,4.9-0.1,7.1-0.2c8.6-0.5,17.1-3.1,22.7-6.9
		c3.3-2.3,5-6.2,6.5-9.6l0.2-0.5c0.4-0.8,0.7-1.6,1-2.4c6.3-13.6,7.3-28.4,8.1-41.5c0.4-6.3,0.9-12.9,1.9-19.5
		c1-7.3,1.2-15,1.3-22.3v-0.1c0.2-12.2,0.4-24.7,4.3-36.7c3.4-10.2,2.4-22.1-2.6-32.6c-1.2-2.4-1.5-4.8-1.7-7.1
		c-0.3-2.5-0.1-7.5,2.4-8.6c1.9-0.8,3.9,1,6.4,3.4c0.2,0.2,0.4,0.4,0.6,0.5c1.1,1,2,1.9,3.1,2.5c3.4,1.9,7.4,3.9,11.3,4.8
		c5.3,1.1,10.9-3.3,13.2-6.3c2.1-2.7,3.1-4.6,3.4-6.1c1.1-5.4,1.8-10.8,2-16.2v-0.1h-0.8v0.1c-0.2,5.7-0.8,11.1-1.9,16.1
		c-0.3,1.6-1.4,3.6-3.3,5.9c-2.3,2.9-7.6,7-12.4,6.1c-3.8-0.9-7.8-2.9-11.2-4.8C195.7,22.7,194.5,21.5,193.4,20.4z"/>
	<path class="st1" d="M216.3,57.4c-1-0.8-2.1-1.7-3.3-2.5c-1-0.4-1.9-0.5-2.8-0.2c-1.2,0.5-2.1,1.8-2.1,3.1
		c3.4,28.3-1.1,54.8-5.9,82.9l-0.5,2.7c-0.4,1.9-0.2,4.1,0,6c0.2,2,0.4,4,0,5.9c-3.3,15.2-6.1,26.3-9.2,37.1
		c-8,12.1-17.6,21.2-29.5,27.8c-20,9.8-42.4,3.5-60.4-1.6c-4.2-1.3-6.5-3.8-9-6.4c-1.5-1.6-3.2-3.3-5.5-4.9c-0.4-0.5-1-0.9-1.7-1.3
		l-0.2-0.1c-0.7-0.4-1.4-0.8-1.7-1.3l-0.4-0.4c-0.7-0.6-2-1.7-4.1-1.3c-3,0.8-5.1,2-6.7,3.1l-0.2,0.1c-2.8,1.6-5,2.9-10.4,2.3
		c-2.6-0.3-12.6-2.7-16.3-3.5c-1.2-0.3-1.5-0.4-1.6-0.4c-2.6-1-5-2.2-7.3-3.3c-0.6-0.3-1.1-0.6-1.7-0.8c-1.8-0.9-3.9-2-6.2-3
		c-4.2-2.1-7.5-3.6-12.4-5.1c-4-1.6-6-2.4-6.7-5.5v-0.1l0,0c-3.6-4.4-7.1-9-10.3-13.7L0,172.7v1.3l0,0c3,4.4,6.3,8.7,9.9,13.1
		c0.7,3.3,2.9,4.3,7.1,6l0,0c4.9,1.6,8.1,3,12.3,5.1c2.3,1,4.4,2.1,6.2,3c2.4,1.3,5.6,2.9,9,4.2c0.1,0,0.8,0.2,1.9,0.4
		c4.1,0.9,13.6,3.2,16.2,3.6c5.8,0.7,8.3-0.8,11.2-2.6l0.4-0.2c1.6-1,3.4-2,6.2-2.8c1.5-0.3,2.4,0.4,3.3,1.2l0.3,0.3
		c0.4,0.6,1,0.9,1.7,1.3l0.2,0.1c0.7,0.4,1.4,0.8,1.7,1.3l0.1,0.1c2.2,1.5,3.8,3.2,5.4,4.9l0.2,0.2c2.5,2.6,4.9,5.1,9.2,6.4
		c10.6,3,23.8,6.8,37.1,6.8c9,0,16.8-1.7,24-5.2c12-6.8,21.8-16,29.8-28.1l0,0V193c3.3-11.9,6.2-23.4,9.2-37.2c0.4-2,0.2-4.1,0-6
		c-0.2-2-0.4-4,0-5.9l0.5-2.7c4.8-28.1,9.3-54.7,5.9-83c0-1.1,0.6-2.1,1.6-2.5c0.6-0.3,1.2-0.2,2,0.1c1.1,0.7,2.2,1.6,3.2,2.4
		c0.4,0.3,0.7,0.6,1.1,0.9c3.5,2.9,7.1,5.9,12.9,5.9c4.2,0,8.5,0,12.8-1.1c3.7-1.4,7.2-4.1,10.8-8.3c4.7-7.8,6.3-14.7,5-21.8l0,0
		c-0.3-1-0.6-2-0.8-3l-0.2-0.6c-1-3.5-1.9-6.7-3.9-10c-0.6-4.8-0.7-10.8-0.8-16.7V3.4c0-1.2,0-2.4-0.1-3.6v-0.1h-0.8v0.1
		c0,1.2,0,2.4,0.1,3.6v0.1c0.1,5.9,0.2,11.9,0.9,16.7v0.1l0,0c2.1,3.3,3,6.5,4,10l0.1,0.4c0.1,0.5,0.3,1,0.4,1.5
		c0.1,0.5,0.3,1,0.4,1.5c1.3,6.8-0.3,13.6-4.9,21.3c-3.5,4-7,6.7-10.3,8c-4.2,1.1-8.4,1.1-12.6,1.1c-5.6,0-9-2.9-12.3-5.8
		C217.1,58,216.7,57.7,216.3,57.4z"/>
	<path class="st1" d="M357.6,55.1c-4.1-1.3-7.3-3-9.7-5.3c-5.5-6.5-3.6-13.3-1.5-20.4c0.3-1,0.6-2,0.8-3c1.3-2.8,0.9-5.8,0.5-8.6
		v-0.3c-0.3-2.1-0.6-4.2-0.3-6.2c0.7-4.2,4.4-7.6,7.6-10.5c0.3-0.2,0.6-0.4,0.9-0.7l0.2-0.2H355h-0.1c-0.2,0.1-0.3,0.2-0.5,0.4
		c-3.5,3.2-7.1,6.5-7.8,11c-0.3,2.1,0,4.3,0.3,6.3L347,18c0.4,2.8,0.8,5.7-0.3,8.4l0,0c-0.3,1-0.6,2-0.8,3.1
		c-1.9,6.6-4.1,14.1,1.6,20.9c2.5,2.4,5.8,4.2,10.2,5.5c4.6,0.6,9.8,0.9,15.4,0.9h0.1l0.6-0.6h-0.3C368,56,362.3,55.8,357.6,55.1z"
		/>
	<path class="st1" d="M120.2,288.1L120.2,288.1c-1.8,0.3-3.5,0.6-5.2,0.8c-2.4,0.4-4.6,0.7-6.8,1.1c-1.4,0.2-2.7,0.4-4.1,0.6
		c-3.2,0.5-6.5,1-10.2,1.6c-3.6,0.6-6.8,1.4-9.6,2l-1.1,0.2c-4.6,1-9,2-14.3,2.5c-9.9,0.8-21.8-1.6-30.5-6.1
		c-8.5-4.5-12-10.3-15.7-16.5v-0.1c-0.3-0.6-0.7-1.1-1-1.7c-0.2-0.4-0.5-0.7-0.7-1.1c-3.6-5.7-5-10.1-6.1-13.7l-0.2-0.5
		c-1-3-1.9-5.7-3.8-8.2c-3.5-4.8-6.6-6.6-10.8-8.2l-0.2-0.1v0.8H0c4,1.6,7,3.4,10.1,7.9c1.8,2.6,2.8,5.1,3.9,8.6l0.2,0.5
		c1.3,3.7,2.7,7.9,6.1,13.4c0.3,0.4,0.6,0.9,0.9,1.3s0.5,0.9,0.8,1.3c3.5,6,7.2,12.3,16,16.8c7.7,4,17.6,6.4,26.9,6.4
		c1.4,0,2.7-0.1,4.1-0.2c5.6-0.5,10.2-1.5,15.1-2.6l0.4-0.1c2.9-0.7,6-1.4,9.6-2c6-1,10.2-1.7,14.3-2.2c1.3-0.2,2.7-0.4,4.1-0.6
		c2.5-0.4,5.1-0.8,7.9-1.3c4.4-0.7,12-0.6,20.2,0.2h0.1l0.6-0.6H141C132.5,287.4,124.8,287.4,120.2,288.1z"/>
	<path class="st1" d="M94.3,319.7c-1.7,0.4-3.3,0.8-4.8,1.2c-3.9,1-7.9,2-11.6,2.9c-0.5,0.1-1,0.2-1.6,0.4c-0.5,0.1-1,0.2-1.5,0.3
		h-0.1c-6.4,1.5-13,3-18.6,0.3c-10-4.8-19.8-8.9-27.6-11.7c-5.5-2-10.7-5.5-15.2-8.5l-1.4-0.9C8.4,301.2,3.3,296,0.2,292L0,291.7
		v1.2l0,0c2.9,3.5,7.6,8.5,11.4,11.1l0.3,0.2c4.9,3.4,10.4,7.2,16.4,9.4c8.7,3.2,18.5,7.3,27.6,11.7c2.4,1.1,4.9,1.6,7.5,1.6
		c3.8,0,7.8-0.9,11.7-1.8H75c0.5-0.1,1-0.2,1.6-0.4c0.5-0.1,1-0.2,1.5-0.3c2.9-0.6,6-1.4,9-2.2c0.9-0.2,1.8-0.5,2.7-0.7
		c1.5-0.4,3-0.8,4.4-1.2h0.2c5.5-1.3,11.3-2.2,17.4-2.5l0,0l0.8-0.8h-0.3C105.8,317.4,99.9,318.2,94.3,319.7z"/>
	<path class="st1" d="M33.3,383.2c-12.9-8.3-21.1-16.4-24.2-24.1c-0.6-1.4-0.7-2.9-0.7-4.6c-0.1-2.6-0.2-5.5-3.7-7.1
		c-1.5-0.8-3.2-1-4.7-1.2h-0.1v0.7H0c1.8,0.2,3.2,0.6,4.4,1.1c2.8,1.3,3.1,3.5,3.2,6.5v0.1c0.1,1.5,0.2,3.1,0.8,4.6
		c1.9,4.8,6.5,12.6,24.3,24.6c2.1,1.4,5.9,3.1,8.6,4.3h0.1l0.5-0.5l-0.2-0.1C39,386.3,35.3,384.6,33.3,383.2z"/>
	<path class="st1" d="M34.7,393.5c-0.3-0.1-0.5-0.2-0.8-0.3c-5-1.4-10.3-3.1-15.1-6.1c-0.6-0.4-1.2-0.8-1.8-1.1
		c-2.1-1.3-4.2-2.6-5.8-4.3c-1.2-1.2-2.4-2.4-3.7-3.5c-3.5-3.2-6.3-5.9-7.5-9l-0.2-0.7v2v0.1c1.5,2.8,4,5.2,7.1,8
		c1.3,1.2,2.5,2.3,3.6,3.5c1.5,1.6,3.5,2.8,5.5,4l0.5,0.3c0.3,0.2,0.6,0.4,0.9,0.6s0.6,0.3,0.9,0.5c4.6,3,9.6,4.7,15.2,6.4
		c0.2,0,0.4,0.1,0.6,0.2c0.2,0.1,0.5,0.2,0.7,0.2h0.1l0.6-0.6l-0.2-0.1C35.1,393.6,34.9,393.5,34.7,393.5z"/>
	<path class="st1" d="M0.1,427.1l-0.2-0.1v0.8H0c0.2,0.1,0.3,0.2,0.5,0.3c0.2,0.1,0.3,0.2,0.5,0.3l0.1,0.1l0.5-0.5l-0.1-0.1
		C1,427.6,0.5,427.3,0.1,427.1z"/>
	<path class="st1" d="M0.1,407.7l-0.2-0.2v1.6l0,0c3.3,2.7,7.1,5.5,11.6,8.5l0.1,0.1l0.9-0.9l-0.1-0.1
		C7.2,413.3,3.4,410.5,0.1,407.7z"/>
	<path class="st1" d="M3.1,386.8L3.1,386.8c-0.7-0.7-1.3-1.4-1.8-2.1c-0.4-0.4-0.8-0.9-1.2-1.3l-0.2-0.2v1.2l0,0
		c0.8,1,1.6,2,2.5,2.9c5.3,5.8,13.3,11.2,23.6,16h0.1l0.5-0.5l-0.2-0.1C16.3,398,8.4,392.6,3.1,386.8z"/>
	<path class="st1" d="M0,396.6l-0.2-0.2v1H0c5.4,4.4,13.3,9,19.5,12.5h0.1l0.5-0.5l-0.1-0.1C13,405.5,5.3,401,0,396.6z"/>
	<path class="st1" d="M33.7,347.7L33.7,347.7c-1.5-1.7-3.1-3.5-4.9-5.4c-2.2-2.4-4.8-4.1-7.6-6l-0.8-0.6c-2.9-2-6.6-3.3-9.6-4.4
		l-1.5-0.6c-3.1-1.2-6.2-2.5-9.3-3.9l-0.2-0.1v0.8h0.1c3.3,1.5,6.3,2.7,9,3.7l1.5,0.6c3.3,1.2,6.7,2.5,9.5,4.3l0.3,0.2
		c3.1,2,5.7,3.8,8,6.2c1.7,1.8,3.3,3.6,4.8,5.4l0.2,0.2c7.2,8.1,13.5,15.2,29,18.8h0.1l0.6-0.6l-0.2-0.1
		C47.2,362.9,40.9,355.9,33.7,347.7z"/>
	<path class="st1" d="M68.7,353.6l-0.9-0.2c-2.9-0.6-6.5-1.2-11.2-2.4c-7.3-1.8-15-9-19.1-12.9l-0.4-0.4
		c-6.6-6.1-13.3-8.4-20.4-10.9l-0.1-0.1c-5.7-1.9-10.9-3.8-16.5-7.2l-0.2-0.1v0.9H0c5.5,3.3,10.6,5.2,16.2,7.1
		c6.7,2.3,13.6,4.6,20.3,10.8l0.4,0.4c4.2,3.9,12,11.2,19.6,13.1c5.5,1.4,9.4,2.1,12.1,2.5l0.5,0.1c2,0.4,3.5,0.6,5.1,1h0.1l0.6-0.6
		l-0.2-0.1C72.7,354.3,70.8,354,68.7,353.6z"/>
	<path class="st1" d="M72,341.7c-10.1-2-18.6-5.1-24.7-8.8l-0.2-0.1c-2.1-1.3-4.3-2.7-6.5-4.2C34.3,324.4,27.8,320,20,318
		c-3.3-0.9-9.7-3.1-12.5-4.7c-1.9-1.2-5.5-4.2-7.4-6.3L0,306.8v1.1l0,0c2.1,2.2,5.3,4.9,7.1,5.9c2.7,1.7,9.2,3.9,12.7,4.8
		c7.5,1.9,14,6.3,20.4,10.5c2,1.4,4.2,2.8,6.7,4.4c10.1,6.1,23.5,8.6,24.9,8.8c1.4,0.3,3.5,0.4,6.1,0.4s5.7-0.1,9.1-0.4l0,0l0.8-0.8
		h-0.3C81.3,342.2,74.9,342.2,72,341.7z"/>
	<path class="st1" d="M148,277.8c-3.2-0.4-6-0.9-8.8-1.4l-0.4-0.1c-6.9-1.2-12.3-2.1-21.2-1.1l-0.9,0.1c-9.2,1.1-23,2.7-31.2,5.7
		c0,0-0.1,0-0.3,0.1c-3.9,1.2-13.9,3.8-20.8,3.2c-8.2-0.7-15.1-3.1-21.5-7.7c-4-2.8-9.9-8.4-13.2-12.4c-2.3-2.9-3.9-6-5.5-9.1
		c-2.1-4.2-4.4-8.9-8.9-12.5c-4-3.2-8.6-5.6-15.3-8l-0.2-0.1v0.8h0.1c6.4,2.3,10.8,4.6,14.8,7.8c4.3,3.5,6.5,7.7,8.8,12.3l0.3,0.5
		c1.5,2.9,3.1,6,5.2,8.7c3.1,3.9,9.1,9.6,13.3,12.5c6.3,4.5,13.3,7,22,7.8c0.7,0.1,1.4,0.1,2.1,0.1c6.9,0,15.4-2.3,19-3.3
		c0.2,0,0.3-0.1,0.3-0.1l0,0c8.4-3.1,23.7-4.9,31.9-5.8c8.8-1,14.2-0.2,21.4,1.2c3.1,0.6,6,1,9,1.4c0.4,0.1,0.9,0.1,1.3,0.2
		c0.4,0,0.8,0.1,1.2,0.1h0.1l0.6-0.6h-0.3C149.8,278,148.9,277.9,148,277.8z"/>
	<path class="st1" d="M142.8,266.3c-2.2-0.3-4.5-0.6-7.1-0.8c-0.5-0.1-1-0.1-1.5-0.2c-0.5,0-0.9-0.1-1.4-0.1
		c-8.7-0.9-18.5-1.8-27.5-0.2c-4.4,0.8-8.6,1.9-12.8,3l-0.3,0.1c-7.5,2-14.5,3.8-22.7,3.6c-17.6-0.4-32.4-14.2-36.5-18.4
		c-2.7-2.8-5.1-5.7-7.7-9c-4.8-6.1-8.9-11.3-14.1-12.2c-4.5-0.8-8.1-1.6-11.1-2.5h-0.2v0.8H0c3,0.9,6.5,1.7,11,2.5
		c4.8,0.9,8.9,6,13.6,12c2.6,3.3,5,6.2,7.7,9.1c2.3,2.3,7,6.8,13.4,10.8c8.1,5,16.1,7.7,23.8,7.9c0.4,0,0.8,0,1.2,0
		c8.2,0,15.6-2,22.1-3.8c4.2-1.1,8.3-2.2,12.7-3c9-1.6,18.7-0.7,27.3,0.2c0.5,0,0.9,0.1,1.4,0.1c0.5,0.1,1,0.1,1.5,0.2
		c2.6,0.2,4.9,0.5,7.1,0.8c5.4,0.7,10.2,1.3,18.7,1.2h0.1l0.6-0.6h-0.3C153,267.6,148.2,267,142.8,266.3z"/>
	<path class="st1" d="M268.9,156.5l-0.4-0.1c-1.7-0.7-3.6-1.4-5.5-0.7s-2.1,2.4-2.3,3.9l0,0c-0.1,0.8-0.2,1.5-0.5,2.2
		c-1.3,3-2.2,6.1-3,10l-0.1,0.4l1-1l0,0c0.7-3,1.5-6.1,2.8-9.2c0.3-0.7,0.4-1.5,0.5-2.3c0.2-1.5,0.4-2.8,1.8-3.4
		c1.7-0.7,3.5,0.1,5.2,0.9c0.2,0.1,0.3,0.1,0.5,0.2c0.7,0.3,1.4,0.6,2,0.8h0.1l0.6-0.6l-0.2-0.1
		C270.7,157.3,269.8,156.9,268.9,156.5z"/>
	<path class="st1" d="M171.5,257.4c0,0-0.2,0-0.5,0c-7,0.5-19.6,1.3-25.3,0.6c-4.2-0.5-9.4-0.6-13.4-0.6c-4.8,0-8.8-0.1-11.8-0.4
		c-11-1.2-22.8-0.1-33,1.1c-11.3,1.4-20.5,1.4-28.3,0.1c-14.3-2.5-23-10.4-30.2-18.6c-2.1-2.4-5.3-5.1-9.5-8.2
		c-3.6-2.7-9.3-4.4-15.4-6.2L3.2,225c-0.5-0.1-1.1-0.3-1.6-0.4c-0.5-0.1-1.1-0.3-1.6-0.5h-0.2v0.8l3.1,0.9c6,1.7,12.1,3.5,16,6.3
		c2.3,1.7,6.6,4.9,9.4,8.1c7.3,8.3,16.1,16.3,30.7,18.8c3.8,0.6,7.9,1,12.5,1c4.8,0,10.1-0.4,16-1.1c10.7-1.2,22-2.2,32.9-1.1
		c2.8,0.3,6.1,0.4,9.5,0.5c0.8,0,1.6,0,2.4,0.1c4.1,0,9.2,0.1,13.3,0.6c6.6,0.9,23-0.3,25.7-0.6l0,0l0.6-0.6l-0.1-0.1
		C171.8,257.4,171.6,257.4,171.5,257.4z"/>
	<path class="st1" d="M298.6,127.2c-0.2-0.2-0.4-0.4-0.6-0.6c-2.3-2.6-5.8-6.4-10.9-6.5c-2,0-3.8,1.2-5.8,2.5l0,0
		c-3.7,2.4-8.3,5.4-16.2,3.8l-1.4-0.3c-4.5-1-7.5-1.6-10.8-4.3c-0.1-0.1-0.2-0.2-0.3-0.3c-0.2-0.2-0.4-0.4-0.7-0.6
		c-0.3-0.3-0.6-0.5-1-0.8c-2-1.7-4.5-3.9-5.9-4.4c-0.4-0.2-0.8-0.5-1.1-1.2l-0.1-0.1c-0.5-0.7-1.1-1.6-2.2-1.7
		c-0.5-0.1-1.7-0.1-3.2,0.8c-0.9,0.4-2,2.8-2.1,3.4c-1.2,6.2-0.3,11.2,0.8,16.9c1.2,7.1-3.2,27.8-5.1,36.4c-0.1,0.5-0.2,1-0.3,1.4
		c-0.1,0.5-0.2,1-0.3,1.4l-0.1,0.5c-1.2,5.2-2.3,10.1-5.1,14.8c-2.5,4.2-5.1,8.3-8.7,12.3c-1.8,2-3.6,4-5.3,6
		c-0.6,0.7-1.3,1.4-1.9,2.2c-5.4,6.1-10.6,11.8-16.7,17.6c-2.4,2.3-6.5,5.4-9.4,7.6c-12.1,9.2-30.3,13.6-48.5,11.6
		c-2.1-0.2-4.2-0.5-6.2-0.9c-2.3-0.4-4.7-0.7-7.1-1c-1.9-0.2-3.9-0.3-5.9-0.4h-0.1c-3.8-0.2-7.6-0.4-11.3-1.3
		c-7.8-1.8-14.4-2.5-20.2-2.1c-14.1,0.9-28.8-2.7-42.6-10.4c-0.2-0.1-0.5-0.3-1-0.5c-0.3-0.1-0.5-0.3-0.8-0.4l-0.6-0.3
		c-3.2-1.7-8.6-4.4-11.4-6.5c-4.4-3.2-10.6-4.9-16-6.3c-0.7-0.2-1.3-0.4-2-0.6c-0.7-0.2-1.3-0.3-2-0.5c-2.9-0.8-5.6-1.7-8.4-2.8
		l-0.2-0.1v0.8H0c2.8,1.1,5.5,1.9,8.2,2.7c0.7,0.2,1.3,0.4,2,0.6c0.7,0.2,1.3,0.3,2,0.5l0.2,0.1c5.6,1.5,11.3,3,15.5,6.1
		c2.9,2.2,8.2,4.9,12.1,6.9c0.3,0.1,0.6,0.3,0.8,0.4c0.4,0.2,0.8,0.4,1,0.5c13.9,7.7,28.9,11.3,43.2,10.4c5.8-0.4,12.3,0.3,20,2.1
		c3.7,0.9,7.6,1.1,11.4,1.3h0.4c1.8,0.1,3.7,0.2,5.5,0.4c2.4,0.2,4.7,0.6,7.1,1c2,0.3,4.1,0.6,6.2,0.9c3,0.3,5.9,0.5,8.9,0.5
		c15.4,0,30-4.4,40.3-12.2c3.2-2.4,7.1-5.4,9.4-7.7c7.1-6.8,13.2-13.7,18.6-19.8c0.9-1,1.8-2,2.7-3s1.7-2,2.6-3
		c3.8-4.2,6.5-8.6,8.7-12.4c3-5,4.1-10,5.3-15.3v-0.1c0.1-0.4,0.2-0.9,0.3-1.4s0.2-1,0.3-1.4c1.5-6.6,6.5-28.9,5.1-36.6v-0.1
		c-1.1-6.2-1.9-10.7-0.8-16.6c0.1-0.6,1.2-2.6,1.7-3c1.1-0.6,1.8-0.8,2.5-0.7c0.7,0.1,1.2,0.6,1.6,1.2c0.1,0.1,0.1,0.2,0.2,0.3
		c0.4,0.6,0.8,1.1,1.6,1.4c1.5,0.7,5.4,4.1,6.6,5.1c0.2,0.2,0.5,0.4,0.7,0.6c0.1,0.1,0.2,0.2,0.3,0.3c3.6,3,6.9,3.7,11.6,4.6l1,0.2
		c8.5,1.7,13.6-1.7,17-3.9l0.3-0.2c1.8-1.2,3.2-2.1,4.7-2.1c0.1,0,0.1,0,0.2,0c4.4,0.1,7.5,3.4,10,6l0.3,0.3
		c0.8,0.9,1.6,1.7,2.4,2.5l0.1,0.1l0.6-0.6l-0.1-0.1C299.7,128.4,299.1,127.8,298.6,127.2z"/>
	<path class="st1" d="M304,120.4c-3-1.8-5.2-3-7-3.9l0,0c-0.7-0.3-1.3-0.6-1.9-1c-0.4-0.2-0.8-0.4-1.2-0.6l-0.2-0.1
		c-4-2.1-7.4-3.9-12.4-2.8c-1.5,0.3-2.9,1.2-4.1,1.9l-0.4,0.2c-1.1,0.6-2.2,1.3-3.2,1.6c-12.2,3.1-25-7.7-28.6-11.1l-1.2-1.2l0,0
		c-2-2.2-4.5-4.9-10.5-3.2c-2.6,0.7-2.8,2.9-3,4.9c-0.1,0.3-0.1,0.6-0.1,0.9s0,0.6-0.1,0.9l0,0c0,1.5,0.2,14.9-2.7,35.2l0,0l0,0
		c2.1,15.5-2,25.1-7.8,38.4c-0.4,1-0.8,1.9-1.3,3c-0.3,0.8-0.7,1.6-1,2.4c-1.3,3.3-2.8,6.9-5.1,10.3c-2.2,3.2-5,6.1-8,9.1
		c-5.6,5.6-11.8,11.5-19.1,18.1c-3.9,3.5-7.8,6.8-12.8,9.2c-0.8,0.4-1.5,0.7-2.3,1.2c-0.5,0.3-1.1,0.6-1.6,0.9l-0.4,0.2
		c-3.2,1.6-6.4,3.3-9.6,3.9c-8,1.5-16.6,1.2-27.1,0.7h-0.6c-13.5-0.6-24.2-1.8-32.7-5.8c-1.4-0.6-2.6-1.3-3.6-1.9l-0.1-0.1
		c-3.1-1.8-5.6-3.1-10.4-2.2c-4,0.7-8.4,0.3-12.3-0.2c-0.5,0-1-0.1-1.4-0.2s-1-0.1-1.5-0.1l-0.6-0.1c-3-0.3-6.4-0.6-9.3-1.3
		c-2.3-0.6-4.1-1-5.5-1.3l-0.8-0.2c-2.5-0.6-4.5-1-10.6-3.3c-1.9-0.7-3.5-1.7-5.2-2.7l-1.1-0.7c-2.5-1.5-5.2-3.2-9.4-4.7
		c-6.2-2.3-9-3.7-14.3-6.5c-0.7-0.4-1.5-0.8-2.3-1.2c-3.2-1.7-6.7-3.8-9.6-5.6l-0.2-0.1v0.9h0.1c3,1.9,6.3,3.8,9.3,5.4
		c0.8,0.4,1.6,0.8,2.3,1.2l0.5,0.3c4.6,2.4,7.7,4,13.9,6.2c4.3,1.6,7.1,3.2,9.5,4.7l0.1,0.1c1.7,1,3.7,2.2,6,3.2
		c6.8,2.5,8.3,2.9,11.5,3.5c1.4,0.3,3.2,0.7,5.5,1.3c2.8,0.7,6.2,1.2,10.1,1.4c0.4,0,0.9,0.1,1.3,0.1c0.5,0.1,1,0.1,1.5,0.2l0.9,0.1
		c3.9,0.4,7.9,0.8,11.6,0.1c4.5-0.9,6.7,0.4,9.8,2.2h0.1c0.3,0.1,0.5,0.3,0.8,0.4c0.9,0.5,1.8,1,2.9,1.5c9.3,4.3,21.4,5.4,33.1,5.9
		h0.6l1.6,0.1c4,0.2,8,0.3,11.8,0.3c4.8,0,9.5-0.3,13.9-1.1c3.4-0.7,6.7-2.4,9.8-4l0.4-0.2c0.6-0.3,1.1-0.6,1.6-0.9
		c0.8-0.4,1.5-0.8,2.3-1.1c5.1-2.4,9-5.7,12.9-9.2c5.9-5.3,12.2-11.2,19.2-18.1c2.9-2.9,5.8-5.9,8-9.1c2.1-3.1,3.6-6.6,5-9.9
		l0.2-0.5c0.3-0.8,0.7-1.6,1-2.4c0.4-1,0.9-2,1.3-3l0.1-0.3c5.7-13.3,9.8-22.9,7.7-38.3c2.9-20.2,2.7-33.7,2.7-35.2
		c0.1-0.6,0.2-1.2,0.2-1.8v-0.2c0.2-1.9,0.3-3.5,2.4-4.2c5.5-1.6,7.7,0.9,9.6,3l0.1,0.1c0.4,0.5,0.8,0.9,1.2,1.3
		c3.8,3.6,13.9,11.8,24.6,11.8c1.6,0,3.2-0.2,4.8-0.6c1-0.2,2.1-0.8,3.1-1.4c0.2-0.1,0.5-0.3,0.7-0.4c1.3-0.8,2.7-1.6,3.9-1.9
		c4.6-1,8,0.8,12,2.9h0.1c0.4,0.2,0.8,0.4,1.2,0.6c0.6,0.3,1.2,0.7,1.9,1c1.4,0.6,2.9,1.5,4.4,2.4c0.7,0.4,1.5,0.9,2.3,1.3
		c0.6,0.4,1.1,0.7,1.7,1s1.1,0.6,1.7,1l0.1,0.1l0.5-0.5l-0.2-0.1C306.2,121.8,305,121.1,304,120.4z"/>
	<path class="st1" d="M252.4,89.1c-0.1,1.8,1,3.5,3.1,4.6c3.6,2.1,9.1,3.5,16.5,4.2c1,0.1,1.9,0.1,2.7,0.2c1.3,0.1,2.4,0.2,3.6,0.3
		l1,0.1c2.9,0.2,5.6,0.3,9,1c0.6,0.1,1.5,0.4,2.4,0.6c0.6,0.2,1.3,0.3,1.9,0.5c1.8,0.5,3.6,1,4.8,1.2c0.3,0.1,0.6,0.1,0.9,0.1
		c1,0,2.1-0.3,3.1-0.5c0.2-0.1,0.4-0.1,0.6-0.2c1-0.3,1.9-0.5,2.7-0.6h0.2c0.8-0.1,1.7-0.2,2.6-0.6c3-1.1,5.1-4.2,5.6-6.7
		c0.9-4-1.3-8-3.1-11.3l-0.1-0.2c-2.2-3.9-3.8-4.7-6.1-5.9c-1.2-0.6-2.3-1.2-3.5-2c-0.8-0.6-1.8-1.1-2.8-1.7
		c-0.4-0.2-0.8-0.4-1.1-0.6c-1-0.5-1.8-1-2.7-1.5c-0.2-0.1-0.4-0.2-0.6-0.4c-0.1-0.1-0.2-0.1-0.2-0.2c-0.2-0.1-0.3-0.3-0.6-0.3
		c-2.1-1.4-3.6-2.3-6.4-2.1c-3.2,0.2-6.2,1.7-7.6,3.9c-0.9,1.4-1.1,3-1.3,4.5v0.2c-0.2,1.8-0.4,3.4-1.6,4.8
		c-1.8,2.1-5.3,4.4-8.6,4.7c-1.4,0.1-2.8,0-4.2-0.1c-2.2-0.2-4.4-0.4-6.5,0.3C253.2,86.5,252.5,88,252.4,89.1z M253.2,89.2
		c0.2-1.3,1.4-2.4,3.3-3.1c1.8-0.7,3.8-0.5,6-0.3h0.1c0.3,0,0.5,0,0.8,0.1c1.2,0.1,2.4,0.2,3.6,0c3.9-0.4,7.5-2.9,9.2-4.9
		c1.3-1.5,1.5-3.4,1.7-5.2v-0.1c0.2-1.5,0.4-3,1.3-4.4c1.3-1.9,4-3.3,6.9-3.4c2.5-0.2,3.9,0.8,5.7,2c0.1,0.1,0.2,0.1,0.2,0.2
		c0.2,0.1,0.4,0.3,0.6,0.3c0.8,0.5,2.1,1.2,3.3,1.9c1.4,0.8,2.8,1.6,3.8,2.2c1.3,0.9,2.3,1.5,3.6,2.1c2.1,1.1,3.6,1.8,5.7,5.5
		l0.1,0.1c1.8,3.2,4,7.1,3.1,11c-0.5,2.3-2.5,5.2-5.1,6.2c-0.7,0.2-1.5,0.4-2.6,0.5c-0.6,0.1-1.2,0.2-1.8,0.4
		c-0.4,0.1-0.7,0.2-1.1,0.2c-1.6,0.4-3.1,0.8-4.3,0.6c-1-0.2-2.8-0.6-4.7-1.2c-1.6-0.5-3.2-0.9-4.3-1.1c-3.5-0.7-6.2-0.9-9.1-1
		c-0.4,0-0.8,0-1.2-0.1h-0.2c-1.9-0.1-3.8-0.2-6-0.5c-7.3-0.7-12.7-2.1-16.1-4.2C254.1,92.1,253,90.6,253.2,89.2z"/>
	<path class="st1" d="M287.3,35l0.2,0.3l0.1,0.1c1.4,1.7,3.5,4.2,5.6,4.9c0.5,0.2,1,0.2,1.5,0.2c2.3,0,4.9-1.3,6.9-2.2l0.9-0.4
		c7.4-3.7,13.8-7.3,19.6-11.2c2.7-1.7,6.3-4.2,6.2-7.5l0,0c-0.1-1.4-0.8-2.6-1.3-3.5l-0.2-0.3c-1.3-2.3-2.6-4.7-4.9-6.7
		c-2.8-2.4-6.8-3.8-10.3-5l-0.5-0.2c-3.2-1.1-6.4-2.2-9.9-2.6c-3.8-0.4-7.6,0.4-10,2.2c-1,0.8-1.7,1.6-2.3,2.4c-2,2.5-4,5.3-5.3,8.2
		c-1.1,2.5-1.6,5.1-1.5,7.9C282.2,26.3,284,31,287.3,35z M288.2,35l-0.2-0.3c-3.2-3.9-5-8.5-5.1-13c-0.1-2.5,0.4-5.1,1.5-7.6
		c1.3-3,3.4-5.7,5.2-8.1c0.7-0.9,1.3-1.6,2.2-2.3c1.8-1.4,4.6-2.2,7.6-2.2c0.6,0,1.2,0,1.8,0.1c3.4,0.3,6.7,1.4,9.8,2.5l0.6,0.2
		c3.4,1.2,7.3,2.6,10,4.9c2.2,1.8,3.5,4.2,4.7,6.5l0.2,0.3c0.6,1.1,1.2,2.2,1.2,3.3c0.1,2.8-3,5.3-5.7,7.1
		c-6.4,4.1-13,7.9-19.6,11.2l-0.4,0.2c-2,1-5.8,2.9-8.2,2.1C291.6,39.1,289.5,36.5,288.2,35z"/>
	<path class="st1" d="M85.7,66c0.5,3.4,1.4,7.1,5.4,7.5h0.7c2.3,0,3.9-1.4,4.3-3.7c0.4-2.2-0.4-5.2-2-7.3c-1-1.3-2.7-2.9-5.4-3.2
		c-1.2-0.1-1.9,0.1-2.4,0.5c-1.4,1-1.1,3.4-0.8,5.6v0.4L85.7,66z M86.9,60.2c0.4-0.3,1-0.4,1.8-0.3c2.3,0.2,3.9,1.6,4.7,2.8
		c1.5,2,2.3,4.8,2,7.1c-0.2,1-0.9,3.4-4.2,3.1c-3.5-0.4-4.2-3.4-4.7-6.9v-0.3C86.1,63.3,85.8,61,86.9,60.2z"/>
	<path class="st1" d="M170.1,24.1c4.5,2.1,4.2,5,3.8,8.4c-0.2,1.9-0.3,3.8-0.1,5.5c0.4,2.6,1.7,5.4,3.2,8.3c1.6,3.2,3.3,6.6,3.3,9.2
		c0,5.4-0.9,11-1.6,15.6c-0.9,5.8-1.8,11.8-1.5,18c0.6,11.4-0.1,20.1-2.5,30c0,0-0.1,0.3-0.2,0.6c-1.8,7-2.7,11.6-2.7,13.8v1.5v0.4
		c-0.6,17.5-1.3,37.3-13.2,51.5c-3.5,4.1-6.7,6.8-13.2,7.9c-8.3,1.4-15.1,1.7-21.9,0.9c-1.4-0.2-2.7-0.5-4-0.9
		c-0.3-0.1-0.6-0.2-1-0.2c-1.6-0.5-3.3-0.9-5.1-1.2c-2.8-0.3-5.3-1.7-7.7-3.1l-0.2-0.1c-1.6-0.9-3.2-1.8-4.8-2.4
		c-7.3-2.8-11.5-4.8-14-6.9c-2.3-1.9-4.7-2.7-6.1-3.2l-0.3-0.1c-0.1,0-0.2-0.1-0.3-0.1c-0.1,0-0.2,0-0.2-0.1l0,0
		c-1.1-0.4-14.2-1.7-15.6-1.7c-10,0.5-21.6-4-35.2-13.8c-5.3-3.8-12.6-12.9-16.4-23.9c-6.4-11.5-10.1-19-12.5-25.8l-0.2-0.7v2.3l0,0
		c2.8,7.3,6.6,14.8,12,24.5c3.9,11.2,11.1,20.2,16.5,24.1c13.9,10,25.6,14.5,35.8,13.9c1.2-0.1,13.9,1.2,15.2,1.6
		c0.1,0.1,0.2,0.1,0.3,0.1c0.1,0,0.2,0,0.3,0.1c0.1,0.1,0.3,0.1,0.5,0.2c1.3,0.5,3.6,1.3,5.7,3c2.8,2.2,7.4,4.4,14.2,6.9
		c1.6,0.6,3.2,1.5,4.8,2.4l0.5,0.3c2.4,1.3,4.9,2.7,7.8,2.9c1.4,0.2,2.7,0.5,4,0.9c0.3,0.1,0.6,0.2,1,0.2c1.6,0.5,3.3,0.9,5.1,1.2
		c2.5,0.3,5.1,0.4,7.6,0.4c4.5,0,9.2-0.4,14.5-1.3c6.9-1.2,10.2-3.9,13.8-8.1c12.2-14.5,12.7-34.6,13.2-52.3v-1.5
		c0.1-2.1,1-6.7,2.7-13.6c0.2-0.7,0.2-0.7,0.2-0.7c2.4-10,3.1-18.8,2.5-30.1c-0.3-6.2,0.7-12.7,1.5-17.9c0.7-4.6,1.6-10.2,1.6-15.6
		c0-2.7-1.6-6-3.1-9.2l-0.2-0.3c-1.5-2.9-2.8-5.7-3.2-8.2c-0.3-1.9-0.1-3.6,0.1-5.4v-0.1c0.3-3.6,0.5-6.7-4.3-8.9
		c-0.9-0.4-1.3-0.9-1.5-1.8c-0.3-1.4,0.5-3.2,2-4.5c0.6-0.5,1.2-1,1.9-1.5c1.8-1.4,3.6-2.8,4.1-4.8c0.1-0.2,0.1-0.4,0.1-0.6
		c0-0.2,0-0.4,0.1-0.6c0-0.6,0.1-1.2,0.3-1.7s0.4-1,0.6-1.4l0,0c0.5-1.4,0.7-1.9,2.6-1.5c1.3,0.2,3.2,1.1,5.1,1.9
		c2.5,1.1,5.4,2.3,7.3,2.3c6.7-0.1,11.5-5,13.6-9.1l0.1-0.2h-0.9v0.1c-2,4.1-6.5,8.4-12.8,8.5c-1.5,0.1-3.7-0.9-6.1-1.9l-0.8-0.3
		c-1.8-0.8-3.9-1.7-5.3-1.9c-2.6-0.4-3,0.6-3.5,1.9v0.1c-0.1,0.4-0.3,0.9-0.5,1.4s-0.3,0.9-0.3,1.4c0,0.1,0,0.3-0.1,0.5
		c0,0.4-0.1,0.8-0.2,1.2c-0.4,1.7-2.1,3.1-4,4.4c-0.3,0.2-0.6,0.5-0.9,0.7c-0.3,0.2-0.7,0.5-1,0.8c-1.6,1.4-2.5,3.4-2.1,5
		C168.5,22.8,169.2,23.6,170.1,24.1z"/>
	<path class="st1" d="M407,0v-0.1h-0.9V0c-0.3,6.7,2,12.3,6.7,16.3l0.1,0.1l0.6-0.6l-0.1-0.1C409,11.9,406.7,6.5,407,0z"/>
	<path class="st1" d="M362.3,65.1c-0.6,0.1-1.2,0.1-1.9,0.2c-2.7,0.4-6.8,0.9-10.9,0.9c-8.1-0.1-17.1-2.5-23.8-6.3
		c-4.1-2.3-7.1-5.8-8.1-9.5c-0.7-2.5-0.4-4.8,0.9-6.9l0.2-0.2l-0.2-0.2c4.3-3.8,8.3-7.8,12.1-11.6c2.8-2.8,5.1-7.4,5.7-11.4
		c0.3-1.8,0.2-3.1,0-4.6v-0.2c-0.1-0.7-0.2-1.4-0.2-2.3c-0.2-4.1,2.7-6.8,6.1-9.8l0.1-0.1c0.2-0.2,0.5-0.5,0.7-0.7s0.5-0.5,0.7-0.7
		c0.6-0.5,1.1-1,1.6-1.5l0.2-0.2h-1.1l0,0c-0.2,0.2-0.4,0.4-0.6,0.6s-0.5,0.4-0.7,0.6s-0.5,0.5-0.7,0.7s-0.5,0.5-0.7,0.7
		c-3.2,2.9-6.6,5.8-6.3,10.3c0,1,0.1,1.8,0.2,2.5c0,0.2,0,0.5,0.1,0.7c0.1,1.1,0.2,2.2-0.1,3.8c-0.5,3.7-2.8,8.2-5.6,11
		c-3.9,4-7.9,8.1-12.3,11.8l-0.2,0.2l0.2,0.3c-1.3,2.2-1.6,4.7-0.9,7.2c1,3.8,4.1,7.5,8.4,9.9c7,4,16.1,6.4,24.3,6.4
		c3.8,0,7.6-0.4,11-0.8c0.5,0,1-0.1,1.5-0.1c0.5-0.1,1.1-0.1,1.6-0.2l0,0l0.8-0.8h-0.3C363.6,64.9,363,65,362.3,65.1z"/>
	<path class="st1" d="M325.1,93.4L325.1,93.4c-2.3-9.7-10.4-17.6-17.1-23.4c-6.4-5.5-12.3-10.3-20.8-13.7c-1.1-0.4-1.8-0.7-2.6-0.9
		c-2.1-0.6-3.5-1.1-4.7-2.9c-1.6-2.2-1.6-6.1-1.6-7.3c0.3-6.9,0.2-14.1-3.6-19.8c-0.1-0.2-0.3-0.4-0.4-0.6s-0.3-0.4-0.4-0.6
		l-0.1-0.1c-0.8-1-1.6-2.2-1.9-3.4c-0.6-2.2-0.6-4.1,0-6.1c1.2-4.2,0.3-9.5-2.5-14.8v-0.1h-0.9l0.1,0.2c1.6,3,4.1,8.8,2.6,14.5
		c-0.6,2.1-0.6,4,0,6.4c0.3,1.3,1.2,2.6,2.1,3.7l0,0c0.3,0.4,0.6,0.8,0.8,1.1c3.7,5.4,3.8,12,3.5,19.4c-0.1,2.3,0.1,5.5,1.6,7.7
		c1.4,1.9,3,2.4,5,3.1h0.1c0.3,0.1,0.7,0.2,1,0.4c0.5,0.2,1,0.3,1.6,0.5c8.2,3.3,13.9,7.9,20.6,13.6c6.7,5.7,14.7,13.5,16.9,23
		c0.7,3.1,1.1,7.9-0.2,11.5l-0.2,0.5l0.1-0.1c-0.6,1.7-1.6,2.8-2.9,3.3l0,0c-0.1,0-0.4,0.2-0.7,0.2h-0.1l-0.3,0.3
		c-1.3,0-3.6-0.2-5.3-0.4c-0.3,0-0.6-0.1-0.9-0.1s-0.6-0.1-0.9-0.1c-4.1-0.3-8.1-1.3-12.2-2.3L300,106c-4.6-1.1-9.5-2.3-14.5-2.2
		c-3,0.1-5.1,0.8-7.1,1.6c-2.3,0.8-4.3,1.5-7.2,1.5c-7.2-0.1-16.5-4.7-21.1-8.9c-3.4-3.2-8.4-6.8-12.8-10.1c-1-0.8-2.1-1.5-3-2.2
		l-1.5-1.1c-0.9-0.7-1.8-1.4-2.6-2.1c-2.7-2.4-5.5-4.9-9-2.6c-2.4,1.5-2.2,4.4-2,6.9V87c0.1,0.8,0.1,1.5,0.1,2.2
		c0,6.9-0.8,12.9-1.6,18.7c-0.8,5.4-1.6,11.6-1.6,18.7c-0.1,16.6-3.2,30.2-5.5,40.1c-0.1,0.6-0.3,1.3-0.4,1.9
		c-0.3,1.2-0.6,2.5-0.8,3.8c-5.1,23.7-14.5,37.5-34.5,50.8c-1,0.6-1.8,1.2-2.6,1.8c-4.2,3-9.1,6.2-13.3,7.6c-3.1,1-6.3,1.3-9.4,1.6
		c-1.1,0.1-2.3,0.3-3.5,0.4l-0.5,0.1c-3.5,0.5-7.1,0.2-10.4-0.1c-0.5,0-0.9-0.1-1.4-0.1c-1.1-0.1-2.2-0.2-3.3-0.2h-0.7
		c-6.4-0.2-13-0.5-17.9-1.8c-8.7-2.2-15.2-4.5-20.4-9.5c-0.1-0.1-0.3-0.3-0.4-0.4c-0.3-0.3-0.6-0.6-0.9-0.9c-1.4-1.4-2.9-2.9-4.5-4
		c-0.1,0-0.2-0.1-0.3-0.2c-0.1-0.1-0.2-0.2-0.3-0.2l0,0c-1.7-1.2-2.8-2-5.3-0.9c-0.6,0.3-1.1,0.7-1.7,1.2l0,0
		c-1.1,0.9-2.3,1.8-4.4,1.6c-0.1,0-0.3,0-0.5,0c-0.3,0-0.6-0.1-1-0.1l0,0c-2.3-0.1-6.3-0.3-7.6-0.6c-4.2-0.8-8.2-1.5-12.1-2.2
		c-9.1-1.5-15-2.5-24.1-6.7c-2.4-1.1-7.9-4.4-12.8-7.3c-0.9-0.5-1.7-1-2.6-1.5c-1.3-0.8-2.6-1.5-3.7-2.2c-1.7-1-3-1.8-3.9-2.2
		c-1.7-1-3.6-2.5-5.6-4.6l-0.2-0.2v1.1l0,0c1.3,1.3,3.2,3.1,5.3,4.2c1.1,0.6,3.1,1.8,5.3,3.1c0.7,0.4,1.4,0.9,2.2,1.3
		c5.3,3.2,12.6,7.5,15.4,8.8c8.8,4,14.4,5.1,23.8,6.7l0.4,0.1c3.2,0.6,7.1,1.3,12,2.2c1,0.2,3.6,0.4,7.7,0.6c0.3,0,0.6,0,0.9,0.1
		c0.2,0,0.4,0,0.6,0l0,0c2.6,0.2,4-1,5-1.9c0.5-0.4,1-0.8,1.6-1.1c1.9-0.9,2.7-0.3,4.3,0.8l0.1,0.1c0.1,0,0.2,0.1,0.3,0.2
		c0.1,0.1,0.2,0.2,0.3,0.2c1.6,1.1,3,2.5,4.4,3.9l1.3,1.3c5.3,5.1,11.9,7.5,20.9,9.7c5,1.3,11.7,1.6,18.1,1.8h0.7
		c0.8,0.1,1.6,0.1,2.5,0.2c0.7,0,1.4,0.1,2.1,0.1c2,0.2,4.3,0.4,6.5,0.4c1.4,0,2.8-0.1,4.1-0.3c0.6-0.1,1.3-0.2,1.9-0.2
		c0.6-0.1,1.3-0.2,1.9-0.2c3.6-0.3,6.6-0.8,9.5-1.7c3.9-1.3,8.3-4.2,12.2-6.7c0.5-0.3,0.9-0.6,1.3-0.9l0,0l0,0
		c0.9-0.6,1.8-1.2,2.6-1.8c20.2-13.4,29.6-27.3,34.8-51.2c0.4-1.8,0.8-3.7,1.2-5.7l0.1-0.6c2.5-11.1,5.3-23.8,5.4-39.5
		c0-6.9,0.8-13.2,1.6-18.7c0.8-5.4,1.6-11.6,1.6-18.7c0-0.3,0-0.7,0-1.1s-0.1-0.8-0.1-1.2v-0.2c-0.2-2.5-0.4-5,1.7-6.4
		c3-1.9,5.3,0.1,8.1,2.5l0.2,0.2c0.7,0.6,1.5,1.4,2.4,2l2.7,2c5,3.7,10.7,7.8,14.6,11.4c4.7,4.3,14.4,9,21.8,9.1
		c2.9,0,5.2-0.8,7.2-1.4l0.5-0.2c1.9-0.7,3.9-1.4,6.5-1.4c5.1-0.1,10,1.1,15,2.4l1,0.2c3.7,0.9,7.5,1.9,11.5,2.2
		c0.5,0,1.1,0.1,1.7,0.2c1.9,0.2,3.8,0.4,5.3,0.2l0,0l0.3-0.3c0.5-0.1,1-0.2,1.5-0.3c1.8-0.7,3.1-2.4,3.8-5l0.1-0.5l-0.1,0.1
		C326.1,100.6,325.7,96.2,325.1,93.4z"/>
	<path class="st1" d="M52.6,5.4c7,1.4,12.7,2.1,17,2.1c4.2,0,7-0.6,8.6-1.9c1.4-1.1,2.2-3.4,2.9-5.4v-0.3h-0.8V0
		c-0.7,2-1.5,4.1-2.8,5.1c-2.2,1.7-8.3,3-24.8-0.3C44.2,3,42,2.2,37.8-0.1h-1.6l0.4,0.2C41.5,2.7,43.9,3.6,52.6,5.4z"/>
	<path class="st1" d="M26.2,8.9c3.1,1,6.4,1.6,9.5,2.1c4.4,0.8,8.9,1.5,13.1,3.7c4.7,2.3,5.6,3.6,8.5,7.2c0.3,0.4,0.6,0.8,1,1.2
		c0.5,0.6,1.4,1.4,2.5,2.3l0.2,0.2c1.5,1.2,3.1,2.5,4,4c2.3,4.1,2.2,9.3,2.1,13.9c0,0.6,0,1.1-0.1,1.6c0,0.5,0,1,0,1.5
		c0,8.7,4.1,17.4,7.7,25.1c0.3,0.7,0.6,1.4,1,2.1c0.3,0.7,0.6,1.3,0.9,2c0.5,1.1,0.9,2.4,1.2,3.8v0.1c0.7,2.6,1.4,5.2,3.5,7.1
		c2.7,2.4,7.7,5,12.2,5c0.6,0,1.2,0,1.8-0.2c6.3-1.1,8.8-10,8.8-10.1c1.1-3.4,0.5-6.8-0.4-10.9c-2.5-11.4-6.4-24.4-16.6-35.3
		c-4.4-4.6-7.9-8.8-6.3-13.7c0.7-2,2.8-4.6,4.5-6.7c0.4-0.5,0.8-1,1.2-1.4C90.2,9,91.1,5,91.8,0.3c0-0.1,0-0.2,0.1-0.2l0.2-0.2h-1V0
		c0,0.1,0,0.2-0.1,0.2l0,0l-0.1,0.3c-0.8,4.2-1.5,8.2-5.3,12.9c-0.2,0.2-0.4,0.4-0.5,0.6c-0.2,0.2-0.4,0.5-0.7,0.8L84,15.3
		c-1.7,2.1-3.6,4.4-4.2,6.3c-1.7,5.1,1.9,9.5,6.4,14.3c10.1,10.6,14,23.6,16.5,34.9c0.8,3.5,1.5,7.1,0.4,10.6c-1.2,4-4,8.8-8.2,9.5
		c-4.4,0.8-10-1.8-13.2-4.7c-2-1.8-2.7-4.4-3.4-6.9c-0.1-0.3-0.1-0.5-0.2-0.8c-0.3-1.1-0.6-2.2-1.1-3.2c-0.3-0.7-0.6-1.4-1-2.1
		c-0.3-0.7-0.6-1.3-0.9-2c-3.6-7.7-7.7-16.4-7.7-24.9c0-1,0-2,0.1-3.1v-0.5c0.1-4.5,0.2-9.7-2.1-13.7c-1-1.6-2.6-2.9-4.1-4.2
		l-0.5-0.4c-0.9-0.7-1.7-1.4-2.3-2c-0.2-0.2-0.3-0.4-0.5-0.6s-0.3-0.4-0.5-0.6c-2.9-3.8-4.1-5.1-8.7-7.4c-4.4-2.2-9.1-3-13.3-3.7
		c-0.6-0.1-1.2-0.2-1.8-0.3c-2.5-0.5-5.1-1-7.7-1.8C19.9,6,13.5,3.4,5.8-0.3H4.2l0.5,0.2C12.5,4,19.1,6.7,26.2,8.9z"/>
	<path class="st1" d="M103.5,22.7c0,0.7,1.1,1.7,3.7,3.6c0.3,0.3,0.6,0.5,0.9,0.7c0.2,0.2,0.4,0.3,0.5,0.4
		c6.3,6.2,8.8,11.4,11.8,17.4c1.4,2.8,2.9,6,5,9.4c1.2,2.1,2,4.5,2.8,6.9l0.1,0.4c0.2,0.5,0.3,1,0.5,1.4c0.4,1.3,0.9,2.7,1.4,4
		c4.9,10.8,6.3,21.1,4.2,31.5c-0.2,0.7-0.3,1.5-0.4,2.3v0.2c-0.3,2.6-0.7,5-2.6,7c-1.7,2-4.4,3.9-8.1,5.7c-11.9,5.6-26.9,5.7-41.2,5
		c-5.9-0.3-11.2-0.7-16.2-2.5c-5.8-2.2-10.8-6.4-15-12.9c-9.3-14-12.7-31.3-10.6-54.5v-0.1c0.3-3,0.5-6-1-8.7
		c-2-3.4-6.3-5.6-10.3-7.2c-6.4-2.7-13.3-5.1-20.7-7.2c-1.3-0.4-3-0.8-4.7-1.2c-1.1-0.3-2.3-0.6-3.5-0.9h-0.3v0.7h0.1
		c3.5,0.8,6.2,1.5,8.1,2c6.5,1.6,13.2,4,20.6,7.1c4.1,1.8,8.2,3.8,9.9,6.8c1.5,2.6,1.2,5.5,0.9,8.3v0.1
		c-2.1,23.3,1.3,40.8,10.7,54.9c4.4,6.7,9.5,11,15.5,13.1c5,1.9,10.4,2.3,16.4,2.6c3.6,0.2,7.2,0.3,10.8,0.3
		c10.9,0,21.7-1.1,30.9-5.4c3.8-1.8,6.5-3.7,8.3-5.8c1.9-2.2,2.3-4.6,2.6-7.4c0.1-0.8,0.2-1.6,0.4-2.5c2.1-10.5,0.7-21-4.3-31.9
		c-0.6-1.3-1-2.6-1.5-4c-0.1-0.4-0.3-0.8-0.4-1.2l-0.1-0.4c-0.8-2.4-1.5-4.8-2.8-7c-2-3.4-3.5-6.5-4.9-9.3l0,0
		c-3-6.1-5.6-11.4-11.9-17.5c-0.3-0.2-0.8-0.6-1.5-1.2l-0.5-0.4c-1.1-0.9-3-2.3-3-2.7c0-0.7,1.9-2.4,3.1-3.5
		c0.3-0.3,0.5-0.5,0.8-0.8c0.7-0.7,1.2-1.2,1.5-1.6c2.3-3.9,4.7-10,6.6-16.8v-0.2h-0.9v0.1c-2,7-4.3,12.9-6.4,16.6
		c-0.2,0.4-0.8,0.9-1.4,1.5c-0.2,0.2-0.5,0.4-0.7,0.7C105.2,20.3,103.6,21.7,103.5,22.7z"/>
	<path class="st1" d="M131.1,33.7c9,15.3,12.9,29.7,16.3,48.1v0.1c1.9,10.1,4.5,24,0.1,33.8c-4.7,10.3-10.2,16.9-23,18.5
		c-0.2,0-0.5,0.1-0.7,0.1c-0.3,0-0.5,0-0.8,0.1c-4.3,0.6-10.1,1.2-12.9,1.2c-5.8-0.1-9.2-0.4-12.2-0.7c-3.2-0.3-6.6-0.6-12.3-0.7
		c-1.9,0-4.1,0.5-6.2,1l-0.4,0.1c-4.7,1.1-10.6,2.4-17.5-0.1c-8.7-3-15.6-13.2-19.7-19.4l-0.3-0.4c-11-16.6-23-40.6-18.8-60.7
		c0.2-0.8,0.4-1.6,0.5-2.2c0.8-3,1-4.4-2.3-7.5c-2.2-2-5.6-2.6-8.9-3.2h-0.1c-0.4-0.1-0.9-0.1-1.3-0.2c-0.3-0.1-0.7-0.1-1-0.2
		c-1-0.2-2-0.4-3-0.6c-2.3-0.5-4.5-0.9-6.6-1.4h-0.2v0.8h0.1c2.3,0.5,4.6,1,7,1.5c0.8,0.2,1.6,0.3,2.5,0.5c0.3,0,0.6,0.1,1,0.2
		c0.4,0.1,0.9,0.2,1.3,0.2l0.5,0.1c3.1,0.6,6.1,1.1,8.1,2.9c3.1,2.8,2.9,3.9,2.1,6.9c-0.2,0.7-0.4,1.5-0.5,2.2
		c-4.6,22.1,9.9,47.6,19,60.9l0.3,0.4c4.5,6.6,11.3,16.5,20.2,19.6c3,1.1,5.9,1.4,8.5,1.4c3.6,0,6.8-0.7,9.6-1.3l0.4-0.1
		c0.3-0.1,0.6-0.1,0.9-0.2c1.9-0.4,3.6-0.8,5.1-0.8c5.8,0.1,9.2,0.4,12.2,0.7c3.2,0.3,6.6,0.6,12.3,0.7c2.9,0,8.8-0.6,13-1.2
		c0.3,0,0.5-0.1,0.7-0.1c0.3,0,0.5-0.1,0.8-0.1c13.1-1.5,18.9-8.6,23.6-18.9c4.6-10.2,1.8-24.6-0.1-34.2
		c-3.5-18.7-7.5-33.3-16.4-48.2l-0.5-0.9l-0.3-0.5c-2.6-4.4-5.2-8.9-4.9-13.7c0.3-3.8,2.6-7.5,4.6-10.7c0.4-0.5,0.7-1.1,1-1.6
		c0.1-0.2,0.2-0.4,0.3-0.6c1-1.7,1.8-3.4,2.6-5.1l0.1-0.2H134v0.1c-0.8,1.8-1.7,3.6-2.5,5c-0.2,0.3-0.4,0.7-0.6,1.1
		c-0.2,0.4-0.5,0.8-0.6,1.1l-0.4,0.6c-2,3.3-4.1,6.7-4.3,10.4c-0.4,5,2.4,9.7,5,14.3L131.1,33.7z"/>
	<path class="st1" d="M150.1,33.9c5.3,8.4,8.9,17.4,10.9,27.3c2.9,14.5,2.9,28.9,2.5,42.3c-0.2,5.1-0.9,10-1.8,15.3
		c-0.9,5.1-1.6,9.8-1.8,14.7c-0.6,14-4,24.1-10.4,31c-8.7,9.3-21.1,13.7-33.4,11.8c-9.2-1.5-16.6-5.7-23.8-9.8
		c-4.8-2.7-10.1-5.7-15.9-7.8c-4.1-1.5-8.7-2.6-13-3.6l-0.7-0.2c-6.7-1.6-13.6-3.3-19-6.6c-6.2-3.6-9.8-9.2-13.4-15l-1-1.6
		C19,114.7,5,91.4,5.6,70.8c0-1.3,0.2-2.4,0.4-3.3c0-0.2,0.1-0.4,0.1-0.6c0.5-2.4,0.9-4.3-1.2-7.4c-1.4-2.1-3-3.6-4.9-4.6l-0.2-0.1
		v0.8h0.1c1.6,0.8,3.1,2.2,4.4,4.2l0,0c1.8,2.8,1.6,4.5,1.1,7c0,0.2-0.1,0.3-0.1,0.5c-0.2,1-0.4,2.1-0.4,3.5
		C4.3,92.2,19,116,29.8,133.4c3.8,6.1,7.4,11.4,13.6,15.1c5.9,3.5,13.3,5.3,19.9,6.9c0.9,0.2,1.7,0.4,2.6,0.7
		c3.4,0.9,7,1.7,10.3,2.9c5.5,2,10.4,4.8,15.2,7.5l0.7,0.4c7.3,4.1,14.8,8.3,23.9,9.8c2,0.3,4,0.5,5.9,0.5
		c10.5,0,20.7-4.4,28.2-12.4c6.5-7,9.9-17.3,10.5-31.4c0.2-5.2,1.1-10.2,1.8-14.6c0.9-5.3,1.6-10.2,1.8-15.4
		c0.5-13.3,0.5-27.6-2.5-42.3c-2-9.9-5.6-18.9-11-27.4c-2.6-4.1-5.7-10.1-5.9-13.6c-0.2-3.3,2.1-5.6,4.5-8c2.2-2.2,4.4-4.4,4.9-7.6
		c0.2-1.2,0.5-2.5,0.9-3.8l0.2-0.7h-0.9l-0.2,0.7c-0.3,1.3-0.7,2.5-0.8,3.6c-0.5,3-2.7,5.1-4.8,7.2l-0.2,0.2
		c-2.3,2.3-4.8,4.8-4.5,8.3C144.4,23.5,147.3,29.5,150.1,33.9z"/>
	<path class="st1" d="M-0.2,17.1c0.3,0.1,0.6,0.2,1,0.3l2,0.4c2.5,0.8,5,1.6,7.5,2.5c1.8,0.6,3.7,1.2,5.5,1.8c1,0.3,2.1,0.7,3.2,1.1
		c3.2,1.1,6.5,2.2,9.8,3.2c6.3,2,13.3,4.4,16.7,8.8c3.2,4,2.8,5.8,2,9.5c-0.2,0.8-0.4,1.8-0.6,3.2c-2,13.6,0.7,30.7,7.1,44.5
		c1.8,4,4.3,8.4,8.9,11.5c5.4,3.5,12.8,6.2,19.7,7.2c3.3,0.5,8.4,1,13.9,1c10,0,18.1-1.7,24.2-5c8.6-4.7,8.3-13.1,8-20.5v-0.2
		c-0.3-6.9-1.2-15-5.1-22.8c-1.1-2.2-2.6-4.8-4.1-7.4l-0.6-1c-1.7-2.9-3.5-6-4.7-8.4c-0.3-0.5-0.6-1.1-0.8-1.7
		c-0.2-0.4-0.3-0.7-0.5-1V44c-2.4-5.1-4.3-9.2-10.4-13l-0.4-0.2c-3.4-2-5.4-3.9-5.9-5.7c-0.4-1.4,1.9-3.8,3.4-5.4
		c0.9-1,1.9-2.1,2.3-2.9c2.1-3.9,2.9-8.2,3.6-12.3l0.1-0.3c0.1-0.7,0.3-1.4,0.4-2.1c0.1-0.6,0.2-1.1,0.3-1.7V0.3h-0.8v0.1
		c-0.3,1.2-0.5,2.5-0.7,3.8l-0.2,1c-0.7,3.8-1.5,7.8-3.4,11.5c-0.4,0.7-1.2,1.6-2.3,2.8c-2.1,2.3-3.9,4.5-3.5,6
		c0.8,2.8,4.5,5.1,6.3,6.2l0.4,0.2c6,3.7,7.9,7.7,10.3,12.8c0.4,0.9,0.8,1.8,1.3,2.7c1.1,2.2,2.6,4.8,4.1,7.4l0.6,1
		c1.7,2.9,3.5,6,4.7,8.4c3.1,6.2,4.7,13.6,5,22.7v0.2c0.3,7.2,0.6,15.3-7.6,19.8c-5,2.8-16.5,6.9-37.4,3.9c-6.9-1-14.1-3.7-19.2-7.1
		c-4.6-3.1-7.1-7.6-8.8-11.1C48.7,79,46,62.1,48,48.5c0.2-1.4,0.4-2.4,0.6-3.2c0.8-3.7,1.2-5.7-2.1-9.9c-3.4-4.3-10.3-6.9-17.2-9
		c-2.5-0.8-5-1.6-7.5-2.5c-1.8-0.6-3.7-1.2-5.5-1.8c-1-0.3-2.1-0.7-3.1-1.1c-3.2-1.1-6.5-2.2-9.9-3.2l-2.3-1
		c-0.4-0.1-0.8-0.2-1.2-0.4l-0.2-0.1V17L-0.2,17.1L-0.2,17.1z"/>
	<path class="st1" d="M425.1,4.2c-2-1.3-3.5-2.7-4.5-4.3v-0.1h-0.9l0.1,0.2c1.3,1.9,2.8,3.5,4.8,4.6h0.1l0.5-0.5L425.1,4.2z"/>
	<path class="st1" d="M154.1,22.7c3.4,4.7,16,24.9,15.8,38.4c-0.1,4.5-0.3,9.3-0.6,13.6l-0.1,1.3c-0.2,3.1-0.3,6.1-0.4,8.8
		c-0.1,3.1,0.2,6.3,0.5,9.3c0,0.6,0.1,1.1,0.1,1.7c0.1,0.5,0.1,1.1,0.2,1.6c0.3,2.6,0.5,5.3,0.5,8c0,5.9-1.2,12-2.2,16.9
		c-0.1,0.7-0.3,1.4-0.4,2.1c-0.4,2.1-0.8,4.2-1.1,6.3c-0.6,3.9-0.9,7.9-1.2,11.8v0.5c-0.8,9.8-1.6,20-6.5,29.2
		c-2,4-6.4,9.2-11.6,11.9c-10.2,5.3-30.4,4.2-31.1,4c-1.1-0.2-3.1-1.4-5.5-2.8c-0.5-0.3-1-0.6-1.6-0.9c-2.7-1.6-5.8-3.4-8.2-4.4
		c-5.2-2.2-8.5-4-11.9-6l0,0c-4.2-2.5-7.9-4.6-15.9-6.9c-2.9-0.9-7.2-1.9-10.6-2.8c-5.8-1.4-13.5-3.4-18-4.9
		C28.6,154.2,21,140.7,14,126.2C7.5,112.7,2,100.5,0.9,87.5c-0.2-2.3-0.1-4.7,0-6.8v-0.1c0.1-3.7,0.2-7.3-0.8-10.4l-0.2-0.8v3.2
		c0.4,2.4,0.3,5.1,0.2,7.8l0,0c-0.1,2-0.2,4.5,0,6.9c1.1,13,6.3,24.9,13.1,39c7,14.6,14.6,28.2,30.7,33.7c3.8,1.3,10.1,2.9,16.2,4.5
		L62,165c4.2,1,8,2,10.6,2.8c7.9,2.3,11.6,4.4,15.8,6.8c3.4,2,6.7,3.8,11.9,6c1.7,0.7,3.8,1.9,6,3.1c0.7,0.4,1.4,0.8,2.1,1.2
		c0.5,0.3,1,0.5,1.4,0.8c2.6,1.5,4.7,2.7,5.9,3c0.4,0.1,2.8,0.2,6.3,0.2c7.1,0,18.4-0.7,25.5-4.4c5.2-2.7,9.7-8.1,12-12.3
		c4.9-9.4,5.7-19.6,6.5-29.4v-0.2c0.3-4.1,0.7-8.2,1.2-12.1c0.3-1.9,0.6-3.8,1-5.6c0.2-0.9,0.4-1.9,0.5-2.8c1-5.3,2.2-11.2,2.2-17
		c0-2.8-0.2-6-0.7-9.6c-0.4-3.4-0.8-7.2-0.6-10.9c0.1-2.7,0.2-5.5,0.4-8.4l0.1-1.7c0.3-4.3,0.5-9.1,0.6-13.6
		c0.2-13.8-12.4-34.1-15.8-38.8c-2-2.8-1.1-5.9,2.9-9.5c3.7-3.4,5.4-5.9,6.8-9.6c0.3-0.8,0.5-1.9,0.7-2.9V0h-0.9v0.1
		C164.2,1,164,2,163.7,2.9c-1.4,3.8-3.2,6.3-6.7,9.4C152.8,16.1,151.9,19.5,154.1,22.7z"/>
</g>
</svg>
