<svg width="76" height="75" viewBox="0 0 76 75" fill="none" xmlns="http://www.w3.org/2000/svg">
<path fill-rule="evenodd" clip-rule="evenodd" d="M27.7207 8.18569C25.9338 8.61428 25.1662 10.5896 25.9791 12.1164L28.6812 17.1921C29.3608 18.4685 30.8431 18.9352 32.111 18.6067C36.807 17.3901 40.8985 19.2765 43.6818 22.3565C46.5017 25.4771 47.8167 29.644 47.1099 32.7013C46.9858 33.238 47.323 33.7718 47.8631 33.8936C48.4033 34.0153 48.9417 33.6789 49.0658 33.1422C49.9579 29.2838 48.3002 24.4792 45.1771 21.0231C42.0174 17.5264 37.1955 15.2311 31.6094 16.6783C31.0964 16.8112 30.6351 16.5931 30.456 16.2567L27.7539 11.181C27.5078 10.7189 27.7676 10.2235 28.1867 10.123C36.7805 8.06173 44.3211 10.3086 49.4225 15.1515C54.5318 20.0018 57.2742 27.5335 56.0863 36.185C56.0114 36.7305 56.3959 37.2318 56.945 37.3047C57.4941 37.3776 58 36.9944 58.0749 36.4489C59.3413 27.2248 56.4262 19.0392 50.8114 13.709C45.1888 8.3714 36.9387 5.97474 27.7207 8.18569Z" fill="#616B6B"/>
<path fill-rule="evenodd" clip-rule="evenodd" d="M51.5748 8.02671C52.1046 7.31198 52.9416 6.8905 53.8313 6.8905H71.2416C71.7939 6.8905 72.2416 7.33822 72.2416 7.8905C72.2416 8.44279 71.7939 8.8905 71.2416 8.8905H53.8313C53.5751 8.8905 53.3341 9.01187 53.1816 9.21767L48.6906 15.2764C48.3618 15.7201 47.7355 15.8131 47.2918 15.4843C46.8481 15.1554 46.755 14.5291 47.0839 14.0854L51.5748 8.02671Z" fill="#616B6B"/>
<path fill-rule="evenodd" clip-rule="evenodd" d="M21.1039 48.8211C17.1213 45.9701 13.6832 41.6542 12.5735 36.1212C12.5003 35.7567 12.79 35.3371 13.3024 35.3429L19.1809 35.4104C19.5314 35.4145 19.9157 35.6733 20.0878 36.1435C21.247 39.3103 23.6031 41.6563 25.9391 43.2001C27.1117 43.9752 28.299 44.5615 29.3649 44.9565C30.4131 45.345 31.4074 45.572 32.1825 45.572C32.7348 45.572 33.1826 45.1243 33.1827 44.572C33.1828 44.0197 32.7352 43.572 32.1829 43.572C31.7416 43.572 30.9993 43.4292 30.0602 43.0811C29.1388 42.7397 28.0882 42.223 27.042 41.5315C24.9402 40.1425 22.9348 38.1024 21.966 35.4558C21.5616 34.3511 20.5308 33.4258 19.2042 33.4106L13.3258 33.3431C11.6839 33.3242 10.2619 34.7671 10.6125 36.5149C11.843 42.65 15.641 47.3703 19.9395 50.4474C24.2071 53.5024 29.1158 55.0396 32.7016 54.619C33.2502 54.5547 33.6428 54.0579 33.5786 53.5094C33.5143 52.9608 33.0176 52.5683 32.469 52.6327C29.5347 52.9768 25.1173 51.6941 21.1039 48.8211Z" fill="#616B6B"/>
<path fill-rule="evenodd" clip-rule="evenodd" d="M19.9965 45.0614C20.3512 45.4847 20.2955 46.1154 19.8722 46.4701L13.607 51.7197C13.4236 51.8734 13.3176 52.1004 13.3176 52.3397V58.4856C13.3176 59.0378 12.8699 59.4856 12.3176 59.4856C11.7653 59.4856 11.3176 59.0378 11.3176 58.4856V52.3397C11.3176 51.5087 11.6855 50.7204 12.3225 50.1867L18.5877 44.9371C19.011 44.5824 19.6418 44.6381 19.9965 45.0614ZM0.915527 62.0139C0.915527 61.4616 1.36324 61.0139 1.91553 61.0139H11.0425C11.5948 61.0139 12.0425 61.4616 12.0425 62.0139C12.0425 62.5662 11.5948 63.0139 11.0425 63.0139H1.91553C1.36324 63.0139 0.915527 62.5662 0.915527 62.0139ZM12.5256 62.0139C12.5256 61.4616 12.9733 61.0139 13.5256 61.0139H26.1423C26.6946 61.0139 27.1423 61.4616 27.1423 62.0139C27.1423 62.5662 26.6946 63.0139 26.1423 63.0139H13.5256C12.9733 63.0139 12.5256 62.5662 12.5256 62.0139Z" fill="#616B6B"/>
<path fill-rule="evenodd" clip-rule="evenodd" d="M8.09033 1.56482C8.64262 1.56482 9.09033 2.01253 9.09033 2.56482V11.8836H11.6538V6.02659C11.6538 5.4743 12.1015 5.02659 12.6538 5.02659C13.2061 5.02659 13.6538 5.4743 13.6538 6.02659V11.9792C13.6538 13.0309 12.8012 13.8836 11.7494 13.8836H8.99473C7.94296 13.8836 7.09033 13.0309 7.09033 11.9792V2.56482C7.09033 2.01253 7.53805 1.56482 8.09033 1.56482Z" fill="#616B6B"/>
<path fill-rule="evenodd" clip-rule="evenodd" d="M19.4534 11.7096C20.826 10.6477 22.7699 11.1401 23.5608 12.6157L26.3403 17.8008C27.0152 19.0599 26.6192 20.5615 25.5731 21.4106C24.3946 22.3671 23.5714 23.2685 22.9663 24.3272C22.359 25.3896 21.9386 26.668 21.6454 28.4212C21.419 29.7748 20.2669 30.8595 18.8215 30.8595H13.1688C11.4821 30.8595 10.1423 29.3649 10.4186 27.659C11.0241 23.9197 11.884 20.9926 13.3142 18.4557C14.7487 15.9112 16.7201 13.8243 19.4534 11.7096ZM21.7981 13.5605C21.5624 13.1208 21.0234 13.0237 20.6772 13.2915C18.0858 15.2964 16.3228 17.1916 15.0564 19.4379C13.7858 21.6917 12.9783 24.3639 12.3929 27.9787C12.3202 28.4276 12.6726 28.8595 13.1688 28.8595H18.8215C19.2176 28.8595 19.5954 28.5539 19.6728 28.0912C19.991 26.1889 20.4695 24.6651 21.2299 23.3348C21.9923 22.0008 23.0052 20.9189 24.3127 19.8577C24.6782 19.5611 24.7615 19.0888 24.5776 18.7457L21.7981 13.5605Z" fill="#616B6B"/>
<path fill-rule="evenodd" clip-rule="evenodd" d="M11.8878 11.7493C12.3672 11.475 12.9781 11.6413 13.2524 12.1206L17.4804 19.5102C17.7546 19.9895 17.5884 20.6005 17.109 20.8748C16.6296 21.149 16.0187 20.9828 15.7444 20.5034L11.5165 13.1138C11.2422 12.6345 11.4085 12.0235 11.8878 11.7493Z" fill="#616B6B"/>
<path fill-rule="evenodd" clip-rule="evenodd" d="M46.3486 37.5154C46.3486 36.9631 46.7963 36.5154 47.3486 36.5154C53.9718 36.5154 59.3547 41.8436 59.3547 48.4333C59.3547 48.9856 58.907 49.4333 58.3547 49.4333C57.8024 49.4333 57.3547 48.9856 57.3547 48.4333C57.3547 42.9633 52.8824 38.5154 47.3486 38.5154C46.7963 38.5154 46.3486 38.0677 46.3486 37.5154Z" fill="#616B6B"/>
<path fill-rule="evenodd" clip-rule="evenodd" d="M47.3488 62.0113C54.9324 62.0113 61.0526 55.9171 61.0526 48.4333C61.0526 40.9495 54.9324 34.8553 47.3488 34.8553C39.7652 34.8553 33.645 40.9495 33.645 48.4333C33.645 55.9171 39.7652 62.0113 47.3488 62.0113ZM47.3488 64.0113C56.0218 64.0113 63.0526 57.0368 63.0526 48.4333C63.0526 39.8298 56.0218 32.8553 47.3488 32.8553C38.6758 32.8553 31.645 39.8298 31.645 48.4333C31.645 57.0368 38.6758 64.0113 47.3488 64.0113Z" fill="#149CB8"/>
<path fill-rule="evenodd" clip-rule="evenodd" d="M60.5009 54.8524C60.8899 54.4603 61.523 54.4577 61.9151 54.8467L73.8126 66.6489L74.3918 67.187C75.1913 67.9299 75.7175 69.0702 75.4839 70.2839C75.29 71.2918 74.9497 72.139 74.381 72.8571C73.8156 73.5711 73.0781 74.0894 72.1995 74.5246C70.8559 75.1902 69.3366 74.7966 68.3434 73.883L67.9327 73.5052L55.9237 61.5924C55.5316 61.2034 55.529 60.5703 55.918 60.1782C56.3069 59.7861 56.9401 59.7835 57.3322 60.1725L69.3144 72.0587L69.6974 72.411C70.1956 72.8693 70.8394 72.9664 71.3118 72.7325C72.0258 72.3787 72.4895 72.0241 72.8131 71.6155C73.1334 71.2109 73.3699 70.6858 73.52 69.906C73.597 69.5054 73.4352 69.0283 73.0304 68.6521L72.4273 68.0918L60.5066 56.2666C60.1145 55.8776 60.112 55.2445 60.5009 54.8524Z" fill="#149CB8"/>
<path fill-rule="evenodd" clip-rule="evenodd" d="M45.9254 16.8317C46.0425 17.0909 46.3594 17.2223 46.6446 17.0956C46.9297 16.9688 47.0418 16.6467 46.9247 16.3876C46.8076 16.1284 46.4908 15.997 46.2056 16.1237C45.9204 16.2505 45.8083 16.5726 45.9254 16.8317ZM44.0978 17.6441C44.6738 18.9191 46.1826 19.4895 47.4679 18.9182C48.7532 18.3469 49.3282 16.8502 48.7523 15.5752C48.1764 14.3002 46.6675 13.7297 45.3822 14.3011C44.097 14.8724 43.5219 16.3691 44.0978 17.6441Z" fill="#149CB8"/>
<path fill-rule="evenodd" clip-rule="evenodd" d="M21.625 44.1056C21.5713 43.8318 21.2952 43.6289 20.9834 43.689C20.6716 43.7491 20.4923 44.0399 20.546 44.3137C20.5996 44.5874 20.8757 44.7903 21.1875 44.7302C21.4993 44.6701 21.6786 44.3793 21.625 44.1056ZM23.5888 43.7268C23.32 42.3554 21.9813 41.4597 20.5988 41.7264C19.2162 41.993 18.3134 43.3209 18.5822 44.6924C18.8509 46.0639 20.1896 46.9595 21.5722 46.6929C22.9547 46.4262 23.8576 45.0983 23.5888 43.7268Z" fill="#149CB8"/>
<path fill-rule="evenodd" clip-rule="evenodd" d="M17.5536 22.8665C17.8727 22.8665 18.1038 22.6142 18.1038 22.3368C18.1038 22.0593 17.8727 21.807 17.5536 21.807C17.2345 21.807 17.0034 22.0593 17.0034 22.3368C17.0034 22.6142 17.2345 22.8665 17.5536 22.8665ZM17.5536 24.8665C18.962 24.8665 20.1038 23.7339 20.1038 22.3368C20.1038 20.9396 18.962 19.807 17.5536 19.807C16.1452 19.807 15.0034 20.9396 15.0034 22.3368C15.0034 23.7339 16.1452 24.8665 17.5536 24.8665Z" fill="#149CB8"/>
</svg>
