<svg width="180" height="180" viewBox="0 0 180 180" fill="none" xmlns="http://www.w3.org/2000/svg">
<circle cx="90" cy="90" r="90" fill="#149CB8"/>
<g clip-path="url(#clip0_100_906)">
<path d="M52.4294 104.916C52.1044 104.916 51.7927 104.787 51.5629 104.557C51.3331 104.327 51.204 104.015 51.204 103.69V96.7005C51.2027 96.151 50.9839 95.6244 50.5953 95.2358C50.2068 94.8473 49.6801 94.6284 49.1306 94.6271H43.0183C42.4693 94.6284 41.9432 94.8474 41.5554 95.2361C41.1676 95.6248 40.9498 96.1515 40.9498 96.7005V103.69C40.9498 104.015 40.8207 104.327 40.5909 104.557C40.3611 104.787 40.0494 104.916 39.7244 104.916C39.3994 104.916 39.0877 104.787 38.8579 104.557C38.6281 104.327 38.499 104.015 38.499 103.69V96.7005C38.5003 95.5019 38.9767 94.3526 39.8238 93.5046C40.6709 92.6566 41.8197 92.1789 43.0183 92.1763H49.1306C50.3301 92.1776 51.4801 92.6547 52.3283 93.5029C53.1765 94.351 53.6535 95.501 53.6548 96.7005V103.69C53.6548 103.851 53.6231 104.01 53.5616 104.159C53.5 104.308 53.4097 104.443 53.2959 104.557C53.1821 104.671 53.047 104.761 52.8984 104.822C52.7497 104.884 52.5904 104.916 52.4294 104.916Z" fill="white"/>
<path d="M46.0028 93.5831C44.8536 93.584 43.7299 93.2441 42.7739 92.6062C41.818 91.9684 41.0728 91.0613 40.6325 89.9997C40.1923 88.9382 40.0769 87.7699 40.3008 86.6427C40.5248 85.5155 41.0781 84.4801 41.8907 83.6675C42.7033 82.8549 43.7387 82.3016 44.8659 82.0776C45.9931 81.8537 47.1614 81.9691 48.2229 82.4093C49.2845 82.8496 50.1916 83.5948 50.8294 84.5507C51.4673 85.5067 51.8073 86.6304 51.8063 87.7796C51.805 89.3184 51.1931 90.7937 50.105 91.8818C49.017 92.9699 47.5416 93.5818 46.0028 93.5831V93.5831ZM46.0028 84.422C45.3385 84.421 44.6889 84.6171 44.1361 84.9854C43.5833 85.3538 43.1521 85.8778 42.8973 86.4913C42.6424 87.1047 42.5752 87.78 42.7042 88.4316C42.8332 89.0832 43.1526 89.682 43.622 90.152C44.0913 90.6221 44.6896 90.9423 45.341 91.0723C45.9925 91.2022 46.6678 91.136 47.2816 90.8821C47.8954 90.6281 48.4201 90.1977 48.7893 89.6455C49.1584 89.0932 49.3555 88.4438 49.3555 87.7796C49.3555 86.8899 49.0024 86.0366 48.3738 85.4071C47.7452 84.7776 46.8924 84.4233 46.0028 84.422Z" fill="white"/>
<path d="M87.9709 61.1834H87.912C87.7411 61.1757 87.5737 61.1319 87.4208 61.0551C87.2679 60.9782 87.133 60.8699 87.0248 60.7373L85.1916 58.5071C85.0896 58.3825 85.0131 58.2391 84.9665 58.085C84.9199 57.9309 84.9041 57.7691 84.9201 57.6089C84.9523 57.2853 85.1116 56.9878 85.3632 56.7817C85.6147 56.5757 85.9378 56.478 86.2614 56.5102C86.585 56.5423 86.8825 56.7017 87.0886 56.9533L88.0689 58.1444L90.4707 55.7426C90.7057 55.548 91.0049 55.448 91.3097 55.4623C91.6145 55.4766 91.903 55.6042 92.1187 55.8199C92.3345 56.0357 92.462 56.3242 92.4763 56.629C92.4906 56.9338 92.3907 57.2329 92.196 57.468L88.8384 60.8256C88.6079 61.0548 88.296 61.1834 87.9709 61.1834V61.1834Z" fill="white"/>
<path d="M87.9705 92.9312H87.9117C87.7404 92.9225 87.5729 92.8779 87.42 92.8002C87.2671 92.7225 87.1324 92.6135 87.0245 92.4802L85.1913 90.2402C85.0006 89.9872 84.9152 89.6703 84.9532 89.3558C84.9911 89.0413 85.1493 88.7537 85.3947 88.5533C85.6401 88.353 85.9535 88.2554 86.2692 88.2811C86.585 88.3068 86.8785 88.4538 87.0882 88.6913L88.0685 89.8824L90.4703 87.4806C90.705 87.2801 91.0067 87.1757 91.3151 87.188C91.6235 87.2004 91.9159 87.3286 92.1338 87.5472C92.3517 87.7657 92.4792 88.0585 92.4906 88.3669C92.5021 88.6753 92.3968 88.9767 92.1957 89.2108L88.8381 92.5734C88.6075 92.8026 88.2956 92.9312 87.9705 92.9312V92.9312Z" fill="white"/>
<path d="M87.9709 124.679H87.912C87.7408 124.67 87.5733 124.626 87.4204 124.548C87.2675 124.47 87.1327 124.361 87.0248 124.228L85.1916 121.988C85.0896 121.863 85.0131 121.72 84.9665 121.566C84.9199 121.412 84.9041 121.25 84.9201 121.09C84.9523 120.766 85.1116 120.469 85.3632 120.263C85.6147 120.057 85.9378 119.959 86.2614 119.991C86.585 120.023 86.8825 120.183 87.0886 120.434L88.0689 121.63L90.4707 119.228C90.5818 119.104 90.7171 119.004 90.8683 118.934C91.0194 118.863 91.1834 118.825 91.35 118.82C91.5166 118.815 91.6825 118.845 91.8373 118.906C91.9922 118.968 92.1329 119.061 92.2508 119.179C92.3686 119.296 92.4612 119.437 92.5229 119.592C92.5845 119.747 92.6139 119.913 92.6092 120.079C92.6045 120.246 92.5659 120.41 92.4957 120.561C92.4255 120.712 92.3252 120.848 92.201 120.959L88.8433 124.321C88.7286 124.435 88.5925 124.526 88.4427 124.587C88.293 124.648 88.1327 124.68 87.9709 124.679Z" fill="white"/>
<path d="M75.7457 71.2513H139.496C139.821 71.2513 140.133 71.1222 140.363 70.8924C140.592 70.6626 140.722 70.3509 140.722 70.0259V46.4981C140.722 46.1731 140.592 45.8614 140.363 45.6316C140.133 45.4018 139.821 45.2727 139.496 45.2727H75.7457C75.4207 45.2727 75.109 45.4018 74.8792 45.6316C74.6494 45.8614 74.5203 46.1731 74.5203 46.4981V57.0366H73.0155C71.3365 57.0443 69.7284 57.7144 68.5408 58.9012C67.3531 60.0879 66.6818 61.6955 66.6728 63.3744V88.7746H62.4966C62.1795 84.5037 60.2189 80.5222 57.0271 77.6668C53.8352 74.8115 49.6607 73.3048 45.381 73.4635C41.1014 73.6222 37.0499 75.4339 34.0782 78.5177C31.1066 81.6016 29.4463 85.7174 29.4463 90C29.4463 94.2826 31.1066 98.3984 34.0782 101.482C37.0499 104.566 41.1014 106.378 45.381 106.537C49.6607 106.695 53.8352 105.188 57.0271 102.333C60.2189 99.4778 62.1795 95.4963 62.4966 91.2254H66.6728V116.626C66.6728 118.311 67.3401 119.927 68.5287 121.121C69.7174 122.315 71.3306 122.99 73.0155 122.998H74.5203V133.502C74.5203 133.827 74.6494 134.139 74.8792 134.368C75.109 134.598 75.4207 134.727 75.7457 134.727H139.496C139.821 134.727 140.133 134.598 140.363 134.368C140.592 134.139 140.722 133.827 140.722 133.502V109.974C140.722 109.649 140.592 109.337 140.363 109.108C140.133 108.878 139.821 108.749 139.496 108.749H75.7457C75.4207 108.749 75.109 108.878 74.8792 109.108C74.6494 109.337 74.5203 109.649 74.5203 109.974V120.508H73.0155C71.9806 120.5 70.9907 120.083 70.2617 119.349C69.5326 118.614 69.1235 117.621 69.1236 116.586V91.2254H74.5154V101.759C74.5154 102.084 74.6445 102.396 74.8743 102.625C75.1041 102.855 75.4158 102.984 75.7408 102.984H139.496C139.821 102.984 140.133 102.855 140.363 102.625C140.592 102.396 140.722 102.084 140.722 101.759V78.2312C140.722 77.9062 140.592 77.5945 140.363 77.3647C140.133 77.1349 139.821 77.0058 139.496 77.0058H75.7457C75.4207 77.0058 75.109 77.1349 74.8792 77.3647C74.6494 77.5945 74.5203 77.9062 74.5203 78.2312V88.7746H69.1285V63.3744C69.1374 62.3463 69.5498 61.3628 70.2769 60.6358C71.0039 59.9088 71.9873 59.4964 73.0155 59.4874H74.5203V70.0112C74.5183 70.1734 74.5486 70.3343 74.6093 70.4847C74.67 70.635 74.7599 70.7719 74.8739 70.8872C74.9879 71.0026 75.1237 71.0941 75.2733 71.1566C75.4229 71.2191 75.5835 71.2513 75.7457 71.2513ZM46.0026 104.092C43.2141 104.093 40.4879 103.267 38.1689 101.718C35.8499 100.17 34.0423 97.9682 32.9747 95.3921C31.9071 92.816 31.6275 89.9811 32.1713 87.2461C32.7151 84.5111 34.0578 81.9988 36.0296 80.027C38.0014 78.0552 40.5137 76.7125 43.2487 76.1687C45.9838 75.6249 48.8186 75.9045 51.3947 76.9721C53.9708 78.0396 56.1724 79.8473 57.7211 82.1663C59.2697 84.4853 60.0958 87.2115 60.0948 90C60.0896 93.7359 58.6032 97.3173 55.9616 99.9589C53.3199 102.601 49.7385 104.087 46.0026 104.092ZM76.9711 111.209H138.271V132.286H76.9711V111.209ZM76.9711 79.4664H138.271V100.543H76.9711V79.4664ZM76.9711 47.7235H138.271V68.8005H76.9711V47.7235Z" fill="#A3E8F5"/>
<path d="M88.6272 49.9587C87.0068 49.9577 85.4225 50.4374 84.0749 51.337C82.7272 52.2366 81.6766 53.5158 81.0561 55.0126C80.4355 56.5094 80.2729 58.1567 80.5888 59.746C80.9047 61.3353 81.6848 62.7951 82.8306 63.9409C83.9764 65.0867 85.4363 65.8669 87.0255 66.1827C88.6148 66.4986 90.2621 66.336 91.7589 65.7155C93.2558 65.0949 94.5349 64.0444 95.4345 62.6967C96.3341 61.349 96.8138 59.7647 96.8129 58.1444C96.8103 55.9742 95.947 53.8936 94.4125 52.3591C92.8779 50.8245 90.7973 49.9613 88.6272 49.9587V49.9587ZM88.6272 63.8842C87.4917 63.8851 86.3815 63.5493 85.437 62.9192C84.4924 62.2891 83.756 61.393 83.3208 60.3443C82.8856 59.2956 82.7712 58.1413 82.9921 57.0276C83.2131 55.9139 83.7593 54.8907 84.5619 54.0875C85.3644 53.2843 86.3871 52.7371 87.5007 52.5152C88.6142 52.2934 89.7685 52.4067 90.8176 52.841C91.8667 53.2753 92.7635 54.011 93.3944 54.955C94.0253 55.899 94.362 57.0089 94.362 58.1444C94.3633 58.8988 94.216 59.6461 93.9285 60.3435C93.641 61.041 93.2189 61.675 92.6864 62.2094C92.1539 62.7437 91.5213 63.168 90.8248 63.4578C90.1283 63.7477 89.3816 63.8976 88.6272 63.8989V63.8842Z" fill="white"/>
<path d="M102.117 56.1543H116.072C116.397 56.1543 116.709 56.0252 116.938 55.7954C117.168 55.5656 117.297 55.2539 117.297 54.9289C117.297 54.6039 117.168 54.2922 116.938 54.0624C116.709 53.8326 116.397 53.7035 116.072 53.7035H102.117C101.792 53.7035 101.48 53.8326 101.251 54.0624C101.021 54.2922 100.892 54.6039 100.892 54.9289C100.892 55.2539 101.021 55.5656 101.251 55.7954C101.48 56.0252 101.792 56.1543 102.117 56.1543V56.1543Z" fill="#A3E8F5"/>
<path d="M132.968 59.757H102.117C101.792 59.757 101.48 59.8861 101.251 60.1159C101.021 60.3457 100.892 60.6574 100.892 60.9824C100.892 61.3074 101.021 61.6191 101.251 61.8489C101.48 62.0787 101.792 62.2078 102.117 62.2078H132.968C133.293 62.2078 133.604 62.0787 133.834 61.8489C134.064 61.6191 134.193 61.3074 134.193 60.9824C134.193 60.6574 134.064 60.3457 133.834 60.1159C133.604 59.8861 133.293 59.757 132.968 59.757V59.757Z" fill="#A3E8F5"/>
<path d="M88.6271 98.0779C90.2451 98.0759 91.8262 97.5946 93.1707 96.6946C94.5152 95.7946 95.5629 94.5164 96.1813 93.0213C96.7998 91.5262 96.9614 89.8814 96.6456 88.2946C96.3299 86.7078 95.5509 85.2501 94.4072 84.1057C93.2635 82.9613 91.8063 82.1815 90.2197 81.8648C88.6331 81.5481 86.9881 81.7087 85.4927 82.3263C83.9973 82.9439 82.7184 83.9908 81.8176 85.3348C80.9169 86.6787 80.4345 88.2595 80.4316 89.8775C80.431 90.9541 80.6425 92.0204 81.0541 93.0153C81.4657 94.0101 82.0692 94.9142 82.8303 95.6757C83.5914 96.4373 84.4951 97.0414 85.4897 97.4536C86.4844 97.8657 87.5505 98.0779 88.6271 98.0779ZM88.6271 84.1573C89.7616 84.1592 90.87 84.4976 91.8121 85.1296C92.7543 85.7616 93.4878 86.6588 93.9199 87.7077C94.352 88.7567 94.4633 89.9102 94.2397 91.0224C94.0162 92.1346 93.4677 93.1555 92.6638 93.956C91.8599 94.7565 90.8367 95.3005 89.7235 95.5194C88.6104 95.7382 87.4573 95.6219 86.4102 95.1853C85.3631 94.7487 84.4691 94.0114 83.8411 93.0666C83.2132 92.1218 82.8795 91.0119 82.8825 89.8775C82.8889 88.3581 83.497 86.9032 84.5737 85.8312C85.6503 84.7591 87.1078 84.1573 88.6271 84.1573V84.1573Z" fill="white"/>
<path d="M102.117 87.9168H116.072C116.397 87.9168 116.709 87.7877 116.938 87.5579C117.168 87.3281 117.297 87.0164 117.297 86.6914C117.297 86.3664 117.168 86.0547 116.938 85.8249C116.709 85.5951 116.397 85.466 116.072 85.466H102.117C101.792 85.466 101.48 85.5951 101.251 85.8249C101.021 86.0547 100.892 86.3664 100.892 86.6914C100.892 87.0164 101.021 87.3281 101.251 87.5579C101.48 87.7877 101.792 87.9168 102.117 87.9168V87.9168Z" fill="#A3E8F5"/>
<path d="M102.117 93.9556H132.968C133.293 93.9556 133.604 93.8265 133.834 93.5967C134.064 93.3669 134.193 93.0552 134.193 92.7302C134.193 92.4052 134.064 92.0935 133.834 91.8637C133.604 91.6339 133.293 91.5048 132.968 91.5048H102.117C101.792 91.5048 101.48 91.6339 101.251 91.8637C101.021 92.0935 100.892 92.4052 100.892 92.7302C100.892 93.0552 101.021 93.3669 101.251 93.5967C101.48 93.8265 101.792 93.9556 102.117 93.9556V93.9556Z" fill="#A3E8F5"/>
<path d="M88.6272 113.449C87.007 113.448 85.4229 113.928 84.0754 114.827C82.7278 115.727 81.6772 117.006 81.0565 118.502C80.4358 119.999 80.2729 121.646 80.5884 123.235C80.9039 124.824 81.6836 126.284 82.8289 127.43C83.9742 128.576 85.4336 129.356 87.0225 129.673C88.6115 129.989 90.2586 129.827 91.7555 129.208C93.2524 128.588 94.5319 127.538 95.4321 126.191C96.3324 124.844 96.8129 123.26 96.8129 121.64C96.8103 119.469 95.9472 117.388 94.4128 115.853C92.8783 114.318 90.7978 113.453 88.6272 113.449V113.449ZM88.6272 127.375C87.4915 127.376 86.3811 127.04 85.4364 126.41C84.4918 125.779 83.7553 124.883 83.3203 123.834C82.8853 122.785 82.7712 121.63 82.9925 120.516C83.2138 119.403 83.7606 118.379 84.5636 117.576C85.3666 116.773 86.3898 116.227 87.5037 116.005C88.6175 115.784 89.772 115.898 90.821 116.333C91.8701 116.768 92.7664 117.505 93.3968 118.449C94.0271 119.394 94.363 120.504 94.362 121.64C94.3595 123.16 93.7544 124.617 92.6795 125.692C91.6045 126.767 90.1473 127.372 88.6272 127.375V127.375Z" fill="white"/>
<path d="M102.117 119.645H116.072C116.397 119.645 116.709 119.516 116.938 119.286C117.168 119.056 117.297 118.745 117.297 118.42C117.297 118.095 117.168 117.783 116.938 117.553C116.709 117.323 116.397 117.194 116.072 117.194H102.117C101.792 117.194 101.48 117.323 101.251 117.553C101.021 117.783 100.892 118.095 100.892 118.42C100.892 118.745 101.021 119.056 101.251 119.286C101.48 119.516 101.792 119.645 102.117 119.645Z" fill="#A3E8F5"/>
<path d="M132.968 123.253H102.117C101.792 123.253 101.48 123.382 101.251 123.612C101.021 123.841 100.892 124.153 100.892 124.478C100.892 124.803 101.021 125.115 101.251 125.344C101.48 125.574 101.792 125.703 102.117 125.703H132.968C133.293 125.703 133.604 125.574 133.834 125.344C134.064 125.115 134.193 124.803 134.193 124.478C134.193 124.153 134.064 123.841 133.834 123.612C133.604 123.382 133.293 123.253 132.968 123.253V123.253Z" fill="#A3E8F5"/>
</g>
<defs>
<clipPath id="clip0_100_906">
<rect width="111.267" height="89.4545" fill="white" transform="translate(29.4551 45.2727)"/>
</clipPath>
</defs>
</svg>
