<svg width="76" height="75" viewBox="0 0 76 75" fill="none" xmlns="http://www.w3.org/2000/svg">
<path fill-rule="evenodd" clip-rule="evenodd" d="M3.33223 25.3367C2.88555 25.3367 2.52344 25.6988 2.52344 26.1455V34.7695H26.7222C27.2744 34.7695 27.7222 35.2172 27.7222 35.7695C27.7222 36.3218 27.2744 36.7695 26.7222 36.7695H2.52344V72.1914C2.52344 72.6381 2.88555 73.0002 3.33223 73.0002H72.4623C72.909 73.0002 73.2711 72.6381 73.2711 72.1914V36.7695H49.8027C49.2505 36.7695 48.8027 36.3218 48.8027 35.7695C48.8027 35.2172 49.2505 34.7695 49.8027 34.7695H73.2711V26.1455C73.2711 25.6988 72.909 25.3367 72.4623 25.3367H50.7523C50.2 25.3367 49.7523 24.889 49.7523 24.3367C49.7523 23.7844 50.2 23.3367 50.7523 23.3367H72.4623C74.0135 23.3367 75.2711 24.5942 75.2711 26.1455V72.1914C75.2711 73.7427 74.0135 75.0002 72.4623 75.0002H3.33223C1.78098 75.0002 0.523438 73.7427 0.523438 72.1914V26.1455C0.523438 24.5942 1.78097 23.3367 3.33223 23.3367H25.9918C26.5441 23.3367 26.9918 23.7844 26.9918 24.3367C26.9918 24.889 26.5441 25.3367 25.9918 25.3367H3.33223Z" fill="#616B6B"/>
<path fill-rule="evenodd" clip-rule="evenodd" d="M7.73134 29.4729C7.23753 29.4729 6.82694 29.8737 6.82694 30.3806C6.82694 30.8876 7.23753 31.2883 7.73134 31.2883C8.22515 31.2883 8.63574 30.8876 8.63574 30.3806C8.63574 29.8737 8.22515 29.4729 7.73134 29.4729ZM7.73134 31.4729C8.33642 31.4729 8.82694 30.9839 8.82694 30.3806C8.82694 29.7774 8.33642 29.2883 7.73134 29.2883C7.12626 29.2883 6.63574 29.7774 6.63574 30.3806C6.63574 30.9839 7.12626 31.4729 7.73134 31.4729Z" fill="#616B6B"/>
<path fill-rule="evenodd" clip-rule="evenodd" d="M12.4057 29.4729C11.9118 29.4729 11.5013 29.8737 11.5013 30.3806C11.5013 30.8876 11.9118 31.2883 12.4057 31.2883C12.8995 31.2883 13.3101 30.8876 13.3101 30.3806C13.3101 29.8737 12.8995 29.4729 12.4057 29.4729ZM12.4057 31.4729C13.0107 31.4729 13.5013 30.9839 13.5013 30.3806C13.5013 29.7774 13.0107 29.2883 12.4057 29.2883C11.8006 29.2883 11.3101 29.7774 11.3101 30.3806C11.3101 30.9839 11.8006 31.4729 12.4057 31.4729Z" fill="#616B6B"/>
<path fill-rule="evenodd" clip-rule="evenodd" d="M16.934 29.4729C16.4402 29.4729 16.0296 29.8737 16.0296 30.3806C16.0296 30.8876 16.4402 31.2883 16.934 31.2883C17.4278 31.2883 17.8384 30.8876 17.8384 30.3806C17.8384 29.8737 17.4278 29.4729 16.934 29.4729ZM16.934 31.4729C17.5391 31.4729 18.0296 30.9839 18.0296 30.3806C18.0296 29.7774 17.5391 29.2883 16.934 29.2883C16.3289 29.2883 15.8384 29.7774 15.8384 30.3806C15.8384 30.9839 16.3289 31.4729 16.934 31.4729Z" fill="#616B6B"/>
<path fill-rule="evenodd" clip-rule="evenodd" d="M42.9361 51.2997C43.4884 51.2997 43.9361 51.7474 43.9361 52.2997V63.8537C45.5622 63.664 47.0661 64.2177 48.1151 65.2707C49.1138 66.2732 49.6612 67.6885 49.5464 69.2344C51.0751 69.0183 52.5275 69.3689 53.6773 70.0496C55.1118 70.8987 56.2068 72.3554 56.2068 74.0002C56.2068 74.5525 55.7591 75.0002 55.2068 75.0002C54.6545 75.0002 54.2068 74.5525 54.2068 74.0002C54.2068 73.266 53.6834 72.3773 52.6586 71.7706C51.6646 71.1822 50.3209 70.9473 48.9373 71.4324C48.0011 71.7607 47.0999 70.8685 47.3877 69.9382C47.8043 68.5913 47.433 67.4197 46.6983 66.6823C45.9632 65.9444 44.801 65.5769 43.4791 65.9877C42.7597 66.2112 41.9361 65.7026 41.9361 64.8572V52.2997C41.9361 51.7474 42.3839 51.2997 42.9361 51.2997ZM33.587 51.4453C34.1393 51.4453 34.587 51.893 34.587 52.4453V64.8572C34.587 65.7035 33.7621 66.2114 33.0431 65.9872C31.7267 65.5768 30.6501 65.9478 29.9919 66.657C29.3245 67.3763 28.9895 68.5527 29.4249 69.9334C29.7201 70.8695 28.8108 71.7616 27.8756 71.4309C26.4915 70.9413 25.2075 71.1679 24.2799 71.7278C23.3269 72.3031 22.8276 73.1687 22.8276 73.9274C22.8276 74.4796 22.3799 74.9274 21.8276 74.9274C21.2754 74.9274 20.8276 74.4796 20.8276 73.9274C20.8276 72.3073 21.8454 70.8613 23.2463 70.0156C24.3571 69.3451 25.7593 69.0126 27.2527 69.2263C27.1167 67.7095 27.5888 66.3064 28.5259 65.2966C29.5234 64.2216 30.9815 63.666 32.587 63.8528V52.4453C32.587 51.893 33.0348 51.4453 33.587 51.4453Z" fill="#616B6B"/>
<path fill-rule="evenodd" clip-rule="evenodd" d="M38.6671 2.75384C38.4127 2.57334 38.0699 2.56847 37.8107 2.7413C33.7537 5.44697 31.2004 7.87156 29.5901 10.816C28.0503 13.6315 27.3178 17.0221 27.0913 21.7917C30.0021 22.9379 34.3472 23.6136 38.6812 23.6554C43.0336 23.6973 47.1347 23.0971 49.6352 21.8686C49.3033 17.4056 48.58 14.1318 47.0375 11.2924C45.4237 8.3217 42.8585 5.72707 38.6671 2.75384ZM49.6944 24.0294C49.7305 33.2111 48.5985 39.2561 45.3075 49.5775C45.2021 49.9079 44.8926 50.1347 44.5423 50.1347H43.5926C43.0404 50.1347 42.5926 50.5824 42.5926 51.1347C42.5926 51.687 43.0404 52.1347 43.5926 52.1347H44.5423C45.7596 52.1347 46.8421 51.3482 47.213 50.185C50.7398 39.1241 51.8544 32.7746 51.6774 22.4263L51.677 22.4026L51.6754 22.3789C51.3579 17.4686 50.6121 13.6827 48.7949 10.3376C46.9763 6.98999 44.1393 4.18349 39.8243 1.12259C38.8943 0.462918 37.65 0.444516 36.701 1.07738C32.5198 3.86588 29.6668 6.50763 27.8354 9.85634C26.0064 13.2004 25.2563 17.1403 25.0638 22.4069L25.0637 22.4069L25.0634 22.4192C24.7901 33.7219 26.0082 39.9528 29.4472 50.2236C29.83 51.367 30.9028 52.1347 32.105 52.1347H32.9288C33.4811 52.1347 33.9288 51.687 33.9288 51.1347C33.9288 50.5824 33.4811 50.1347 32.9288 50.1347H32.105C31.7592 50.1347 31.4524 49.9133 31.3437 49.5886C28.1156 39.9478 26.9039 34.0416 27.0359 23.9037C30.2192 25.016 34.5112 25.6153 38.6619 25.6553C42.6832 25.6941 46.7684 25.2104 49.6944 24.0294Z" fill="#149CB8"/>
<path fill-rule="evenodd" clip-rule="evenodd" d="M38.2613 37.7747C40.2685 37.7747 41.8853 36.154 41.8853 34.1675C41.8853 32.181 40.2685 30.5603 38.2613 30.5603C36.2541 30.5603 34.6372 32.181 34.6372 34.1675C34.6372 36.154 36.2541 37.7747 38.2613 37.7747ZM38.2613 39.7747C41.3674 39.7747 43.8853 37.2642 43.8853 34.1675C43.8853 31.0707 41.3674 28.5603 38.2613 28.5603C35.1552 28.5603 32.6372 31.0707 32.6372 34.1675C32.6372 37.2642 35.1552 39.7747 38.2613 39.7747Z" fill="#616B6B"/>
<path fill-rule="evenodd" clip-rule="evenodd" d="M40.952 52.2678C41.6907 50.867 41.8853 50.1397 41.8853 49.0228C41.8853 47.0363 40.2685 45.4156 38.2613 45.4156C36.2541 45.4156 34.6372 47.0363 34.6372 49.0228C34.6372 50.1644 34.8286 50.9351 35.5517 52.3375C36.031 53.267 36.6787 54.3542 37.5849 55.8754C37.7885 56.217 38.005 56.5805 38.2356 56.969C38.6627 56.2334 39.0408 55.5921 39.3782 55.0198C40.0368 53.9026 40.5405 53.048 40.952 52.2678ZM39.4025 58.9493C40.0379 57.8419 40.5924 56.8998 41.0738 56.0816C43.172 52.5162 43.8853 51.3039 43.8853 49.0228C43.8853 45.9261 41.3674 43.4156 38.2613 43.4156C35.1552 43.4156 32.6372 45.9261 32.6372 49.0228C32.6372 51.4757 33.4162 52.7841 35.918 56.9857C36.2736 57.5829 36.664 58.2385 37.0919 58.9641C37.1231 59.017 37.1544 59.0703 37.186 59.1239C37.4265 59.5323 37.6786 59.9624 37.9427 60.4164C37.9944 60.5053 38.0466 60.5951 38.0993 60.6859C38.1697 60.8072 38.3504 60.8057 38.419 60.6833C38.4703 60.5919 38.5211 60.5014 38.5715 60.4119C38.8291 59.9539 39.0755 59.5203 39.3109 59.1092C39.3416 59.0555 39.3721 59.0022 39.4025 58.9493Z" fill="#149CB8"/>
<path fill-rule="evenodd" clip-rule="evenodd" d="M47.8463 41.5836C47.9243 41.0368 48.4307 40.6568 48.9774 40.7348C52.1864 41.1924 54.6569 43.9433 54.6569 47.2751C54.6569 49.0107 54.2732 50.2204 53.3772 51.9195C52.9608 52.709 52.4003 53.6622 51.6922 54.8665C50.9704 56.0942 50.0952 57.5828 49.0629 59.4245C48.6346 60.1888 47.4863 60.2679 47.0079 59.4435C46.188 58.0305 45.4734 56.8301 44.8564 55.7937C43.8943 54.1774 43.1695 52.9598 42.6527 51.9566C42.3998 51.4657 42.5928 50.8626 43.0838 50.6097C43.5748 50.3568 44.1778 50.5498 44.4307 51.0408C44.9225 51.9955 45.5961 53.1265 46.5229 54.6825C46.962 55.4199 47.4581 56.2527 48.0185 57.2075C48.7957 55.8436 49.4476 54.7368 49.9979 53.8024C50.6729 52.6564 51.195 51.7698 51.6081 50.9865C52.3993 49.4863 52.6569 48.5982 52.6569 47.2751C52.6569 44.9574 50.9371 43.0345 48.6951 42.7147C48.1483 42.6367 47.7683 42.1303 47.8463 41.5836Z" fill="#149CB8"/>
<path fill-rule="evenodd" clip-rule="evenodd" d="M28.9561 41.5906C29.0198 42.1392 28.6267 42.6356 28.0781 42.6992C25.7778 42.9662 23.9961 44.9161 23.9961 47.2752C23.9961 48.6106 24.2432 49.5381 25.0218 51.0481C25.5134 52.0015 26.1859 53.1307 27.1103 54.6828C27.5495 55.4202 28.0455 56.2529 28.6059 57.2076C29.385 55.8403 30.0391 54.7297 30.5905 53.7934C31.3142 52.5647 31.8611 51.6361 32.2816 50.8216C32.5349 50.3309 33.1381 50.1384 33.6288 50.3917C34.1196 50.6451 34.3121 51.2483 34.0587 51.739C33.6282 52.573 33.0361 53.5801 32.2742 54.8758C31.5532 56.1021 30.6802 57.5868 29.6484 59.4279C29.1841 60.2564 28.0348 60.201 27.5933 59.4401C26.7741 58.0285 26.0601 56.8291 25.4436 55.7934C24.484 54.1815 23.7605 52.9661 23.2442 51.9647C22.3545 50.2392 21.9961 48.9981 21.9961 47.2752C21.9961 43.8842 24.5551 41.0947 27.8475 40.7126C28.3961 40.6489 28.8925 41.042 28.9561 41.5906Z" fill="#149CB8"/>
</svg>
