<svg width="76" height="69" viewBox="0 0 76 69" fill="none" xmlns="http://www.w3.org/2000/svg">
<path fill-rule="evenodd" clip-rule="evenodd" d="M26.7833 30.8358H2.34033V58.2318H26.7833V30.8358ZM26.7833 28.8358H2.34033V25.8056C2.34033 23.9133 3.87437 22.3793 5.76671 22.3793H23.3569C25.2493 22.3793 26.7833 23.9133 26.7833 25.8056V28.8358ZM28.7833 25.8056C28.7833 22.8087 26.3538 20.3793 23.3569 20.3793H5.76671C2.7698 20.3793 0.340332 22.8087 0.340332 25.8056V63.042C0.340332 66.0389 2.7698 68.4684 5.7667 68.4684H23.3569C26.3538 68.4684 28.7833 66.0389 28.7833 63.042V25.8056ZM26.7833 60.2318H2.34033V63.042C2.34033 64.9344 3.87437 66.4684 5.7667 66.4684H23.3569C25.2493 66.4684 26.7833 64.9344 26.7833 63.042V60.2318Z" fill="#616B6B"/>
<path fill-rule="evenodd" clip-rule="evenodd" d="M73.9933 10.4566H49.5503V37.8525H73.9933V10.4566ZM73.9933 8.45655H49.5503V5.42637C49.5503 3.53404 51.0843 2 52.9767 2H70.5669C72.4592 2 73.9933 3.53404 73.9933 5.42637V8.45655ZM75.9933 5.42637C75.9933 2.42947 73.5638 0 70.5669 0H52.9767C49.9798 0 47.5503 2.42947 47.5503 5.42637V42.6628C47.5503 45.6597 49.9798 48.0891 52.9767 48.0891H70.5669C73.5638 48.0891 75.9933 45.6597 75.9933 42.6628V5.42637ZM73.9933 39.8525H49.5503V42.6628C49.5503 44.5551 51.0843 46.0891 52.9767 46.0891H70.5669C72.4592 46.0891 73.9933 44.5551 73.9933 42.6628V39.8525Z" fill="#616B6B"/>
<path fill-rule="evenodd" clip-rule="evenodd" d="M5.03254 5.91688C4.73769 5.91688 4.49867 6.1559 4.49867 6.45075C4.49867 6.7456 4.73769 6.98462 5.03254 6.98462C5.32739 6.98462 5.56641 6.7456 5.56641 6.45075C5.56641 6.1559 5.32739 5.91688 5.03254 5.91688ZM5.03254 7.91688C5.84226 7.91688 6.49867 7.26047 6.49867 6.45075C6.49867 5.64103 5.84226 4.98462 5.03254 4.98462C4.22282 4.98462 3.56641 5.64103 3.56641 6.45075C3.56641 7.26047 4.22282 7.91688 5.03254 7.91688Z" fill="#616B6B"/>
<path fill-rule="evenodd" clip-rule="evenodd" d="M37.2874 54.2992C36.9926 54.2992 36.7536 54.5382 36.7536 54.8331C36.7536 55.1279 36.9926 55.3669 37.2874 55.3669C37.5823 55.3669 37.8213 55.1279 37.8213 54.8331C37.8213 54.5382 37.5823 54.2992 37.2874 54.2992ZM37.2874 56.2992C38.0971 56.2992 38.7536 55.6428 38.7536 54.8331C38.7536 54.0234 38.0971 53.3669 37.2874 53.3669C36.4777 53.3669 35.8213 54.0234 35.8213 54.8331C35.8213 55.6428 36.4777 56.2992 37.2874 56.2992Z" fill="#616B6B"/>
<path fill-rule="evenodd" clip-rule="evenodd" d="M34.3553 11.7814C34.0604 11.7814 33.8214 12.0204 33.8214 12.3153C33.8214 12.6101 34.0604 12.8491 34.3553 12.8491C34.6501 12.8491 34.8892 12.6101 34.8892 12.3153C34.8892 12.0204 34.6501 11.7814 34.3553 11.7814ZM34.3553 13.7814C35.165 13.7814 35.8214 13.125 35.8214 12.3153C35.8214 11.5055 35.165 10.8491 34.3553 10.8491C33.5456 10.8491 32.8892 11.5055 32.8892 12.3153C32.8892 13.125 33.5456 13.7814 34.3553 13.7814Z" fill="#616B6B"/>
<path fill-rule="evenodd" clip-rule="evenodd" d="M53.4154 66.0283C53.1205 66.0283 52.8815 66.2674 52.8815 66.5622C52.8815 66.857 53.1205 67.0961 53.4154 67.0961C53.7102 67.0961 53.9492 66.857 53.9492 66.5622C53.9492 66.2674 53.7102 66.0283 53.4154 66.0283ZM53.4154 68.0283C54.2251 68.0283 54.8815 67.3719 54.8815 66.5622C54.8815 65.7525 54.2251 65.0961 53.4154 65.0961C52.6056 65.0961 51.9492 65.7525 51.9492 66.5622C51.9492 67.3719 52.6056 68.0283 53.4154 68.0283Z" fill="#616B6B"/>
<path fill-rule="evenodd" clip-rule="evenodd" d="M23.3594 5.91695C23.4694 5.91695 23.5586 5.82777 23.5586 5.71775C23.5586 5.60774 23.4694 5.51855 23.3594 5.51855C23.2493 5.51855 23.1602 5.60774 23.1602 5.71775C23.1602 5.82777 23.2493 5.91695 23.3594 5.91695ZM23.3594 7.91695C24.5739 7.91695 25.5586 6.93234 25.5586 5.71775C25.5586 4.50317 24.5739 3.51855 23.3594 3.51855C22.1448 3.51855 21.1602 4.50317 21.1602 5.71775C21.1602 6.93234 22.1448 7.91695 23.3594 7.91695Z" fill="#616B6B"/>
<path fill-rule="evenodd" clip-rule="evenodd" d="M65.8769 55.7653C65.9869 55.7653 66.0761 55.6762 66.0761 55.5661C66.0761 55.4561 65.9869 55.3669 65.8769 55.3669C65.7669 55.3669 65.6777 55.4561 65.6777 55.5661C65.6777 55.6762 65.7669 55.7653 65.8769 55.7653ZM65.8769 57.7653C67.0915 57.7653 68.0761 56.7807 68.0761 55.5661C68.0761 54.3516 67.0915 53.3669 65.8769 53.3669C64.6623 53.3669 63.6777 54.3516 63.6777 55.5661C63.6777 56.7807 64.6623 57.7653 65.8769 57.7653Z" fill="#616B6B"/>
<path fill-rule="evenodd" clip-rule="evenodd" d="M37.4684 25.8166C37.4684 24.2657 38.7252 23.0078 40.2768 23.0078L50.286 23.0078L50.287 24.0078L50.287 25.0078H40.2768C39.8304 25.0078 39.4684 25.3696 39.4684 25.8166L39.4683 42.5783C39.4683 44.1295 38.2108 45.387 36.6596 45.387H20.2798C19.7275 45.387 19.2798 44.9393 19.2798 44.387C19.2798 43.8348 19.7275 43.387 20.2798 43.387H36.6596C37.1062 43.387 37.4683 43.0249 37.4683 42.5783L37.4684 25.8166ZM64.1171 25.0078H50.287L50.287 24.0078V23.0078H64.1171C64.6694 23.0078 65.1171 23.4555 65.1171 24.0078C65.1171 24.5601 64.6694 25.0078 64.1171 25.0078Z" fill="#149CB8"/>
<path fill-rule="evenodd" clip-rule="evenodd" d="M58.3497 19.3181C58.6928 18.8853 59.3218 18.8127 59.7546 19.1558L64.7975 23.1537C65.3451 23.5878 65.3487 24.4178 64.8049 24.8567L59.7614 28.9278C59.3317 29.2747 58.7021 29.2076 58.3552 28.7778C58.0083 28.3481 58.0755 27.7185 58.5052 27.3716L62.664 24.0146L58.5121 20.723C58.0793 20.3799 58.0066 19.7509 58.3497 19.3181Z" fill="#149CB8"/>
<path fill-rule="evenodd" clip-rule="evenodd" d="M14.5622 48.105C16.6155 48.105 18.2801 46.4405 18.2801 44.3871C18.2801 42.3338 16.6155 40.6692 14.5622 40.6692C12.5088 40.6692 10.8442 42.3338 10.8442 44.3871C10.8442 46.4405 12.5088 48.105 14.5622 48.105ZM14.5622 50.105C17.7201 50.105 20.2801 47.545 20.2801 44.3871C20.2801 41.2292 17.7201 38.6692 14.5622 38.6692C11.4042 38.6692 8.84424 41.2292 8.84424 44.3871C8.84424 47.545 11.4042 50.105 14.5622 50.105Z" fill="#149CB8"/>
</svg>
