<svg width="330" height="330" viewBox="0 0 330 330" fill="none" xmlns="http://www.w3.org/2000/svg">
<circle cx="165" cy="165" r="165" fill="#149CB8"/>
<path d="M187.626 249.188C187.033 249.188 186.463 248.952 186.043 248.532C185.623 248.112 185.388 247.543 185.388 246.949V222.045C185.388 219.524 184.387 217.106 182.605 215.323C180.824 213.54 178.407 212.537 175.886 212.534H154.107C151.586 212.537 149.17 213.54 147.388 215.323C145.606 217.106 144.606 219.524 144.606 222.045V246.94C144.606 247.534 144.37 248.104 143.95 248.523C143.53 248.943 142.961 249.179 142.367 249.179C141.773 249.179 141.204 248.943 140.784 248.523C140.364 248.104 140.128 247.534 140.128 246.94V222.045C140.133 218.338 141.607 214.784 144.227 212.162C146.847 209.54 150.4 208.064 154.107 208.057H175.886C179.594 208.061 183.148 209.537 185.769 212.16C188.39 214.782 189.863 218.337 189.865 222.045V246.94C189.866 247.235 189.809 247.527 189.697 247.8C189.585 248.072 189.421 248.32 189.213 248.529C189.005 248.738 188.757 248.904 188.485 249.017C188.213 249.13 187.921 249.188 187.626 249.188V249.188Z" fill="white"/>
<path d="M164.728 208.818C161.056 208.818 157.467 207.729 154.414 205.689C151.361 203.648 148.981 200.749 147.576 197.356C146.172 193.963 145.804 190.23 146.521 186.629C147.238 183.027 149.007 179.72 151.605 177.124C154.202 174.528 157.51 172.76 161.112 172.045C164.714 171.33 168.447 171.699 171.839 173.105C175.231 174.512 178.129 176.893 180.168 179.947C182.207 183.001 183.294 186.591 183.292 190.263C183.288 195.184 181.33 199.902 177.849 203.381C174.369 206.86 169.649 208.816 164.728 208.818V208.818ZM164.728 176.176C161.942 176.176 159.219 177.002 156.902 178.55C154.586 180.098 152.78 182.298 151.714 184.872C150.648 187.446 150.369 190.278 150.912 193.011C151.456 195.743 152.797 198.253 154.768 200.223C156.738 202.193 159.248 203.535 161.98 204.079C164.713 204.622 167.545 204.343 170.119 203.277C172.693 202.211 174.893 200.405 176.441 198.089C177.989 195.772 178.815 193.049 178.815 190.263C178.808 186.531 177.321 182.954 174.68 180.316C172.039 177.679 168.46 176.196 164.728 176.194V176.176Z" fill="white"/>
<path d="M239.916 188.937C239.322 188.937 238.753 188.701 238.333 188.282C237.913 187.862 237.677 187.292 237.677 186.699V171.475C237.675 170.162 237.152 168.904 236.224 167.975C235.296 167.047 234.038 166.525 232.725 166.522H219.391C218.078 166.525 216.82 167.047 215.892 167.975C214.963 168.904 214.441 170.162 214.439 171.475V186.699C214.439 187.292 214.203 187.862 213.783 188.282C213.363 188.701 212.794 188.937 212.2 188.937C211.606 188.937 211.037 188.701 210.617 188.282C210.197 187.862 209.961 187.292 209.961 186.699V171.475C209.963 168.974 210.958 166.577 212.726 164.809C214.493 163.041 216.891 162.047 219.391 162.045H232.725C235.225 162.047 237.623 163.041 239.39 164.809C241.158 166.577 242.153 168.974 242.155 171.475V186.699C242.155 187.292 241.919 187.862 241.499 188.282C241.079 188.701 240.51 188.937 239.916 188.937V188.937Z" fill="white"/>
<path d="M225.892 164.212C223.469 164.212 221.1 163.493 219.086 162.146C217.072 160.799 215.503 158.884 214.578 156.644C213.653 154.405 213.413 151.941 213.889 149.565C214.365 147.189 215.535 145.008 217.252 143.298C218.968 141.588 221.154 140.425 223.531 139.958C225.909 139.491 228.372 139.74 230.608 140.673C232.844 141.607 234.753 143.183 236.093 145.202C237.432 147.221 238.143 149.592 238.134 152.015C238.12 155.253 236.824 158.354 234.53 160.64C232.236 162.925 229.13 164.21 225.892 164.212V164.212ZM225.892 144.215C224.358 144.215 222.858 144.669 221.582 145.521C220.306 146.373 219.311 147.583 218.722 149C218.134 150.416 217.978 151.976 218.275 153.481C218.571 154.986 219.307 156.369 220.389 157.457C221.472 158.544 222.852 159.286 224.356 159.59C225.859 159.893 227.419 159.745 228.839 159.163C230.258 158.58 231.473 157.591 232.33 156.319C233.188 155.047 233.649 153.549 233.656 152.015C233.66 150.993 233.462 149.98 233.073 149.034C232.685 148.088 232.113 147.229 231.392 146.504C230.671 145.78 229.814 145.205 228.87 144.812C227.926 144.419 226.914 144.216 225.892 144.215Z" fill="white"/>
<path d="M117.597 188.937C117.003 188.937 116.433 188.701 116.014 188.282C115.594 187.862 115.358 187.292 115.358 186.699V171.475C115.355 170.16 114.832 168.901 113.902 167.972C112.971 167.044 111.711 166.522 110.397 166.522H97.0624C95.7496 166.515 94.4876 167.029 93.5527 167.95C92.6177 168.872 92.0861 170.126 92.0743 171.439V186.663C92.0743 187.256 91.8384 187.826 91.4186 188.246C90.9987 188.666 90.4293 188.901 89.8355 188.901C89.2417 188.901 88.6723 188.666 88.2524 188.246C87.8326 187.826 87.5967 187.256 87.5967 186.663V171.439C87.5979 170.198 87.8437 168.969 88.3203 167.823C88.7969 166.677 89.4947 165.637 90.3739 164.761C91.2531 163.885 92.2964 163.191 93.4441 162.719C94.5918 162.247 95.8213 162.005 97.0624 162.009H110.397C112.898 162.011 115.296 163.005 117.065 164.773C118.834 166.541 119.831 168.938 119.835 171.439V186.663C119.84 186.96 119.786 187.255 119.675 187.53C119.565 187.806 119.401 188.057 119.193 188.269C118.984 188.481 118.736 188.649 118.462 188.764C118.188 188.878 117.894 188.937 117.597 188.937V188.937Z" fill="white"/>
<path d="M103.573 164.212C101.149 164.214 98.78 163.496 96.7647 162.15C94.7494 160.804 93.179 158.89 92.2524 156.651C91.3258 154.411 91.0847 151.947 91.5597 149.571C92.0347 147.194 93.2043 145.012 94.9205 143.301C96.6367 141.59 98.8221 140.427 101.2 139.959C103.578 139.491 106.041 139.739 108.278 140.672C110.514 141.605 112.424 143.181 113.764 145.201C115.104 147.22 115.815 149.591 115.806 152.015C115.792 155.252 114.497 158.351 112.205 160.636C109.913 162.922 106.81 164.207 103.573 164.212V164.212ZM103.573 144.215C102.038 144.213 100.538 144.666 99.2607 145.517C97.9835 146.367 96.9869 147.577 96.3969 148.993C95.8068 150.41 95.6497 151.97 95.9454 153.475C96.2411 154.981 96.9763 156.365 98.0582 157.453C99.1401 158.542 100.52 159.285 102.024 159.589C103.528 159.893 105.089 159.745 106.508 159.163C107.928 158.581 109.144 157.592 110.002 156.32C110.859 155.047 111.321 153.549 111.328 152.015C111.332 150.993 111.134 149.981 110.746 149.036C110.358 148.091 109.788 147.232 109.067 146.507C108.347 145.783 107.491 145.208 106.548 144.814C105.606 144.421 104.594 144.217 103.573 144.215V144.215Z" fill="white"/>
<path d="M219.31 195.94C218.716 195.94 218.147 196.176 217.727 196.596C217.307 197.016 217.071 197.585 217.071 198.179C217.071 212.061 211.557 225.375 201.74 235.191C191.924 245.008 178.61 250.522 164.728 250.522C150.846 250.522 137.532 245.008 127.716 235.191C117.9 225.375 112.385 212.061 112.385 198.179C112.385 197.585 112.149 197.016 111.729 196.596C111.309 196.176 110.74 195.94 110.146 195.94C109.552 195.94 108.983 196.176 108.563 196.596C108.143 197.016 107.907 197.585 107.907 198.179C107.907 213.249 113.894 227.702 124.55 238.358C135.206 249.014 149.658 255 164.728 255C179.798 255 194.251 249.014 204.907 238.358C215.563 227.702 221.549 213.249 221.549 198.179C221.55 197.885 221.493 197.593 221.381 197.321C221.269 197.049 221.104 196.802 220.896 196.593C220.688 196.385 220.441 196.22 220.168 196.108C219.896 195.996 219.605 195.939 219.31 195.94V195.94Z" fill="#A3E8F5"/>
<path d="M225.892 121.155C218.836 121.155 211.937 123.248 206.07 127.169C200.203 131.089 195.63 136.662 192.93 143.182C190.23 149.701 189.524 156.875 190.901 163.796C192.278 170.718 195.677 177.075 200.668 182.064C205.658 187.053 212.016 190.45 218.938 191.826C225.859 193.202 233.033 192.494 239.552 189.792C246.071 187.09 251.642 182.516 255.562 176.648C259.481 170.779 261.572 163.881 261.57 156.824C261.558 147.366 257.795 138.299 251.107 131.612C244.418 124.925 235.35 121.165 225.892 121.155V121.155ZM225.892 188.024C219.722 188.024 213.689 186.194 208.559 182.766C203.428 179.337 199.429 174.465 197.067 168.764C194.706 163.063 194.088 156.789 195.292 150.737C196.496 144.685 199.467 139.126 203.831 134.762C208.194 130.399 213.753 127.427 219.806 126.223C225.858 125.02 232.131 125.637 237.832 127.999C243.533 130.36 248.406 134.359 251.834 139.49C255.263 144.621 257.092 150.653 257.092 156.824C257.083 165.096 253.793 173.026 247.944 178.875C242.095 184.724 234.164 188.014 225.892 188.024V188.024Z" fill="white"/>
<path d="M139.242 156.824C139.242 149.767 137.149 142.869 133.229 137.002C129.308 131.134 123.735 126.561 117.216 123.861C110.696 121.161 103.522 120.455 96.6007 121.832C89.6797 123.21 83.3225 126.609 78.3333 131.599C73.3441 136.59 69.9468 142.948 68.5712 149.869C67.1956 156.79 67.9034 163.964 70.6051 170.483C73.3068 177.002 77.8811 182.574 83.7494 186.493C89.6178 190.412 96.5166 192.503 103.573 192.501C113.031 192.49 122.098 188.727 128.785 182.038C135.472 175.35 139.232 166.282 139.242 156.824V156.824ZM103.573 188.024C97.4021 188.026 91.3691 186.197 86.2371 182.77C81.1051 179.343 77.1047 174.471 74.7419 168.77C72.379 163.069 71.7599 156.795 72.9628 150.743C74.1656 144.69 77.1364 139.13 81.4994 134.765C85.8625 130.401 91.4218 127.429 97.4742 126.224C103.527 125.019 109.8 125.637 115.502 127.998C121.204 130.359 126.077 134.358 129.506 139.489C132.934 144.62 134.764 150.653 134.764 156.824C134.755 165.094 131.466 173.023 125.619 178.872C119.772 184.721 111.844 188.012 103.573 188.024V188.024Z" fill="white"/>
<path d="M135.391 116.373L141.275 117.887L138.185 123.116C137.613 124.093 137.38 125.231 137.522 126.354C137.665 127.476 138.175 128.52 138.974 129.322L143.577 133.925C144.379 134.726 145.425 135.238 146.549 135.38C147.674 135.523 148.814 135.288 149.791 134.713L155.012 131.633L156.553 137.507C156.835 138.604 157.474 139.576 158.368 140.27C159.263 140.964 160.364 141.34 161.496 141.34H168.006C169.139 141.34 170.239 140.964 171.134 140.27C172.029 139.576 172.668 138.604 172.95 137.507L174.472 131.633L179.702 134.713C180.676 135.288 181.813 135.523 182.935 135.38C184.057 135.238 185.1 134.726 185.899 133.925L190.511 129.322C191.309 128.52 191.82 127.476 191.962 126.354C192.105 125.231 191.872 124.093 191.299 123.116L188.209 117.887L194.093 116.373C195.189 116.089 196.16 115.448 196.853 114.552C197.545 113.655 197.919 112.554 197.917 111.421V104.91C197.919 103.779 197.544 102.679 196.852 101.784C196.159 100.889 195.189 100.25 194.093 99.9672V99.9672L188.209 98.4537L191.299 93.2239C191.875 92.2486 192.11 91.1095 191.967 89.986C191.824 88.8625 191.312 87.8184 190.511 87.0179L185.899 82.4149C185.098 81.6137 184.054 81.1015 182.931 80.9588C181.807 80.8161 180.668 81.0512 179.693 81.6269L174.463 84.7075L172.941 78.8328C172.658 77.7347 172.018 76.7618 171.121 76.0678C170.225 75.3738 169.122 74.9981 167.988 75H161.478C160.349 75.0071 159.255 75.3866 158.364 76.0797C157.474 76.7728 156.837 77.7406 156.553 78.8328L155.039 84.7075L149.782 81.6269C148.807 81.0512 147.668 80.8161 146.545 80.9588C145.421 81.1015 144.377 81.6137 143.577 82.4149L138.982 87.0179C138.178 87.8165 137.664 88.8602 137.519 89.9842C137.375 91.1081 137.609 92.2481 138.185 93.2239L141.275 98.4537L135.391 99.9672C134.295 100.249 133.323 100.888 132.629 101.783C131.935 102.678 131.559 103.778 131.559 104.91V111.421C131.557 112.555 131.932 113.657 132.626 114.554C133.32 115.451 134.293 116.091 135.391 116.373V116.373ZM136.036 104.91C136.038 104.771 136.085 104.636 136.171 104.526C136.256 104.416 136.376 104.337 136.511 104.301L145.269 102.045C145.606 101.96 145.918 101.797 146.182 101.57C146.445 101.343 146.651 101.058 146.784 100.737C146.917 100.416 146.973 100.068 146.948 99.7213C146.923 99.3747 146.817 99.0388 146.639 98.7403L142.045 90.9493C141.974 90.828 141.945 90.6867 141.963 90.5474C141.981 90.4081 142.045 90.2786 142.144 90.1791L146.747 85.5761C146.846 85.4769 146.976 85.4135 147.115 85.3957C147.254 85.3778 147.396 85.4067 147.517 85.4776L155.299 90.0806C155.599 90.2547 155.935 90.3574 156.281 90.3805C156.627 90.4037 156.974 90.3469 157.294 90.2143C157.615 90.0818 157.9 89.8772 158.129 89.6164C158.358 89.3556 158.523 89.0456 158.612 88.7105L160.869 79.9522C160.904 79.8173 160.983 79.6977 161.093 79.6119C161.203 79.5262 161.338 79.479 161.478 79.4776H167.988C168.128 79.479 168.263 79.5262 168.373 79.6119C168.483 79.6977 168.562 79.8173 168.597 79.9522L170.881 88.7105C170.965 89.045 171.125 89.3557 171.349 89.6182C171.572 89.8807 171.854 90.088 172.171 90.2239C172.491 90.3601 172.838 90.4189 173.185 90.3955C173.532 90.3722 173.869 90.2674 174.168 90.0896L181.95 85.4866C182.072 85.4185 182.212 85.3914 182.351 85.4091C182.49 85.4268 182.619 85.4885 182.72 85.5851L187.323 90.2239C187.423 90.3211 187.487 90.4492 187.505 90.5873C187.522 90.7255 187.493 90.8657 187.421 90.9851L182.827 98.7761C182.649 99.0746 182.543 99.4105 182.518 99.7571C182.493 100.104 182.549 100.451 182.683 100.772C182.816 101.093 183.022 101.379 183.285 101.606C183.548 101.833 183.86 101.996 184.197 102.081L192.956 104.337C193.09 104.373 193.208 104.452 193.292 104.562C193.377 104.673 193.422 104.808 193.421 104.946V111.457C193.424 111.597 193.38 111.734 193.295 111.846C193.211 111.958 193.091 112.039 192.956 112.075L184.197 114.331C183.86 114.416 183.548 114.578 183.285 114.805C183.022 115.032 182.816 115.318 182.684 115.639C182.552 115.96 182.496 116.308 182.521 116.654C182.546 117.001 182.651 117.337 182.827 117.636L187.421 125.427C187.492 125.547 187.52 125.687 187.502 125.824C187.484 125.962 187.421 126.09 187.323 126.188L182.72 130.8C182.619 130.897 182.49 130.958 182.351 130.976C182.212 130.994 182.072 130.967 181.95 130.899L174.168 126.296C173.868 126.118 173.532 126.012 173.185 125.987C172.838 125.962 172.489 126.018 172.168 126.151C171.846 126.284 171.56 126.49 171.332 126.753C171.104 127.016 170.94 127.328 170.854 127.666L168.597 136.424C168.562 136.559 168.483 136.678 168.373 136.764C168.263 136.85 168.128 136.897 167.988 136.899H161.478C161.338 136.897 161.203 136.85 161.093 136.764C160.983 136.678 160.904 136.559 160.869 136.424L158.612 127.666C158.525 127.329 158.361 127.017 158.132 126.754C157.904 126.491 157.618 126.285 157.296 126.152C157.011 126.038 156.707 125.98 156.4 125.982C155.997 125.982 155.601 126.09 155.254 126.296L147.472 130.89C147.352 130.962 147.211 130.992 147.072 130.976C146.932 130.96 146.802 130.898 146.702 130.8L142.099 126.188C142 126.09 141.937 125.962 141.92 125.824C141.902 125.687 141.93 125.547 142 125.427L146.594 117.636C146.771 117.337 146.876 117.001 146.901 116.654C146.926 116.308 146.87 115.96 146.738 115.639C146.605 115.318 146.399 115.032 146.136 114.805C145.874 114.578 145.561 114.416 145.224 114.331L136.466 112.075C136.33 112.039 136.209 111.959 136.123 111.847C136.037 111.735 135.991 111.598 135.991 111.457L136.036 104.91Z" fill="#A3E8F5"/>
<path d="M164.728 120.385C162.314 120.383 159.955 119.666 157.948 118.325C155.942 116.983 154.377 115.077 153.453 112.847C152.529 110.617 152.286 108.163 152.756 105.795C153.225 103.427 154.386 101.251 156.091 99.5424C157.796 97.8336 159.969 96.6683 162.336 96.1937C164.703 95.719 167.157 95.9564 169.389 96.8756C171.621 97.7949 173.531 99.355 174.877 101.359C176.223 103.363 176.945 105.72 176.952 108.134C176.955 109.742 176.64 111.333 176.027 112.819C175.414 114.305 174.514 115.655 173.379 116.793C172.244 117.93 170.895 118.833 169.411 119.45C167.927 120.066 166.336 120.384 164.728 120.385ZM164.728 100.433C163.197 100.435 161.7 100.891 160.429 101.744C159.157 102.597 158.166 103.808 157.583 105.224C157 106.64 156.85 108.197 157.153 109.698C157.455 111.2 158.196 112.577 159.282 113.657C160.368 114.737 161.75 115.47 163.253 115.764C164.756 116.058 166.313 115.899 167.725 115.307C169.138 114.716 170.343 113.719 171.189 112.442C172.034 111.165 172.482 109.666 172.475 108.134C172.463 106.088 171.641 104.129 170.19 102.686C168.739 101.243 166.775 100.433 164.728 100.433Z" fill="white"/>
</svg>
