<svg width="180" height="180" viewBox="0 0 180 180" fill="none" xmlns="http://www.w3.org/2000/svg">
<circle cx="90" cy="90" r="90" fill="#149CB8"/>
<g clip-path="url(#clip0_100_882)">
<path d="M45.2853 109.488C45.6093 109.488 45.9201 109.36 46.1492 109.13C46.3783 108.901 46.507 108.591 46.507 108.266V54.9381C46.507 54.614 46.6358 54.3033 46.8649 54.0741C47.094 53.845 47.4048 53.7163 47.7288 53.7163H132.814C133.138 53.7163 133.449 53.845 133.678 54.0741C133.907 54.3033 134.036 54.614 134.036 54.9381V108.266C134.036 108.591 134.164 108.901 134.393 109.13C134.623 109.36 134.933 109.488 135.257 109.488C135.581 109.488 135.892 109.36 136.121 109.13C136.35 108.901 136.479 108.591 136.479 108.266V54.9381C136.479 53.966 136.093 53.0337 135.406 52.3463C134.718 51.6589 133.786 51.2727 132.814 51.2727H47.7288C46.7567 51.2727 45.8244 51.6589 45.137 52.3463C44.4496 53.0337 44.0635 53.966 44.0635 54.9381V108.266C44.0635 108.591 44.1922 108.901 44.4213 109.13C44.6505 109.36 44.9612 109.488 45.2853 109.488V109.488Z" fill="#A3E8F5"/>
<path d="M52.797 59.8839C52.4729 59.8839 52.1622 60.0126 51.933 60.2417C51.7039 60.4708 51.5752 60.7816 51.5752 61.1056V108.266C51.5752 108.591 51.7039 108.901 51.933 109.13C52.1622 109.36 52.4729 109.488 52.797 109.488H127.697C128.021 109.488 128.332 109.36 128.561 109.13C128.79 108.901 128.919 108.591 128.919 108.266V61.1056C128.919 60.7816 128.79 60.4708 128.561 60.2417C128.332 60.0126 128.021 59.8839 127.697 59.8839H52.797ZM54.0188 62.3274H74.3639V107.045H54.0188V62.3274ZM126.475 107.045H76.8075V62.3274H126.475V107.045Z" fill="#A3E8F5"/>
<path d="M140.829 113.584H39.6654C38.6932 113.584 37.7609 113.97 37.0736 114.657C36.3862 115.345 36 116.277 36 117.249V121.789C36.0013 122.761 36.3879 123.692 37.075 124.38C37.7621 125.067 38.6936 125.453 39.6654 125.455H140.829C141.801 125.453 142.732 125.067 143.419 124.38C144.107 123.692 144.493 122.761 144.494 121.789V117.249C144.494 116.277 144.108 115.345 143.421 114.657C142.733 113.97 141.801 113.584 140.829 113.584V113.584ZM142.051 121.789C142.051 122.113 141.922 122.424 141.693 122.653C141.464 122.882 141.153 123.011 140.829 123.011H39.6654C39.3413 123.011 39.0305 122.882 38.8014 122.653C38.5723 122.424 38.4436 122.113 38.4436 121.789V117.249C38.4436 116.925 38.5723 116.614 38.8014 116.385C39.0305 116.156 39.3413 116.027 39.6654 116.027H140.829C141.153 116.027 141.464 116.156 141.693 116.385C141.922 116.614 142.051 116.925 142.051 117.249V121.789Z" fill="#A3E8F5"/>
<path d="M100.687 120.577H79.8087C79.4847 120.577 79.1739 120.448 78.9448 120.219C78.7156 119.99 78.5869 119.679 78.5869 119.355C78.5869 119.031 78.7156 118.721 78.9448 118.491C79.1739 118.262 79.4847 118.134 79.8087 118.134H100.687C101.011 118.134 101.321 118.262 101.55 118.491C101.78 118.721 101.908 119.031 101.908 119.355C101.908 119.679 101.78 119.99 101.55 120.219C101.321 120.448 101.011 120.577 100.687 120.577Z" fill="#A3E8F5"/>
<path d="M109.028 69.7705H104.698C104.374 69.7705 104.064 69.6418 103.834 69.4127C103.605 69.1836 103.477 68.8728 103.477 68.5487C103.477 68.2247 103.605 67.9139 103.834 67.6848C104.064 67.4557 104.374 67.327 104.698 67.327H109.028C109.352 67.327 109.663 67.4557 109.892 67.6848C110.121 67.9139 110.25 68.2247 110.25 68.5487C110.25 68.8728 110.121 69.1836 109.892 69.4127C109.663 69.6418 109.352 69.7705 109.028 69.7705Z" fill="#A3E8F5"/>
<path d="M118.143 74.0126H104.698C104.374 74.0126 104.064 73.8838 103.834 73.6547C103.605 73.4256 103.477 73.1148 103.477 72.7908C103.477 72.4667 103.605 72.156 103.834 71.9269C104.064 71.6977 104.374 71.569 104.698 71.569H118.143C118.467 71.569 118.778 71.6977 119.007 71.9269C119.236 72.156 119.365 72.4667 119.365 72.7908C119.365 73.1148 119.236 73.4256 119.007 73.6547C118.778 73.8838 118.467 74.0126 118.143 74.0126V74.0126Z" fill="#A3E8F5"/>
<path d="M89.3566 77.7702H89.2978C89.1268 77.7624 88.9594 77.7187 88.8066 77.6419C88.6537 77.565 88.5187 77.4567 88.4106 77.3241L86.5774 75.0939C86.4754 74.9693 86.3989 74.8259 86.3523 74.6718C86.3057 74.5177 86.2899 74.3559 86.3058 74.1957C86.338 73.8721 86.4974 73.5746 86.7489 73.3685C87.0005 73.1625 87.3236 73.0648 87.6471 73.0969C87.9707 73.1291 88.2683 73.2885 88.4743 73.5401L89.4546 74.7312L91.8564 72.3294C92.0914 72.1348 92.3906 72.0348 92.6954 72.0491C93.0002 72.0634 93.2887 72.1909 93.5045 72.4067C93.7202 72.6225 93.8477 72.9109 93.862 73.2157C93.8763 73.5205 93.7764 73.8197 93.5818 74.0547L90.2242 77.4123C89.9936 77.6416 89.6817 77.7702 89.3566 77.7702V77.7702Z" fill="white"/>
<path d="M90.0139 66.5455C88.3935 66.5445 86.8093 67.0242 85.4616 67.9238C84.1139 68.8234 83.0633 70.1026 82.4428 71.5994C81.8222 73.0962 81.6596 74.7435 81.9755 76.3328C82.2914 77.922 83.0716 79.3819 84.2173 80.5277C85.3631 81.6735 86.823 82.4536 88.4123 82.7695C90.0015 83.0854 91.6488 82.9228 93.1456 82.3023C94.6425 81.6817 95.9216 80.6312 96.8212 79.2835C97.7209 77.9358 98.2005 76.3515 98.1996 74.7312C98.197 72.561 97.3337 70.4804 95.7992 68.9459C94.2646 67.4113 92.1841 66.5481 90.0139 66.5455V66.5455ZM90.0139 80.471C88.8784 80.4719 87.7682 80.1361 86.8237 79.506C85.8791 78.8759 85.1427 77.9798 84.7075 76.9311C84.2723 75.8824 84.1579 74.7281 84.3789 73.6144C84.5998 72.5007 85.1461 71.4775 85.9486 70.6742C86.7511 69.871 87.7738 69.3239 88.8874 69.102C90.0009 68.8801 91.1553 68.9935 92.2044 69.4278C93.2535 69.8621 94.1502 70.5978 94.7811 71.5418C95.412 72.4858 95.7488 73.5957 95.7488 74.7312C95.7501 75.4856 95.6027 76.2328 95.3152 76.9303C95.0277 77.6278 94.6056 78.2618 94.0731 78.7961C93.5406 79.3305 92.908 79.7547 92.2115 80.0446C91.515 80.3345 90.7683 80.4844 90.0139 80.4857V80.471Z" fill="white"/>
<path d="M109.028 78.2497H104.698C104.374 78.2497 104.064 78.121 103.834 77.8919C103.605 77.6627 103.477 77.352 103.477 77.0279C103.477 76.7039 103.605 76.3931 103.834 76.164C104.064 75.9349 104.374 75.8061 104.698 75.8061H109.028C109.352 75.8061 109.663 75.9349 109.892 76.164C110.121 76.3931 110.25 76.7039 110.25 77.0279C110.25 77.352 110.121 77.6627 109.892 77.8919C109.663 78.121 109.352 78.2497 109.028 78.2497Z" fill="#A3E8F5"/>
<path d="M118.143 82.4917H104.698C104.374 82.4917 104.064 82.363 103.834 82.1339C103.605 81.9048 103.477 81.594 103.477 81.27C103.477 80.9459 103.605 80.6352 103.834 80.406C104.064 80.1769 104.374 80.0482 104.698 80.0482H118.143C118.467 80.0482 118.778 80.1769 119.007 80.406C119.236 80.6352 119.365 80.9459 119.365 81.27C119.365 81.594 119.236 81.9048 119.007 82.1339C118.778 82.363 118.467 82.4917 118.143 82.4917V82.4917Z" fill="#A3E8F5"/>
<path d="M83.1075 103.922C82.7835 103.922 82.4727 103.793 82.2436 103.564C82.0145 103.335 81.8857 103.024 81.8857 102.7V87.765C81.8857 87.4409 82.0145 87.1302 82.2436 86.901C82.4727 86.6719 82.7835 86.5432 83.1075 86.5432C83.4316 86.5432 83.7423 86.6719 83.9715 86.901C84.2006 87.1302 84.3293 87.4409 84.3293 87.765V102.7C84.3293 103.024 84.2006 103.335 83.9715 103.564C83.7423 103.793 83.4316 103.922 83.1075 103.922V103.922Z" fill="#A3E8F5"/>
<path d="M92.2853 103.922C91.9612 103.922 91.6505 103.793 91.4213 103.564C91.1922 103.335 91.0635 103.024 91.0635 102.7V87.765C91.0635 87.4409 91.1922 87.1302 91.4213 86.901C91.6505 86.6719 91.9612 86.5432 92.2853 86.5432C92.6093 86.5432 92.9201 86.6719 93.1492 86.901C93.3783 87.1302 93.507 87.4409 93.507 87.765V102.7C93.507 103.024 93.3783 103.335 93.1492 103.564C92.9201 103.793 92.6093 103.922 92.2853 103.922V103.922Z" fill="#A3E8F5"/>
<path d="M101.487 103.922C101.327 103.922 101.168 103.891 101.019 103.83C100.871 103.769 100.736 103.679 100.622 103.565C100.508 103.452 100.418 103.317 100.357 103.168C100.296 103.02 100.265 102.861 100.266 102.7V87.765C100.266 87.4409 100.394 87.1302 100.623 86.901C100.853 86.6719 101.163 86.5432 101.487 86.5432C101.811 86.5432 102.122 86.6719 102.351 86.901C102.58 87.1302 102.709 87.4409 102.709 87.765V102.7C102.709 103.024 102.58 103.335 102.351 103.564C102.122 103.793 101.811 103.922 101.487 103.922V103.922Z" fill="#A3E8F5"/>
<path d="M110.636 103.922C110.312 103.922 110.001 103.793 109.772 103.564C109.543 103.335 109.414 103.024 109.414 102.7V87.765C109.414 87.4409 109.543 87.1302 109.772 86.901C110.001 86.6719 110.312 86.5432 110.636 86.5432C110.96 86.5432 111.271 86.6719 111.5 86.901C111.729 87.1302 111.858 87.4409 111.858 87.765V102.7C111.858 103.024 111.729 103.335 111.5 103.564C111.271 103.793 110.96 103.922 110.636 103.922V103.922Z" fill="#A3E8F5"/>
<path d="M119.815 103.922C119.491 103.922 119.18 103.793 118.951 103.564C118.721 103.335 118.593 103.024 118.593 102.7V87.765C118.593 87.4409 118.721 87.1302 118.951 86.901C119.18 86.6719 119.491 86.5432 119.815 86.5432C120.139 86.5432 120.449 86.6719 120.678 86.901C120.908 87.1302 121.036 87.4409 121.036 87.765V102.7C121.036 103.024 120.908 103.335 120.678 103.564C120.449 103.793 120.139 103.922 119.815 103.922V103.922Z" fill="#A3E8F5"/>
<path d="M101.458 101.014C101.264 101.015 101.072 100.968 100.901 100.877L91.6738 96.1024L83.307 97.4953C82.9869 97.5471 82.6592 97.4696 82.3962 97.2799C82.1331 97.0902 81.9562 96.8038 81.9044 96.4836C81.8526 96.1635 81.93 95.8358 82.1197 95.5728C82.3095 95.3098 82.5959 95.1329 82.916 95.081L91.6836 93.6149C91.9437 93.5724 92.2106 93.6134 92.446 93.7322L101.204 98.2674L109.751 89.0307C109.883 88.8867 110.047 88.7763 110.229 88.7091C110.412 88.6419 110.609 88.6198 110.802 88.6447L119.975 89.8127C120.297 89.8541 120.589 90.0214 120.788 90.2779C120.987 90.5343 121.076 90.8591 121.036 91.1811C121.016 91.3405 120.965 91.4944 120.885 91.634C120.805 91.7735 120.699 91.8959 120.571 91.994C120.444 92.0921 120.299 92.1641 120.144 92.2058C119.988 92.2474 119.827 92.2579 119.667 92.2367L111.115 91.1517L102.357 100.633C102.242 100.755 102.102 100.852 101.947 100.918C101.793 100.983 101.626 101.016 101.458 101.014V101.014Z" fill="white"/>
<path d="M66.4228 81.1527H57.7482C57.4241 81.1527 57.1133 81.0239 56.8842 80.7948C56.6551 80.5657 56.5264 80.2549 56.5264 79.9309C56.5264 79.6068 56.6551 79.2961 56.8842 79.067C57.1133 78.8378 57.4241 78.7091 57.7482 78.7091H66.4228C66.7469 78.7091 67.0576 78.8378 67.2867 79.067C67.5159 79.2961 67.6446 79.6068 67.6446 79.9309C67.6446 80.2549 67.5159 80.5657 67.2867 80.7948C67.0576 81.0239 66.7469 81.1527 66.4228 81.1527V81.1527Z" fill="#A3E8F5"/>
<path d="M66.4228 69.1792H57.7482C57.4241 69.1792 57.1133 69.0505 56.8842 68.8213C56.6551 68.5922 56.5264 68.2814 56.5264 67.9574C56.5264 67.6334 56.6551 67.3226 56.8842 67.0935C57.1133 66.8643 57.4241 66.7356 57.7482 66.7356H66.4228C66.7469 66.7356 67.0576 66.8643 67.2867 67.0935C67.5159 67.3226 67.6446 67.6334 67.6446 67.9574C67.6446 68.2814 67.5159 68.5922 67.2867 68.8213C67.0576 69.0505 66.7469 69.1792 66.4228 69.1792V69.1792Z" fill="white"/>
<path d="M66.4228 88.2635H57.7482C57.4241 88.2635 57.1133 88.1347 56.8842 87.9056C56.6551 87.6765 56.5264 87.3657 56.5264 87.0417C56.5264 86.7176 56.6551 86.4069 56.8842 86.1777C57.1133 85.9486 57.4241 85.8199 57.7482 85.8199H66.4228C66.7469 85.8199 67.0576 85.9486 67.2867 86.1777C67.5159 86.4069 67.6446 86.7176 67.6446 87.0417C67.6446 87.3657 67.5159 87.6765 67.2867 87.9056C67.0576 88.1347 66.7469 88.2635 66.4228 88.2635V88.2635Z" fill="#A3E8F5"/>
<path d="M66.4228 95.3694H57.7482C57.4241 95.3694 57.1133 95.2406 56.8842 95.0115C56.6551 94.7824 56.5264 94.4716 56.5264 94.1476C56.5264 93.8235 56.6551 93.5128 56.8842 93.2836C57.1133 93.0545 57.4241 92.9258 57.7482 92.9258H66.4228C66.7469 92.9258 67.0576 93.0545 67.2867 93.2836C67.5159 93.5128 67.6446 93.8235 67.6446 94.1476C67.6446 94.4716 67.5159 94.7824 67.2867 95.0115C67.0576 95.2406 66.7469 95.3694 66.4228 95.3694V95.3694Z" fill="#A3E8F5"/>
<path d="M66.4228 102.48H57.7482C57.4241 102.48 57.1133 102.351 56.8842 102.122C56.6551 101.893 56.5264 101.582 56.5264 101.258C56.5264 100.934 56.6551 100.624 56.8842 100.394C57.1133 100.165 57.4241 100.037 57.7482 100.037H66.4228C66.7469 100.037 67.0576 100.165 67.2867 100.394C67.5159 100.624 67.6446 100.934 67.6446 101.258C67.6446 101.582 67.5159 101.893 67.2867 102.122C67.0576 102.351 66.7469 102.48 66.4228 102.48V102.48Z" fill="#A3E8F5"/>
</g>
<defs>
<clipPath id="clip0_100_882">
<rect width="108.494" height="74.1818" fill="white" transform="translate(36 51.2727)"/>
</clipPath>
</defs>
</svg>
