<svg width="330" height="330" viewBox="0 0 330 330" fill="none" xmlns="http://www.w3.org/2000/svg">
<circle cx="165" cy="165" r="165" fill="#149CB8"/>
<g clip-path="url(#clip0_100_906)">
<path d="M96.1191 192.345C95.5233 192.345 94.9519 192.109 94.5306 191.687C94.1093 191.266 93.8726 190.695 93.8726 190.099V177.284C93.8702 176.277 93.469 175.311 92.7566 174.599C92.0443 173.887 91.0788 173.485 90.0714 173.483H78.8654C77.8589 173.485 76.8943 173.887 76.1834 174.6C75.4725 175.312 75.0732 176.278 75.0732 177.284V190.099C75.0732 190.695 74.8365 191.266 74.4152 191.687C73.9939 192.109 73.4225 192.345 72.8267 192.345C72.2308 192.345 71.6594 192.109 71.2381 191.687C70.8168 191.266 70.5801 190.695 70.5801 190.099V177.284C70.5825 175.087 71.4558 172.98 73.0089 171.425C74.5619 169.87 76.6679 168.995 78.8654 168.99H90.0714C92.2704 168.992 94.3788 169.867 95.9337 171.422C97.4887 172.977 98.3633 175.085 98.3657 177.284V190.099C98.3657 190.394 98.3076 190.686 98.1947 190.958C98.0818 191.231 97.9163 191.479 97.7077 191.687C97.4991 191.896 97.2514 192.061 96.9789 192.174C96.7063 192.287 96.4142 192.345 96.1191 192.345Z" fill="white"/>
<path d="M84.3374 171.569C82.2305 171.571 80.1705 170.948 78.4179 169.778C76.6654 168.609 75.2991 166.946 74.492 164.999C73.6849 163.053 73.4733 160.911 73.8839 158.845C74.2945 156.778 75.3088 154.88 76.7986 153.39C78.2884 151.901 80.1867 150.886 82.2532 150.476C84.3197 150.065 86.4615 150.277 88.4077 151.084C90.3539 151.891 92.0169 153.257 93.1863 155.01C94.3557 156.762 94.979 158.822 94.9772 160.929C94.9748 163.75 93.8531 166.455 91.8583 168.45C89.8634 170.445 87.1586 171.567 84.3374 171.569V171.569ZM84.3374 154.774C83.1196 154.772 81.9286 155.131 80.9151 155.807C79.9017 156.482 79.1113 157.443 78.644 158.567C78.1767 159.692 78.0535 160.93 78.29 162.125C78.5265 163.319 79.1121 164.417 79.9726 165.279C80.8331 166.14 81.9299 166.728 83.1242 166.966C84.3186 167.204 85.5567 167.083 86.682 166.617C87.8073 166.151 88.7693 165.362 89.446 164.35C90.1228 163.338 90.4841 162.147 90.4841 160.929C90.4841 159.298 89.8368 157.734 88.6843 156.58C87.5319 155.426 85.9685 154.776 84.3374 154.774Z" fill="white"/>
<path d="M161.279 112.17H161.171C160.858 112.155 160.551 112.075 160.271 111.934C159.99 111.793 159.743 111.595 159.545 111.352L156.184 107.263C155.997 107.035 155.856 106.772 155.771 106.489C155.686 106.207 155.657 105.91 155.686 105.616C155.745 105.023 156.037 104.478 156.498 104.1C156.959 103.722 157.552 103.543 158.145 103.602C158.738 103.661 159.284 103.953 159.661 104.414L161.459 106.598L165.862 102.195C166.293 101.838 166.841 101.655 167.4 101.681C167.959 101.707 168.488 101.941 168.883 102.337C169.279 102.732 169.513 103.261 169.539 103.82C169.565 104.379 169.382 104.927 169.025 105.358L162.869 111.514C162.447 111.934 161.875 112.17 161.279 112.17V112.17Z" fill="white"/>
<path d="M161.278 170.374H161.171C160.857 170.358 160.549 170.276 160.269 170.134C159.989 169.991 159.742 169.791 159.544 169.547L156.183 165.44C155.834 164.977 155.677 164.395 155.747 163.819C155.816 163.242 156.106 162.715 156.556 162.348C157.006 161.98 157.581 161.802 158.159 161.849C158.738 161.896 159.276 162.165 159.661 162.601L161.458 164.784L165.861 160.381C166.292 160.014 166.845 159.822 167.41 159.845C167.976 159.867 168.512 160.102 168.911 160.503C169.311 160.904 169.544 161.441 169.565 162.006C169.586 162.571 169.393 163.124 169.025 163.553L162.869 169.718C162.446 170.138 161.874 170.374 161.278 170.374V170.374Z" fill="white"/>
<path d="M161.279 228.578H161.171C160.857 228.562 160.55 228.48 160.27 228.338C159.989 228.196 159.742 227.996 159.545 227.751L156.184 223.645C155.997 223.416 155.856 223.153 155.771 222.871C155.686 222.588 155.657 222.292 155.686 221.998C155.745 221.405 156.037 220.859 156.498 220.481C156.959 220.104 157.552 219.925 158.145 219.984C158.738 220.043 159.284 220.335 159.661 220.796L161.459 222.989L165.862 218.585C166.066 218.357 166.314 218.174 166.591 218.045C166.868 217.916 167.169 217.845 167.474 217.837C167.78 217.828 168.084 217.882 168.367 217.995C168.651 218.108 168.909 218.278 169.125 218.494C169.342 218.71 169.511 218.968 169.624 219.252C169.737 219.536 169.791 219.84 169.783 220.145C169.774 220.451 169.703 220.751 169.575 221.029C169.446 221.306 169.262 221.554 169.034 221.757L162.878 227.922C162.668 228.131 162.419 228.297 162.144 228.409C161.87 228.522 161.576 228.579 161.279 228.578Z" fill="white"/>
<path d="M138.867 130.627H255.742C256.338 130.627 256.91 130.391 257.331 129.969C257.752 129.548 257.989 128.977 257.989 128.381V85.2466C257.989 84.6507 257.752 84.0793 257.331 83.658C256.91 83.2367 256.338 83 255.742 83H138.867C138.271 83 137.699 83.2367 137.278 83.658C136.857 84.0793 136.62 84.6507 136.62 85.2466V104.567H133.861C130.783 104.581 127.835 105.81 125.658 107.985C123.48 110.161 122.249 113.108 122.233 116.186V162.753H114.577C113.995 154.924 110.401 147.624 104.549 142.389C98.6974 137.154 91.0441 134.392 83.1981 134.683C75.352 134.974 67.9243 138.295 62.4763 143.949C57.0283 149.603 53.9844 157.149 53.9844 165C53.9844 172.851 57.0283 180.397 62.4763 186.051C67.9243 191.705 75.352 195.026 83.1981 195.317C91.0441 195.608 98.6974 192.846 104.549 187.611C110.401 182.376 113.995 175.076 114.577 167.247H122.233V213.814C122.233 216.903 123.456 219.866 125.635 222.055C127.815 224.244 130.772 225.482 133.861 225.496H136.62V244.753C136.62 245.349 136.857 245.921 137.278 246.342C137.699 246.763 138.271 247 138.867 247H255.742C256.338 247 256.91 246.763 257.331 246.342C257.752 245.921 257.989 245.349 257.989 244.753V201.619C257.989 201.023 257.752 200.452 257.331 200.031C256.91 199.609 256.338 199.373 255.742 199.373H138.867C138.271 199.373 137.699 199.609 137.278 200.031C136.857 200.452 136.62 201.023 136.62 201.619V220.931H133.861C131.964 220.917 130.149 220.153 128.813 218.806C127.476 217.459 126.726 215.639 126.726 213.742V167.247H136.611V186.558C136.611 187.154 136.848 187.725 137.269 188.147C137.69 188.568 138.262 188.805 138.858 188.805H255.742C256.338 188.805 256.91 188.568 257.331 188.147C257.752 187.725 257.989 187.154 257.989 186.558V143.424C257.989 142.828 257.752 142.257 257.331 141.835C256.91 141.414 256.338 141.177 255.742 141.177H138.867C138.271 141.177 137.699 141.414 137.278 141.835C136.857 142.257 136.62 142.828 136.62 143.424V162.753H126.735V116.186C126.751 114.302 127.508 112.498 128.84 111.166C130.173 109.833 131.976 109.077 133.861 109.06H136.62V128.354C136.616 128.651 136.672 128.946 136.783 129.222C136.894 129.498 137.059 129.748 137.268 129.96C137.477 130.171 137.726 130.339 138.001 130.454C138.275 130.568 138.569 130.627 138.867 130.627ZM84.3377 190.836C79.2253 190.837 74.2273 189.323 69.9758 186.484C65.7243 183.645 62.4103 179.608 60.4531 174.885C58.4959 170.163 57.9833 164.965 58.9803 159.951C59.9772 154.937 62.4388 150.331 66.0538 146.716C69.6688 143.101 74.2747 140.64 79.2889 139.643C84.3031 138.646 89.5003 139.158 94.2231 141.115C98.946 143.073 102.982 146.387 105.821 150.638C108.661 154.89 110.175 159.888 110.173 165C110.164 171.849 107.439 178.415 102.596 183.258C97.7527 188.101 91.1868 190.826 84.3377 190.836ZM141.113 203.884H253.496V242.525H141.113V203.884ZM141.113 145.688H253.496V184.33H141.113V145.688ZM141.113 87.4932H253.496V126.134H141.113V87.4932Z" fill="#A3E8F5"/>
<path d="M162.483 91.5909C159.512 91.5891 156.608 92.4685 154.137 94.1178C151.666 95.7671 149.74 98.1122 148.603 100.856C147.465 103.601 147.167 106.621 147.746 109.534C148.325 112.448 149.756 115.124 151.856 117.225C153.957 119.326 156.633 120.756 159.547 121.335C162.461 121.914 165.48 121.616 168.225 120.478C170.969 119.341 173.314 117.415 174.963 114.944C176.613 112.473 177.492 109.569 177.49 106.598C177.485 102.619 175.903 98.805 173.089 95.9916C170.276 93.1783 166.462 91.5957 162.483 91.5909V91.5909ZM162.483 117.121C160.401 117.123 158.366 116.507 156.634 115.352C154.903 114.197 153.553 112.554 152.755 110.631C151.957 108.709 151.747 106.592 152.152 104.551C152.557 102.509 153.559 100.633 155.03 99.1604C156.501 97.6878 158.376 96.6847 160.418 96.2779C162.459 95.8712 164.576 96.079 166.499 96.8752C168.422 97.6714 170.066 99.0202 171.223 100.751C172.38 102.482 172.997 104.516 172.997 106.598C172.999 107.981 172.729 109.351 172.202 110.63C171.675 111.908 170.901 113.071 169.925 114.051C168.949 115.03 167.789 115.808 166.512 116.339C165.235 116.871 163.866 117.146 162.483 117.148V117.121Z" fill="white"/>
<path d="M187.213 102.95H212.797C213.393 102.95 213.965 102.713 214.386 102.292C214.807 101.87 215.044 101.299 215.044 100.703C215.044 100.107 214.807 99.5358 214.386 99.1144C213.965 98.6931 213.393 98.4564 212.797 98.4564H187.213C186.618 98.4564 186.046 98.6931 185.625 99.1144C185.203 99.5358 184.967 100.107 184.967 100.703C184.967 101.299 185.203 101.87 185.625 102.292C186.046 102.713 186.618 102.95 187.213 102.95V102.95Z" fill="#A3E8F5"/>
<path d="M243.773 109.555H187.213C186.618 109.555 186.046 109.791 185.625 110.213C185.203 110.634 184.967 111.205 184.967 111.801C184.967 112.397 185.203 112.968 185.625 113.39C186.046 113.811 186.618 114.048 187.213 114.048H243.773C244.369 114.048 244.94 113.811 245.362 113.39C245.783 112.968 246.02 112.397 246.02 111.801C246.02 111.205 245.783 110.634 245.362 110.213C244.94 109.791 244.369 109.555 243.773 109.555V109.555Z" fill="#A3E8F5"/>
<path d="M162.483 179.809C165.449 179.806 168.348 178.923 170.813 177.273C173.278 175.623 175.199 173.28 176.332 170.539C177.466 167.798 177.763 164.783 177.184 161.873C176.605 158.964 175.177 156.292 173.08 154.194C170.983 152.096 168.312 150.666 165.403 150.086C162.494 149.505 159.478 149.799 156.737 150.932C153.995 152.064 151.65 153.983 149.999 156.447C148.348 158.911 147.463 161.809 147.458 164.775C147.457 166.749 147.845 168.704 148.599 170.528C149.354 172.352 150.46 174.009 151.856 175.406C153.251 176.802 154.908 177.909 156.731 178.665C158.555 179.42 160.509 179.809 162.483 179.809ZM162.483 154.288C164.563 154.292 166.595 154.912 168.322 156.071C170.049 157.23 171.394 158.874 172.186 160.797C172.979 162.721 173.183 164.835 172.773 166.874C172.363 168.913 171.358 170.785 169.884 172.253C168.41 173.72 166.534 174.718 164.493 175.119C162.452 175.52 160.338 175.307 158.419 174.506C156.499 173.706 154.86 172.354 153.709 170.622C152.557 168.89 151.946 166.855 151.951 164.775C151.963 161.99 153.078 159.323 155.052 157.357C157.026 155.392 159.698 154.288 162.483 154.288V154.288Z" fill="white"/>
<path d="M187.213 161.181H212.797C213.393 161.181 213.965 160.944 214.386 160.523C214.807 160.101 215.044 159.53 215.044 158.934C215.044 158.338 214.807 157.767 214.386 157.346C213.965 156.924 213.393 156.688 212.797 156.688H187.213C186.618 156.688 186.046 156.924 185.625 157.346C185.203 157.767 184.967 158.338 184.967 158.934C184.967 159.53 185.203 160.101 185.625 160.523C186.046 160.944 186.618 161.181 187.213 161.181V161.181Z" fill="#A3E8F5"/>
<path d="M187.213 172.252H243.773C244.369 172.252 244.94 172.015 245.362 171.594C245.783 171.173 246.02 170.601 246.02 170.005C246.02 169.41 245.783 168.838 245.362 168.417C244.94 167.995 244.369 167.759 243.773 167.759H187.213C186.618 167.759 186.046 167.995 185.625 168.417C185.203 168.838 184.967 169.41 184.967 170.005C184.967 170.601 185.203 171.173 185.625 171.594C186.046 172.015 186.618 172.252 187.213 172.252V172.252Z" fill="#A3E8F5"/>
<path d="M162.483 207.99C159.513 207.989 156.609 208.868 154.138 210.517C151.668 212.166 149.742 214.51 148.604 217.254C147.466 219.998 147.167 223.017 147.745 225.931C148.324 228.844 149.753 231.52 151.853 233.621C153.953 235.722 156.628 237.153 159.541 237.734C162.454 238.314 165.474 238.017 168.218 236.881C170.963 235.744 173.309 233.82 174.959 231.35C176.609 228.88 177.49 225.977 177.49 223.007C177.485 219.027 175.903 215.212 173.09 212.397C170.277 209.582 166.463 207.998 162.483 207.99V207.99ZM162.483 233.521C160.401 233.522 158.365 232.906 156.633 231.751C154.902 230.595 153.551 228.952 152.754 227.029C151.956 225.106 151.747 222.989 152.153 220.947C152.559 218.905 153.561 217.029 155.033 215.557C156.505 214.085 158.381 213.082 160.423 212.676C162.465 212.271 164.582 212.48 166.505 213.277C168.428 214.075 170.072 215.425 171.227 217.157C172.383 218.889 172.999 220.925 172.997 223.007C172.992 225.794 171.883 228.465 169.912 230.436C167.942 232.407 165.27 233.516 162.483 233.521V233.521Z" fill="white"/>
<path d="M187.213 219.349H212.797C213.393 219.349 213.965 219.112 214.386 218.691C214.807 218.27 215.044 217.698 215.044 217.103C215.044 216.507 214.807 215.935 214.386 215.514C213.965 215.093 213.393 214.856 212.797 214.856H187.213C186.618 214.856 186.046 215.093 185.625 215.514C185.203 215.935 184.967 216.507 184.967 217.103C184.967 217.698 185.203 218.27 185.625 218.691C186.046 219.112 186.618 219.349 187.213 219.349Z" fill="#A3E8F5"/>
<path d="M243.773 225.963H187.213C186.618 225.963 186.046 226.2 185.625 226.621C185.203 227.042 184.967 227.614 184.967 228.21C184.967 228.805 185.203 229.377 185.625 229.798C186.046 230.22 186.618 230.456 187.213 230.456H243.773C244.369 230.456 244.94 230.22 245.362 229.798C245.783 229.377 246.02 228.805 246.02 228.21C246.02 227.614 245.783 227.042 245.362 226.621C244.94 226.2 244.369 225.963 243.773 225.963V225.963Z" fill="#A3E8F5"/>
</g>
<defs>
<clipPath id="clip0_100_906">
<rect width="203.989" height="164" fill="white" transform="translate(54 83)"/>
</clipPath>
</defs>
</svg>
