<svg width="330" height="330" viewBox="0 0 330 330" fill="none" xmlns="http://www.w3.org/2000/svg">
<circle cx="165" cy="165" r="165" fill="#F7F7FA"/>
<g clip-path="url(#clip0_98_881)">
<path d="M83.0231 200.729C83.6172 200.729 84.1869 200.493 84.607 200.072C85.0271 199.652 85.2631 199.083 85.2631 198.489V100.72C85.2631 100.126 85.4991 99.556 85.9191 99.1359C86.3392 98.7159 86.9089 98.4799 87.503 98.4799H243.492C244.086 98.4799 244.656 98.7159 245.076 99.1359C245.496 99.556 245.732 100.126 245.732 100.72V198.489C245.732 199.083 245.968 199.652 246.388 200.072C246.808 200.493 247.378 200.729 247.972 200.729C248.566 200.729 249.136 200.493 249.556 200.072C249.976 199.652 250.212 199.083 250.212 198.489V100.72C250.212 98.9376 249.504 97.2284 248.244 95.9682C246.984 94.708 245.274 94 243.492 94H87.503C85.7208 94 84.0116 94.708 82.7514 95.9682C81.4912 97.2284 80.7832 98.9376 80.7832 100.72V198.489C80.7832 199.083 81.0192 199.652 81.4393 200.072C81.8593 200.493 82.4291 200.729 83.0231 200.729V200.729Z" fill="#616B6B"/>
<path d="M96.7946 109.787C96.2006 109.787 95.6308 110.023 95.2107 110.443C94.7907 110.863 94.5547 111.433 94.5547 112.027V198.489C94.5547 199.083 94.7907 199.652 95.2107 200.072C95.6308 200.493 96.2006 200.729 96.7946 200.729H234.112C234.706 200.729 235.276 200.493 235.696 200.072C236.116 199.652 236.352 199.083 236.352 198.489V112.027C236.352 111.433 236.116 110.863 235.696 110.443C235.276 110.023 234.706 109.787 234.112 109.787H96.7946ZM99.0346 114.267H136.334V196.249H99.0346V114.267ZM231.872 196.249H140.814V114.267H231.872V196.249Z" fill="#616B6B"/>
<path d="M258.187 208.237H72.7198C70.9376 208.237 69.2284 208.945 67.9682 210.205C66.708 211.465 66 213.174 66 214.957V223.28C66.0024 225.062 66.7111 226.77 67.9708 228.029C69.2305 229.289 70.9383 229.998 72.7198 230H258.187C259.968 229.998 261.676 229.289 262.936 228.029C264.195 226.77 264.904 225.062 264.906 223.28V214.957C264.906 213.174 264.198 211.465 262.938 210.205C261.678 208.945 259.969 208.237 258.187 208.237V208.237ZM260.427 223.28C260.427 223.874 260.191 224.444 259.77 224.864C259.35 225.284 258.781 225.52 258.187 225.52H72.7198C72.1257 225.52 71.556 225.284 71.1359 224.864C70.7159 224.444 70.4799 223.874 70.4799 223.28V214.957C70.4799 214.363 70.7159 213.793 71.1359 213.373C71.556 212.953 72.1257 212.717 72.7198 212.717H258.187C258.781 212.717 259.35 212.953 259.77 213.373C260.191 213.793 260.427 214.363 260.427 214.957V223.28Z" fill="#616B6B"/>
<path d="M184.591 221.058H146.315C145.721 221.058 145.151 220.822 144.731 220.402C144.311 219.982 144.075 219.412 144.075 218.818C144.075 218.224 144.311 217.654 144.731 217.234C145.151 216.814 145.721 216.578 146.315 216.578H184.591C185.185 216.578 185.755 216.814 186.175 217.234C186.595 217.654 186.831 218.224 186.831 218.818C186.831 219.412 186.595 219.982 186.175 220.402C185.755 220.822 185.185 221.058 184.591 221.058Z" fill="#C9CFCF"/>
<path d="M199.885 127.913H191.947C191.353 127.913 190.783 127.677 190.363 127.257C189.943 126.837 189.707 126.267 189.707 125.673C189.707 125.079 189.943 124.509 190.363 124.089C190.783 123.669 191.353 123.433 191.947 123.433H199.885C200.479 123.433 201.049 123.669 201.469 124.089C201.889 124.509 202.125 125.079 202.125 125.673C202.125 126.267 201.889 126.837 201.469 127.257C201.049 127.677 200.479 127.913 199.885 127.913Z" fill="#149CB8"/>
<path d="M216.595 135.69H191.947C191.353 135.69 190.783 135.454 190.363 135.034C189.943 134.614 189.707 134.044 189.707 133.45C189.707 132.856 189.943 132.286 190.363 131.866C190.783 131.446 191.353 131.21 191.947 131.21H216.595C217.189 131.21 217.759 131.446 218.179 131.866C218.599 132.286 218.835 132.856 218.835 133.45C218.835 134.044 218.599 134.614 218.179 135.034C217.759 135.454 217.189 135.69 216.595 135.69V135.69Z" fill="#149CB8"/>
<path d="M163.821 142.579H163.713C163.4 142.564 163.093 142.484 162.813 142.343C162.532 142.202 162.285 142.004 162.087 141.761L158.726 137.672C158.539 137.444 158.398 137.181 158.313 136.898C158.228 136.616 158.199 136.319 158.228 136.025C158.287 135.432 158.579 134.887 159.04 134.509C159.501 134.131 160.094 133.952 160.687 134.011C161.28 134.07 161.826 134.362 162.203 134.823L164.001 137.007L168.404 132.604C168.835 132.247 169.383 132.064 169.942 132.09C170.501 132.116 171.03 132.35 171.425 132.746C171.821 133.141 172.055 133.67 172.081 134.229C172.107 134.788 171.924 135.336 171.567 135.767L165.411 141.923C164.989 142.343 164.417 142.579 163.821 142.579V142.579Z" fill="#149CB8"/>
<path d="M165.025 122C162.054 121.998 159.15 122.878 156.679 124.527C154.208 126.176 152.282 128.521 151.145 131.266C150.007 134.01 149.709 137.03 150.288 139.943C150.867 142.857 152.298 145.534 154.398 147.634C156.499 149.735 159.175 151.165 162.089 151.744C165.002 152.323 168.022 152.025 170.767 150.887C173.511 149.75 175.856 147.824 177.505 145.353C179.155 142.882 180.034 139.978 180.032 137.007C180.027 133.028 178.445 129.214 175.631 126.401C172.818 123.587 169.004 122.005 165.025 122V122ZM165.025 147.53C162.943 147.532 160.908 146.916 159.176 145.761C157.445 144.606 156.095 142.963 155.297 141.04C154.499 139.118 154.289 137.002 154.694 134.96C155.099 132.918 156.101 131.042 157.572 129.569C159.043 128.097 160.918 127.094 162.96 126.687C165.001 126.28 167.118 126.488 169.041 127.284C170.964 128.081 172.608 129.429 173.765 131.16C174.922 132.891 175.539 134.925 175.539 137.007C175.541 138.39 175.271 139.76 174.744 141.039C174.217 142.318 173.443 143.48 172.467 144.46C171.491 145.439 170.331 146.217 169.054 146.748C167.777 147.28 166.408 147.555 165.025 147.557V147.53Z" fill="#616B6B"/>
<path d="M199.885 143.458H191.947C191.353 143.458 190.783 143.222 190.363 142.802C189.943 142.382 189.707 141.812 189.707 141.218C189.707 140.624 189.943 140.054 190.363 139.634C190.783 139.214 191.353 138.978 191.947 138.978H199.885C200.479 138.978 201.049 139.214 201.469 139.634C201.889 140.054 202.125 140.624 202.125 141.218C202.125 141.812 201.889 142.382 201.469 142.802C201.049 143.222 200.479 143.458 199.885 143.458Z" fill="#149CB8"/>
<path d="M216.595 151.235H191.947C191.353 151.235 190.783 150.999 190.363 150.579C189.943 150.159 189.707 149.589 189.707 148.995C189.707 148.401 189.943 147.831 190.363 147.411C190.783 146.991 191.353 146.755 191.947 146.755H216.595C217.189 146.755 217.759 146.991 218.179 147.411C218.599 147.831 218.835 148.401 218.835 148.995C218.835 149.589 218.599 150.159 218.179 150.579C217.759 150.999 217.189 151.235 216.595 151.235V151.235Z" fill="#149CB8"/>
<path d="M152.363 190.523C151.769 190.523 151.199 190.287 150.779 189.867C150.359 189.447 150.123 188.877 150.123 188.283V160.902C150.123 160.308 150.359 159.739 150.779 159.319C151.199 158.898 151.769 158.662 152.363 158.662C152.957 158.662 153.527 158.898 153.947 159.319C154.367 159.739 154.603 160.308 154.603 160.902V188.283C154.603 188.877 154.367 189.447 153.947 189.867C153.527 190.287 152.957 190.523 152.363 190.523V190.523Z" fill="#C9CFCF"/>
<path d="M169.189 190.523C168.595 190.523 168.025 190.287 167.605 189.867C167.185 189.447 166.949 188.877 166.949 188.283V160.902C166.949 160.308 167.185 159.739 167.605 159.319C168.025 158.898 168.595 158.662 169.189 158.662C169.783 158.662 170.353 158.898 170.773 159.319C171.193 159.739 171.429 160.308 171.429 160.902V188.283C171.429 188.877 171.193 189.447 170.773 189.867C170.353 190.287 169.783 190.523 169.189 190.523V190.523Z" fill="#C9CFCF"/>
<path d="M186.06 190.523C185.766 190.525 185.474 190.467 185.202 190.355C184.929 190.243 184.682 190.078 184.474 189.87C184.266 189.662 184.101 189.414 183.988 189.142C183.876 188.87 183.819 188.578 183.82 188.283V160.902C183.82 160.308 184.056 159.739 184.476 159.319C184.896 158.898 185.466 158.662 186.06 158.662C186.654 158.662 187.224 158.898 187.644 159.319C188.064 159.739 188.3 160.308 188.3 160.902V188.283C188.3 188.877 188.064 189.447 187.644 189.867C187.224 190.287 186.654 190.523 186.06 190.523V190.523Z" fill="#C9CFCF"/>
<path d="M202.834 190.523C202.24 190.523 201.67 190.287 201.25 189.867C200.83 189.447 200.594 188.877 200.594 188.283V160.902C200.594 160.308 200.83 159.739 201.25 159.319C201.67 158.898 202.24 158.662 202.834 158.662C203.428 158.662 203.997 158.898 204.418 159.319C204.838 159.739 205.074 160.308 205.074 160.902V188.283C205.074 188.877 204.838 189.447 204.418 189.867C203.997 190.287 203.428 190.523 202.834 190.523V190.523Z" fill="#C9CFCF"/>
<path d="M219.66 190.523C219.066 190.523 218.496 190.287 218.076 189.867C217.656 189.447 217.42 188.877 217.42 188.283V160.902C217.42 160.308 217.656 159.739 218.076 159.319C218.496 158.898 219.066 158.662 219.66 158.662C220.254 158.662 220.824 158.898 221.244 159.319C221.664 159.739 221.9 160.308 221.9 160.902V188.283C221.9 188.877 221.664 189.447 221.244 189.867C220.824 190.287 220.254 190.523 219.66 190.523V190.523Z" fill="#C9CFCF"/>
<path d="M186.007 185.192C185.651 185.193 185.3 185.107 184.985 184.941L168.069 176.188L152.73 178.741C152.143 178.836 151.543 178.694 151.06 178.347C150.578 177.999 150.254 177.474 150.159 176.887C150.064 176.3 150.206 175.699 150.553 175.217C150.901 174.735 151.426 174.41 152.013 174.315L168.087 171.627C168.564 171.549 169.053 171.625 169.485 171.842L185.541 180.157L201.211 163.223C201.452 162.959 201.753 162.757 202.088 162.633C202.423 162.51 202.783 162.47 203.138 162.515L219.955 164.657C220.545 164.733 221.081 165.039 221.445 165.509C221.81 165.98 221.973 166.575 221.899 167.165C221.863 167.458 221.769 167.74 221.623 167.996C221.477 168.251 221.282 168.476 221.048 168.656C220.815 168.836 220.548 168.968 220.264 169.044C219.979 169.12 219.683 169.14 219.391 169.101L203.711 167.112L187.655 184.493C187.444 184.717 187.188 184.895 186.904 185.016C186.62 185.136 186.315 185.196 186.007 185.192V185.192Z" fill="#149CB8"/>
<path d="M121.774 148.78H105.871C105.277 148.78 104.707 148.544 104.287 148.124C103.867 147.704 103.631 147.134 103.631 146.54C103.631 145.946 103.867 145.376 104.287 144.956C104.707 144.536 105.277 144.3 105.871 144.3H121.774C122.368 144.3 122.938 144.536 123.358 144.956C123.778 145.376 124.014 145.946 124.014 146.54C124.014 147.134 123.778 147.704 123.358 148.124C122.938 148.544 122.368 148.78 121.774 148.78V148.78Z" fill="#C9CFCF"/>
<path d="M121.774 126.829H105.871C105.277 126.829 104.707 126.593 104.287 126.172C103.867 125.752 103.631 125.183 103.631 124.589C103.631 123.995 103.867 123.425 104.287 123.005C104.707 122.585 105.277 122.349 105.871 122.349H121.774C122.368 122.349 122.938 122.585 123.358 123.005C123.778 123.425 124.014 123.995 124.014 124.589C124.014 125.183 123.778 125.752 123.358 126.172C122.938 126.593 122.368 126.829 121.774 126.829V126.829Z" fill="#149CB8"/>
<path d="M121.774 161.816H105.871C105.277 161.816 104.707 161.58 104.287 161.16C103.867 160.74 103.631 160.17 103.631 159.576C103.631 158.982 103.867 158.413 104.287 157.993C104.707 157.572 105.277 157.336 105.871 157.336H121.774C122.368 157.336 122.938 157.572 123.358 157.993C123.778 158.413 124.014 158.982 124.014 159.576C124.014 160.17 123.778 160.74 123.358 161.16C122.938 161.58 122.368 161.816 121.774 161.816V161.816Z" fill="#C9CFCF"/>
<path d="M121.774 174.844H105.871C105.277 174.844 104.707 174.608 104.287 174.188C103.867 173.768 103.631 173.198 103.631 172.604C103.631 172.01 103.867 171.44 104.287 171.02C104.707 170.6 105.277 170.364 105.871 170.364H121.774C122.368 170.364 122.938 170.6 123.358 171.02C123.778 171.44 124.014 172.01 124.014 172.604C124.014 173.198 123.778 173.768 123.358 174.188C122.938 174.608 122.368 174.844 121.774 174.844V174.844Z" fill="#C9CFCF"/>
<path d="M121.774 187.88H105.871C105.277 187.88 104.707 187.644 104.287 187.224C103.867 186.804 103.631 186.234 103.631 185.64C103.631 185.046 103.867 184.476 104.287 184.056C104.707 183.636 105.277 183.4 105.871 183.4H121.774C122.368 183.4 122.938 183.636 123.358 184.056C123.778 184.476 124.014 185.046 124.014 185.64C124.014 186.234 123.778 186.804 123.358 187.224C122.938 187.644 122.368 187.88 121.774 187.88V187.88Z" fill="#C9CFCF"/>
</g>
<defs>
<clipPath id="clip0_98_881">
<rect width="198.906" height="136" fill="white" transform="translate(66 94)"/>
</clipPath>
</defs>
</svg>
