<?xml version="1.0" encoding="utf-8"?>
<!-- Generator: Adobe Illustrator 26.1.0, SVG Export Plug-In . SVG Version: 6.00 Build 0)  -->
<svg version="1.1" id="Layer_1" xmlns="http://www.w3.org/2000/svg" xmlns:xlink="http://www.w3.org/1999/xlink" x="0px" y="0px"
	 viewBox="0 0 24 24" style="enable-background:new 0 0 24 24;" xml:space="preserve">
<g>
	<path d="M12,9.3c-1.5,0-2.7,1.2-2.7,2.7c0,1.5,1.2,2.7,2.7,2.7c0,0,0,0,0,0c1.5,0,2.7-1.2,2.7-2.7C14.7,10.5,13.5,9.3,12,9.3z"/>
	<path d="M18.2,7.3c-0.1-0.4-0.3-0.6-0.6-0.9c-0.3-0.3-0.5-0.5-0.9-0.6c-0.3-0.1-0.7-0.2-1.5-0.3c-0.8,0-1.1,0-3.2,0h-0.7v0
		c-1.5,0-1.8,0-2.5,0C8,5.5,7.6,5.7,7.3,5.8C6.9,5.9,6.6,6.1,6.4,6.4C6.1,6.6,5.9,6.9,5.8,7.3C5.7,7.6,5.5,8,5.5,8.8
		c0,0.8,0,1.1,0,3.2c0,2.1,0,2.4,0,3.2c0,0.8,0.2,1.2,0.3,1.5c0.1,0.3,0.3,0.7,0.6,0.9c0.3,0.3,0.6,0.5,0.9,0.6
		c0.3,0.1,0.7,0.2,1.5,0.3c0.8,0,1.1,0,3.2,0c2.1,0,2.4,0,3.2,0c0.8,0,1.2-0.2,1.5-0.3c0.4-0.1,0.6-0.3,0.9-0.6
		c0.3-0.3,0.5-0.6,0.6-0.9c0.1-0.3,0.2-0.7,0.3-1.5c0-0.8,0-1.1,0-3.2s0-2.4,0-3.2C18.5,8,18.3,7.6,18.2,7.3z M12,16.1
		c0,0-0.1,0-0.1,0c-2.3,0-4.1-1.9-4-4.2c0-2.3,1.9-4.1,4.2-4c2.2,0,4,1.8,4,4C16.1,14.2,14.3,16.1,12,16.1z M16.3,8.7
		c-0.5,0-1-0.4-1-1s0.4-1,1-1s1,0.4,1,1S16.8,8.7,16.3,8.7z"/>
	<path d="M12,0C5.4,0,0,5.4,0,12c0,6.6,5.4,12,12,12s12-5.4,12-12C24,5.4,18.6,0,12,0z M20,15.3c0,0.9-0.2,1.4-0.4,1.9
		c-0.2,0.5-0.5,1-0.9,1.4c-0.4,0.4-0.9,0.7-1.4,0.9c-0.5,0.2-1.1,0.3-1.9,0.4c-0.9,0-1.1,0-3.3,0s-2.4,0-3.3,0
		c-0.9,0-1.4-0.2-1.9-0.4c-0.5-0.2-1-0.5-1.4-0.9c-0.4-0.4-0.7-0.9-0.9-1.4c-0.2-0.5-0.3-1.1-0.4-1.9c0-0.9,0-1.1,0-3.3
		c0-2.2,0-2.4,0-3.3c0-0.9,0.2-1.4,0.4-1.9c0.2-0.5,0.5-1,0.9-1.4c0.4-0.4,0.9-0.7,1.4-0.9C7.3,4.2,7.8,4.1,8.7,4C9.6,4,9.8,4,12,4
		c0,0,0,0,0,0h0c0,0,0,0,0,0c2.2,0,2.4,0,3.3,0c0.9,0,1.4,0.2,1.9,0.4c0.5,0.2,1,0.5,1.4,0.9c0.4,0.4,0.7,0.9,0.9,1.4
		c0.2,0.5,0.3,1.1,0.4,1.9c0,0.9,0,1.1,0,3.3C20,14.2,20,14.4,20,15.3z"/>
</g>
</svg>
