<svg width="80" height="71" viewBox="0 0 80 71" fill="none" xmlns="http://www.w3.org/2000/svg">
<path fill-rule="evenodd" clip-rule="evenodd" d="M48.3728 26.2271C48.7543 26.6264 48.7398 27.2594 48.3405 27.6409L35.4492 39.956L28.3134 32.9461C27.9194 32.5591 27.9138 31.926 28.3008 31.532C28.6878 31.138 29.321 31.1323 29.7149 31.5194L35.4687 37.1715L46.9589 26.1948C47.3583 25.8133 47.9913 25.8277 48.3728 26.2271Z" fill="#149CB8"/>
<path fill-rule="evenodd" clip-rule="evenodd" d="M38.2551 50.0072C47.3017 50.0072 54.6577 42.6216 54.6577 33.4832C54.6577 24.3449 47.3017 16.9592 38.2551 16.9592C29.2086 16.9592 21.8525 24.3449 21.8525 33.4832C21.8525 42.6216 29.2086 50.0072 38.2551 50.0072ZM38.2551 52.0072C48.4186 52.0072 56.6577 43.7138 56.6577 33.4832C56.6577 23.2527 48.4186 14.9592 38.2551 14.9592C28.0917 14.9592 19.8525 23.2527 19.8525 33.4832C19.8525 43.7138 28.0917 52.0072 38.2551 52.0072Z" fill="#149CB8"/>
<path fill-rule="evenodd" clip-rule="evenodd" d="M1.37305 66.5289C0.820762 66.5289 0.373047 66.0812 0.373047 65.5289C0.373047 64.9766 0.820762 64.5289 1.37305 64.5289H65.5873C65.5878 64.5289 65.588 64.5289 65.588 65.5289C65.588 66.5289 65.5878 66.5289 65.5873 66.5289H1.37305ZM78.3999 66.5289H65.5873L65.588 65.5289L65.5873 64.5289H78.3999C78.9522 64.5289 79.3999 64.9766 79.3999 65.5289C79.3999 66.0812 78.9522 66.5289 78.3999 66.5289Z" fill="#616B6B"/>
<path fill-rule="evenodd" clip-rule="evenodd" d="M73.0063 60.5521C73.3808 60.1462 74.0135 60.1208 74.4194 60.4953L78.9367 64.6635C79.4374 65.1255 79.4444 65.9141 78.9521 66.3849L74.4323 70.7069C74.0332 71.0886 73.4002 71.0745 73.0185 70.6753C72.6368 70.2762 72.6509 69.6432 73.0501 69.2615L76.9396 65.5421L73.0631 61.9652C72.6572 61.5906 72.6318 60.958 73.0063 60.5521Z" fill="#616B6B"/>
<path fill-rule="evenodd" clip-rule="evenodd" d="M38.8768 2.51562C21.7242 2.51562 7.80811 16.5141 7.80811 33.7959C7.80811 34.3481 7.36039 34.7959 6.80811 34.7959C6.25582 34.7959 5.80811 34.3481 5.80811 33.7959C5.80811 15.4219 20.6073 0.515625 38.8768 0.515625C57.1463 0.515625 71.9454 15.4219 71.9454 33.7959C71.9454 52.1921 57.1239 66.529 38.8768 66.529C38.3245 66.529 37.8768 66.0813 37.8768 65.529C37.8768 64.9767 38.3245 64.529 38.8768 64.529C56.0517 64.529 69.9454 51.0554 69.9454 33.7959C69.9454 16.5141 56.0293 2.51562 38.8768 2.51562Z" fill="#616B6B"/>
<path fill-rule="evenodd" clip-rule="evenodd" d="M12.3397 29.1385C12.7 29.5576 12.653 30.1891 12.2346 30.549L7.57742 34.5546C7.05679 35.0023 6.26471 34.9119 5.85681 34.3581L2.14535 29.3192C1.81756 28.8742 1.91206 28.2482 2.35641 27.9209C2.80077 27.5937 3.42672 27.6892 3.75452 28.1342L6.94166 32.4613L10.9296 29.0313C11.348 28.6714 11.9793 28.7194 12.3397 29.1385Z" fill="#616B6B"/>
</svg>
