<svg width="180" height="180" viewBox="0 0 180 180" fill="none" xmlns="http://www.w3.org/2000/svg">
<circle cx="90" cy="90" r="90" fill="#149CB8"/>
<g clip-path="url(#clip0_100_924)">
<path d="M102.343 135.921C102.019 135.921 101.708 135.792 101.479 135.563C101.25 135.334 101.122 135.023 101.122 134.7V121.115C101.122 119.74 100.576 118.422 99.604 117.449C98.6322 116.476 97.314 115.929 95.939 115.928H84.0595C82.6846 115.929 81.3664 116.476 80.3946 117.449C79.4228 118.422 78.8769 119.74 78.8769 121.115V134.695C78.8769 135.019 78.7482 135.329 78.5192 135.558C78.2902 135.787 77.9796 135.916 77.6557 135.916C77.3319 135.916 77.0213 135.787 76.7922 135.558C76.5632 135.329 76.4346 135.019 76.4346 134.695V121.115C76.4372 119.093 77.2412 117.155 78.6704 115.725C80.0997 114.295 82.0376 113.489 84.0595 113.485H95.939C97.9614 113.488 99.9 114.293 101.33 115.723C102.759 117.154 103.563 119.093 103.564 121.115V134.695C103.565 134.855 103.534 135.015 103.472 135.164C103.411 135.312 103.322 135.447 103.208 135.561C103.095 135.675 102.96 135.766 102.811 135.827C102.663 135.889 102.504 135.921 102.343 135.921V135.921Z" fill="white"/>
<path d="M89.8525 113.901C87.8496 113.901 85.8916 113.307 84.2263 112.194C82.561 111.081 81.2632 109.499 80.4969 107.649C79.7306 105.798 79.5304 103.762 79.9215 101.798C80.3126 99.8331 81.2775 98.0289 82.6941 96.6129C84.1107 95.197 85.9155 94.233 87.88 93.8428C89.8446 93.4527 91.8807 93.6539 93.7309 94.421C95.5811 95.1882 97.1622 96.4868 98.2743 98.1527C99.3863 99.8185 99.9794 101.777 99.9784 103.78C99.9758 106.464 98.908 109.038 97.0094 110.935C95.1109 112.833 92.5368 113.899 89.8525 113.901V113.901ZM89.8525 96.0961C88.3328 96.0961 86.8473 96.5467 85.5837 97.391C84.3202 98.2353 83.3353 99.4353 82.7538 100.839C82.1722 102.243 82.0201 103.788 82.3165 105.279C82.613 106.769 83.3448 108.138 84.4194 109.213C85.4939 110.287 86.863 111.019 88.3535 111.316C89.844 111.612 91.3889 111.46 92.7929 110.878C94.1969 110.297 95.3969 109.312 96.2412 108.048C97.0854 106.785 97.5361 105.299 97.5361 103.78C97.5322 101.744 96.7211 99.7928 95.2807 98.3543C93.8403 96.9157 91.8882 96.1071 89.8525 96.1058V96.0961Z" fill="white"/>
<path d="M130.864 103.057C130.54 103.057 130.229 102.928 130 102.699C129.771 102.47 129.642 102.159 129.642 101.836V93.5316C129.641 92.8156 129.356 92.1293 128.85 91.623C128.344 91.1167 127.657 90.8317 126.941 90.8304H119.668C118.952 90.8317 118.266 91.1167 117.759 91.623C117.253 92.1293 116.968 92.8156 116.967 93.5316V101.836C116.967 102.159 116.838 102.47 116.609 102.699C116.38 102.928 116.069 103.057 115.746 103.057C115.422 103.057 115.111 102.928 114.882 102.699C114.653 102.47 114.524 102.159 114.524 101.836V93.5316C114.526 92.1679 115.068 90.8603 116.032 89.896C116.997 88.9317 118.304 88.3894 119.668 88.3881H126.941C128.305 88.3894 129.613 88.9317 130.577 89.896C131.541 90.8603 132.084 92.1679 132.085 93.5316V101.836C132.085 102.159 131.956 102.47 131.727 102.699C131.498 102.928 131.188 103.057 130.864 103.057V103.057Z" fill="white"/>
<path d="M123.214 89.5702C121.893 89.5701 120.601 89.1779 119.502 88.4431C118.404 87.7083 117.548 86.664 117.043 85.4424C116.538 84.2209 116.408 82.8771 116.667 81.5811C116.927 80.2852 117.565 79.0954 118.502 78.1626C119.438 77.2297 120.63 76.5957 121.927 76.3408C123.224 76.0859 124.567 76.2217 125.787 76.7308C127.006 77.2399 128.048 78.0996 128.778 79.2009C129.509 80.3022 129.897 81.5956 129.892 82.9172C129.884 84.6835 129.177 86.3749 127.926 87.6216C126.675 88.8683 124.981 89.5689 123.214 89.5702V89.5702ZM123.214 78.6627C122.378 78.6627 121.56 78.9106 120.864 79.3751C120.168 79.8396 119.625 80.4998 119.304 81.2726C118.983 82.0453 118.898 82.8958 119.059 83.7167C119.221 84.5377 119.623 85.2924 120.213 85.8854C120.803 86.4784 121.556 86.8833 122.376 87.0489C123.197 87.2145 124.047 87.1335 124.822 86.8159C125.596 86.4984 126.259 85.9586 126.726 85.2647C127.194 84.5709 127.446 83.754 127.449 82.9172C127.451 82.3596 127.343 81.8071 127.131 81.2913C126.919 80.7755 126.608 80.3066 126.214 79.9114C125.821 79.5162 125.354 79.2025 124.839 78.9882C124.324 78.774 123.772 78.6633 123.214 78.6627Z" fill="white"/>
<path d="M64.1439 103.057C63.82 103.057 63.5094 102.928 63.2804 102.699C63.0514 102.47 62.9227 102.159 62.9227 101.836V93.5316C62.9214 92.8148 62.6358 92.1277 62.1284 91.6213C61.6211 91.1148 60.9335 90.8304 60.2166 90.8304H52.9434C52.2273 90.8265 51.539 91.1065 51.029 91.6092C50.519 92.1118 50.2291 92.7961 50.2226 93.5121V101.816C50.2226 102.14 50.0939 102.45 49.8649 102.68C49.6359 102.909 49.3253 103.037 49.0014 103.037C48.6776 103.037 48.367 102.909 48.1379 102.68C47.9089 102.45 47.7803 102.14 47.7803 101.816V93.5121C47.7809 92.8352 47.915 92.165 48.175 91.54C48.4349 90.9149 48.8156 90.3473 49.2951 89.8695C49.7747 89.3918 50.3438 89.0133 50.9698 88.7557C51.5958 88.4982 52.2664 88.3666 52.9434 88.3685H60.2166C61.5808 88.3698 62.8889 88.912 63.854 89.8762C64.8191 90.8403 65.3625 92.1479 65.3651 93.5121V101.816C65.3677 101.978 65.338 102.139 65.2778 102.289C65.2176 102.44 65.128 102.577 65.0144 102.692C64.9007 102.808 64.7652 102.899 64.6158 102.962C64.4663 103.025 64.3059 103.057 64.1439 103.057V103.057Z" fill="white"/>
<path d="M56.4947 89.5702C55.1728 89.5711 53.8803 89.1797 52.7811 88.4455C51.6818 87.7113 50.8253 86.6673 50.3198 85.4458C49.8144 84.2244 49.6829 82.8804 49.942 81.5841C50.2011 80.2879 50.8391 79.0977 51.7752 78.1643C52.7113 77.231 53.9033 76.5964 55.2004 76.3412C56.4974 76.0859 57.841 76.2213 59.0609 76.7303C60.2809 77.2393 61.3224 78.099 62.0534 79.2004C62.7843 80.3018 63.172 81.5953 63.1671 82.9172C63.1594 84.6827 62.4533 86.3734 61.2031 87.6199C59.9529 88.8665 58.2602 89.5676 56.4947 89.5702V89.5702ZM56.4947 78.6627C55.6577 78.6617 54.8392 78.9088 54.1426 79.3727C53.4459 79.8366 52.9023 80.4965 52.5805 81.2692C52.2586 82.0418 52.1729 82.8925 52.3342 83.7137C52.4955 84.535 52.8965 85.2901 53.4866 85.8837C54.0768 86.4772 54.8295 86.8826 55.6499 87.0486C56.4702 87.2146 57.3214 87.1338 58.0958 86.8164C58.8703 86.499 59.5333 85.9592 60.0013 85.2652C60.4692 84.5713 60.7209 83.7542 60.7248 82.9172C60.7267 82.36 60.6188 81.8079 60.4072 81.2925C60.1956 80.777 59.8845 80.3083 59.4916 79.9132C59.0987 79.518 58.6318 79.2042 58.1176 78.9896C57.6034 78.7751 57.0519 78.664 56.4947 78.6627V78.6627Z" fill="white"/>
<path d="M119.625 106.877C119.301 106.877 118.99 107.005 118.761 107.234C118.532 107.463 118.403 107.774 118.403 108.098C118.403 115.67 115.395 122.932 110.041 128.286C104.687 133.641 97.4248 136.649 89.8526 136.649C82.2804 136.649 75.0184 133.641 69.6641 128.286C64.3097 122.932 61.3017 115.67 61.3017 108.098C61.3017 107.774 61.173 107.463 60.944 107.234C60.715 107.005 60.4044 106.877 60.0805 106.877C59.7567 106.877 59.4461 107.005 59.217 107.234C58.988 107.463 58.8594 107.774 58.8594 108.098C58.8594 116.318 62.1247 124.201 67.9371 130.013C73.7494 135.826 81.6327 139.091 89.8526 139.091C98.0725 139.091 105.956 135.826 111.768 130.013C117.58 124.201 120.846 116.318 120.846 108.098C120.846 107.937 120.815 107.778 120.754 107.63C120.693 107.481 120.603 107.346 120.49 107.233C120.376 107.119 120.241 107.029 120.093 106.968C119.944 106.907 119.785 106.876 119.625 106.877V106.877Z" fill="#A3E8F5"/>
<path d="M123.214 66.0847C119.365 66.0847 115.603 67.2261 112.402 69.3647C109.202 71.5033 106.708 74.5429 105.235 78.0991C103.762 81.6553 103.377 85.5684 104.128 89.3435C104.879 93.1186 106.733 96.5862 109.455 99.3076C112.178 102.029 115.646 103.882 119.421 104.632C123.196 105.383 127.109 104.997 130.665 103.523C134.221 102.049 137.26 99.5542 139.398 96.3533C141.535 93.1524 142.676 89.3894 142.675 85.5403C142.668 80.3815 140.616 75.4359 136.968 71.7885C133.319 68.1411 128.373 66.0898 123.214 66.0847V66.0847ZM123.214 102.558C119.849 102.558 116.558 101.56 113.76 99.6904C110.961 97.8204 108.78 95.1625 107.492 92.0529C106.204 88.9432 105.867 85.5214 106.523 82.2202C107.18 78.919 108.801 75.8867 111.181 73.5066C113.561 71.1266 116.593 69.5058 119.894 68.8491C123.196 68.1925 126.617 68.5295 129.727 69.8176C132.837 71.1056 135.495 73.2869 137.365 76.0855C139.235 78.8841 140.233 82.1744 140.233 85.5403C140.227 90.0522 138.433 94.3778 135.242 97.5683C132.052 100.759 127.726 102.553 123.214 102.558V102.558Z" fill="white"/>
<path d="M75.9503 85.5403C75.9503 81.6912 74.8089 77.9285 72.6703 74.7281C70.5317 71.5277 67.4921 69.0334 63.9359 67.5607C60.3797 66.0879 56.4666 65.7028 52.6915 66.4541C48.9164 67.2054 45.4488 69.0593 42.7274 71.7814C40.006 74.5035 38.153 77.9714 37.4026 81.7467C36.6523 85.522 37.0384 89.435 38.5121 92.9909C39.9857 96.5468 42.4808 99.5857 45.6817 101.723C48.8826 103.861 52.6456 105.002 56.4947 105.001C61.6535 104.994 66.5991 102.942 70.2465 99.2935C73.8939 95.6452 75.9452 90.6991 75.9503 85.5403V85.5403ZM56.4947 102.558C53.1286 102.559 49.8378 101.562 47.0386 99.6928C44.2393 97.8234 42.0573 95.1658 40.7685 92.0563C39.4797 88.9467 39.1419 85.5247 39.798 82.2232C40.4541 78.9217 42.0746 75.8889 44.4544 73.5084C46.8343 71.1278 49.8666 69.5065 53.1679 68.8495C56.4693 68.1924 59.8913 68.5292 63.0013 69.8171C66.1112 71.105 68.7694 73.2863 70.6396 76.085C72.5098 78.8837 73.508 82.1742 73.508 85.5403C73.5028 90.0514 71.7089 94.3763 68.5195 97.5665C65.3302 100.757 61.0058 102.552 56.4947 102.558V102.558Z" fill="white"/>
<path d="M73.8504 63.4763L77.0596 64.3018L75.3744 67.1544C75.0621 67.6869 74.9348 68.3078 75.0126 68.9202C75.0903 69.5326 75.3687 70.102 75.8043 70.5395L78.315 73.0502C78.7528 73.4869 79.3231 73.766 79.9366 73.8438C80.5501 73.9216 81.172 73.7936 81.705 73.4801L84.5527 71.7997L85.3929 75.0041C85.5468 75.6023 85.8952 76.1323 86.3833 76.5108C86.8714 76.8893 87.4715 77.0947 88.0892 77.0947H91.6404C92.258 77.0947 92.8582 76.8893 93.3463 76.5108C93.8344 76.1323 94.1828 75.6023 94.3367 75.0041L95.1671 71.7997L98.0197 73.4801C98.551 73.7937 99.1715 73.9217 99.7834 73.8439C100.395 73.766 100.964 73.4868 101.4 73.0502L103.916 70.5395C104.351 70.102 104.629 69.5326 104.707 68.9202C104.785 68.3078 104.658 67.6869 104.345 67.1544L102.66 64.3018L105.869 63.4763C106.467 63.3213 106.997 62.9717 107.375 62.4827C107.752 61.9936 107.956 61.3929 107.955 60.775V57.2239C107.956 56.6067 107.752 56.0066 107.374 55.5184C106.997 55.0302 106.467 54.6816 105.869 54.5275V54.5275L102.66 53.702L104.345 50.8494C104.659 50.3174 104.788 49.6961 104.71 49.0833C104.632 48.4705 104.353 47.9009 103.916 47.4643L101.4 44.9536C100.963 44.5166 100.394 44.2372 99.781 44.1593C99.1681 44.0815 98.5468 44.2097 98.0149 44.5237L95.1622 46.2041L94.3318 42.9997C94.1777 42.4007 93.8286 41.8701 93.3395 41.4915C92.8503 41.113 92.2491 40.908 91.6306 40.9091H88.0794C87.4639 40.9129 86.8668 41.12 86.381 41.498C85.8952 41.8761 85.5478 42.404 85.3929 42.9997L84.5674 46.2041L81.7001 44.5237C81.1681 44.2097 80.5468 44.0815 79.934 44.1593C79.3211 44.2372 78.7516 44.5166 78.315 44.9536L75.8092 47.4643C75.3706 47.8999 75.0898 48.4692 75.011 49.0823C74.9323 49.6953 75.0602 50.3171 75.3744 50.8494L77.0596 53.702L73.8504 54.5275C73.2522 54.6814 72.7222 55.0298 72.3437 55.518C71.9652 56.0061 71.7598 56.6062 71.7598 57.2239V60.775C71.7587 61.3935 71.9636 61.9948 72.3422 62.4839C72.7208 62.973 73.2514 63.3222 73.8504 63.4763V63.4763ZM74.2021 57.2239C74.2028 57.1478 74.2286 57.074 74.2754 57.014C74.3221 56.954 74.3874 56.911 74.461 56.8917L79.2382 55.6608C79.422 55.6145 79.5924 55.5258 79.7359 55.4019C79.8794 55.278 79.9919 55.1223 80.0645 54.9472C80.1371 54.7721 80.1678 54.5825 80.1541 54.3934C80.1404 54.2044 80.0826 54.0211 79.9856 53.8583L77.4797 49.6087C77.441 49.5426 77.4253 49.4655 77.435 49.3895C77.4447 49.3135 77.4794 49.2429 77.5335 49.1886L80.0442 46.6779C80.0984 46.6238 80.1691 46.5892 80.2451 46.5795C80.321 46.5697 80.3981 46.5855 80.4643 46.6242L84.709 49.1349C84.8726 49.2298 85.0559 49.2858 85.2447 49.2985C85.4334 49.3111 85.6226 49.2801 85.7974 49.2078C85.9722 49.1355 86.128 49.0239 86.2527 48.8817C86.3774 48.7394 86.4676 48.5703 86.5164 48.3875L87.7473 43.6103C87.7666 43.5367 87.8095 43.4715 87.8696 43.4247C87.9296 43.3779 88.0033 43.3522 88.0794 43.3514H91.6306C91.7067 43.3522 91.7804 43.3779 91.8405 43.4247C91.9005 43.4715 91.9435 43.5367 91.9628 43.6103L93.2083 48.3875C93.2541 48.57 93.3414 48.7395 93.4634 48.8826C93.5854 49.0258 93.7388 49.1389 93.9117 49.213C94.0863 49.2873 94.2759 49.3194 94.4651 49.3066C94.6544 49.2939 94.838 49.2367 95.001 49.1398L99.2458 46.629C99.3124 46.5919 99.3891 46.5771 99.4647 46.5868C99.5403 46.5965 99.6108 46.6301 99.6659 46.6828L102.177 49.213C102.231 49.266 102.266 49.3359 102.276 49.4113C102.285 49.4866 102.269 49.5631 102.23 49.6282L99.7245 53.8779C99.6274 54.0407 99.5697 54.2239 99.556 54.413C99.5423 54.602 99.5729 54.7917 99.6456 54.9668C99.7182 55.1419 99.8307 55.2976 99.9741 55.4215C100.118 55.5454 100.288 55.634 100.472 55.6803L105.249 56.9113C105.322 56.9307 105.387 56.9739 105.433 57.034C105.479 57.0941 105.503 57.1678 105.503 57.2434V60.7946C105.505 60.8711 105.48 60.9459 105.434 61.007C105.388 61.0681 105.323 61.112 105.249 61.1316L100.472 62.3626C100.288 62.4086 100.118 62.4971 99.9743 62.621C99.8309 62.7448 99.7186 62.9006 99.6463 63.0757C99.5743 63.251 99.5439 63.4405 99.5574 63.6295C99.571 63.8185 99.6282 64.0018 99.7245 64.165L102.23 68.4147C102.269 68.48 102.284 68.5563 102.274 68.6314C102.265 68.7066 102.23 68.7764 102.177 68.8299L99.6659 71.3455C99.6108 71.3981 99.5403 71.4318 99.4647 71.4414C99.3891 71.4511 99.3124 71.4363 99.2458 71.3992L95.001 68.8885C94.8378 68.7914 94.6543 68.7338 94.4649 68.7201C94.2756 68.7064 94.0857 68.737 93.9102 68.8096C93.7348 68.8821 93.5787 68.9946 93.4543 69.138C93.3299 69.2814 93.2407 69.4519 93.1937 69.6358L91.9628 74.413C91.9435 74.4866 91.9005 74.5519 91.8405 74.5987C91.7804 74.6454 91.7067 74.6712 91.6306 74.6719H88.0794C88.0033 74.6712 87.9296 74.6454 87.8696 74.5987C87.8095 74.5519 87.7666 74.4866 87.7473 74.413L86.5164 69.6358C86.4688 69.452 86.3791 69.2818 86.2545 69.1385C86.1299 68.9953 85.9737 68.8829 85.7983 68.8103C85.643 68.748 85.4771 68.7165 85.3098 68.7175C85.0899 68.7174 84.8739 68.7764 84.6846 68.8885L80.4398 71.3943C80.3742 71.4336 80.2975 71.4502 80.2215 71.4413C80.1455 71.4325 80.0746 71.3988 80.0197 71.3455L77.509 68.8299C77.4553 68.7764 77.4209 68.7066 77.4112 68.6314C77.4015 68.5563 77.417 68.48 77.4553 68.4147L79.9611 64.165C80.0574 64.0018 80.1146 63.8185 80.1282 63.6295C80.1417 63.4405 80.1113 63.251 80.0393 63.0757C79.967 62.9006 79.8547 62.7448 79.7113 62.621C79.568 62.4971 79.3976 62.4086 79.2138 62.3626L74.4366 61.1316C74.3621 61.1121 74.2963 61.0684 74.2495 61.0074C74.2026 60.9464 74.1773 60.8715 74.1777 60.7946L74.2021 57.2239Z" fill="#A3E8F5"/>
<path d="M89.8521 65.6646C88.5354 65.6636 87.2485 65.2725 86.1539 64.5407C85.0593 63.8089 84.2061 62.7691 83.702 61.5527C83.1979 60.3363 83.0655 58.9978 83.3215 57.7063C83.5776 56.4147 84.2106 55.2279 85.1406 54.2958C86.0707 53.3638 87.256 52.7282 88.547 52.4693C89.838 52.2104 91.1768 52.3398 92.3943 52.8413C93.6118 53.3427 94.6534 54.1936 95.3877 55.2866C96.1219 56.3796 96.5158 57.6657 96.5197 58.9824C96.521 59.859 96.3495 60.7273 96.015 61.5377C95.6806 62.348 95.1898 63.0845 94.5705 63.7051C93.9513 64.3257 93.2159 64.8181 92.4063 65.1543C91.5967 65.4906 90.7288 65.6639 89.8521 65.6646ZM89.8521 54.7815C89.0168 54.7825 88.2005 55.0314 87.5067 55.4966C86.8129 55.9618 86.2728 56.6224 85.9547 57.3948C85.6366 58.1672 85.5548 59.0166 85.7198 59.8355C85.8848 60.6543 86.2891 61.4058 86.8815 61.9948C87.4738 62.5837 88.2277 62.9836 89.0475 63.1439C89.8673 63.3041 90.7162 63.2175 91.4868 62.8949C92.2573 62.5723 92.9148 62.0283 93.3759 61.3319C93.8371 60.6354 94.0812 59.8177 94.0773 58.9824C94.0709 57.866 93.6229 56.7976 92.8312 56.0104C92.0395 55.2233 90.9685 54.7815 89.8521 54.7815Z" fill="white"/>
</g>
<defs>
<clipPath id="clip0_100_924">
<rect width="106.486" height="98.1818" fill="white" transform="translate(36.5459 40.9091)"/>
</clipPath>
</defs>
</svg>
