<svg width="71" height="71" viewBox="0 0 71 71" fill="none" xmlns="http://www.w3.org/2000/svg">
<path fill-rule="evenodd" clip-rule="evenodd" d="M12.4112 58.224C12.4112 57.6717 12.8589 57.224 13.4112 57.224H23.6067C24.159 57.224 24.6067 57.6717 24.6067 58.224C24.6067 58.7763 24.159 59.224 23.6067 59.224H13.4112C12.8589 59.224 12.4112 58.7763 12.4112 58.224ZM4.25259 58.224C4.25259 57.6717 4.70031 57.224 5.25259 57.224H10.8588C11.411 57.224 11.8588 57.6717 11.8588 58.224C11.8588 58.7763 11.411 59.224 10.8588 59.224H5.25259C4.70031 59.224 4.25259 58.7763 4.25259 58.224ZM2.81641 54.7166H26.116V61.8763H2.81641V54.7166ZM2.57004 52.7166C1.60153 52.7166 0.816406 53.5017 0.816406 54.4702V62.1227C0.816406 63.0912 1.60153 63.8763 2.57003 63.8763H26.3624C27.3309 63.8763 28.116 63.0912 28.116 62.1227V54.4702C28.116 53.5017 27.3309 52.7166 26.3624 52.7166H2.57004Z" fill="#616B6B"/>
<path fill-rule="evenodd" clip-rule="evenodd" d="M16.8423 6.26089C16.8423 2.8031 19.6454 0 23.1032 0H47.8804C51.1472 0 53.7955 2.64829 53.7955 5.91512H51.7955C51.7955 3.75286 50.0427 2 47.8804 2H23.1032C20.75 2 18.8423 3.90767 18.8423 6.26089V7.83237H40.1295V9.83237H18.8423V16.7889H16.8423V6.26089ZM51.7955 35.3675V15.2096H53.7955V35.3675H51.7955ZM16.8423 52.7656V44.7501H18.8423V52.7656H16.8423ZM51.7955 58.0936V46.552H53.7955V64.2075C53.7955 67.6653 50.9924 70.4684 47.5346 70.4684H23.1032C19.6454 70.4684 16.8423 67.6653 16.8423 64.2075V64.0092H18.8423V64.2075C18.8423 66.5607 20.75 68.4684 23.1032 68.4684H47.5346C49.8879 68.4684 51.7955 66.5607 51.7955 64.2075V60.0936H28.0284V58.0936H51.7955Z" fill="#616B6B"/>
<path fill-rule="evenodd" clip-rule="evenodd" d="M22.4246 43.5666C29.5674 43.5666 35.3297 37.828 35.3297 30.7836C35.3297 23.7391 29.5674 18.0005 22.4246 18.0005C15.2818 18.0005 9.51953 23.7391 9.51953 30.7836C9.51953 37.828 15.2818 43.5666 22.4246 43.5666ZM22.4246 45.5666C30.6565 45.5666 37.3297 38.948 37.3297 30.7836C37.3297 22.6191 30.6565 16.0005 22.4246 16.0005C14.1928 16.0005 7.51953 22.6191 7.51953 30.7836C7.51953 38.948 14.1928 45.5666 22.4246 45.5666Z" fill="#149CB8"/>
<path fill-rule="evenodd" clip-rule="evenodd" d="M22.51 32.1964C24.5187 32.1964 26.1161 30.5875 26.1161 28.6407C26.1161 26.6939 24.5187 25.085 22.51 25.085C20.5013 25.085 18.9038 26.6939 18.9038 28.6407C18.9038 30.5875 20.5013 32.1964 22.51 32.1964ZM22.51 34.1964C25.6062 34.1964 28.1161 31.709 28.1161 28.6407C28.1161 25.5723 25.6062 23.085 22.51 23.085C19.4138 23.085 16.9038 25.5723 16.9038 28.6407C16.9038 31.709 19.4138 34.1964 22.51 34.1964Z" fill="#149CB8"/>
<path fill-rule="evenodd" clip-rule="evenodd" d="M19.007 35.0737C17.5101 36.1956 16.5762 37.9266 16.5762 39.4686C16.5762 39.4871 16.5762 39.5058 16.5762 39.5246C16.5761 40.0947 16.5761 40.8149 16.6317 41.4912C16.6543 41.7663 16.6841 42.0057 16.7199 42.2031C18.4307 43.0297 20.1516 43.5579 22.4482 43.5579C24.8474 43.5579 26.8377 42.9559 28.2923 42.1473C28.3345 41.9477 28.3714 41.699 28.4007 41.4108C28.4681 40.7481 28.4807 40.03 28.4807 39.5158C28.4807 37.9701 27.538 36.2335 26.0056 35.0858C23.9056 36.178 21.2443 36.2262 19.007 35.0737ZM19.0246 32.7166C16.4255 34.0307 14.5762 36.7722 14.5762 39.4686C14.5762 39.4931 14.5762 39.5182 14.5762 39.5438C14.5759 40.686 14.5754 42.8083 15.1123 43.6317C17.2441 44.7501 19.4283 45.5579 22.4482 45.5579C25.5261 45.5579 28.0912 44.688 29.9095 43.5074C30.4305 42.7076 30.4807 40.5861 30.4807 39.5158C30.4807 36.7994 28.6039 34.0629 25.9745 32.7166C24.1554 34.2499 21.1452 34.3949 19.0246 32.7166Z" fill="#149CB8"/>
<path fill-rule="evenodd" clip-rule="evenodd" d="M50.2904 11.2901C50.2904 10.7379 50.7381 10.2901 51.2904 10.2901H62.7773C63.3296 10.2901 63.7773 10.7379 63.7773 11.2901C63.7773 11.8424 63.3296 12.2901 62.7773 12.2901H51.2904C50.7381 12.2901 50.2904 11.8424 50.2904 11.2901ZM43.5573 11.2901C43.5573 10.7379 44.005 10.2901 44.5573 10.2901H48.9691C49.5214 10.2901 49.9691 10.7379 49.9691 11.2901C49.9691 11.8424 49.5214 12.2901 48.9691 12.2901H44.5573C44.005 12.2901 43.5573 11.8424 43.5573 11.2901ZM42.1089 7.78271V14.0829H65.3354V7.78271H42.1089ZM41.8625 5.78271C40.894 5.78271 40.1089 6.56784 40.1089 7.53635V14.3292C40.1089 15.2977 40.894 16.0829 41.8625 16.0829H65.5817C66.5502 16.0829 67.3354 15.2977 67.3354 14.3292V7.53634C67.3354 6.56784 66.5502 5.78271 65.5817 5.78271H41.8625Z" fill="#616B6B"/>
<path fill-rule="evenodd" clip-rule="evenodd" d="M35.1355 63.2291C34.7884 63.2291 34.4761 63.5127 34.4761 63.9006C34.4761 64.2884 34.7884 64.572 35.1355 64.572C35.4826 64.572 35.7949 64.2884 35.7949 63.9006C35.7949 63.5127 35.4826 63.2291 35.1355 63.2291ZM35.1355 65.2291C35.8759 65.2291 36.4761 64.6343 36.4761 63.9006C36.4761 63.1668 35.8759 62.572 35.1355 62.572C34.3951 62.572 33.7949 63.1668 33.7949 63.9006C33.7949 64.6343 34.3951 65.2291 35.1355 65.2291Z" fill="#616B6B"/>
<path fill-rule="evenodd" clip-rule="evenodd" d="M44.2822 41.8769L63.9152 23.8133C64.2152 23.5373 64.6237 23.3899 65.0457 23.427C66.3689 23.5434 67.4359 23.8493 68.2961 24.554C69.1406 25.2457 69.6606 26.222 70.1135 27.3885C70.3173 27.9134 70.2021 28.4988 69.8387 28.9082L51.8394 49.1849L44.2822 41.8769ZM51.7293 46.2963L68.1313 27.8189C67.7619 26.9304 67.4242 26.4251 67.0288 26.1012C66.6368 25.7801 66.0818 25.5521 65.0988 25.4421L47.1967 41.9131L51.7293 46.2963Z" fill="#149CB8"/>
<path fill-rule="evenodd" clip-rule="evenodd" d="M40.3647 42.3406C41.8975 41.3341 43.8767 40.8331 45.7755 40.9013L46.1613 40.9151L52.8012 47.3887L52.7556 47.8655C52.5779 49.7271 52.1357 51.2646 51.337 52.4886C50.5265 53.7307 49.3974 54.5754 47.9851 55.123C45.2558 56.1811 41.3566 56.1587 36.3333 55.8558C35.3642 55.7974 34.8802 54.6408 35.5322 53.9113C37.1319 52.1213 37.6588 50.0156 37.6588 46.9986C37.6588 44.942 38.8195 43.3551 40.3647 42.3406ZM41.4624 44.0124C40.3242 44.7597 39.6588 45.7833 39.6588 46.9986C39.6588 49.6653 39.275 51.9419 38.0079 53.9445C42.2731 54.1507 45.2461 54.0398 47.2622 53.2582C48.3407 52.8401 49.1113 52.2397 49.6621 51.3956C50.1703 50.6167 50.5301 49.5705 50.7124 48.1455L45.3279 42.8958C43.9214 42.9148 42.5187 43.3188 41.4624 44.0124Z" fill="#149CB8"/>
</svg>
