<svg width="71" height="71" viewBox="0 0 71 71" fill="none" xmlns="http://www.w3.org/2000/svg">
<path fill-rule="evenodd" clip-rule="evenodd" d="M10.2024 5.45578C10.022 4.30003 10.9157 3.25598 12.0854 3.25598H25.8367C27.0037 3.25598 27.8966 4.29523 27.7208 5.44883L27.3737 7.7269H37.1571C38.5442 7.7269 39.4666 9.16134 38.8912 10.4234L35.7491 17.3143L40.6215 23.3367C41.6297 24.5829 40.7428 26.4412 39.1399 26.4412H24.7176C23.5506 26.4412 22.6577 25.402 22.8335 24.2484L23.1806 21.9703H14.4122C13.4732 21.9703 12.6741 21.2863 12.5292 20.3585L10.2024 5.45578ZM23.4853 19.9703L25.7271 5.25598H12.1955L14.4928 19.9703H23.4853ZM27.069 9.7269L24.8272 24.4412H38.9426L34.1576 18.527C33.7032 17.9653 33.6054 17.195 33.9051 16.5376L37.0106 9.7269H27.069Z" fill="#149CB8"/>
<path fill-rule="evenodd" clip-rule="evenodd" d="M7.59422 2.02483C6.74461 2.1761 5.77588 3.09577 6.04103 4.86428C6.37536 7.09427 7.62772 15.0157 8.7977 22.3869C9.38243 26.071 9.94621 29.6153 10.3638 32.2386L10.9186 35.7217H15.0045L14.5 32.5735C14.0804 29.9566 13.5118 26.4123 12.9152 22.7025C11.7216 15.2803 10.4176 7.20314 9.97199 4.55972C9.77846 3.41159 9.347 2.74743 8.92447 2.39558C8.50694 2.0479 8.03316 1.94668 7.59422 2.02483ZM16.1773 36.7217C17.1648 36.5636 17.1648 36.5635 17.1647 36.5633L16.4748 32.2569C16.0552 29.6398 15.4865 26.0951 14.8898 22.3849C13.6969 14.9671 12.3914 6.88017 11.9442 4.22728C11.6913 2.72725 11.0775 1.58586 10.2043 0.858667C9.32599 0.127311 8.25339 -0.123987 7.24364 0.0557992C5.19586 0.420404 3.65798 2.45842 4.06313 5.16082C4.39911 7.40174 5.65336 15.3349 6.82242 22.7005C7.40722 26.3849 7.97105 29.9295 8.38869 32.5531L9.07759 36.8779C9.07762 36.8781 9.07779 36.8791 10.0653 36.7217L9.07779 36.8791L9.21212 37.7217H17.3501L17.1647 36.5633L16.1773 36.7217Z" fill="#149CB8"/>
<path fill-rule="evenodd" clip-rule="evenodd" d="M19.2946 67.7444C19.5621 67.4822 19.734 67.1089 19.6672 66.5649C19.5097 65.2816 19.4183 64.4582 19.3655 63.9281L15.3671 63.9281C15.4487 64.4614 15.5634 65.2277 15.7248 66.3268C15.8368 67.0898 16.1739 67.565 16.5643 67.8529C16.971 68.1527 17.4947 68.2914 18.0182 68.2602C18.5464 68.2288 19.0038 68.0294 19.2946 67.7444ZM13.3436 63.9281C13.4245 64.4488 13.5504 65.2843 13.746 66.6168C13.9315 67.8806 14.5362 68.8421 15.3778 69.4626C16.2032 70.0712 17.202 70.3125 18.1376 70.2567C19.0685 70.2013 20.0069 69.847 20.6946 69.1731C21.4056 68.4763 21.7951 67.4854 21.6523 66.3217C21.4431 64.6173 21.3542 63.7533 21.3174 63.3204C21.3126 63.264 21.3088 63.2158 21.3058 63.1749L22.0094 61.928L14.3866 61.928C14.1204 61.8731 13.8554 61.9305 13.6446 62.0657C13.4612 62.1834 13.363 62.3304 13.3186 62.4073C13.2348 62.5523 13.2093 62.6834 13.2031 62.7153L13.2028 62.7167C13.1928 62.7676 13.1889 62.8088 13.1872 62.83C13.1838 62.8736 13.1839 62.9083 13.184 62.9221C13.1843 62.9536 13.1859 62.9793 13.1865 62.9883L13.1876 63.0044L13.1881 63.0101L13.1883 63.0124L13.1884 63.0135C13.1884 63.0137 13.1885 63.0144 14.1847 62.928L13.1884 63.0135L13.2679 63.9281L13.3436 63.9281Z" fill="#149CB8"/>
<path fill-rule="evenodd" clip-rule="evenodd" d="M66.9212 33.3491C68.7088 32.8646 70.4683 34.2108 70.4683 36.0628V59.9469C70.4683 61.4997 69.2095 62.7585 67.6567 62.7585H41.8873C40.3345 62.7585 39.0757 61.4997 39.0757 59.9469V38.6705C39.0757 37.1177 40.3345 35.8589 41.8873 35.8589H57.6606L66.9212 33.3491ZM56.7937 37.8589H41.8873C41.4391 37.8589 41.0757 38.2223 41.0757 38.6705V59.9469C41.0757 60.3951 41.4391 60.7585 41.8873 60.7585H56.7937V37.8589ZM58.7937 60.7585H67.6567C68.105 60.7585 68.4683 60.3951 68.4683 59.9469V36.0628C68.4683 35.5282 67.9604 35.1396 67.4444 35.2795L58.7937 37.624V60.7585Z" fill="#616B6B"/>
<path fill-rule="evenodd" clip-rule="evenodd" d="M16.4397 31.8167L17.0359 35.7215H22.8385C23.3907 35.7215 23.8385 36.1693 23.8385 36.7215C23.8385 37.2738 23.3907 37.7215 22.8385 37.7215H5.19157C5.19115 37.7215 5.19057 37.7215 5.18983 37.7216L5.16835 37.722C5.14697 37.7226 5.11197 37.7238 5.06534 37.7264C4.97177 37.7317 4.83312 37.7425 4.66482 37.7646C4.32301 37.8095 3.88502 37.8976 3.46119 38.0646C3.03475 38.2327 2.67066 38.4616 2.41804 38.7602C2.181 39.0404 2 39.4295 2 40.0231C2 41.0432 2.72077 41.649 3.88479 42.0279C4.44065 42.2088 5.01071 42.3021 5.45144 42.3489C5.66926 42.3721 5.8495 42.3832 5.97281 42.3886C6.03433 42.3913 6.0813 42.3925 6.11126 42.3931L6.14302 42.3935L6.14777 42.3935C6.1477 42.3935 6.14764 42.3935 6.14761 42.4057L6.21768 44.3763C6.21877 44.3912 6.21886 44.3912 6.21895 44.3912L6.22065 44.3911L6.22167 44.391C6.22189 44.391 6.22056 44.391 6.21895 44.3912L6.19947 44.3929C6.17923 44.3949 6.1458 44.3983 6.1011 44.404C6.01141 44.4152 5.878 44.435 5.7158 44.468C5.38685 44.5349 4.96283 44.6515 4.55096 44.8471C3.73904 45.2327 3.09633 45.8444 3.09879 46.9681C3.09991 47.4804 3.29097 47.8092 3.59074 48.067C3.92529 48.3546 4.42369 48.5709 5.01697 48.7157C5.59883 48.8578 6.19586 48.913 6.65797 48.9308C6.88633 48.9396 7.0755 48.9391 7.20532 48.9365C7.2701 48.9352 7.31972 48.9333 7.35164 48.9319L7.38579 48.9303L7.39123 48.93C7.39118 48.93 7.39167 48.93 7.39202 48.936L7.64846 50.9019C7.64989 50.9088 7.64995 50.9088 7.65001 50.9088L7.64856 50.9091L7.62552 50.9141C7.60309 50.9191 7.56699 50.9274 7.51927 50.9394C7.42357 50.9633 7.28248 51.0015 7.11184 51.0563C6.76658 51.1672 6.3204 51.3395 5.88964 51.5865C4.9997 52.0967 4.41055 52.77 4.47029 53.7168C4.52208 54.5376 5.21178 55.0891 6.42485 55.4311C6.98494 55.589 7.55264 55.6671 7.98865 55.7046C8.20436 55.7232 8.38245 55.7314 8.50432 55.735C8.56513 55.7367 8.61161 55.7373 8.64139 55.7375L8.67313 55.7376L8.67838 55.7376L8.68263 55.7375L8.68786 55.7375L8.68989 55.7375C8.69028 55.7375 8.69153 55.7375 8.69153 56.7375C8.70521 57.7374 8.70489 57.7374 8.70456 57.7374L8.70192 57.7374L8.69678 57.7375L8.69367 57.7375L8.6922 57.7375M8.69071 57.7375L8.68107 57.7376C8.66821 57.7376 8.65063 57.7376 8.62864 57.7375C8.58466 57.7372 8.52292 57.7363 8.44588 57.7341C8.29201 57.7296 8.07578 57.7195 7.8171 57.6973C7.30433 57.6531 6.60303 57.5593 5.88218 57.356C5.55972 57.2651 5.20463 57.143 4.84904 56.9796C4.70351 57.1007 4.5639 57.2346 4.43353 57.3828C3.88447 58.007 3.54739 58.8315 3.57134 59.8561C3.59351 60.8044 3.85081 61.5779 4.27141 62.1891C4.68778 62.7941 5.22648 63.1857 5.73366 63.4371C6.23718 63.6866 6.7265 63.8068 7.08244 63.866C7.26265 63.896 7.41486 63.9114 7.52599 63.9194C7.58171 63.9234 7.62759 63.9255 7.66202 63.9267C7.67925 63.9272 7.69366 63.9276 7.70506 63.9278L7.71989 63.9279L7.72557 63.928L7.72907 63.928C7.72958 63.928 7.73008 63.928 7.73009 62.928L7.73017 63.928H20.5035C21.6896 63.928 22.7105 63.9641 23.6231 63.9965C23.7247 64.0001 23.8249 64.0036 23.9239 64.0071C24.8998 64.041 25.7796 64.0664 26.5732 64.0182C28.2348 63.9173 29.568 63.4883 30.9363 62.2158C32.057 61.1735 33.116 60.3935 34.4442 59.935C35.7715 59.477 37.4577 59.31 39.8659 59.6534L41.0071 59.8162V38.7923L39.8023 39.0443C37.7282 39.4783 36.3487 39.3826 35.147 38.6931C33.8898 37.9718 32.654 36.5062 31.1296 33.76L31.1026 33.7113L31.0703 33.6659C29.6913 31.7261 27.9088 30.639 25.3519 30.1189C22.8685 29.6138 19.6125 29.6352 15.2293 29.8765L14.1295 29.937L15.0127 35.7215H5.18913V36.7215C5.18913 35.7215 5.18955 35.7215 5.18913 35.7215L5.1874 35.7215L5.18527 35.7215L5.17984 35.7216L5.16441 35.7217C5.15211 35.7219 5.13583 35.7222 5.11583 35.7227C5.07585 35.7237 5.02084 35.7257 4.95293 35.7296C4.8174 35.7372 4.62878 35.7522 4.40435 35.7816C3.96069 35.8399 3.3514 35.9582 2.72794 36.2039C2.1071 36.4485 1.4239 36.8387 0.891063 37.4686C0.342637 38.1169 -1.19209e-07 38.9659 0 40.0231C2.98023e-07 42.054 1.36431 43.1371 2.64306 43.694C1.7984 44.3745 1.09539 45.4187 1.09879 46.9724C1.10128 48.1109 1.5816 48.9772 2.28687 49.5835C2.79021 50.0163 3.38925 50.3027 3.97182 50.4956C3.11609 51.2233 2.37741 52.3078 2.47426 53.8428C2.58016 55.5212 3.71717 56.4594 4.84904 56.9796M8.69071 57.7375L8.66907 57.7379C8.6471 57.7385 8.61149 57.7396 8.56423 57.7421C8.46942 57.7471 8.32947 57.7574 8.16 57.7783C7.81566 57.8208 7.37601 57.9041 6.95309 58.0615C6.52531 58.2208 6.17192 58.4347 5.93519 58.7038C5.71846 58.9502 5.55857 59.2863 5.57079 59.8094C5.5848 60.4087 5.74046 60.7959 5.91896 61.0553C6.10169 61.3208 6.34823 61.5095 6.62175 61.6451C6.89895 61.7824 7.18582 61.8557 7.41089 61.8932C7.52118 61.9116 7.61069 61.9203 7.66864 61.9245C7.69746 61.9265 7.71797 61.9274 7.72879 61.9278L7.73548 61.928H7.73313H7.73422H7.73548H7.73691H20.5035C21.7269 61.928 22.7819 61.9654 23.6931 61.9977C23.795 62.0013 23.8951 62.0048 23.9935 62.0083C24.9834 62.0427 25.769 62.0634 26.4519 62.0219C27.7433 61.9435 28.6076 61.6503 29.5743 60.7513C30.7885 59.622 32.087 58.6328 33.7917 58.0445C35.2419 57.544 36.9209 57.3553 39.0071 57.5405V58.6634H40.0071L40.1482 57.6734C39.7546 57.6173 39.3745 57.5731 39.0071 57.5405V41.2097C39.3984 41.1584 39.7996 41.0882 40.2118 41.002L40.0071 40.0231H39.0071V41.2097C37.2196 41.4436 35.6375 41.2803 34.1518 40.4279C32.4069 39.4269 30.9581 37.563 29.4089 34.781C29.4194 34.7955 29.4298 34.8101 29.4402 34.8248L30.2553 34.2453L29.381 34.7307C29.3903 34.7475 29.3996 34.7643 29.4089 34.781C28.3664 33.3344 27.0588 32.5071 24.9533 32.0788C22.9416 31.6696 20.2477 31.6347 16.4397 31.8167M8.69153 56.7375L8.70456 57.7374L8.69153 55.7375V56.7375ZM6.14883 42.3935C6.14908 42.3935 6.14812 42.3935 6.14777 42.3935Z" fill="#616B6B"/>
</svg>
