<?xml version="1.0" encoding="utf-8"?>
<!-- Generator: Adobe Illustrator 26.1.0, SVG Export Plug-In . SVG Version: 6.00 Build 0)  -->
<svg version="1.1" id="Layer_1" xmlns="http://www.w3.org/2000/svg" xmlns:xlink="http://www.w3.org/1999/xlink" x="0px" y="0px"
	 viewBox="0 0 24 24" style="enable-background:new 0 0 24 24;" xml:space="preserve">
<g>
	<polygon points="19,15.1 19,9.4 14.3,12.2 	"/>
	<path d="M12,13.6l-1.3-0.8L5,16.3C5.2,16.7,5.5,17,6,17h12c0.5,0,0.8-0.3,1-0.7l-5.6-3.5L12,13.6z"/>
	<polygon points="5,9.4 5,15.1 9.7,12.2 	"/>
	<path d="M12,0C5.4,0,0,5.4,0,12c0,6.6,5.4,12,12,12s12-5.4,12-12C24,5.4,18.6,0,12,0z M20,16c0,1.1-0.9,2-2,2H6c-1.1,0-2-0.9-2-2V8
		c0-1.1,0.9-2,2-2h12c1.1,0,2,0.9,2,2V16z"/>
	<path d="M18,7H6C5.4,7,5,7.4,5,8v0.2l7,4.2l7-4.2V8C19,7.4,18.6,7,18,7z"/>
</g>
</svg>
