<svg width="75" height="77" viewBox="0 0 75 77" fill="none" xmlns="http://www.w3.org/2000/svg">
<path fill-rule="evenodd" clip-rule="evenodd" d="M33.8848 22.075C33.9651 21.0862 34.791 20.3246 35.783 20.3246H38.7361C39.6701 20.3246 40.4663 21.002 40.6159 21.9239L40.985 24.1982L43.0879 25.1407L44.7344 23.6881C45.4727 23.0368 46.5857 23.0555 47.3016 23.7314L49.5001 25.8068C50.2164 26.4831 50.2988 27.594 49.6901 28.3685L48.2929 30.1461L49.0022 32.2444L51.7727 32.5741C52.7306 32.6881 53.452 33.5004 53.452 34.4651V37.7736C53.452 38.7436 52.7229 39.5586 51.7589 39.6663L49.2848 39.9424L48.3516 41.9207L49.6326 43.4282C50.2782 44.1881 50.2284 45.3173 49.5184 46.0174L47.2855 48.2191C46.6017 48.8934 45.5229 48.953 44.7689 48.3583L42.9981 46.9614L41.022 47.9356L40.8012 50.0691C40.7008 51.0398 39.8828 51.7774 38.9069 51.7774H35.7816C34.7908 51.7774 33.9655 51.0176 33.8837 50.0302L33.7117 47.953L31.4681 46.943L29.6243 48.362C28.8503 48.9577 27.7511 48.8712 27.0798 48.162L25.1203 46.0919C24.4894 45.4254 24.4236 44.4037 24.9638 43.6618L26.2522 41.8924L25.6518 39.9343L23.1372 39.6638C22.1699 39.5598 21.4365 38.7433 21.4365 37.7703V34.7509C21.4365 33.7857 22.1586 32.9731 23.1172 32.8597L25.3433 32.5963L26.2062 30.422L24.8033 28.7362C24.1703 27.9755 24.2254 26.8568 24.93 26.162L27.0951 24.0272C27.7804 23.3515 28.8622 23.2933 29.616 23.8915L31.4584 25.3536L33.7088 24.2442L33.8848 22.075ZM35.8712 22.3246L35.6979 24.4599C35.6437 25.1277 35.2427 25.7178 34.6418 26.014L32.2885 27.1743C31.6281 27.4998 30.8392 27.4156 30.2625 26.9579L28.4391 25.5108L26.3968 27.5244L27.7798 29.1864C28.2258 29.7223 28.3432 30.459 28.0861 31.107L27.1812 33.3871C26.9232 34.0372 26.3295 34.4936 25.6349 34.5758L23.4365 34.8359V37.6845L25.9284 37.9525C26.6859 38.034 27.322 38.5592 27.5454 39.2877L28.1783 41.3518C28.3539 41.9247 28.2498 42.5467 27.8971 43.0311L26.6274 44.7748L28.4729 46.7244L30.2937 45.3231C30.85 44.895 31.5968 44.8077 32.2369 45.0958L34.5841 46.1523C35.2157 46.4367 35.6431 47.0415 35.7003 47.7318L35.8696 49.7774H38.8207L39.0381 47.6772C39.1055 47.0258 39.5029 46.4547 40.0902 46.1651L42.1678 45.1409C42.8264 44.8162 43.6129 44.8991 44.1893 45.3538L45.9413 46.7358L48.051 44.6556L46.7876 43.1688C46.3036 42.5993 46.1976 41.7992 46.5165 41.1232L47.4988 39.0409C47.7808 38.4429 48.3528 38.034 49.0099 37.9607L51.452 37.6881V34.55L48.7059 34.2233C47.9766 34.1365 47.3621 33.6379 47.1269 32.9421L46.3816 30.7376C46.1757 30.1284 46.2911 29.4564 46.6885 28.9508L48.0637 27.2012L45.9921 25.2456L44.3649 26.6812C43.8048 27.1753 43.0076 27.2964 42.3261 26.9909L40.12 26.0022C39.5354 25.7402 39.1217 25.2018 39.019 24.5694L38.6548 22.3246H35.8712Z" fill="#149CB8"/>
<path fill-rule="evenodd" clip-rule="evenodd" d="M37.3359 40.9328C40.0527 40.9328 42.2069 38.7685 42.2069 36.1579C42.2069 33.5473 40.0527 31.3831 37.3359 31.3831C34.619 31.3831 32.4648 33.5473 32.4648 36.1579C32.4648 38.7685 34.619 40.9328 37.3359 40.9328ZM37.3359 42.9328C41.1306 42.9328 44.2069 39.8996 44.2069 36.1579C44.2069 32.4163 41.1306 29.3831 37.3359 29.3831C33.5411 29.3831 30.4648 32.4163 30.4648 36.1579C30.4648 39.8996 33.5411 42.9328 37.3359 42.9328Z" fill="#616B6B"/>
<path fill-rule="evenodd" clip-rule="evenodd" d="M27.5007 57.9801C27.5306 57.6794 27.5299 57.3979 27.5008 57.1308C27.4955 57.0825 27.4893 57.0347 27.4822 56.9873C27.2462 55.4174 26.0003 54.3375 24.1829 52.7623C23.4042 52.0874 22.5207 51.3216 21.5667 50.3873C12.8375 41.8388 12.7894 27.9316 21.4592 19.3245C30.129 10.7175 44.2336 10.67 52.9628 19.2185C61.692 27.767 61.7401 41.6743 53.0703 50.2813C52.0135 51.3305 51.0388 52.1286 50.1925 52.8215C48.4663 54.2348 47.2745 55.2106 47.0093 56.9885C46.9811 57.1774 46.9633 57.3754 46.9565 57.584C46.9524 57.7119 46.9523 57.8439 46.9565 57.9801L46.9569 66.639C46.9569 67.631 46.1413 68.4353 45.1352 68.4353L43.4129 68.4353C42.8343 75.2814 31.9853 75.2101 30.9728 68.4353L29.3223 68.4353C28.3164 68.4353 27.5011 67.6313 27.501 66.6395L27.5007 57.9801ZM44.9425 58.973L29.5148 58.973L29.5151 66.4494L32.7118 66.4494L32.9653 68.1455C33.2884 70.3076 35.1633 71.5506 37.362 71.5573C39.5426 71.564 41.228 70.3753 41.4058 68.2705L41.5598 66.4494L44.9428 66.4494L44.9425 58.973ZM44.9801 56.9872L29.511 56.9872C29.353 55.3377 28.4967 54.1043 27.4485 53.0348C26.8842 52.4591 26.2108 51.8756 25.5344 51.2895C25.4869 51.2483 25.4394 51.2072 25.3919 51.166C24.646 50.5193 23.8442 49.8187 22.986 48.9783C15.0459 41.2025 15.0023 28.5526 22.8881 20.7239C30.7739 12.8952 43.6033 12.8518 51.5435 20.6276C59.4836 28.4033 59.5272 41.0533 51.6414 48.882C50.811 49.7063 50.0299 50.3693 49.2977 50.9723C49.1758 51.0727 49.0525 51.1737 48.9286 51.275C48.339 51.7575 47.738 52.2493 47.228 52.7369C46.5874 53.3495 45.9705 54.063 45.5394 54.9701C45.24 55.6001 45.0562 56.268 44.9801 56.9872Z" fill="#616B6B"/>
<path fill-rule="evenodd" clip-rule="evenodd" d="M29.4663 67.6077C29.4663 67.0554 29.914 66.6077 30.4663 66.6077H43.919C44.4713 66.6077 44.919 67.0554 44.919 67.6077C44.919 68.16 44.4713 68.6077 43.919 68.6077H30.4663C29.914 68.6077 29.4663 68.16 29.4663 67.6077Z" fill="#616B6B"/>
<path fill-rule="evenodd" clip-rule="evenodd" d="M37.3368 0C37.8891 0 38.3368 0.447715 38.3368 1V8.27407C38.3368 8.82636 37.8891 9.27407 37.3368 9.27407C36.7846 9.27407 36.3368 8.82636 36.3368 8.27407V1C36.3368 0.447715 36.7846 0 37.3368 0ZM48.5584 5.84846C49.0709 6.05421 49.3196 6.63649 49.1138 7.14902L47.7396 10.5721C47.5339 11.0846 46.9516 11.3333 46.4391 11.1276C45.9265 10.9218 45.6779 10.3395 45.8836 9.82701L47.2578 6.40392C47.4636 5.89139 48.0458 5.6427 48.5584 5.84846ZM26.0986 5.85534C26.6073 5.64036 27.194 5.87849 27.409 6.38722L28.8555 9.81031C29.0705 10.319 28.8324 10.9057 28.3237 11.1207C27.8149 11.3357 27.2282 11.0975 27.0133 10.5888L25.5667 7.16572C25.3518 6.65699 25.5899 6.07032 26.0986 5.85534ZM12.6892 9.49288C13.0795 9.10212 13.7127 9.10174 14.1035 9.49203L19.6726 15.0546C20.0634 15.4449 20.0637 16.078 19.6734 16.4688C19.2831 16.8595 18.65 16.8599 18.2592 16.4696L12.6901 10.9071C12.2993 10.5168 12.299 9.88363 12.6892 9.49288ZM61.6515 9.95064C62.0252 10.3572 61.9987 10.9898 61.5921 11.3636L56.2399 16.2843C55.8334 16.6581 55.2008 16.6315 54.827 16.225C54.4532 15.8184 54.4798 15.1858 54.8863 14.812L60.2385 9.89129C60.6451 9.5175 61.2777 9.54407 61.6515 9.95064ZM65.7429 22.649C65.9568 23.1582 65.7173 23.7443 65.2081 23.9582L61.3025 25.5984C60.7933 25.8122 60.2071 25.5728 59.9933 25.0636C59.7795 24.5544 60.0189 23.9682 60.5281 23.7544L64.4337 22.1142C64.9429 21.9003 65.5291 22.1398 65.7429 22.649ZM9.29433 22.6444C9.51068 22.1363 10.098 21.8997 10.6061 22.1161L13.7885 23.4711C14.2967 23.6874 14.5332 24.2747 14.3168 24.7829C14.1005 25.291 13.5132 25.5276 13.005 25.3112L9.82266 23.9562C9.31452 23.7399 9.07798 23.1526 9.29433 22.6444ZM2.77734 33.8046C2.77734 33.2524 3.22506 32.8046 3.77734 32.8046H12.0226C12.5749 32.8046 13.0226 33.2524 13.0226 33.8046C13.0226 34.3569 12.5749 34.8046 12.0226 34.8046H3.77734C3.22506 34.8046 2.77734 34.3569 2.77734 33.8046ZM61.8681 33.876C61.8681 33.3237 62.3158 32.876 62.8681 32.876H70.3901C70.9424 32.876 71.3901 33.3237 71.3901 33.876C71.3901 34.4282 70.9424 34.876 70.3901 34.876H62.8681C62.3158 34.876 61.8681 34.4282 61.8681 33.876Z" fill="#149CB8"/>
</svg>
