<?xml version="1.0" encoding="utf-8"?>
<!-- Generator: Adobe Illustrator 26.1.0, SVG Export Plug-In . SVG Version: 6.00 Build 0)  -->
<svg version="1.1" id="Layer_1" xmlns="http://www.w3.org/2000/svg" xmlns:xlink="http://www.w3.org/1999/xlink" x="0px" y="0px"
	 viewBox="0 0 24 24" style="enable-background:new 0 0 24 24;" xml:space="preserve">
<g>
	<path d="M20.9,4c-0.3-0.3-0.6-0.7-1-1C17.9,1.2,15.1,0,12,0S6.1,1.2,4,3.1c-0.3,0.3-0.7,0.6-1,1C1.2,6.1,0,8.9,0,12
		c0,3.1,1.2,5.9,3.1,8c0.3,0.3,0.6,0.7,1,1c2.1,1.9,4.9,3.1,8,3.1s5.9-1.2,8-3.1c0.3-0.3,0.7-0.6,1-1c1.9-2.1,3.1-4.9,3.1-8
		C24,8.9,22.8,6.1,20.9,4z M7.2,8.8L7.2,8.8c-0.9,0-1.5-0.6-1.5-1.4C5.7,6.6,6.3,6,7.2,6s1.5,0.6,1.5,1.4C8.7,8.2,8.2,8.8,7.2,8.8z
		 M8.6,9.9v8.1H5.9V9.9H8.6z M18.3,18.1h-2.7v-4.3c0-1.1-0.4-1.8-1.4-1.8c-0.7,0-1.2,0.5-1.4,1c-0.1,0.2-0.1,0.4-0.1,0.7v4.5H10
		c0,0,0-7.4,0-8.1h2.7v1.1c0.4-0.6,1-1.3,2.4-1.3c1.8,0,3.1,1.2,3.1,3.7V18.1z"/>
	<path d="M12.7,11.1L12.7,11.1C12.7,11.1,12.7,11.1,12.7,11.1L12.7,11.1z"/>
</g>
</svg>
