<?xml version="1.0" encoding="UTF-8"?><svg xmlns="http://www.w3.org/2000/svg" width="84.29" height="44" viewBox="0 0 84.29 44"><defs><style>.d{fill:#a3e8f5;}</style></defs><g id="a"/><g id="b"><g id="c"><g><path class="d" d="M41.56,44v-7.59h4.13v-15.76h-3.96v-7.67h3.88v-1.94c0-.76,0-1.52,.17-2.19,.08-.67,.25-1.35,.42-1.94,.25-.59,.51-1.18,.84-1.69s.76-1.1,1.35-1.6c1.01-1.01,2.28-1.77,3.79-2.19s3.29-.67,5.31-.67c1.01,0,2.02,.08,2.95,.25s1.85,.34,2.61,.51c.93,.25,1.69,.51,2.53,.76l-1.52,6.91c-.17-.08-.42-.17-.67-.34-.34-.08-.67-.25-1.01-.34-.42-.08-.76-.17-1.18-.25s-.84-.08-1.18-.08c-.76,0-1.43,.08-1.85,.17s-.84,.34-1.18,.76-.51,.84-.59,1.26-.08,.93-.08,1.52v1.18h6.83v7.67h-6.83v15.59h4.8v7.59l-19.56,.08h0Z"/><path class="d" d="M66,44v-7.59h3.96v-15.76h-3.96v-7.67h14.41v23.35h3.88v7.59l-18.29,.08h0ZM81.09,5.23c0,.84-.17,1.6-.42,2.28-.34,.67-.67,1.18-1.26,1.6-.51,.42-1.18,.76-1.85,1.01-.76,.25-1.52,.34-2.36,.34s-1.6-.08-2.36-.34c-.76-.25-1.35-.59-1.85-1.01-.51-.42-.93-1.01-1.26-1.6-.34-.67-.42-1.43-.42-2.28s.17-1.6,.42-2.28c.34-.67,.67-1.18,1.26-1.6,.51-.42,1.18-.76,1.85-1.01,.76-.25,1.52-.34,2.36-.34s1.6,.08,2.36,.34c.76,.25,1.35,.59,1.85,1.01,.51,.42,.93,1.01,1.26,1.6,.34,.67,.42,1.35,.42,2.28"/><path class="d" d="M20.82,44v-7.59h3.37v-9.86c0-.84-.08-1.6-.17-2.28-.08-.67-.34-1.26-.67-1.77s-.76-.84-1.26-1.1-1.26-.42-2.11-.42-1.6,.17-2.19,.59c-.67,.34-1.18,.84-1.6,1.35s-.76,1.1-1.1,1.6c-.25,.59-.42,1.01-.59,1.43v10.37h3.37v7.67H0v-7.67H4.13V8.93H0V1.35H14.58V17.79c.17-.34,.51-.76,1.01-1.35s1.1-1.18,1.85-1.77c.76-.59,1.77-1.1,2.95-1.6,1.18-.42,2.53-.67,4.13-.67s3.03,.25,4.3,.76,2.36,1.18,3.2,2.19c.84,.93,1.52,2.11,2.02,3.54,.51,1.43,.67,3.03,.67,4.8v12.64h3.88v7.59l-17.79,.08h0Z"/></g></g></g></svg>