<?xml version="1.0" encoding="UTF-8"?><svg xmlns="http://www.w3.org/2000/svg" width="180" height="36" viewBox="0 0 180 36"><defs><style>.e{fill:#ff4785;}.f{fill:#333;}</style></defs><g id="a"/><g id="b"><g id="c"><g><path id="d" class="f" d="M47.95,28.5c-1.54,0-3.01-.21-4.44-.62-1.42-.41-2.6-.98-3.54-1.71l1.44-3.2c1.96,1.36,4.16,2.04,6.6,2.04,1.27,0,2.24-.21,2.92-.62,.68-.41,1.02-.98,1.02-1.71,0-.65-.31-1.16-.94-1.53s-1.73-.72-3.33-1.07c-1.79-.36-3.21-.81-4.28-1.32-1.07-.52-1.84-1.16-2.33-1.92-.49-.76-.73-1.69-.73-2.81,0-1.23,.34-2.32,1.02-3.28,.68-.96,1.64-1.71,2.87-2.26,1.23-.55,2.65-.82,4.26-.82,1.44,0,2.83,.21,4.16,.63,1.33,.42,2.4,.99,3.18,1.7l-1.44,3.2c-1.86-1.36-3.82-2.04-5.88-2.04-1.17,0-2.09,.23-2.76,.68s-1.01,1.07-1.01,1.86c0,.46,.13,.84,.39,1.14,.26,.3,.69,.56,1.3,.79,.6,.23,1.46,.47,2.58,.72,2.61,.58,4.49,1.32,5.63,2.22,1.14,.9,1.71,2.15,1.71,3.74,0,1.92-.74,3.43-2.22,4.54-1.48,1.1-3.54,1.66-6.19,1.66Zm18.84-3.23c.44,0,.9-.03,1.38-.09l-.23,3.17c-.56,.08-1.11,.12-1.67,.12-2.15,0-3.72-.47-4.71-1.41-.99-.94-1.48-2.37-1.48-4.29v-5.41h-2.68v-3.25h2.68v-4.15h4.35v4.15h3.54v3.25h-3.54v5.39c0,1.69,.79,2.53,2.36,2.53Zm10.11,3.2c-1.5,0-2.81-.3-3.95-.91-1.13-.6-2.01-1.46-2.62-2.56-.61-1.1-.92-2.4-.92-3.9s.31-2.8,.92-3.9c.61-1.1,1.49-1.95,2.62-2.55,1.13-.6,2.45-.89,3.95-.89s2.81,.3,3.95,.89c1.13,.6,2.01,1.44,2.62,2.55,.61,1.1,.92,2.4,.92,3.9s-.31,2.8-.92,3.9c-.61,1.1-1.49,1.96-2.62,2.56-1.13,.6-2.45,.91-3.95,.91Zm0-3.31c2.11,0,3.17-1.35,3.17-4.06,0-1.36-.27-2.38-.82-3.05-.55-.67-1.33-1.01-2.35-1.01-2.11,0-3.17,1.35-3.17,4.06s1.06,4.06,3.17,4.06Zm19.53-7.83l-2.45,.26c-1.21,.12-2.06,.46-2.56,1.02-.5,.57-.75,1.32-.75,2.26v7.37h-4.35V14.1h4.18v2.39c.71-1.63,2.18-2.52,4.41-2.68l1.27-.09,.26,3.6Zm12.64-3.2h4.26l-8.52,19.3h-4.41l2.71-5.96-5.82-13.33h4.52l3.57,8.99,3.69-8.99Zm14.34-.37c1.23,0,2.31,.3,3.25,.89s1.68,1.44,2.2,2.55c.53,1.1,.79,2.39,.79,3.84s-.26,2.75-.79,3.87c-.53,1.12-1.27,2-2.22,2.62-.95,.62-2.03,.94-3.24,.94-.98,0-1.86-.21-2.65-.62-.79-.41-1.39-.98-1.81-1.71v2.1h-4.29V7.93h4.35V16c.42-.71,1.02-1.26,1.8-1.66,.78-.39,1.65-.59,2.61-.59Zm-1.27,11.4c1.02,0,1.8-.36,2.36-1.08s.84-1.73,.84-3.04-.28-2.27-.84-2.95c-.56-.68-1.34-1.02-2.36-1.02s-1.8,.35-2.36,1.05-.84,1.69-.84,2.98,.28,2.31,.84,3.01c.56,.7,1.34,1.05,2.36,1.05Zm16.96,3.31c-1.5,0-2.81-.3-3.95-.91s-2.01-1.46-2.62-2.56-.92-2.4-.92-3.9,.31-2.8,.92-3.9c.61-1.1,1.49-1.95,2.62-2.55s2.45-.89,3.95-.89,2.81,.3,3.95,.89c1.13,.6,2.01,1.44,2.62,2.55,.61,1.1,.92,2.4,.92,3.9s-.31,2.8-.92,3.9-1.49,1.96-2.62,2.56c-1.13,.6-2.45,.91-3.95,.91Zm0-3.31c2.11,0,3.17-1.35,3.17-4.06,0-1.36-.27-2.38-.82-3.05-.55-.67-1.33-1.01-2.35-1.01-2.11,0-3.17,1.35-3.17,4.06s1.06,4.06,3.17,4.06Zm16.21,3.31c-1.5,0-2.81-.3-3.95-.91s-2.01-1.46-2.62-2.56-.92-2.4-.92-3.9,.31-2.8,.92-3.9c.61-1.1,1.49-1.95,2.62-2.55s2.45-.89,3.95-.89,2.81,.3,3.95,.89,2.01,1.44,2.62,2.55c.61,1.1,.92,2.4,.92,3.9s-.31,2.8-.92,3.9c-.61,1.1-1.49,1.96-2.62,2.56s-2.45,.91-3.95,.91Zm0-3.31c2.11,0,3.17-1.35,3.17-4.06,0-1.36-.27-2.38-.82-3.05s-1.33-1.01-2.35-1.01c-2.11,0-3.17,1.35-3.17,4.06s1.06,4.06,3.17,4.06Zm24.69,3.08h-5.33l-5.41-6.31v6.31h-4.35V7.93h4.35v12.21l5.21-6.02h5.18l-5.93,6.74,6.28,7.37Z"/><path class="e" d="M28.89,1.7c-.06-1-.92-1.76-1.92-1.69l-1.99,.12,.15,4.15c0,.15-.11,.27-.26,.28-.06,0-.13-.02-.18-.06l-1.34-1.05-1.58,1.2c-.12,.09-.29,.07-.38-.05l-.02-.04s-.03-.09-.03-.13l.17-4.08L1.7,1.58C.72,1.64-.04,2.48,0,3.46l1.12,29.72c.04,.94,.79,1.7,1.73,1.74l24.16,1.09s.05,0,.08,0c1,0,1.81-.81,1.81-1.81V1.81s0-.08,0-.11ZM14.86,29.18c-4.31,0-8.08-1.74-7.65-7.79,.17-.71,5.65-.54,5.65,0-.07,2.5,.5,3.23,1.94,3.23,1.1,0,1.6-.61,1.6-1.63,0-3.65-9.02-3.77-9.02-10.46,0-3.84,2.64-6.4,7.35-6.4s7.28,2.52,7.28,7.32c-.64,.49-5.38,.83-5.38,.13,.1-2.69-1.1-2.8-1.77-2.8s-1.7,.19-1.7,1.63c0,3.55,9.16,3.36,9.16,10.52,0,4.03-3.27,6.26-7.45,6.26Z"/></g></g></g></svg>