<?xml version="1.0" encoding="UTF-8"?><svg xmlns="http://www.w3.org/2000/svg" width="106.17" height="44" viewBox="0 0 106.17 44"><defs><style>.d{fill:#8c1d40;}.d,.e{fill-rule:evenodd;}.e{fill:#ffc627;}</style></defs><g id="a"/><g id="b"><g id="c"><g><path class="d" d="M101.37,41.32c-1.49-1.59-1.4-3.27-1.4-3.27V0h-14.46V30.42c-.18,2.88-3,3.62-4.57,3.57-2.24-.07-3.54-1.32-3.54-3.48V.02h-14.09C60.02,0,57.43,.02,53.39,.02,45.69,.02,38.41,1.19,35.96,7.58l-1.46-5.67C34.15,.81,32.93,0,31.73,0H6.55c-.36,0-.49,.11-.3,.37,0,0,.68,.65,1.92,2.06,1.72,1.96,1.04,4.58,1.04,4.58L0,43.77H13.41l1.93-8.07h12.95l2.02,8.08h17.67c7.25,0,13.14-.74,16.06-5.25,2.18,4.11,6.85,6.05,15.11,5.34,2.88-.25,5.7-1.59,6.91-3.72l.56,1.77c.48,1.07,1.46,1.86,2.86,1.86h13.5c.36,0,.49-.11,.3-.36,0,0-.72-.8-1.92-2.08h0ZM17.4,27.78l4.47-17.96,4.49,17.96h-8.97ZM101.66,2.66h.38V.34h.83v-.34h-2.04V.34h.83V2.66Zm3.88-2.66l-.82,2.21-.83-2.21h-.63V2.66h.38V.36h0l.88,2.31h.38l.88-2.31h0V2.66h.38V0h-.63Z"/><path class="e" d="M35.42,10.64v-.09c.06-.39,.13-.77,.22-1.15v-.03l-2.41-1.46c-.12-.08-.27-.06-.37,.03-.05,.05-.07,.11-.06,.18,0,.06,.04,.13,.09,.17l2.54,2.35h0Zm-.05,3.95v-.1c-.07-.56-.1-1.13-.09-1.7l-4.52-1.81c-.12-.05-.29-.02-.36,.1-.04,.05-.05,.12-.03,.18,.02,.07,.06,.12,.12,.16l4.88,3.17h0Zm-6.62,.27l7.65,3.35-.06-.12c-.33-.69-.58-1.42-.75-2.17v-.03l-6.67-1.49c-.13-.04-.28,.02-.33,.15-.02,.06-.02,.13,0,.18,.03,.06,.08,.11,.15,.13h0Zm19.09,10.95c-4.19-1.44-8.95-3.07-11.22-7.19v-.02l-8.82-.55c-.14-.02-.28,.07-.31,.2-.01,.06,0,.13,.04,.18,.04,.06,.11,.1,.18,.11l8.83,2.27s.06,.02,.07,.04c0,.01,.01,.03,.01,.05,0,.05-.05,.07-.1,.07l-9.14,.86c-.14,0-.26,.12-.26,.25,0,.06,.03,.12,.07,.17,.05,.05,.12,.08,.19,.08l9.13,.86s.09,.03,.09,.07c0,.02,0,.05-.02,.06-.01,.02-.03,.02-.05,.03l-8.85,2.27c-.06,.01-.12,.05-.16,.11-.04,.05-.05,.12-.04,.18,.03,.13,.17,.21,.31,.2l9.15-.58s.1,.01,.11,.05c0,.02,0,.05,0,.06-.01,.02-.03,.03-.05,.04l-8.25,3.6c-.07,.03-.12,.08-.15,.14-.03,.06-.03,.12,0,.18,.05,.12,.21,.18,.35,.15l8.89-1.99c.08-.02,.11,0,.13,.05,0,.02,0,.03,0,.05,0,.02-.03,.04-.05,.05l-7.41,4.82c-.06,.03-.11,.09-.13,.16-.02,.06,0,.13,.03,.18,.07,.11,.25,.15,.37,.09l8.36-3.34s.1-.02,.12,.02c.02,.02,.02,.05,.02,.07,0,.02-.01,.03-.03,.04l-6.37,5.9c-.05,.05-.08,.11-.09,.18,0,.07,.02,.12,.06,.17,.09,.1,.27,.11,.38,.03l7.59-4.59s.09-.03,.13,0c.04,.04,.04,.06,.03,.07,0,.02-.02,.05-.02,.05l-5.14,6.82s-.05,.1-.05,.16c0,.07,.04,.13,.1,.17,.11,.08,.28,.06,.38-.03l6.58-5.7s.09-.05,.13-.02c.03,.02,.05,.05,.05,.07,0,.02,0,.04-.02,.05l-3.72,7.49c-.03,.06-.04,.12-.03,.18,.02,.07,.07,.12,.13,.16,.12,.06,.3,.02,.37-.09,0,0,5.41-6.69,5.43-6.68,1.09,.5,2.15,.82,3,.9,2.56,.25,4.96-.33,6.26-1.5,.67-.61,1.01-1.34,1.01-2.18,0-3.14-3.52-4.35-7.59-5.75h0Zm17.54,10.05l-.03,.09c-.12,.37-.26,.74-.41,1.11l-.02,.03,2.08,1.81c.11,.09,.26,.1,.37,.01,.05-.04,.09-.1,.1-.17,0-.06-.02-.13-.06-.17l-2.04-2.71h0Zm.69-4v.1c-.05,.58-.11,1.15-.2,1.73v.03l4.16,2.52c.11,.08,.27,.06,.37-.04,.05-.05,.07-.11,.06-.18,0-.06-.04-.12-.08-.16l-4.31-4h0Zm-.1-3.55l.02,.11c.09,.59,.13,1.21,.13,1.85v.34l6.38,2.56c.12,.06,.28,.01,.36-.1,.03-.05,.04-.12,.03-.18-.02-.06-.06-.12-.12-.15l-6.8-4.42h0Zm10.1-6.4c-.05-.05-.12-.08-.19-.08l-9.14-.86s-.08-.03-.09-.07c0-.02,0-.04,.02-.06,.01-.01,.03-.02,.05-.03l8.83-2.26c.07-.01,.13-.05,.18-.11,.04-.05,.05-.12,.04-.18-.03-.13-.16-.21-.31-.2l-9.16,.58s-.09-.01-.1-.05c0-.02,0-.04,0-.06,0-.02,.02-.03,.04-.03l8.26-3.61c.07-.02,.12-.07,.15-.14,.03-.06,.03-.12,0-.18-.05-.12-.21-.18-.35-.14l-8.91,1.99s-.11,0-.13-.03c0-.02-.01-.04,0-.06,0-.02,.02-.03,.04-.05l7.44-4.84c.06-.04,.1-.09,.12-.16,.02-.06,0-.13-.03-.18-.07-.11-.23-.15-.36-.09l-8.4,3.36s-.09,.02-.12-.01c-.01-.02-.02-.04-.02-.06,0-.02,.01-.03,.03-.04l6.4-5.93s.08-.1,.09-.17c0-.07-.02-.13-.06-.18-.09-.1-.25-.12-.36-.04l-7.65,4.62s-.09,.03-.13,0c-.01-.01-.02-.03-.02-.05s0-.04,.02-.06l5.15-6.83c.04-.05,.06-.11,.06-.18,0-.07-.04-.13-.1-.17-.11-.08-.29-.07-.38,.03l-6.61,5.73s-.08,.05-.12,.03c-.02-.01-.04-.03-.04-.05,0-.02,0-.04,0-.05l3.75-7.54c.03-.06,.04-.12,.02-.18-.02-.07-.07-.13-.13-.16-.12-.06-.29-.03-.36,.08l-5.52,6.79c-1.53-.74-4.08-1.18-5.27-1.18-.02,0-.06,0-.1,0-2.43-.06-4.23,.42-5.22,1.38-.57,.56-.86,1.28-.86,2.14,0,1.19,.67,2.16,2.11,3.06,1.28,.81,3.07,1.48,4.96,2.19,2.46,.93,5.26,1.98,7.54,3.56,2.62,1.81,4.17,4.02,4.73,6.76v.03l8.46,1.89c.13,.03,.27-.03,.32-.16,.02-.06,.02-.13,0-.18-.03-.06-.08-.1-.15-.13l-8.25-3.61s-.04-.02-.05-.04c-.01-.02-.02-.05,0-.07,.01-.04,.06-.06,.11-.05l9.15,.58c.14,.01,.27-.07,.3-.2,.01-.06,0-.13-.04-.18-.04-.06-.1-.1-.17-.11l-8.82-2.27s-.05-.01-.06-.03c-.01-.01-.02-.03-.02-.05,0-.05,.05-.08,.09-.07l9.13-.86c.07,0,.14-.03,.19-.08s.07-.11,.07-.17-.02-.12-.07-.17h0Z"/></g></g></g></svg>