<?xml version="1.0" encoding="UTF-8"?><svg xmlns="http://www.w3.org/2000/svg" width="106.1" height="44" viewBox="0 0 106.1 44"><defs><style>.d{fill:#a3e8f5;}</style></defs><g id="a"/><g id="b"><g id="c"><g><polygon class="d" points="101.59 2.65 101.94 2.65 101.94 .35 102.82 .35 102.82 0 100.79 0 100.79 .35 101.59 .35 101.59 2.65"/><path class="d" d="M101.32,41.29c-1.5-1.59-1.41-3.27-1.41-3.27V0h-14.41V30.41c-.18,2.92-3.01,3.62-4.6,3.54-2.21-.09-3.54-1.33-3.54-3.45V0h-23.96c-7.69,0-14.94,1.15-17.42,7.6l-1.5-5.66c-.35-1.15-1.59-1.95-2.74-1.95H6.63c-.35,0-.53,.09-.27,.35,0,0,.71,.62,1.95,2.03,1.68,1.95,1.06,4.6,1.06,4.6L0,43.76H13.44l1.95-8.05h12.91l2.03,8.05h17.68c7.25,0,13.17-.71,16.09-5.22,2.21,4.16,6.81,6.01,15.12,5.3,2.92-.27,5.66-1.59,6.9-3.71l.53,1.77c.44,1.06,1.5,1.86,2.83,1.86h13.53c.35,0,.53-.09,.27-.35-.09,0-.8-.8-1.95-2.12ZM32.8,7.96c.09-.09,.27-.09,.35,0l2.39,1.5h0c-.09,.35-.18,.8-.18,1.15v.09l-2.56-2.39q-.09-.09-.09-.18t.09-.18Zm-2.39,3.09c.09-.09,.27-.18,.35-.09l4.51,1.77c0,.53,0,1.15,.09,1.68v.09l-4.86-3.09c-.09,0-.09-.09-.09-.18-.09,0-.09-.09,0-.18Zm-1.5,3.36l6.63,1.5h0c.18,.71,.44,1.5,.71,2.21l.09,.09-7.6-3.36c-.09,0-.09-.09-.18-.09v-.18c.09-.18,.18-.18,.35-.18Zm-11.49,13.35l4.51-17.95,4.51,17.95h-9.02Zm36.96,6.01c-1.33,1.15-3.71,1.77-6.28,1.5-.88-.09-1.95-.44-3.01-.88l-5.39,6.72c-.09,.09-.27,.18-.35,.09-.09,0-.09-.09-.09-.18v-.18l3.71-7.52v-.09s0-.09-.09-.09h-.09l-6.54,5.66c-.09,.09-.27,.09-.35,0-.09,0-.09-.09-.09-.18s0-.09,.09-.18l5.13-6.81v-.18h-.09l-7.6,4.6c-.09,.09-.27,.09-.35,0s-.09-.09-.09-.18,0-.18,.09-.18l6.37-5.92h0v-.09s-.09-.09-.09,0l-8.4,3.36c-.09,.09-.27,0-.35-.09,0-.09-.09-.09,0-.18,0-.09,.09-.09,.09-.18l7.43-4.77,.09-.09v-.09l-.09-.09-8.84,2.03c-.18,0-.27,0-.35-.18v-.18c0-.09,.09-.09,.18-.18l8.22-3.62h.09v-.09l-.09-.09-9.11,.62c-.18,0-.27-.09-.27-.18v-.18c0-.09,.09-.09,.18-.09l8.84-2.3h.09v-.09l-.09-.09-9.11-.88c-.09,0-.18,0-.18-.09-.09,0-.09-.09-.09-.18,0-.18,.09-.27,.27-.27l9.11-.88q.09,0,.09-.09v-.09h-.09l-8.84-2.3c-.09,0-.18-.09-.18-.09,0-.09-.09-.09,0-.18,0-.09,.18-.18,.27-.18l8.84,.53h0c2.3,4.07,6.98,5.75,11.23,7.16h0c4.07,1.41,7.6,2.56,7.6,5.75-.35,1.15-.71,1.95-1.41,2.56Zm13,5.13c-.09,.09-.27,.09-.35,0l-2.12-1.77h0c.18-.35,.27-.71,.44-1.06v-.09l2.03,2.74c0,.09,.09,.09,0,.18,.09-.09,0,0,0,0Zm3.01-2.74c-.09,.09-.27,.09-.35,0l-4.16-2.56h0c.09-.53,.18-1.15,.18-1.77v-.09l4.33,3.98c.09,0,.09,.09,.09,.18,0,.18-.09,.27-.09,.27Zm2.39-3.09c-.09,.09-.27,.18-.35,.09l-6.37-2.56v-.35c0-.62,0-1.24-.09-1.86v-.09h0l6.81,4.42c.09,0,.09,.09,.09,.18s0,.09-.09,.18Zm3.27-10.79q-.09,.09-.18,.09l-9.11,.88q-.09,0-.09,.09v.09h.09l8.84,2.3c.09,0,.09,.09,.18,.09,0,.09,.09,.09,0,.18,0,.09-.18,.18-.27,.18l-9.19-.62q-.09,0-.09,.09v.09h.09l8.22,3.62c.09,0,.09,.09,.18,.09v.18c-.09,.09-.18,.18-.35,.18l-8.49-1.86h0c-.53-2.74-2.12-4.95-4.69-6.72-2.3-1.59-5.04-2.65-7.52-3.54-1.86-.71-3.62-1.41-4.95-2.21-1.41-.88-2.12-1.86-2.12-3.09,0-.88,.27-1.59,.88-2.12,.97-.97,2.83-1.41,5.22-1.41h.09c1.15,0,3.71,.44,5.3,1.15l5.48-6.81c.09-.09,.27-.18,.35-.09,.09,0,.09,.09,.09,.18v.18l-3.71,7.52v.18h.09l6.63-5.75c.09-.09,.27-.09,.35,0,.09,0,.09,.09,.09,.18s0,.09-.09,.18l-5.13,6.81v.18h.09l7.6-4.6c.09-.09,.27-.09,.35,0s.09,.09,.09,.18,0,.09-.09,.18l-6.37,5.92h0v.09h.09l8.4-3.36c.09-.09,.27,0,.35,.09,0,.09,.09,.09,0,.18,0,.09-.09,.09-.09,.18l-7.43,4.86v.18s.09,.09,.09,0l8.93-1.95c.18,0,.27,0,.35,.18v.18c0,.09-.09,.09-.18,.18l-8.22,3.62h0v.09l.09,.09,9.19-.62c.18,0,.27,.09,.35,.18v.18c0,.09-.09,.09-.18,.09l-8.84,2.3h-.09v.09s0,.09,.09,.09l9.11,.88c.09,0,.18,0,.09,.09h0q.18,.09,.18,.18c-.09-.35-.18-.27-.18-.18Z"/><polygon class="d" points="105.48 0 104.68 2.21 103.8 0 103.18 0 103.18 2.65 103.53 2.65 103.53 .35 103.53 .35 104.42 2.65 104.86 2.65 105.74 .35 105.74 .35 105.74 2.65 106.1 2.65 106.1 0 105.48 0"/></g></g></g></svg>