<?xml version="1.0" encoding="UTF-8"?><svg xmlns="http://www.w3.org/2000/svg" width="170" height="23.4" viewBox="0 0 170 23.4"><defs><style>.d{fill:#ff5e15;}</style></defs><g id="a"/><g id="b"><g id="c"><path class="d" d="M11.6,16.7l-3.8,.4-.4-3.8,3.8-.4,.4,3.8Zm3.9,3.8h3.5L11,.2h-2.7L0,20.5H3.6L9.6,5.5l5.9,15ZM109.1,.3V3.4h-8.6v4.9h8.1v3.1h-8.1v5.9h9v3.1h-12.4V.4l12-.1h0ZM39.6,20.9c-6-.2-10.1-4.3-10.1-10.2,0-6.2,4.3-10.7,10.4-10.7s10.1,4.3,10.1,10.2c.1,2.1-.5,4.2-1.6,6-.7,1.1-1.5,2-2.5,2.7l4.6,1.3-.9,3.2m-.2,0l-9.8-2.5m-6.7-10.2c0,4.1,2.9,7.1,6.7,7.1,4.1,0,6.9-3.1,6.9-7.6,0-3.6-2.3-7.2-6.7-7.2-4.8,0-6.9,3.9-6.9,7.7ZM77.3,.3V11.9c0,2.7-.8,6-4.8,6-3.7,0-4.5-3.2-4.5-6V.3h-3.3V11.9c0,8.2,5.4,9,7.7,9,5.1,0,8.2-3.4,8.2-9.2V.2c.2,.1-3.3,.1-3.3,.1Zm51,6.1l10.3,14.1h2.8V.3h-3.4l.1,14L127.9,.3h-2.9V20.5h3.4l-.1-14.1h0ZM153,.3V3.4h6.8V20.6h3.4V3.5h6.8V.4h-17v-.1Z"/></g></g></svg>