<?xml version="1.0" encoding="utf-8"?>
<!-- Generator: Adobe Illustrator 26.1.0, SVG Export Plug-In . SVG Version: 6.00 Build 0)  -->
<svg version="1.1" id="Layer_1" xmlns="http://www.w3.org/2000/svg" xmlns:xlink="http://www.w3.org/1999/xlink" x="0px" y="0px"
	 viewBox="0 0 200 140" style="enable-background:new 0 0 200 140;" xml:space="preserve">
<style type="text/css">
	.st0{fill:#A3E8F5;}
</style>
<g>
	<path class="st0" d="M76.3,63.8c3.5,0,6.9,2.9,6.9,7.5c0,4.5-3.3,7.4-6.9,7.4c-3.9,0-7-3.1-7-7.5C69.3,67,72.3,63.8,76.3,63.8
		L76.3,63.8L76.3,63.8z M76.2,59c-7.2,0-12.3,5.6-12.3,12.2s5,12.4,12.4,12.4c6.7,0,12.2-5.1,12.2-12.2C88.5,63.2,82.1,59,76.2,59
		L76.2,59L76.2,59z"/>
	<path class="st0" d="M103.1,63.8c3.5,0,6.9,2.9,6.9,7.5c0,4.5-3.3,7.4-6.9,7.4c-3.9,0-7-3.1-7-7.5C96.1,67,99.1,63.8,103.1,63.8
		L103.1,63.8L103.1,63.8z M103,59c-7.2,0-12.3,5.6-12.3,12.2s5,12.4,12.4,12.4c6.7,0,12.2-5.1,12.2-12.2C115.3,63.2,108.9,59,103,59
		L103,59L103,59z"/>
	<path class="st0" d="M129.8,63.8c3.2,0,6.6,2.8,6.6,7.5c0,4.8-3.3,7.4-6.6,7.4c-3.5,0-6.8-2.9-6.8-7.4
		C123,66.6,126.3,63.8,129.8,63.8L129.8,63.8L129.8,63.8z M129.3,59c-6.6,0-11.8,5.8-11.8,12.3c0,7.4,6,12.3,11.7,12.3
		c3.5,0,5.4-1.4,6.7-3V83c0,4.2-2.6,6.8-6.4,6.8c-3.7,0-5.6-2.8-6.3-4.4l-4.7,2c1.7,3.5,5,7.2,11,7.2c6.6,0,11.5-4.1,11.5-12.8v-22
		h-5.1v2.1C134.4,60.1,132.2,59,129.3,59L129.3,59L129.3,59z"/>
	<path class="st0" d="M164.2,63.7c2.2,0,3.9,1.2,4.5,2.6l-11,4.6C157.2,67.4,160.6,63.7,164.2,63.7L164.2,63.7L164.2,63.7z
		 M163.9,59c-6.2,0-11.4,4.9-11.4,12.2c0,7.7,5.8,12.3,12,12.3c5.2,0,8.4-2.8,10.3-5.4l-4.2-2.8c-1.1,1.7-2.9,3.4-6,3.4
		c-3.4,0-5-1.9-6-3.7l16.4-6.8l-0.9-2C172.6,62.3,168.9,59,163.9,59L163.9,59L163.9,59z"/>
	<polygon class="st0" points="144.7,82.8 150.1,82.8 150.1,46.7 144.7,46.7 	"/>
	<path class="st0" d="M61.9,62.8H44.4V68h12.4c-0.6,7.3-6.7,10.4-12.4,10.4c-7.3,0-13.7-5.8-13.7-13.8c0-7.9,6.1-13.9,13.7-13.9
		c5.9,0,9.4,3.8,9.4,3.8l3.6-3.8c0,0-4.7-5.2-13.2-5.2c-10.8,0-19.2,9.1-19.2,19c0,9.7,7.9,19.1,19.5,19.1c10.2,0,17.7-7,17.7-17.3
		C62.2,64,61.9,62.8,61.9,62.8L61.9,62.8L61.9,62.8z"/>
</g>
</svg>
