<?xml version="1.0" encoding="utf-8"?>
<!-- Generator: Adobe Illustrator 26.1.0, SVG Export Plug-In . SVG Version: 6.00 Build 0)  -->
<svg version="1.1" id="Layer_1" xmlns="http://www.w3.org/2000/svg" xmlns:xlink="http://www.w3.org/1999/xlink" x="0px" y="0px"
	 viewBox="0 0 200 140" style="enable-background:new 0 0 200 140;" xml:space="preserve">
<style type="text/css">
	.st0{fill:#A3E8F5;}
</style>
<g id="Layer_1_00000013170018797276586280000007900336202024430980_">
	<g>
		<path class="st0" d="M113.3,96.5c-2,2.4-4.6,5.7-4,8.1l0,0c0.4,2,3.2,3.2,3.2,3.2l6.1,3.3l-4,3.5l4.8,1.5c0,0-4.3,4.5-4.8,4.9
			c-1.2,0.2-2.6,0.4-4,0.4c-10.1,0-24.1-6-27.5-6c-4.2-0.1-9.4,2.4-9.4,2.4l2.7-2.9c0,0-3.6,0.7-7.1,0.4l4.9-3.3
			c-4.3-0.1-8.1-1.4-9.8-2.6c0,0,7.9-0.7,18.7-0.5c4.3,0.1,11.8,0.5,11.8,0.5c-3.7-1.5-7.1-3.6-8.5-7.2l7,1
			c-2.9-1.8-7.1-6.2-7.9-9.7l7.7,2.7c-1.4-1.5-6.2-6-7.1-11.2l6.1,3.9c-1.6-1.6-6-10.2-5.2-12.7l5.7,3.8c-2.7-3.4-6-12.3-3.7-15.9
			c1.8,6.8,5.6,9.3,5.6,9.3c-2.6-3.7-8-16.7-2.8-22.5c1.4,12.9,6.9,17.3,6.9,17.3c-4.6-7.3-9.8-29.7-0.1-34.2
			c-1.9,14.4,2.7,22.2,2.7,22.2c-2.9-13.2-2.8-32,7.1-33.7c-4.8,14.2-1.4,25.1-1.4,25.1c-0.7-33.1,10-32.5,10-32.5
			s-1.8,9.4-1.8,26.2v48.3C115,92.7,114.7,94.8,113.3,96.5L113.3,96.5z M119.6,108.2c4.3,0.3,7.3,0.6,10.4,1
			c1.2,0.1,1.6,1.5,1.8,2.1c-1.5-0.4-3.7-0.4-3.7-0.4l-0.1,1.4c0,0,2-0.6,4.2-0.6c0,0,4.5,0,4.3,3c-1.2-0.8-3.7-0.5-4.4-0.4
			c-2.2,0.4-4.3,1.4-6.8,2.7c-2.3,1.2-4.7,2.5-7.6,3.3c1.2-1.2,4.5-4.8,4.5-4.8l-4.3-1.5l3.6-3.1L116,108
			C117.1,108,118.4,108.1,119.6,108.2L119.6,108.2z M120.5,103.6H140V38.2h-18.3v40.4l-5.5-5.1V41.1c0.1-19.1,2.4-28.1,2.4-28.1
			c-6.2,0-9.3,5.8-10.1,7.6c-3.5,0.4-6.2,2.4-8.2,6.2c-1.1,2.2-1.6,4.3-1.8,5.4c-7.3,1.7-7.9,14.6-7.4,16.9L80,38.3H60v65.4h18.3
			V64.1l8.9,8.3c0.8,2.4,1.6,3.3,1.6,3.3l-3.5-2.9c-0.7,6.4,1.2,9.7,2.9,12.1l-4.3-3.5c-0.3,6.4,2.8,10.3,4.7,12L83,90.7
			c-0.4,3.8,3.5,9.4,5.7,10.4l-4.7-0.7c1,5.3,4.7,7.1,4.7,7.1s-8.1-0.1-11.8-0.1c-10.3,0-17,1-17,1s4.6,4.5,10.4,4.7l-5.2,3.2
			c3.7,1.2,7.3,0.8,7.3,0.8l-3,3.5c0,0,9.4-3.6,13.4-3.3c3.2,0.2,18,6,27.9,6c6.7,0,11.5-2.5,15.4-4.6c2.4-1.2,4.4-2.2,6.4-2.6
			c3.6-0.5,5.2,0.7,5.2,0.7c0.4-1.5,1.5-5.3-4.3-6.2c-0.2-1-1.2-2.4-2.7-2.6c-3.2-0.4-16.4-1.5-16.7-1.5c-1.1-0.1-4.9-0.8-1.5-5.7
			c0.3-0.4,2.1-2.6,2.1-2.6L120.5,103.6L120.5,103.6z"/>
	</g>
</g>
</svg>
