<?xml version="1.0" encoding="UTF-8"?><svg xmlns="http://www.w3.org/2000/svg" width="84.31" height="44" viewBox="0 0 84.31 44"><g id="a"/><g id="b"><g id="c"><g><path d="M20.82,44v-7.63h3.4v-9.82c0-.85-.06-1.62-.17-2.31-.12-.69-.33-1.28-.65-1.76-.32-.49-.75-.86-1.29-1.13-.54-.26-1.23-.4-2.08-.4s-1.59,.19-2.23,.56c-.64,.37-1.18,.82-1.62,1.34-.45,.52-.8,1.07-1.06,1.64-.27,.57-.45,1.05-.56,1.43v10.46h3.4v7.63H0v-7.63H4.1V8.97H0V1.37H14.56V17.84c.19-.3,.52-.74,.99-1.34,.47-.59,1.09-1.19,1.88-1.8,.78-.6,1.76-1.13,2.92-1.59,1.17-.46,2.54-.68,4.13-.68s3.01,.24,4.28,.73c1.26,.49,2.33,1.21,3.21,2.16,.88,.95,1.55,2.13,2.02,3.53,.47,1.4,.7,3.01,.7,4.83v12.69h3.85v7.63H20.82Z"/><path d="M41.54,44v-7.63h4.1v-15.74h-3.97v-7.63h3.91v-1.94c0-.78,.04-1.52,.13-2.19,.08-.68,.23-1.32,.45-1.92,.21-.6,.49-1.18,.84-1.72,.35-.54,.79-1.08,1.32-1.61,1.04-1.04,2.31-1.77,3.8-2.21,1.49-.43,3.26-.65,5.29-.65,1.02,0,2.01,.08,2.97,.25,.96,.17,1.83,.35,2.59,.54,.89,.23,1.73,.49,2.51,.76l-1.56,6.9c-.17-.08-.41-.19-.72-.3-.31-.12-.65-.23-1.03-.33-.38-.11-.78-.2-1.21-.27-.42-.07-.83-.11-1.21-.11-.78,0-1.4,.05-1.84,.16-.45,.11-.83,.35-1.14,.73-.34,.4-.55,.81-.62,1.22-.07,.41-.11,.92-.11,1.51v1.18h6.84v7.63h-6.84v15.74h4.77v7.63h-19.27Z"/><path d="M66.03,44v-7.63h3.97v-15.74h-3.97v-7.63h14.43v23.37h3.85v7.63h-18.28ZM81.13,5.18c0,.85-.15,1.6-.45,2.24-.3,.65-.71,1.19-1.24,1.64-.53,.45-1.16,.78-1.89,1-.73,.22-1.52,.33-2.37,.33s-1.63-.11-2.35-.33c-.72-.22-1.35-.56-1.88-1-.53-.45-.94-.99-1.24-1.64-.3-.65-.44-1.39-.44-2.24s.15-1.59,.44-2.24c.3-.65,.71-1.19,1.24-1.62,.53-.43,1.16-.76,1.88-.99,.72-.22,1.5-.33,2.35-.33s1.64,.11,2.37,.33c.73,.22,1.36,.55,1.89,.99,.53,.43,.94,.97,1.24,1.62,.3,.65,.45,1.39,.45,2.24"/></g></g></g></svg>