<?xml version="1.0" encoding="utf-8"?>
<!-- Generator: Adobe Illustrator 26.2.1, SVG Export Plug-In . SVG Version: 6.00 Build 0)  -->
<svg version="1.1" id="Layer_1" xmlns="http://www.w3.org/2000/svg" xmlns:xlink="http://www.w3.org/1999/xlink" x="0px" y="0px"
	 viewBox="0 0 200 140" style="enable-background:new 0 0 200 140;" xml:space="preserve">
<style type="text/css">
	.st0{fill:#A3E8F5;}
</style>
<g>
	<path class="st0" d="M26.6,75l-3.8,0.4l-0.4-3.8l3.8-0.4L26.6,75z M30.5,78.8H34L26,58.5h-2.7L15,78.8h3.6l6-15L30.5,78.8z
		 M124.1,58.6v3.1h-8.6v4.9h8.1v3.1h-8.1v5.9h9v3.1h-12.4V58.7L124.1,58.6L124.1,58.6L124.1,58.6z M54.6,79.2
		c-6-0.2-10.1-4.3-10.1-10.2c0-6.2,4.3-10.7,10.4-10.7c5.9,0,10.1,4.3,10.1,10.2c0.1,2.1-0.5,4.2-1.6,6c-0.7,1.1-1.5,2-2.5,2.7
		l4.6,1.3l-0.9,3.2 M64.4,81.7l-9.8-2.5 M47.9,69c0,4.1,2.9,7.1,6.7,7.1c4.1,0,6.9-3.1,6.9-7.6c0-3.6-2.3-7.2-6.7-7.2
		C50,61.3,47.9,65.2,47.9,69z M92.3,58.6v11.6c0,2.7-0.8,6-4.8,6c-3.7,0-4.5-3.2-4.5-6V58.6h-3.3v11.6c0,8.2,5.4,9,7.7,9
		c5.1,0,8.2-3.4,8.2-9.2V58.5C95.8,58.6,92.3,58.6,92.3,58.6z M143.3,64.7l10.3,14.1h2.8V58.6H153l0.1,14l-10.2-14h-2.9v20.2h3.4
		L143.3,64.7L143.3,64.7z M168,58.6v3.1h6.8v17.2h3.4V61.8h6.8v-3.1H168L168,58.6z"/>
</g>
</svg>
