<?xml version="1.0" encoding="UTF-8"?><svg xmlns="http://www.w3.org/2000/svg" width="193.42" height="24" xmlns:xlink="http://www.w3.org/1999/xlink" viewBox="0 0 193.42 24"><defs><style>.g{fill:url(#f);}.h{fill:#0052cc;}.i{fill:#2684ff;}</style><linearGradient id="f" x1="216.23" y1="-284.73" x2="210.09" y2="-295.36" gradientTransform="translate(-206 -272) scale(1 -1)" gradientUnits="userSpaceOnUse"><stop offset="0" stop-color="#0052cc"/><stop offset=".92" stop-color="#2684ff"/></linearGradient></defs><g id="a"/><g id="b"><g id="c"><g id="d"><g id="e"><path class="g" d="M7.04,10.95c-.23-.3-.65-.35-.95-.13-.09,.07-.16,.15-.2,.25L.07,22.7c-.17,.34-.03,.76,.31,.93,.1,.05,.2,.07,.31,.07H8.79c.26,0,.51-.14,.62-.38,1.75-3.61,.69-9.1-2.38-12.37Z"/><path class="i" d="M11.3,.37c-2.95,4.54-3.29,10.29-.9,15.14l3.9,7.81c.12,.24,.36,.38,.62,.38h8.1c.38,0,.69-.31,.69-.7,0-.11-.03-.21-.07-.31C23.65,22.7,12.76,.91,12.48,.37c-.16-.33-.55-.46-.88-.3-.13,.06-.24,.17-.3,.31Z"/><path class="h" d="M106.25,9.69c0,2.88,1.34,5.16,6.56,6.17,3.12,.65,3.77,1.16,3.77,2.2s-.65,1.66-2.85,1.66c-2.65-.05-5.25-.75-7.57-2.05v4.69c1.57,.77,3.65,1.63,7.51,1.63,5.46,0,7.63-2.44,7.63-6.05m0,0c0-3.41-1.81-5.02-6.92-6.11-2.82-.62-3.5-1.25-3.5-2.14,0-1.13,1.01-1.6,2.88-1.6,2.26,0,4.48,.68,6.59,1.63V5.24c-2.02-.92-4.22-1.38-6.44-1.34-5.05,0-7.66,2.2-7.66,5.79"/><polygon class="h" points="176.41 4.2 176.41 23.7 180.57 23.7 180.57 8.83 182.32 12.78 188.19 23.7 193.42 23.7 193.42 4.2 189.26 4.2 189.26 16.79 187.69 13.14 182.97 4.2 176.41 4.2"/><rect class="h" x="145.44" y="4.2" width="4.54" height="19.5"/><path class="h" d="M140.2,17.95c0-3.41-1.81-5.02-6.92-6.11-2.82-.62-3.5-1.25-3.5-2.14,0-1.13,1.01-1.6,2.88-1.6,2.26,0,4.48,.68,6.59,1.63V5.24c-2.02-.92-4.22-1.38-6.44-1.34-5.05,0-7.66,2.2-7.66,5.79,0,2.88,1.34,5.16,6.56,6.17,3.12,.65,3.77,1.16,3.77,2.2s-.65,1.66-2.85,1.66c-2.65-.05-5.25-.75-7.57-2.05v4.69c1.57,.77,3.65,1.63,7.51,1.63,5.46,0,7.63-2.44,7.63-6.05"/><polygon class="h" points="70.98 4.2 70.98 23.7 80.31 23.7 81.78 19.49 75.55 19.49 75.55 4.2 70.98 4.2"/><polygon class="h" points="52.54 4.2 52.54 8.42 57.58 8.42 57.58 23.7 62.15 23.7 62.15 8.42 67.55 8.42 67.55 4.2 52.54 4.2"/><path class="h" d="M45.91,4.2h-5.99l-6.8,19.5h5.19l.96-3.28c2.37,.7,4.9,.7,7.27,0l.96,3.28h5.19l-6.8-19.5Zm-3,12.7c-.85,0-1.69-.12-2.5-.36l2.5-8.51,2.5,8.51c-.81,.24-1.65,.36-2.5,.36Z"/><path class="h" d="M96.4,4.2h-5.99l-6.8,19.5h5.19l.96-3.28c2.37,.7,4.9,.7,7.27,0l.96,3.28h5.19l-6.8-19.5Zm-2.99,12.7c-.85,0-1.69-.12-2.5-.36l2.5-8.51,2.5,8.51c-.81,.24-1.65,.36-2.5,.36Z"/><path class="h" d="M166.35,4.2h-5.99l-6.8,19.5h5.19l.96-3.28c2.37,.7,4.9,.7,7.27,0l.96,3.28h5.19l-6.8-19.5Zm-3,12.7c-.85,0-1.69-.12-2.5-.36l2.5-8.51,2.5,8.51c-.81,.24-1.65,.36-2.5,.36Z"/></g></g></g></g></svg>