<?xml version="1.0" encoding="utf-8"?>
<!-- Generator: Adobe Illustrator 26.1.0, SVG Export Plug-In . SVG Version: 6.00 Build 0)  -->
<svg version="1.1" id="Layer_1" xmlns="http://www.w3.org/2000/svg" xmlns:xlink="http://www.w3.org/1999/xlink" x="0px" y="0px"
	 viewBox="0 0 200 140" style="enable-background:new 0 0 200 140;" xml:space="preserve">
<style type="text/css">
	.st0{fill:#A3E8F5;}
</style>
<g>
	<path class="st0" d="M13.7,75.9l-4.5,0.5l-0.5-4.5l4.5-0.5L13.7,75.9z M18.2,80.4h4.2l-9.5-23.9H9.7L0,80.4h4.2l7-17.7L18.2,80.4z
		 M128.4,56.6v3.7h-10.1v5.8h9.5v3.7h-9.5v7h10.6v3.7h-14.6V56.7L128.4,56.6L128.4,56.6L128.4,56.6z M46.6,80.8
		c-7-0.2-11.9-5.1-11.9-12c0-7.3,5.1-12.6,12.2-12.6c6.9,0,11.9,5.1,11.9,12c0.1,2.5-0.6,4.9-1.9,7.1c-0.8,1.3-1.8,2.3-3,3.2
		l5.4,1.5l-1,3.8 M58.1,83.8l-11.5-3 M38.7,68.8c0,4.8,3.4,8.4,7.9,8.4c4.8,0,8.1-3.6,8.1-8.9c0-4.2-2.7-8.5-7.9-8.5
		C41.2,59.8,38.7,64.3,38.7,68.8z M91,56.6v13.6c0,3.2-1,7-5.6,7c-4.4,0-5.3-3.8-5.3-7V56.6h-3.9v13.6c0,9.6,6.4,10.6,9.1,10.6
		c6,0,9.7-4,9.7-10.8V56.5C95,56.6,91,56.6,91,56.6z M150.9,63.8L163,80.4h3.3V56.6h-4l0.1,16.5l-12-16.5H147v23.8h4L150.9,63.8
		L150.9,63.8z M180,56.6v3.7h8v20.2h4V60.3h8v-3.7L180,56.6L180,56.6z"/>
</g>
</svg>
