<?xml version="1.0" encoding="UTF-8"?><svg xmlns="http://www.w3.org/2000/svg" width="120" height="40" viewBox="0 0 120 40"><defs><style>.e{fill:#bc204b;}</style></defs><g id="a"/><g id="b"><g id="c"><g id="d"><g><path class="e" d="M49.04,18.88c0-.88-.24-1.52-.4-2.32-.32-.72-.64-1.36-1.12-1.92-.48-.48-1.04-.88-1.84-1.28-.72-.32-1.52-.4-2.56-.4-.88,0-1.68,.16-2.56,.4-.8,.32-1.52,.8-2.08,1.28s-1.04,1.12-1.52,1.92c-.32,.8-.56,1.52-.64,2.32h12.72Zm4.32,1.76v.8c0,.32,0,.48-.08,.72h-16.72c0,.88,.32,1.68,.56,2.48,.32,.8,.88,1.52,1.52,2.08s1.36,.96,2.08,1.36c.88,.32,1.68,.48,2.64,.48,1.44,0,2.72-.32,3.68-.88,.96-.64,1.84-1.44,2.48-2.24l2.88,2.32c-1.12,1.52-2.48,2.64-3.92,3.28-1.52,.72-3.28,1.04-5.12,1.04-1.52,0-3.12-.32-4.48-.88-1.44-.48-2.56-1.28-3.52-2.24-.88-.88-1.76-2.08-2.32-3.44-.56-1.44-.88-2.8-.88-4.48s.32-3.2,.88-4.48c.56-1.44,1.36-2.56,2.24-3.52,.96-.88,2.08-1.76,3.44-2.24,1.36-.56,2.72-.88,4.32-.88s2.96,.32,4.24,.8c1.28,.48,2.32,1.2,3.28,2.08,.88,.88,1.52,2.08,2.08,3.44,.48,1.2,.72,2.8,.72,4.4"/><path class="e" d="M110,15.52c-.48-.8-1.12-1.44-2.08-1.92-.88-.48-1.84-.8-2.88-.8-.4,0-.88,.08-1.52,.16-.48,.16-.88,.32-1.28,.48s-.72,.48-.88,.88c-.32,.32-.32,.8-.32,1.28,0,.88,.32,1.52,1.2,2,.88,.4,2.08,.88,3.6,1.2,.96,.32,2,.48,2.72,.88,.88,.32,1.52,.8,2.24,1.2,.64,.48,1.12,1.04,1.52,1.76,.32,.72,.48,1.52,.48,2.4,0,1.28-.32,2.24-.72,3.2-.4,.88-1.04,1.52-1.92,2.08-.8,.56-1.68,.88-2.72,1.2-.96,.32-2.08,.32-3.12,.32-1.52,0-3.2-.32-4.64-.88-1.52-.64-2.72-1.52-3.84-2.8l2.96-2.56c.56,.88,1.36,1.52,2.32,2.08,.96,.64,2.08,.88,3.28,.88,.48,0,1.04-.08,1.52-.16,.48-.16,.88-.32,1.36-.48s.72-.56,.88-.88c.32-.32,.32-.88,.32-1.52,0-.88-.4-1.68-1.44-2.08-.88-.4-2.24-.88-4.08-1.36-.72-.24-1.52-.32-2.08-.64-.72-.32-1.44-.56-2-1.04-.56-.4-1.04-.96-1.52-1.6-.32-.72-.56-1.52-.56-2.48,0-1.12,.32-2.08,.72-2.88,.4-.88,1.04-1.52,1.76-2.08,.8-.48,1.52-.88,2.56-1.12,.88-.32,1.92-.32,2.88-.32,1.52,0,2.96,.32,4.4,.88s2.48,1.52,3.28,2.64l-2.4,2.08h0Z"/><path class="e" d="M94.24,22.56V10.24h-4.16v12.32h0c0,2.88-2.08,5.68-5.12,5.68s-5.12-2.8-5.12-5.68h0V10.24h-4.24v12.32h.08c0,5.12,4.16,9.36,9.28,9.36s9.28-4.24,9.28-9.36h0Z"/><polygon class="e" points="29.36 31.36 25.28 31.36 25.28 0 29.36 0 29.36 31.36"/><polygon class="e" points="79.52 0 76.88 0 63.68 16.08 58.16 10.24 55.12 10.24 61.04 19.36 47.28 40 50.08 40 63.92 23.28 71.2 31.36 74.32 31.36 66.48 19.68 79.52 0"/><path class="e" d="M49.04,18.88c0-.88-.24-1.52-.4-2.32-.32-.72-.64-1.36-1.12-1.92-.48-.48-1.04-.88-1.84-1.28-.72-.32-1.52-.4-2.56-.4-.88,0-1.68,.16-2.56,.4-.8,.32-1.52,.8-2.08,1.28s-1.04,1.12-1.52,1.92c-.32,.8-.56,1.52-.64,2.32h12.72Zm4.32,1.76v.8c0,.32,0,.48-.08,.72h-16.72c0,.88,.32,1.68,.56,2.48,.32,.8,.88,1.52,1.52,2.08s1.36,.96,2.08,1.36c.88,.32,1.68,.48,2.64,.48,1.44,0,2.72-.32,3.68-.88,.96-.64,1.84-1.44,2.48-2.24l2.88,2.32c-1.12,1.52-2.48,2.64-3.92,3.28-1.52,.72-3.28,1.04-5.12,1.04-1.52,0-3.12-.32-4.48-.88-1.44-.48-2.56-1.28-3.52-2.24-.88-.88-1.76-2.08-2.32-3.44-.56-1.44-.88-2.8-.88-4.48s.32-3.2,.88-4.48c.56-1.44,1.36-2.56,2.24-3.52,.96-.88,2.08-1.76,3.44-2.24,1.36-.56,2.72-.88,4.32-.88s2.96,.32,4.24,.8c1.28,.48,2.32,1.2,3.28,2.08,.88,.88,1.52,2.08,2.08,3.44,.48,1.2,.72,2.8,.72,4.4"/><path class="e" d="M110,15.52c-.48-.8-1.12-1.44-2.08-1.92-.88-.48-1.84-.8-2.88-.8-.4,0-.88,.08-1.52,.16-.48,.16-.88,.32-1.28,.48s-.72,.48-.88,.88c-.32,.32-.32,.8-.32,1.28,0,.88,.32,1.52,1.2,2,.88,.4,2.08,.88,3.6,1.2,.96,.32,2,.48,2.72,.88,.88,.32,1.52,.8,2.24,1.2,.64,.48,1.12,1.04,1.52,1.76,.32,.72,.48,1.52,.48,2.4,0,1.28-.32,2.24-.72,3.2-.4,.88-1.04,1.52-1.92,2.08-.8,.56-1.68,.88-2.72,1.2-.96,.32-2.08,.32-3.12,.32-1.52,0-3.2-.32-4.64-.88-1.52-.64-2.72-1.52-3.84-2.8l2.96-2.56c.56,.88,1.36,1.52,2.32,2.08,.96,.64,2.08,.88,3.28,.88,.48,0,1.04-.08,1.52-.16,.48-.16,.88-.32,1.36-.48s.72-.56,.88-.88c.32-.32,.32-.88,.32-1.52,0-.88-.4-1.68-1.44-2.08-.88-.4-2.24-.88-4.08-1.36-.72-.24-1.52-.32-2.08-.64-.72-.32-1.44-.56-2-1.04-.56-.4-1.04-.96-1.52-1.6-.32-.72-.56-1.52-.56-2.48,0-1.12,.32-2.08,.72-2.88,.4-.88,1.04-1.52,1.76-2.08,.8-.48,1.52-.88,2.56-1.12,.88-.32,1.92-.32,2.88-.32,1.52,0,2.96,.32,4.4,.88s2.48,1.52,3.28,2.64l-2.4,2.08h0Z"/><path class="e" d="M94.24,22.56V10.24h-4.16v12.32h0c0,2.88-2.08,5.68-5.12,5.68s-5.12-2.8-5.12-5.68h0V10.24h-4.24v12.32h.08c0,5.12,4.16,9.36,9.28,9.36s9.28-4.24,9.28-9.36h0Z"/><path class="e" d="M11.12,28.4c-3.92,0-7.28-2.96-7.28-7.6,0-4.24,3.28-7.6,7.28-7.6s7.28,3.36,7.28,7.6c-.08,4.24-3.2,7.6-7.28,7.6m0,3.28c6.24,0,11.12-4.96,11.12-10.96,0-6.64-4.96-10.96-11.12-10.96S0,14.08,0,21.36v18.64H3.92v-9.12c0-.8,0-1.36-.08-2.32,1.36,2.08,4.72,3.12,7.28,3.12"/><polygon class="e" points="29.36 31.36 25.28 31.36 25.28 0 29.36 0 29.36 31.36"/><polygon class="e" points="79.52 0 76.88 0 63.68 16.08 58.16 10.24 55.12 10.24 61.04 19.36 47.28 40 50.08 40 63.92 23.28 71.2 31.36 74.32 31.36 66.48 19.68 79.52 0"/><path class="e" d="M117.76,21.12h.24c.32,0,.4-.08,.4-.32s-.16-.32-.4-.32h-.32l.08,.64h0Zm0,1.04h-.48v-2c.24-.08,.4-.08,.8-.08s.56,.08,.72,.16,.24,.32,.24,.4-.24,.32-.4,.4h0c.24,.08,.32,.24,.32,.48,.08,.32,.16,.4,.16,.48h-.48c-.08-.08-.16-.32-.24-.48-.08-.24-.24-.32-.4-.32h-.4v.88l.16,.08h0Zm-1.28-1.04c0,.88,.64,1.52,1.52,1.52s1.52-.72,1.52-1.52c0-.88-.64-1.52-1.52-1.52-.8,0-1.52,.72-1.52,1.52h0Zm3.52,0c0,1.04-.88,2-2.08,2s-2.08-.88-2.08-2c0-1.04,.88-2,2.08-2s2.08,.96,2.08,2h0Z"/></g></g></g></g></svg>