<?xml version="1.0" encoding="UTF-8"?><svg xmlns="http://www.w3.org/2000/svg" width="134.42" height="44" viewBox="0 0 134.42 44"><defs><style>.d{fill:#a3e8f5;}</style></defs><g id="a"/><g id="b"><g id="c"><g><path class="d" d="M45.97,16.4c3.14,0,6.18,2.6,6.18,6.72s-2.96,6.63-6.18,6.63c-3.49,0-6.27-2.78-6.27-6.72s2.69-6.63,6.27-6.63h0Zm-.09-4.3c-6.45,0-11.02,5.02-11.02,10.93s4.48,11.11,11.11,11.11c6,0,10.93-4.57,10.93-10.93,0-7.35-5.74-11.11-11.02-11.11h0Z"/><path class="d" d="M69.99,16.4c3.14,0,6.18,2.6,6.18,6.72s-2.96,6.63-6.18,6.63c-3.49,0-6.27-2.78-6.27-6.72s2.69-6.63,6.27-6.63h0Zm-.09-4.3c-6.45,0-11.02,5.02-11.02,10.93s4.48,11.11,11.11,11.11c6,0,10.93-4.57,10.93-10.93,0-7.35-5.74-11.11-11.02-11.11h0Z"/><path class="d" d="M93.91,16.4c2.87,0,5.91,2.51,5.91,6.72s-2.96,6.63-5.91,6.63c-3.14,0-6.09-2.6-6.09-6.63s2.96-6.72,6.09-6.72h0Zm-.45-4.3c-5.91,0-10.57,5.2-10.57,11.02,0,6.63,5.38,11.02,10.48,11.02,3.14,0,4.84-1.25,6-2.69v2.15c0,3.76-2.33,6.09-5.74,6.09s-5.02-2.51-5.65-3.94l-4.21,1.79c1.52,3.14,4.48,6.45,9.86,6.45,5.91,0,10.31-3.67,10.31-11.47V12.81h-4.57v1.88c-1.34-1.61-3.32-2.6-5.91-2.6h0Z"/><path class="d" d="M124.74,16.31c1.97,0,3.49,1.08,4.03,2.33l-9.86,4.12c-.45-3.14,2.6-6.45,5.82-6.45h0Zm-.27-4.21c-5.56,0-10.22,4.39-10.22,10.93,0,6.9,5.2,11.02,10.75,11.02,4.66,0,7.53-2.51,9.23-4.84l-3.76-2.51c-.99,1.52-2.6,3.05-5.38,3.05-3.05,0-4.48-1.7-5.38-3.32l14.7-6.09-.81-1.79c-1.34-3.49-4.66-6.45-9.14-6.45h0Z"/><polygon class="d" points="107.27 33.43 112.11 33.43 112.11 1.08 107.27 1.08 107.27 33.43"/><path class="d" d="M33.07,15.5h-15.68v4.66h11.11c-.54,6.54-6,9.32-11.11,9.32-6.54,0-12.28-5.2-12.28-12.37S10.57,4.66,17.38,4.66c5.29,0,8.42,3.41,8.42,3.41l3.23-3.41S24.82,0,17.21,0C7.53,0,0,8.15,0,17.03s7.08,17.12,17.47,17.12c9.14,0,15.86-6.27,15.86-15.5,0-2.06-.27-3.14-.27-3.14h0Z"/></g></g></g></svg>