<?xml version="1.0" encoding="UTF-8"?><svg xmlns="http://www.w3.org/2000/svg" width="138" height="46" viewBox="0 0 138 46"><defs><style>.e{fill:#a3e8f5;}</style></defs><g id="a"/><g id="b"><g id="c"><g id="d"><g><path class="e" d="M56.4,21.71c0-1.01-.28-1.75-.46-2.67-.37-.83-.74-1.56-1.29-2.21-.55-.55-1.2-1.01-2.12-1.47-.83-.37-1.75-.46-2.94-.46-1.01,0-1.93,.18-2.94,.46-.92,.37-1.75,.92-2.39,1.47s-1.2,1.29-1.75,2.21c-.37,.92-.64,1.75-.74,2.67h14.63Zm4.97,2.02v.92c0,.37,0,.55-.09,.83h-19.23c0,1.01,.37,1.93,.64,2.85,.37,.92,1.01,1.75,1.75,2.39s1.56,1.1,2.39,1.56c1.01,.37,1.93,.55,3.04,.55,1.66,0,3.13-.37,4.23-1.01,1.1-.74,2.12-1.66,2.85-2.58l3.31,2.67c-1.29,1.75-2.85,3.04-4.51,3.77-1.75,.83-3.77,1.2-5.89,1.2-1.75,0-3.59-.37-5.15-1.01-1.66-.55-2.94-1.47-4.05-2.58-1.01-1.01-2.02-2.39-2.67-3.96-.64-1.66-1.01-3.22-1.01-5.15s.37-3.68,1.01-5.15c.64-1.66,1.56-2.94,2.58-4.05,1.1-1.01,2.39-2.02,3.96-2.58,1.56-.64,3.13-1.01,4.97-1.01s3.4,.37,4.88,.92c1.47,.55,2.67,1.38,3.77,2.39,1.01,1.01,1.75,2.39,2.39,3.96,.55,1.38,.83,3.22,.83,5.06"/><path class="e" d="M126.5,17.85c-.55-.92-1.29-1.66-2.39-2.21-1.01-.55-2.12-.92-3.31-.92-.46,0-1.01,.09-1.75,.18-.55,.18-1.01,.37-1.47,.55s-.83,.55-1.01,1.01c-.37,.37-.37,.92-.37,1.47,0,1.01,.37,1.75,1.38,2.3,1.01,.46,2.39,1.01,4.14,1.38,1.1,.37,2.3,.55,3.13,1.01,1.01,.37,1.75,.92,2.58,1.38,.74,.55,1.29,1.2,1.75,2.02,.37,.83,.55,1.75,.55,2.76,0,1.47-.37,2.58-.83,3.68-.46,1.01-1.2,1.75-2.21,2.39-.92,.64-1.93,1.01-3.13,1.38-1.1,.37-2.39,.37-3.59,.37-1.75,0-3.68-.37-5.34-1.01-1.75-.74-3.13-1.75-4.42-3.22l3.4-2.94c.64,1.01,1.56,1.75,2.67,2.39,1.1,.74,2.39,1.01,3.77,1.01,.55,0,1.2-.09,1.75-.18,.55-.18,1.01-.37,1.56-.55s.83-.64,1.01-1.01c.37-.37,.37-1.01,.37-1.75,0-1.01-.46-1.93-1.66-2.39-1.01-.46-2.58-1.01-4.69-1.56-.83-.28-1.75-.37-2.39-.74-.83-.37-1.66-.64-2.3-1.2-.64-.46-1.2-1.1-1.75-1.84-.37-.83-.64-1.75-.64-2.85,0-1.29,.37-2.39,.83-3.31,.46-1.01,1.2-1.75,2.02-2.39,.92-.55,1.75-1.01,2.94-1.29,1.01-.37,2.21-.37,3.31-.37,1.75,0,3.4,.37,5.06,1.01s2.85,1.75,3.77,3.04l-2.76,2.39h0Z"/><path class="e" d="M108.38,25.94V11.78h-4.78v14.17h0c0,3.31-2.39,6.53-5.89,6.53s-5.89-3.22-5.89-6.53h0V11.78h-4.88v14.17h.09c0,5.89,4.78,10.76,10.67,10.76s10.67-4.88,10.67-10.76h0Z"/><polygon class="e" points="33.76 36.06 29.07 36.06 29.07 0 33.76 0 33.76 36.06"/><polygon class="e" points="91.45 0 88.41 0 73.23 18.49 66.88 11.78 63.39 11.78 70.2 22.26 54.37 46 57.59 46 73.51 26.77 81.88 36.06 85.47 36.06 76.45 22.63 91.45 0"/><path class="e" d="M56.4,21.71c0-1.01-.28-1.75-.46-2.67-.37-.83-.74-1.56-1.29-2.21-.55-.55-1.2-1.01-2.12-1.47-.83-.37-1.75-.46-2.94-.46-1.01,0-1.93,.18-2.94,.46-.92,.37-1.75,.92-2.39,1.47s-1.2,1.29-1.75,2.21c-.37,.92-.64,1.75-.74,2.67h14.63Zm4.97,2.02v.92c0,.37,0,.55-.09,.83h-19.23c0,1.01,.37,1.93,.64,2.85,.37,.92,1.01,1.75,1.75,2.39s1.56,1.1,2.39,1.56c1.01,.37,1.93,.55,3.04,.55,1.66,0,3.13-.37,4.23-1.01,1.1-.74,2.12-1.66,2.85-2.58l3.31,2.67c-1.29,1.75-2.85,3.04-4.51,3.77-1.75,.83-3.77,1.2-5.89,1.2-1.75,0-3.59-.37-5.15-1.01-1.66-.55-2.94-1.47-4.05-2.58-1.01-1.01-2.02-2.39-2.67-3.96-.64-1.66-1.01-3.22-1.01-5.15s.37-3.68,1.01-5.15c.64-1.66,1.56-2.94,2.58-4.05,1.1-1.01,2.39-2.02,3.96-2.58,1.56-.64,3.13-1.01,4.97-1.01s3.4,.37,4.88,.92c1.47,.55,2.67,1.38,3.77,2.39,1.01,1.01,1.75,2.39,2.39,3.96,.55,1.38,.83,3.22,.83,5.06"/><path class="e" d="M126.5,17.85c-.55-.92-1.29-1.66-2.39-2.21-1.01-.55-2.12-.92-3.31-.92-.46,0-1.01,.09-1.75,.18-.55,.18-1.01,.37-1.47,.55s-.83,.55-1.01,1.01c-.37,.37-.37,.92-.37,1.47,0,1.01,.37,1.75,1.38,2.3,1.01,.46,2.39,1.01,4.14,1.38,1.1,.37,2.3,.55,3.13,1.01,1.01,.37,1.75,.92,2.58,1.38,.74,.55,1.29,1.2,1.75,2.02,.37,.83,.55,1.75,.55,2.76,0,1.47-.37,2.58-.83,3.68-.46,1.01-1.2,1.75-2.21,2.39-.92,.64-1.93,1.01-3.13,1.38-1.1,.37-2.39,.37-3.59,.37-1.75,0-3.68-.37-5.34-1.01-1.75-.74-3.13-1.75-4.42-3.22l3.4-2.94c.64,1.01,1.56,1.75,2.67,2.39,1.1,.74,2.39,1.01,3.77,1.01,.55,0,1.2-.09,1.75-.18,.55-.18,1.01-.37,1.56-.55s.83-.64,1.01-1.01c.37-.37,.37-1.01,.37-1.75,0-1.01-.46-1.93-1.66-2.39-1.01-.46-2.58-1.01-4.69-1.56-.83-.28-1.75-.37-2.39-.74-.83-.37-1.66-.64-2.3-1.2-.64-.46-1.2-1.1-1.75-1.84-.37-.83-.64-1.75-.64-2.85,0-1.29,.37-2.39,.83-3.31,.46-1.01,1.2-1.75,2.02-2.39,.92-.55,1.75-1.01,2.94-1.29,1.01-.37,2.21-.37,3.31-.37,1.75,0,3.4,.37,5.06,1.01s2.85,1.75,3.77,3.04l-2.76,2.39h0Z"/><path class="e" d="M108.38,25.94V11.78h-4.78v14.17h0c0,3.31-2.39,6.53-5.89,6.53s-5.89-3.22-5.89-6.53h0V11.78h-4.88v14.17h.09c0,5.89,4.78,10.76,10.67,10.76s10.67-4.88,10.67-10.76h0Z"/><path class="e" d="M12.79,32.66c-4.51,0-8.37-3.4-8.37-8.74,0-4.88,3.77-8.74,8.37-8.74s8.37,3.86,8.37,8.74c-.09,4.88-3.68,8.74-8.37,8.74m0,3.77c7.18,0,12.79-5.7,12.79-12.6,0-7.64-5.7-12.6-12.79-12.6S0,16.19,0,24.56v21.44H4.51v-10.49c0-.92,0-1.56-.09-2.67,1.56,2.39,5.43,3.59,8.37,3.59"/><polygon class="e" points="33.76 36.06 29.07 36.06 29.07 0 33.76 0 33.76 36.06"/><polygon class="e" points="91.45 0 88.41 0 73.23 18.49 66.88 11.78 63.39 11.78 70.2 22.26 54.37 46 57.59 46 73.51 26.77 81.88 36.06 85.47 36.06 76.45 22.63 91.45 0"/><path class="e" d="M135.42,24.29h.28c.37,0,.46-.09,.46-.37s-.18-.37-.46-.37h-.37l.09,.74h0Zm0,1.2h-.55v-2.3c.28-.09,.46-.09,.92-.09s.64,.09,.83,.18,.28,.37,.28,.46-.28,.37-.46,.46h0c.28,.09,.37,.28,.37,.55,.09,.37,.18,.46,.18,.55h-.55c-.09-.09-.18-.37-.28-.55-.09-.28-.28-.37-.46-.37h-.46v1.01l.18,.09h0Zm-1.47-1.2c0,1.01,.74,1.75,1.75,1.75s1.75-.83,1.75-1.75c0-1.01-.74-1.75-1.75-1.75-.92,0-1.75,.83-1.75,1.75h0Zm4.05,0c0,1.2-1.01,2.3-2.39,2.3s-2.39-1.01-2.39-2.3c0-1.2,1.01-2.3,2.39-2.3s2.39,1.1,2.39,2.3h0Z"/></g></g></g></g></svg>