<?xml version="1.0" encoding="UTF-8"?><svg xmlns="http://www.w3.org/2000/svg" width="139.9" height="44" viewBox="0 0 139.9 44"><defs><style>.d{fill:#fbbc05;}.e{fill:#ea4335;}.f{fill:#4285f4;}.g{fill:#34a853;}</style></defs><g id="a"/><g id="b"><g id="c"><g><path class="f" d="M17.47,15.67v4.71h11.25c-.34,2.64-1.22,4.57-2.56,5.93-1.65,1.65-4.21,3.44-8.69,3.44-6.93,0-12.34-5.59-12.34-12.52S10.55,4.73,17.47,4.73c3.73,0,6.47,1.47,8.48,3.37l3.31-3.31C26.47,2.07,22.72,0,17.47,0,7.98,0,0,7.73,0,17.22s7.98,17.22,17.47,17.22c5.13,0,9-1.68,12.02-4.82,3.1-3.1,4.08-7.48,4.08-11,0-1.09-.08-2.11-.25-2.95h-15.85Z"/><path class="e" d="M47.64,11.85c-6.14,0-11.16,4.67-11.16,11.12s5.01,11.12,11.16,11.12,11.16-4.71,11.16-11.12-5.01-11.12-11.16-11.12Zm0,17.86c-3.37,0-6.28-2.78-6.28-6.74s2.91-6.74,6.28-6.74,6.28,2.74,6.28,6.74-2.91,6.74-6.28,6.74Z"/><path class="f" d="M102.33,14.33h-.17c-1.09-1.3-3.2-2.49-5.86-2.49-5.55,0-10.39,4.84-10.39,11.12s4.84,11.12,10.39,11.12c2.66,0,4.77-1.19,5.86-2.53h.17v1.55c0,4.25-2.28,6.53-5.93,6.53-2.99,0-4.84-2.14-5.61-3.96l-4.25,1.76c1.22,2.95,4.46,6.56,9.86,6.56,5.72,0,10.56-3.37,10.56-11.58V12.42h-4.63v1.91Zm-5.61,15.37c-3.37,0-5.93-2.87-5.93-6.74s2.56-6.74,5.93-6.74,5.93,2.87,5.93,6.78c.02,3.89-2.6,6.7-5.93,6.7Z"/><path class="d" d="M72.52,11.85c-6.14,0-11.16,4.67-11.16,11.12s5.01,11.12,11.16,11.12,11.16-4.71,11.16-11.12-5.01-11.12-11.16-11.12Zm0,17.86c-3.37,0-6.28-2.78-6.28-6.74s2.91-6.74,6.28-6.74,6.28,2.74,6.28,6.74-2.91,6.74-6.28,6.74Z"/><path class="g" d="M110.79,.46h4.8V34.09h-4.8V.46Z"/><path class="e" d="M130.43,29.7c-2.49,0-4.25-1.13-5.4-3.37l14.87-6.14-.5-1.26c-.92-2.49-3.75-7.08-9.51-7.08s-10.49,4.5-10.49,11.12c0,6.24,4.71,11.12,11.02,11.12,5.09,0,8.04-3.12,9.26-4.92l-3.79-2.53c-1.26,1.84-2.99,3.06-5.47,3.06h0Zm-.34-13.68c1.97,0,3.66,1.01,4.21,2.45l-10.05,4.15c0-4.67,3.31-6.6,5.84-6.6Z"/></g></g></g></svg>