<?xml version="1.0" encoding="UTF-8"?><svg xmlns="http://www.w3.org/2000/svg" width="108.13" height="60" viewBox="0 0 108.13 60"><g id="a"/><g id="b"><g id="c"><g><g><rect y="26" width="8" height="34"/><path d="M26.22,14H16v8h10.22s4-4,0-8Z"/><g><polyline points="0 26 0 26.07 8 26.07 8 26"/><path d="M0,0V22H6c2,0,2-2,2-2h0V8H32V0H0Z"/></g><path d="M16,28s0-2,2-2h14V60H16V28Z"/></g><g><g><path d="M41.22,22.01c-.09,.02-.21,.05-.36,.09-.15,.04-.31,.06-.49,.06-.37,0-.65-.09-.84-.28-.19-.18-.29-.51-.29-.99v-4.65h-.9v-.61h.9v-1.44h.74v1.44h1.19v.61h-1.19v4.36c0,.16,0,.29,.01,.4,0,.11,.03,.21,.07,.28,.04,.07,.1,.13,.19,.16,.09,.03,.21,.05,.36,.05,.1,0,.2,0,.3-.03,.1-.02,.2-.04,.3-.06v.6Z"/><path d="M42.39,22.16v-7.97h.74v2.32c.29-.31,.6-.56,.91-.76,.31-.2,.69-.29,1.14-.29,.39,0,.76,.07,1.09,.2,.34,.14,.62,.37,.85,.71,.15,.23,.25,.46,.28,.7,.03,.24,.04,.49,.04,.76v4.33h-.74v-4.32c0-.57-.13-1-.38-1.29-.25-.29-.67-.43-1.26-.43-.23,0-.44,.04-.63,.1-.19,.07-.36,.16-.51,.28-.15,.12-.28,.25-.39,.39-.11,.15-.19,.3-.25,.47-.07,.2-.12,.4-.14,.59-.02,.19-.02,.39-.02,.61v3.6h-.74Z"/><path d="M49.67,18.98c0,.34,.04,.67,.13,.98,.09,.31,.22,.57,.4,.8,.18,.22,.4,.4,.67,.54,.27,.14,.58,.2,.93,.2,.48,0,.9-.13,1.24-.38,.34-.25,.57-.61,.69-1.08h.82c-.09,.3-.21,.58-.36,.84-.15,.26-.33,.48-.55,.67-.22,.19-.48,.34-.78,.45-.3,.11-.65,.16-1.06,.16-.51,0-.95-.09-1.31-.26-.37-.17-.67-.41-.91-.71-.24-.3-.41-.65-.53-1.05-.11-.41-.17-.84-.17-1.31s.07-.9,.2-1.31c.14-.41,.33-.77,.58-1.07,.25-.31,.55-.55,.91-.72,.36-.18,.77-.26,1.23-.26,.88,0,1.56,.3,2.06,.9,.5,.6,.74,1.47,.74,2.62h-4.93Zm4.15-.61c0-.31-.04-.6-.13-.88-.09-.27-.21-.51-.38-.71-.17-.2-.38-.36-.63-.48-.25-.12-.54-.18-.87-.18s-.62,.06-.87,.18c-.25,.12-.46,.29-.64,.49-.18,.2-.32,.44-.42,.71-.11,.27-.18,.56-.21,.86h4.15Z"/></g><path d="M104.6,26.18v11.46l-6.52-11.46h-3.6v5.97c-.32-1.92-1.09-3.44-2.31-4.55-1.24-1.28-3.04-1.92-5.39-1.92s-4.15,.64-5.39,1.92c-1.27,1.15-2.05,2.74-2.35,4.76v-6.18h-3.41v10.34c-.21-.85-.65-1.54-1.32-2.07-.63-.5-1.58-.9-2.84-1.19l-2.88-.68c-1.11-.26-1.84-.49-2.18-.68-.53-.29-.8-.73-.8-1.32,0-.64,.27-1.14,.81-1.49,.54-.36,1.27-.54,2.17-.54,.82,0,1.5,.14,2.05,.41,.82,.42,1.27,1.12,1.33,2.11h3.3c-.06-1.75-.71-3.08-1.95-4-1.24-.92-2.73-1.38-4.49-1.38-2.1,0-3.69,.49-4.77,1.46-1.08,.97-1.63,2.2-1.63,3.67,0,1.61,.55,2.8,1.66,3.56,.65,.45,1.86,.87,3.61,1.26l1.78,.39c1.04,.22,1.8,.48,2.28,.77,.48,.3,.72,.72,.72,1.26,0,.93-.49,1.57-1.47,1.91-.52,.18-1.19,.27-2.02,.27-1.38,0-2.36-.34-2.93-1.02-.31-.37-.52-.93-.63-1.68h-3.09c.04-.4,.05-.81,.05-1.26v-10.1h-3.49v10.1c0,1.13-.13,1.95-.4,2.47-.42,.92-1.32,1.38-2.7,1.38s-2.3-.46-2.71-1.38c-.27-.52-.4-1.35-.4-2.47v-10.07h-14.7v16.41h3.41v-6.89h6.04v-2.85h-6.04v-3.78h7.8v7.19c0,1.75,.27,3.11,.81,4.08,1.02,1.78,2.95,2.68,5.79,2.68s4.77-.89,5.78-2.68c.29-.52,.5-1.16,.63-1.9,.19,1.28,.79,2.32,1.79,3.11,1.24,.98,2.94,1.47,5.11,1.47s3.76-.5,4.92-1.49c.82-.7,1.35-1.52,1.59-2.48v3.54h3.41v-6.25c.3,2,1.08,3.6,2.35,4.79,1.24,1.28,3.04,1.92,5.39,1.92s4.14-.64,5.39-1.92c1.22-1.15,1.99-2.68,2.31-4.59v6.05h3.2v-11.66l6.69,11.66h3.43V26.18h-3.2Zm-14.58,12.48c-.8,1-1.88,1.5-3.24,1.5s-2.45-.5-3.26-1.5c-.81-1-1.22-2.43-1.22-4.28s.4-3.28,1.22-4.28c.81-1,1.9-1.51,3.26-1.51s2.44,.5,3.24,1.51c.8,1.01,1.2,2.43,1.2,4.28s-.4,3.28-1.2,4.28Z"/><g><path d="M39.17,60h-1.18v-14.15h1.18v1.78h.04c.17-.33,.39-.62,.66-.88,.27-.26,.56-.48,.88-.65,.32-.17,.65-.3,.99-.39,.34-.09,.67-.14,1-.14,.82,0,1.52,.14,2.1,.41,.57,.27,1.05,.65,1.42,1.13,.37,.48,.64,1.04,.81,1.7,.17,.65,.26,1.35,.26,2.1,0,.71-.09,1.38-.27,2.04-.18,.65-.46,1.23-.83,1.71-.37,.49-.84,.88-1.41,1.18-.57,.29-1.24,.44-2.01,.44-.72,0-1.41-.16-2.07-.48-.66-.32-1.18-.79-1.56-1.42v5.63Zm0-9.04c0,.58,.08,1.12,.24,1.64,.16,.52,.38,.97,.68,1.35,.29,.39,.65,.69,1.08,.92,.43,.23,.9,.34,1.44,.34,.6,0,1.13-.12,1.58-.36,.45-.24,.82-.57,1.11-.99,.29-.42,.5-.9,.63-1.46,.13-.55,.18-1.15,.16-1.79,0-.64-.09-1.2-.26-1.69-.18-.49-.42-.91-.74-1.24-.31-.34-.68-.6-1.1-.77-.42-.18-.88-.26-1.37-.26-.55,0-1.04,.11-1.47,.33-.43,.22-.79,.53-1.08,.91-.29,.39-.51,.84-.66,1.37-.15,.53-.23,1.1-.23,1.71Z"/><path d="M54.49,50.08c.22-.03,.49-.07,.79-.12,.31-.05,.56-.12,.75-.22,.2-.09,.32-.25,.36-.46,.05-.22,.07-.41,.07-.6,0-.6-.19-1.09-.58-1.48-.39-.38-1.04-.58-1.95-.58-.4,0-.78,.04-1.12,.11-.34,.07-.64,.2-.89,.37-.25,.18-.46,.41-.63,.71-.16,.29-.27,.66-.32,1.11h-1.2c.04-.6,.18-1.11,.41-1.54,.24-.42,.54-.77,.91-1.04,.37-.27,.8-.46,1.29-.59,.49-.12,1.01-.19,1.56-.19,.51,0,.99,.06,1.44,.17,.45,.11,.84,.29,1.18,.53,.33,.24,.59,.57,.78,.97,.19,.4,.28,.9,.28,1.49v5.53c0,.46,.08,.75,.25,.87,.16,.12,.49,.1,.99-.09v.92c-.09,.03-.23,.07-.4,.12-.18,.05-.35,.08-.52,.08-.18,0-.36-.02-.53-.06-.2-.03-.35-.09-.47-.19-.12-.1-.21-.22-.28-.35-.07-.14-.12-.29-.15-.45-.03-.16-.04-.34-.04-.52-.5,.55-1.07,.97-1.7,1.25-.64,.29-1.33,.43-2.08,.43-.44,0-.87-.06-1.28-.18-.41-.12-.77-.3-1.09-.55-.31-.25-.56-.55-.74-.91-.18-.36-.28-.79-.28-1.28,0-1.73,1.18-2.74,3.55-3.06l1.63-.22Zm1.98,.59c-.5,.21-1,.35-1.51,.41-.51,.07-1.02,.12-1.53,.16-.9,.07-1.6,.27-2.11,.61-.5,.34-.75,.86-.75,1.55,0,.31,.06,.59,.19,.81,.12,.23,.29,.42,.49,.57,.2,.15,.44,.26,.71,.33,.27,.07,.54,.11,.81,.11,.47,0,.93-.06,1.37-.18,.44-.12,.84-.3,1.19-.54,.35-.24,.62-.55,.83-.92,.21-.37,.31-.81,.31-1.32v-1.59Z"/><path d="M61.96,56h-1.18v-10.15h1.18v1.9h.04c.33-.81,.75-1.38,1.26-1.7,.52-.32,1.2-.48,2.05-.48v1.27c-.67-.01-1.22,.09-1.65,.31-.43,.22-.77,.52-1.03,.9-.25,.38-.43,.83-.53,1.34-.1,.52-.15,1.05-.15,1.62v4.98Z"/><path d="M71.17,56.04c-.14,.03-.33,.07-.57,.14-.24,.06-.5,.1-.78,.1-.59,0-1.04-.15-1.34-.44-.31-.29-.46-.82-.46-1.58v-7.43h-1.43v-.98h1.43v-2.82h1.18v2.82h1.9v.98h-1.9v6.96c0,.25,0,.46,.02,.65,.01,.18,.05,.33,.12,.45,.06,.12,.17,.2,.3,.25,.14,.05,.33,.08,.58,.08,.16,0,.32-.01,.48-.04,.16-.03,.32-.06,.48-.1v.96Z"/><path d="M74.23,56h-1.18v-10.15h1.18v1.41c.47-.5,.96-.9,1.46-1.22,.5-.31,1.11-.47,1.81-.47,.63,0,1.21,.11,1.74,.32,.54,.22,.99,.59,1.35,1.13,.25,.37,.4,.74,.44,1.13,.05,.39,.07,.79,.07,1.21v6.64h-1.18v-6.62c0-.91-.2-1.6-.61-2.06-.41-.46-1.08-.69-2.02-.69-.37,0-.7,.06-1,.17-.3,.11-.57,.26-.81,.44-.24,.18-.45,.39-.62,.63-.17,.24-.3,.48-.39,.74-.12,.33-.19,.64-.22,.94-.03,.3-.04,.63-.04,.98v5.47Z"/><path d="M84.68,51.2c0,.55,.07,1.07,.22,1.56,.14,.49,.36,.91,.64,1.27,.28,.36,.64,.65,1.07,.86,.43,.22,.93,.32,1.49,.32,.77,0,1.43-.2,1.98-.61,.55-.4,.91-.98,1.1-1.72h1.31c-.14,.48-.33,.93-.57,1.34-.24,.41-.53,.77-.88,1.08-.35,.31-.77,.55-1.25,.72-.48,.17-1.05,.25-1.69,.25-.81,0-1.51-.14-2.1-.41-.59-.27-1.07-.65-1.45-1.13-.38-.48-.66-1.04-.84-1.68-.18-.65-.27-1.34-.27-2.09s.11-1.44,.32-2.1c.21-.65,.52-1.22,.92-1.71,.4-.49,.89-.88,1.46-1.16,.57-.28,1.23-.42,1.96-.42,1.4,0,2.5,.48,3.29,1.44,.8,.96,1.19,2.36,1.18,4.18h-7.88Zm6.63-.98c0-.5-.07-.96-.21-1.4-.14-.44-.34-.82-.61-1.14-.27-.32-.6-.57-1.01-.76-.4-.19-.87-.28-1.39-.28s-.98,.1-1.38,.29c-.4,.2-.74,.46-1.02,.78-.28,.33-.51,.71-.68,1.14-.17,.43-.28,.89-.33,1.37h6.63Z"/><path d="M96.09,56h-1.18v-10.15h1.18v1.9h.04c.33-.81,.75-1.38,1.27-1.7,.52-.32,1.2-.48,2.05-.48v1.27c-.67-.01-1.21,.09-1.65,.31-.43,.22-.77,.52-1.03,.9-.25,.38-.43,.83-.53,1.34-.1,.52-.15,1.05-.15,1.62v4.98Z"/><path d="M101.32,52.83c.18,.88,.51,1.49,.99,1.85,.48,.36,1.16,.54,2.05,.54,.43,0,.8-.05,1.12-.16,.31-.1,.57-.25,.77-.42,.2-.18,.36-.38,.46-.6,.1-.22,.16-.46,.16-.71,0-.5-.16-.87-.48-1.11-.32-.24-.72-.43-1.21-.57-.48-.14-1.01-.25-1.57-.35-.56-.1-1.08-.25-1.57-.44-.48-.2-.89-.48-1.2-.84-.32-.37-.48-.88-.48-1.55,0-.85,.31-1.55,.93-2.09,.62-.54,1.5-.81,2.64-.81s1.99,.25,2.68,.74c.69,.49,1.1,1.31,1.24,2.46h-1.19c-.11-.78-.4-1.34-.89-1.66-.49-.32-1.11-.48-1.85-.48s-1.31,.16-1.71,.48c-.39,.32-.59,.74-.59,1.26,0,.46,.16,.81,.48,1.05,.32,.24,.72,.44,1.2,.59,.48,.15,1.01,.28,1.57,.4,.56,.12,1.08,.28,1.57,.5,.48,.22,.88,.51,1.2,.87,.32,.37,.48,.87,.48,1.53,0,.48-.11,.91-.31,1.28-.21,.37-.5,.68-.86,.93-.37,.25-.8,.43-1.3,.56-.5,.12-1.06,.19-1.66,.19s-1.13-.09-1.6-.26c-.46-.18-.86-.42-1.19-.74-.33-.31-.58-.68-.76-1.1-.18-.42-.29-.87-.31-1.35h1.2Z"/></g></g></g></g></g></svg>