<?xml version="1.0" encoding="UTF-8"?><svg xmlns="http://www.w3.org/2000/svg" width="120.77" height="40" viewBox="0 0 120.77 40"><defs><style>.d{fill:#f24e1e;}.e{fill:#ff7262;}.f{fill:#a259ff;}.g{fill:#0acf83;}.h{fill:#1abcfe;}.i{fill-rule:evenodd;}</style></defs><g id="a"/><g id="b"><g id="c"><g><g><rect y="0" width="26.67" height="40"/><path class="h" d="M13.33,20c0-3.68,2.98-6.67,6.67-6.67h0c3.68,0,6.67,2.98,6.67,6.67h0c0,3.68-2.98,6.67-6.67,6.67h0c-3.68,0-6.67-2.98-6.67-6.67h0Z"/><path class="g" d="M0,33.33c0-3.68,2.98-6.67,6.67-6.67h6.67v6.67c0,3.68-2.98,6.67-6.67,6.67h0c-3.68,0-6.67-2.98-6.67-6.67H0Z"/><path class="e" d="M13.33,0V13.33h6.67c3.68,0,6.67-2.98,6.67-6.67h0C26.67,2.98,23.68,0,20,0h-6.67Z"/><path class="d" d="M0,6.67c0,3.68,2.98,6.67,6.67,6.67h6.67V0H6.67C2.98,0,0,2.98,0,6.67H0Z"/><path class="f" d="M0,20c0,3.68,2.98,6.67,6.67,6.67h6.67V13.33H6.67c-3.68,0-6.67,2.98-6.67,6.67H0Z"/></g><g><rect x="37.16" y="5" width="83.61" height="30"/><path d="M37.16,5V28.41h3.01v-11.14h7.26v-2.95h-7.26V7.95h9.46v-2.95h-12.47Z"/><path d="M55.05,9.75c1.09,0,1.96-.88,1.96-1.96s-.88-1.96-1.96-1.96-1.96,.88-1.96,1.96,.88,1.96,1.96,1.96Z"/><path d="M53.52,12.7v15.72h3.01V12.7h-3.01Z"/><path class="i" d="M67.7,12.24c-4,0-6.79,3.38-6.79,7.4s2.79,7.4,6.79,7.4c1.83,0,3.34-.71,4.44-1.86v2.09c0,2.6-2.05,4.78-4.72,4.78-.96,0-1.91-.37-2.67-.9l-1.51,2.61c1.21,.78,2.64,1.23,4.18,1.23,4.27,0,7.73-3.46,7.73-7.73V12.7h-3.01v1.4c-1.1-1.15-2.61-1.86-4.44-1.86Zm-3.78,7.4c0-2.49,1.91-4.45,4.11-4.45s4.11,1.96,4.11,4.45-1.91,4.45-4.11,4.45-4.11-1.96-4.11-4.45Z"/><path d="M86.01,15.19c-1.78,0-3.23,1.51-3.23,3.29v9.94h-3.01V12.7h3.01v1.44c.88-1.14,2.18-1.9,3.88-1.9,2.11,0,3.73,1.05,4.67,2.65,1.04-1.55,2.75-2.65,4.79-2.65,3.43,0,5.56,2.77,5.58,6.19v.03h0v9.96h-3.01v-9.94c0-1.78-1.44-3.29-3.23-3.29s-3.23,1.51-3.23,3.29v9.94h-3.01v-9.94c0-1.78-1.44-3.29-3.23-3.29Z"/><path class="i" d="M117.76,14.48c-1.34-1.38-3.18-2.24-5.3-2.24-4.48,0-7.66,3.79-7.66,8.32s3.18,8.32,7.66,8.32c2.13,0,3.96-.86,5.3-2.24v1.78h3.01V12.7h-3.01v1.78Zm-9.95,6.08c0-3,2.3-5.37,4.98-5.37s4.98,2.37,4.98,5.37-2.3,5.37-4.98,5.37-4.98-2.37-4.98-5.37Z"/></g></g></g></g></svg>