<?xml version="1.0" encoding="UTF-8"?><svg xmlns="http://www.w3.org/2000/svg" width="117.2" height="40" viewBox="0 0 117.2 40"><defs><style>.d{fill:#fff;}.e{fill:#f06;}</style></defs><g id="a"/><g id="b"><g id="c"><g><polygon class="e" points="45.92 25.19 42.07 14.48 40 14.48 40 0 0 0 0 40 40 40 40 20.66 43.89 30.38 47.9 30.38 54.27 14.48 49.81 14.48 45.92 25.19"/><rect class="e" x="55.64" y="14.48" width="4.31" height="15.9"/><path class="e" d="M66.87,19.12c0-.88,.79-1.55,2.18-1.55,1.55,0,2.31,.91,2.4,1.91h4.16c-.12-2.34-1.76-5.37-6.52-5.37-3.91,0-6.37,2.37-6.37,5.25,0,6.31,8.83,3.79,8.83,6.46,0,.88-.85,1.46-2.49,1.46-1.79,0-2.58-1-2.64-2.06h-4.37c.21,2.98,1.91,5.52,6.89,5.52,4.31,0,6.74-2.24,6.74-5.1,0-6.52-8.8-3.85-8.8-6.52Z"/><rect class="e" x="77.85" y="14.48" width="4.31" height="15.9"/><path class="e" d="M92.39,14.12c-5.1,0-8.34,3.79-8.34,8.31s3.25,8.31,8.34,8.31,8.35-3.79,8.35-8.31-3.25-8.31-8.35-8.31Zm0,12.84c-2.27,0-4.03-1.67-4.03-4.52s1.76-4.52,4.03-4.52,4.04,1.67,4.04,4.52-1.76,4.52-4.04,4.52h0Z"/><path class="e" d="M111.34,14.12c-2.37,0-4,.94-4.73,2.31v-1.94h-3.97v15.9h4.31v-9.1c0-2.12,1.15-3.46,3.25-3.46,1.91,0,2.7,1.27,2.7,3.12v9.44h4.31v-9.92c0-3.79-2.03-6.34-5.86-6.34Z"/><path class="d" d="M14.01,12.6c1.27-.01,2.29-1.06,2.27-2.32-.01-1.27-1.06-2.29-2.32-2.27-1.26,.01-2.27,1.04-2.27,2.3,0,1.27,1.04,2.3,2.31,2.3h.01Z"/><path class="d" d="M9.17,24.9c-.13,.57-.2,1.15-.21,1.73,0,2.02,1.1,3.37,3.43,3.37,1.93,0,3.5-1.15,4.63-3l-.69,2.77h3.84l2.2-8.8c.55-2.24,1.61-3.4,3.22-3.4,1.27,0,2.06,.79,2.06,2.09,0,.42-.05,.83-.17,1.24l-1.13,4.06c-.16,.56-.24,1.13-.24,1.71,0,1.92,1.13,3.33,3.5,3.33,2.02,0,3.64-1.3,4.53-4.42l-1.51-.58c-.75,2.09-1.41,2.47-1.92,2.47s-.79-.34-.79-1.03c.01-.36,.07-.72,.17-1.06l1.1-3.94c.25-.81,.38-1.65,.38-2.5,0-2.95-1.78-4.49-3.95-4.49-2.02,0-4.09,1.83-5.11,3.75l.76-3.45h-5.87l-.82,3.04h2.75l-1.69,6.77c-1.33,2.95-3.77,3-4.07,2.93-.5-.11-.82-.3-.82-.96,.02-.53,.1-1.06,.24-1.57l2.57-10.21h-6.52l-.82,3.04h2.71l-1.75,7.14Z"/></g></g></g></svg>