<?xml version="1.0" encoding="UTF-8"?><svg xmlns="http://www.w3.org/2000/svg" width="169.11" height="66.29" viewBox="0 0 169.11 66.29"><defs><style>.e{fill:#204d9b;}</style></defs><g id="a"/><g id="b"><g id="c"><g id="d"><g><g><path class="e" d="M96.38,28.91c.92,0,1.69,.7,1.69,1.58s-.77,1.58-1.69,1.58-1.69-.7-1.69-1.58,.77-1.58,1.69-1.58"/><path class="e" d="M139.32,28.91c.92,0,1.69,.7,1.69,1.58s-.77,1.58-1.69,1.58-1.69-.7-1.69-1.58c.04-.88,.77-1.58,1.69-1.58"/><path class="e" d="M82.09,38.85h-.26c-.44,0-1.51,.04-2.28,.26-.55,.15-1.03,.52-1.03,1.03,0,.7,.7,1.03,1.36,1.03,1.4,0,2.21-.88,2.21-2.03v-.29Zm2.69-1.66v5.97h-2.61v-.99c-.66,.74-1.51,1.18-2.84,1.22-2.06,.07-3.68-1.18-3.68-3.06,0-2.87,3.06-3.5,6.08-3.5h.33c0-.81-.37-1.55-1.95-1.55-1.07,0-1.99,.33-2.65,.96l-1.58-1.58c1.07-1.07,2.61-1.62,4.31-1.62s2.58,.22,3.5,1.07c.96,.81,1.1,2.28,1.1,3.09"/><path class="e" d="M90.52,33.25v-3.13h-2.8v3.13h-1.95v2.36h1.95v4.2c0,1.4,.22,2.25,.81,2.8,.52,.52,1.33,.77,2.5,.77,.74,0,1.51-.15,2.1-.41v-2.21c-.37,.11-.88,.18-1.51,.18-.88,0-1.1-.48-1.1-1.29v-4.05h2.61v-2.36h-2.61Z"/><path class="e" d="M161.74,37.08c-.11-1.07-.7-1.88-2.14-1.84-1.18,.04-1.99,.85-2.14,1.84h4.27Zm3.02,1.29v.74h-7.25c.04,.99,1.18,1.88,2.54,1.91,1.25,.04,1.95-.44,2.58-1.14l1.77,1.29c-1.07,1.36-2.43,2.17-4.31,2.17-3.02,0-5.45-1.88-5.45-5.16,0-2.65,1.66-5.16,5.12-5.16s5.01,2.76,5.01,5.34"/><polygon class="e" points="70.89 28.8 70.89 38.56 64.82 28.8 61.02 28.8 61.02 43.16 64.12 43.16 64.12 33.07 70.38 43.16 73.99 43.16 73.99 28.8 70.89 28.8"/><polygon class="e" points="133.94 33.25 132.36 39.4 130.77 33.25 127.83 33.25 126.28 39.4 124.7 33.25 121.6 33.25 124.73 43.16 127.57 43.16 129.26 36.94 131.18 43.16 133.79 43.16 136.92 33.25 133.94 33.25"/><rect class="e" x="94.94" y="33.25" width="2.84" height="9.87"/><rect class="e" x="137.92" y="33.25" width="2.84" height="9.87"/><path class="e" d="M119.83,33.95c-.59-.63-1.33-.92-2.43-.92s-2.36,.55-2.95,1.29v-1.07h-2.73v9.87h2.84v-5.38c0-.7,.18-1.22,.52-1.58,.29-.33,.7-.52,1.25-.55,.63-.04,.99,.26,1.22,.55,.29,.37,.41,1.07,.41,1.95v5.01h2.84v-6.19c0-1.18-.15-2.17-.96-2.98"/><path class="e" d="M150.25,38.23c0-1.33-.85-2.69-2.5-2.69s-2.5,1.33-2.5,2.69,.85,2.65,2.5,2.65,2.5-1.33,2.5-2.65m2.76-9.43v14.33h-2.69v-1.1c-.63,.74-1.66,1.33-3.06,1.33s-2.54-.44-3.42-1.33c-.92-.92-1.47-2.32-1.47-3.83,0-2.98,2.03-5.19,4.79-5.19,1.22,0,2.21,.37,2.98,1.1v-5.3h2.87Z"/><path class="e" d="M104.77,35.54c-1.66,0-2.5,1.33-2.5,2.65s.85,2.65,2.5,2.65,2.5-1.33,2.5-2.65-.88-2.65-2.5-2.65m5.34,2.65c0,2.98-2.25,5.16-5.34,5.16s-5.34-2.17-5.34-5.16,2.25-5.16,5.34-5.16,5.34,2.17,5.34,5.16"/><path class="e" d="M165.02,31.05c0-1.03,.85-1.84,1.84-1.84s1.88,.85,1.88,1.84-.85,1.88-1.88,1.88-1.84-.85-1.84-1.88m-.41,0c0,1.25,1.03,2.25,2.25,2.25s2.25-1.03,2.25-2.25-1.03-2.25-2.25-2.25c-1.22,0-2.25,1.03-2.25,2.25m1.88-.88h.33c.29,0,.63,0,.63,.37s-.33,.37-.63,.37h-.33v-.74Zm-.48,2.17h.48v-1.07h.33l.66,1.07h.52l-.66-1.1c.37-.04,.63-.26,.63-.7,0-.52-.29-.77-.92-.77h-.99v2.58h-.04Z"/></g><path class="e" d="M36.13,54.5h11.93V15.1h-10.94v24.56l-3.17-3.09V16.98c-.04-11.53,1.33-16.98,1.33-16.98-3.68,0-5.63,3.5-6.04,4.53-2.1,.26-3.79,1.44-4.93,3.76-.66,1.33-.96,2.58-1.07,3.2-4.38,1.03-4.79,8.84-4.49,10.24l-6.78-6.63H.04V54.5H10.97V30.68s5.3,5.01,5.27,5.01c.48,1.44,.96,2.03,.96,2.03l-2.06-1.77c-.37,3.87,.7,5.86,1.73,7.33l-2.5-2.14c-.18,3.83,1.66,6.19,2.8,7.22l-3.35-1.62c-.22,2.28,2.06,5.67,3.42,6.3l-2.8-.41c.63,3.17,2.8,4.31,2.8,4.31,0,0-4.79-.11-7.03-.11-6.15-.04-10.2,.52-10.2,.52,0,0,2.73,2.69,6.19,2.84l-3.09,1.91c2.25,.74,4.38,.48,4.38,.48l-1.8,2.14s5.63-2.17,7.99-1.99c1.88,.15,10.72,3.57,16.65,3.57,3.98,0,6.85-1.51,9.17-2.76,1.4-.74,2.61-1.36,3.83-1.55,2.14-.33,3.13,.44,3.13,.44,.22-.92,.88-3.2-2.61-3.76-.15-.63-.74-1.44-1.66-1.58-1.88-.29-9.76-.88-9.98-.92-.66-.04-2.95-.48-.85-3.46,.15-.22,1.22-1.55,1.22-1.55l3.57,3.35Zm-.29,2.95c2.58,.18,4.42,.37,6.26,.59,.7,.07,.96,.88,1.07,1.29-.88-.22-2.28-.29-2.28-.29l-.07,.85s1.18-.33,2.5-.37c0,0,2.69,0,2.54,1.8-.74-.52-2.25-.29-2.65-.22-1.36,.22-2.61,.85-4.12,1.62-1.36,.7-2.84,1.47-4.53,2.03,.74-.74,2.73-2.91,2.73-2.91l-2.61-.92,2.14-1.88-3.31-1.8c.85,.11,1.62,.18,2.36,.22Zm-3.83-7.07c-1.22,1.4-2.8,3.42-2.47,4.86h0c.26,1.22,1.95,1.95,1.95,1.95l3.68,1.99-2.39,2.1,2.87,.88s-2.61,2.69-2.91,2.95c-.74,.11-1.55,.18-2.39,.18-6.08,0-14.51-3.57-16.61-3.61-2.5-.04-5.67,1.44-5.67,1.44l1.66-1.8s-2.17,.44-4.27,.26l2.95-2.03c-2.58-.07-4.86-.85-5.93-1.62,0,0,4.79-.37,11.27-.29,2.61,.04,7.07,.29,7.07,.29-2.21-.92-4.24-2.17-5.12-4.31l4.2,.63c-1.77-1.07-4.31-3.79-4.79-5.86l4.68,1.62c-.85-.88-3.72-3.61-4.24-6.74l3.68,2.32c-.96-.99-3.61-6.15-3.17-7.66l3.46,2.32c-1.66-2.03-3.57-7.44-2.28-9.54,1.07,4.12,3.39,5.6,3.39,5.6-1.55-2.21-4.82-10.09-1.69-13.55,.85,7.84,4.16,10.5,4.16,10.5-2.76-4.38-5.89-17.9-.04-20.62-1.14,8.69,1.62,13.4,1.62,13.4-1.73-7.99-1.66-19.3,4.27-20.37-2.91,8.54-.85,15.1-.85,15.1C27.66,.85,34.1,1.18,34.1,1.18c0,0-1.07,5.67-1.07,15.76v29.17c0,2.03-.18,3.24-1.03,4.27Z"/></g></g></g></g></svg>