<?xml version="1.0" encoding="UTF-8"?><svg xmlns="http://www.w3.org/2000/svg" width="158.22" height="36" viewBox="0 0 158.22 36"><defs><style>.d{fill:#fdb300;}.d,.e,.f,.g,.h,.i{fill-rule:evenodd;}.e{fill:#ea6c00;}.f{fill:#fdad00;}.g{fill:#fdd231;}.h{fill:#feeeb7;}</style></defs><g id="a"/><g id="b"><g id="c"><g><path class="i" d="M53.66,23.8l-.03-.41h-3.4l.02,.46c.21,5.1,3.65,8.47,9.76,8.47s9.79-3.03,9.79-7.61c0-2.48-.86-4.23-2.5-5.43-1.26-.92-2.77-1.44-5.27-1.98-.17-.04-.34-.07-.55-.12-.12-.03-.57-.12-.54-.11-4.54-.95-5.98-1.78-5.98-4.24s2.08-4.17,5.57-4.17,5.54,2.07,5.64,5.34v.43h3.39v-.45c-.13-5.09-3.54-8.52-9.06-8.52s-8.98,3.26-8.98,7.47c0,2.47,.86,4.19,2.5,5.34,1.25,.88,2.7,1.34,5.25,1.86,.12,.02,.24,.05,.39,.08l.39,.08c2.42,.48,3.48,.77,4.46,1.34,1.21,.7,1.81,1.71,1.81,3.26,0,2.7-2.27,4.24-6.24,4.24s-6.16-1.91-6.42-5.32ZM76.92,5.02v-.44h-3.38V31.83h3.38v-5.14l3.55-3.46,6.35,8.43,.13,.18h4.2l-.54-.71-7.75-10.21,7.15-7.11,.75-.75h-4.59l-.13,.13-9.13,9.19V5.02Zm31.54,18.58h.41l.03-.41c0-.07,.01-.19,.02-.34,0-.11,0-.23,.01-.33,0-.11,0-.22,0-.31,0-5.52-3.65-9.58-9.05-9.58s-9.23,4.33-9.23,9.79,3.67,9.83,9.27,9.83c4.23,0,7.5-2.51,8.68-6.32l.18-.57h-3.51l-.1,.29c-.74,2.09-2.74,3.47-5.21,3.47-3.23,0-5.48-2.22-5.88-5.52h14.39Zm-14.29-2.92c.57-2.96,2.75-4.92,5.71-4.92s5.16,1.9,5.62,4.92h-11.33Zm25.84-4.64h.44v-2.99h-4.11V7.96h-3.38v5.1h-3.41v2.99h3.41v10.53c0,3.45,1.79,5.33,5.08,5.33,.57,0,1.07-.03,1.48-.09,.26-.04,.43-.07,.53-.1l.32-.09v-3.13l-.53,.12s-.06,.01-.13,.02c-.1,.02-.22,.04-.35,.06-.32,.05-.64,.08-.93,.08-.03,0-.06,0-.09,0-1.44,0-2.02-.68-2.02-2.37v-10.36h3.67Zm10.5,16.21c4.67,0,7.97-2.96,8.8-7.14l.1-.52h-3.4l-.09,.33c-.71,2.67-2.64,4.21-5.41,4.21-3.46,0-5.85-2.73-5.85-6.66s2.39-6.7,5.85-6.7c2.78,0,4.7,1.54,5.41,4.21l.09,.33h3.4l-.1-.52c-.83-4.18-4.13-7.14-8.8-7.14-5.43,0-9.27,4.36-9.27,9.83s3.84,9.79,9.27,9.79Zm15.12-27.23v-.44h-3.38V31.83h3.38v-11.02c0-3.22,1.96-5.12,4.94-5.12s4.27,1.65,4.27,4.76v11.38h3.38v-11.87c0-4.4-2.73-7.33-7.23-7.33-2.31,0-4.17,.85-5.36,2.06V5.02Z"/><path class="d" d="M8.75,1.19L20.05,0l11.3,1.19,8.75,11.65-20.05,23.16L0,12.84,8.75,1.19Z"/><g transform="translate(0.000000, 30.666295)"><polygon class="e" points="8.12 12.84 20.05 36 0 12.84 8.12 12.84"/><polygon class="e" points="31.98 12.84 20.05 36 40.1 12.84 31.98 12.84"/><polygon class="f" points="8.12 12.84 31.98 12.84 20.05 36 8.12 12.84"/></g><polygon class="g" points="20.05 0 8.75 1.19 8.12 12.84 20.05 0"/><polygon class="g" points="20.05 0 31.35 1.19 31.98 12.84 20.05 0"/><polygon class="f" points="40.1 12.84 31.35 1.19 31.98 12.84 40.1 12.84"/><polygon class="f" points="0 12.84 8.75 1.19 8.12 12.84 0 12.84"/><polygon class="h" points="20.05 0 8.12 12.84 31.98 12.84 20.05 0"/></g></g></g></svg>