<?xml version="1.0" encoding="UTF-8"?><svg xmlns="http://www.w3.org/2000/svg" width="181.72" height="54" viewBox="0 0 181.72 54"><defs><style>.d{fill:#a3e8f5;}</style></defs><g id="a"/><g id="b"><g id="c"><g><path class="d" d="M29.42,44.4h9.73V12.29h-8.9v20.01l-2.58-2.53V13.82c-.05-9.37,1.07-13.82,1.07-13.82-3.01,0-4.58,2.86-4.93,3.7-1.69,.19-3.08,1.16-4.01,3.06-.53,1.07-.79,2.11-.88,2.62-3.57,.82-3.88,7.18-3.64,8.32l-5.54-5.4H.03V44.4H8.94V24.99l4.3,4.08c.39,1.17,.77,1.64,.77,1.64l-1.69-1.45c-.31,3.15,.58,4.77,1.4,5.96l-2.05-1.74c-.16,3.13,1.35,5.05,2.28,5.87l-2.72-1.33c-.19,1.87,1.69,4.61,2.78,5.14l-2.29-.34c.5,2.58,2.29,3.51,2.29,3.51,0,0-3.91-.08-5.72-.08-5.01,0-8.3,.47-8.3,.47,0,0,2.22,2.2,5.05,2.31l-2.52,1.56c1.83,.6,3.57,.39,3.57,.39l-1.46,1.74s4.59-1.76,6.52-1.63c1.54,.11,8.74,2.91,13.57,2.91,3.24,0,5.59-1.24,7.48-2.24,1.15-.61,2.14-1.1,3.12-1.25,1.75-.27,2.54,.37,2.54,.37,.18-.74,.72-2.6-2.12-3.05-.11-.51-.6-1.17-1.34-1.28-1.53-.23-7.94-.73-8.13-.74-.55-.03-2.4-.39-.7-2.83,.13-.18,.99-1.27,.99-1.27l2.85,2.69Zm-.23,2.4c2.11,.16,3.6,.3,5.11,.49,.57,.07,.79,.73,.87,1.04-.72-.18-1.86-.23-1.86-.23l-.06,.68s.97-.28,2.04-.29c0,0,2.19-.01,2.08,1.47-.6-.41-1.82-.25-2.16-.19-1.1,.18-2.14,.69-3.35,1.33-1.11,.58-2.3,1.21-3.7,1.64,.61-.6,2.22-2.37,2.22-2.37l-2.14-.74,1.75-1.53-2.69-1.46c.67,.06,1.31,.11,1.9,.16m-3.11-5.75c-.99,1.15-2.28,2.78-2,3.97h0c.21,.99,1.6,1.6,1.6,1.6l2.99,1.62-1.94,1.7,2.33,.73s-2.14,2.19-2.38,2.41c-.61,.1-1.26,.16-1.95,.16-4.95,0-11.83-2.92-13.53-2.94-2.05-.02-4.63,1.16-4.63,1.16l1.35-1.46s-1.76,.36-3.47,.21l2.41-1.64c-2.11-.07-3.97-.7-4.84-1.32,0,0,3.89-.31,9.17-.25,2.14,.02,5.76,.24,5.76,.24-1.79-.76-3.46-1.76-4.18-3.52l3.41,.51c-1.43-.88-3.51-3.08-3.9-4.78l3.81,1.34c-.68-.73-3.03-2.94-3.45-5.49l3.01,1.9c-.79-.8-2.93-5.02-2.57-6.25l2.81,1.89c-1.34-1.66-2.92-6.07-1.85-7.78,.85,3.32,2.75,4.53,2.75,4.53-1.25-1.81-3.94-8.21-1.37-11.03,.68,6.39,3.39,8.54,3.39,8.54-2.25-3.58-4.81-14.57-.03-16.8-.94,7.06,1.32,10.9,1.32,10.9-1.42-6.51-1.38-15.73,3.46-16.57-2.37,6.95-.69,12.31-.69,12.31C22.54,.69,27.78,.96,27.78,.96c0,0-.86,4.62-.86,12.85v23.76c0,1.64-.14,2.62-.83,3.48"/><path class="d" d="M92.85,20.16c1.12,0,2.05,.87,2.05,1.94s-.93,1.94-2.05,1.94-2.05-.87-2.05-1.94c0-1.07,.93-1.94,2.05-1.94"/><path class="d" d="M145.31,20.16c1.12,0,2.05,.87,2.05,1.94s-.93,1.94-2.05,1.94-2.05-.87-2.05-1.94c0-1.07,.93-1.94,2.05-1.94"/><path class="d" d="M75.44,32.32h-.31c-.54,0-1.83,.06-2.81,.33-.67,.19-1.24,.63-1.24,1.24,0,.87,.87,1.25,1.66,1.25,1.69,0,2.7-1.07,2.7-2.46v-.37Zm3.28-2.02v7.26h-3.18v-1.22c-.83,.89-1.85,1.46-3.45,1.5-2.5,.07-4.48-1.45-4.48-3.74,0-3.51,3.75-4.29,7.41-4.29h.41c0-.97-.43-1.87-2.37-1.87-1.31,0-2.43,.42-3.22,1.15l-1.92-1.92c1.32-1.3,3.18-1.97,5.24-1.97s3.15,.29,4.29,1.31c1.08,.96,1.27,2.77,1.27,3.78"/><path class="d" d="M85.72,25.5v-3.8h-3.43v3.8h-2.36v2.87h2.36v5.12c0,1.71,.29,2.73,.97,3.41,.64,.64,1.62,.94,3.07,.94,.92,0,1.85-.18,2.57-.49v-2.71c-.43,.15-1.06,.24-1.85,.24-1.07,0-1.34-.58-1.34-1.56v-4.95h3.19v-2.87h-3.19Z"/><path class="d" d="M172.71,30.18c-.15-1.31-.87-2.28-2.59-2.24-1.45,.03-2.44,1.02-2.6,2.24h5.19Zm3.64,1.57v.91h-8.84c.06,1.23,1.45,2.29,3.09,2.35,1.53,.06,2.37-.54,3.16-1.4l2.18,1.59c-1.32,1.67-2.96,2.64-5.28,2.64-3.67,0-6.67-2.28-6.67-6.32,0-3.22,2.01-6.32,6.25-6.32,4.36,0,6.11,3.39,6.11,6.53"/><polygon class="d" points="61.77 20.06 61.77 31.94 54.35 20.06 49.71 20.06 49.71 37.56 53.49 37.56 53.49 25.28 61.11 37.56 65.54 37.56 65.54 20.06 61.77 20.06"/><polygon class="d" points="138.75 25.5 136.81 32.99 134.86 25.5 131.27 25.5 129.39 32.98 127.44 25.5 123.65 25.5 127.52 37.56 130.96 37.56 133.03 29.98 135.35 37.56 138.54 37.56 142.39 25.5 138.75 25.5"/><rect class="d" x="91.12" y="25.5" width="3.47" height="12.06"/><rect class="d" x="143.58" y="25.5" width="3.47" height="12.06"/><path class="d" d="M121.52,26.32c-.73-.76-1.63-1.11-2.98-1.1-1.33,0-2.86,.65-3.59,1.6v-1.31h-3.32v12.06h3.47v-6.55c0-.85,.23-1.48,.64-1.93,.35-.4,.86-.64,1.51-.68,.78-.04,1.2,.29,1.5,.67,.37,.47,.47,1.29,.47,2.39v6.1h3.47v-7.53c0-1.47-.19-2.7-1.17-3.71"/><path class="d" d="M158.64,31.53c0-1.62-1.05-3.26-3.07-3.26s-3.06,1.64-3.06,3.26,1.05,3.26,3.06,3.26c2.02,0,3.07-1.64,3.07-3.26m3.37-11.47v17.5h-3.27v-1.34c-.76,.88-2.01,1.63-3.74,1.63s-3.11-.56-4.18-1.63c-1.14-1.14-1.78-2.81-1.78-4.68,0-3.66,2.46-6.32,5.84-6.32,1.48,0,2.71,.46,3.66,1.35v-6.5h3.47Z"/><path class="d" d="M103.11,28.27c-2.01,0-3.06,1.64-3.06,3.26s1.05,3.26,3.06,3.26,3.06-1.64,3.06-3.26-1.05-3.26-3.06-3.26m6.53,3.26c0,3.66-2.74,6.32-6.53,6.32s-6.53-2.66-6.53-6.32,2.74-6.32,6.53-6.32,6.53,2.66,6.53,6.32"/><path class="d" d="M176.69,22.8c0-1.25,1.02-2.27,2.27-2.27s2.27,1.02,2.27,2.27-1.02,2.27-2.27,2.27-2.27-1.02-2.27-2.27m-.49,0c0,1.52,1.24,2.76,2.76,2.76s2.76-1.24,2.76-2.76-1.24-2.76-2.76-2.76c-1.52,0-2.76,1.24-2.76,2.76m2.28-1.11h.42c.36,0,.75,.01,.75,.44s-.39,.45-.75,.45h-.42v-.88Zm-.58,2.66h.58v-1.29h.42l.79,1.29h.61l-.82-1.34c.43-.05,.75-.32,.75-.87,0-.61-.36-.95-1.11-.95h-1.22v3.15h0Z"/></g></g></g></svg>