<?xml version="1.0" encoding="UTF-8"?><svg xmlns="http://www.w3.org/2000/svg" width="80" height="80" viewBox="0 0 80 80"><defs><style>.d{fill:#d92632;fill-rule:evenodd;}</style></defs><g id="a"/><g id="b"><g id="c"><path class="d" d="M40.18,0C18.04,0,0,18.06,0,40.09c.09,21.94,17.96,39.91,40.18,39.91,21.87,.09,39.73-17.89,39.82-39.91C79.91,17.97,61.87,.18,40.18,0Zm4.36,39.21v.44c5.42-.97,14.76-.7,23.38,8.63-.62,2.11-1.42,4.14-2.4,6.08-5.87-9.43-15.29-12.25-20.98-13.04v.44c5.33,1.41,13.69,5.55,17.6,17.53-1.42,1.67-3.02,3.17-4.71,4.49-1.6-12.33-10.76-19.03-15.2-21.59h-.09l1.69,27.14c-1.24,.18-2.4,.26-3.64,.26-1.6,0-3.2-.09-4.8-.35l1.78-26.96h-.09c-4.36,2.38-13.33,8.72-15.38,20.79-1.69-1.41-3.2-2.91-4.44-4.58,4.18-11.63,12.53-15.42,17.69-16.74v-.44c-5.51,.7-14.76,3.26-20.89,12.07-.98-1.94-1.69-3.96-2.22-6.08,8.62-8.63,17.78-8.72,23.02-7.67v-.53c-5.42-1.67-14.76-3-23.82,2.47v-.7c0-1.94,.18-3.88,.62-5.81,12.36-4.49,21.16,.18,25.24,3.44h.44c-3.82-3.88-12.27-10.31-24-9.07,.89-2.03,1.96-3.88,3.2-5.73,14.22,1.06,20.09,10.13,22.13,14.63h.18c-1.69-4.85-6.49-15.15-18.4-19.03,1.6-1.5,3.38-2.73,5.24-3.79,11.73,7.58,13.69,18.06,13.87,22.82h.09c.44-4.76,2.67-15.07,14.58-22.73,1.96,1.15,3.73,2.47,5.33,3.96-12.18,3.44-17.33,13.83-19.11,18.77h.18c2.22-4.58,8.36-13.66,22.84-14.27,1.33,1.85,2.4,3.79,3.2,5.9-11.91-1.76-20.62,4.58-24.62,8.37h.44c4.36-3.26,13.33-7.75,25.78-2.64,.27,1.67,.44,3.35,.44,5.02,0,.53,0,1.06-.09,1.59-8.89-5.9-18.49-4.67-24.09-3.08Z"/></g></g></svg>