<?xml version="1.0" encoding="utf-8"?>
<!-- Generator: Adobe Illustrator 26.1.0, SVG Export Plug-In . SVG Version: 6.00 Build 0)  -->
<svg version="1.1" id="Layer_1" xmlns="http://www.w3.org/2000/svg" xmlns:xlink="http://www.w3.org/1999/xlink" x="0px" y="0px"
	 viewBox="0 0 200 140" style="enable-background:new 0 0 200 140;" xml:space="preserve">
<style type="text/css">
	.st0{fill-rule:evenodd;clip-rule:evenodd;fill:#A3E8F5;}
</style>
<path class="st0" d="M100.2,24.6C75.3,24.6,55,45.1,55,70.1c0.1,24.9,20.2,45.3,45.2,45.3c24.6,0.1,44.7-20.3,44.8-45.3
	C144.9,45,124.6,24.8,100.2,24.6z M105.1,69.1v0.5c6.1-1.1,16.6-0.8,26.3,9.8c-0.7,2.4-1.6,4.7-2.7,6.9
	c-6.6-10.7-17.2-13.9-23.6-14.8V72c6,1.6,15.4,6.3,19.8,19.9c-1.6,1.9-3.4,3.6-5.3,5.1c-1.8-14-12.1-21.6-17.1-24.5h-0.1l1.9,30.8
	c-1.4,0.2-2.7,0.3-4.1,0.3c-1.8,0-3.6-0.1-5.4-0.4l2-30.6h-0.1c-4.9,2.7-15,9.9-17.3,23.6c-1.9-1.6-3.6-3.3-5-5.2
	c4.7-13.2,14.1-17.5,19.9-19v-0.5c-6.2,0.8-16.6,3.7-23.5,13.7c-1.1-2.2-1.9-4.5-2.5-6.9c9.7-9.8,20-9.9,25.9-8.7V69
	c-6.1-1.9-16.6-3.4-26.8,2.8c0-0.3,0-0.5,0-0.8c0-2.2,0.2-4.4,0.7-6.6c13.9-5.1,23.8,0.2,28.4,3.9H97C92.7,63.9,83.2,56.6,70,58
	c1-2.3,2.2-4.4,3.6-6.5c16,1.2,22.6,11.5,24.9,16.6h0.2c-1.9-5.5-7.3-17.2-20.7-21.6c1.8-1.7,3.8-3.1,5.9-4.3
	c13.2,8.6,15.4,20.5,15.6,25.9h0.1c0.5-5.4,3-17.1,16.4-25.8c2.2,1.3,4.2,2.8,6,4.5c-13.7,3.9-19.5,15.7-21.5,21.3h0.2
	c2.5-5.2,9.4-15.5,25.7-16.2c1.5,2.1,2.7,4.3,3.6,6.7c-13.4-2-23.2,5.2-27.7,9.5h0.5c4.9-3.7,15-8.8,29-3c0.3,1.9,0.5,3.8,0.5,5.7
	c0,0.6,0,1.2-0.1,1.8C122.2,65.9,111.4,67.3,105.1,69.1z"/>
</svg>
