<?xml version="1.0" encoding="utf-8"?>
<!-- Generator: Adobe Illustrator 26.1.0, SVG Export Plug-In . SVG Version: 6.00 Build 0)  -->
<svg version="1.1" id="Layer_1" xmlns="http://www.w3.org/2000/svg" xmlns:xlink="http://www.w3.org/1999/xlink" x="0px" y="0px"
	 viewBox="0 0 200 140" style="enable-background:new 0 0 200 140;" xml:space="preserve">
<style type="text/css">
	.st0{fill:#A3E8F5;}
</style>
<polygon class="st0" points="154.9,48.1 155.3,48.1 155.3,45.5 156.3,45.5 156.3,45.1 154,45.1 154,45.5 154.9,45.5 "/>
<path class="st0" d="M154.6,91.8c-1.7-1.8-1.6-3.7-1.6-3.7v-43h-16.3v34.4c-0.2,3.3-3.4,4.1-5.2,4c-2.5-0.1-4-1.5-4-3.9V45.1h-15.9
	l0,0c-3.7,0-6.6,0-11.2,0c-8.7,0-16.9,1.3-19.7,8.6L79,47.3c-0.4-1.3-1.8-2.2-3.1-2.2h-2.1H52.5h-5c-0.4,0-0.6,0.1-0.3,0.4
	c0,0,0.8,0.7,2.2,2.3c1.9,2.2,1.2,5.2,1.2,5.2L40,94.6h15.2l2.2-9.1H72l2.3,9.1h20c8.2,0,14.9-0.8,18.2-5.9c2.5,4.7,7.7,6.8,17.1,6
	c3.3-0.3,6.4-1.8,7.8-4.2l0.6,2c0.5,1.2,1.7,2.1,3.2,2.1h15.3c0.4,0,0.6-0.1,0.3-0.4C156.7,94.2,155.9,93.3,154.6,91.8z M77.1,54.1
	c0.1-0.1,0.3-0.1,0.4,0l2.7,1.7l0,0c-0.1,0.4-0.2,0.9-0.2,1.3v0.1l-2.9-2.7C77,54.4,77,54.4,77,54.3C77.1,54.2,77.1,54.2,77.1,54.1z
	 M74.4,57.6c0.1-0.1,0.3-0.2,0.4-0.1l5.1,2c0,0.6,0,1.3,0.1,1.9v0.1L74.5,58c-0.1,0-0.1-0.1-0.1-0.2C74.3,57.8,74.3,57.7,74.4,57.6z
	 M72.7,61.4l7.5,1.7l0,0c0.2,0.8,0.5,1.7,0.8,2.5l0.1,0.1l-8.6-3.8c-0.1,0-0.1-0.1-0.2-0.1c0-0.1,0-0.1,0-0.2
	C72.4,61.4,72.5,61.4,72.7,61.4z M59.7,76.5l5.1-20.3l5.1,20.3H59.7z M101.5,83.3c-1.5,1.3-4.2,2-7.1,1.7c-1-0.1-2.2-0.5-3.4-1
	l-6.1,7.6c-0.1,0.1-0.3,0.2-0.4,0.1c-0.1,0-0.1-0.1-0.1-0.2s0-0.1,0-0.2l4.2-8.5c0,0,0,0,0-0.1c0,0,0-0.1-0.1-0.1h-0.1L81,89
	c-0.1,0.1-0.3,0.1-0.4,0c-0.1,0-0.1-0.1-0.1-0.2s0-0.1,0.1-0.2l5.8-7.7c0,0,0,0,0-0.1c0,0,0,0,0-0.1h-0.1l-8.6,5.2
	c-0.1,0.1-0.3,0.1-0.4,0s-0.1-0.1-0.1-0.2s0-0.2,0.1-0.2l7.2-6.7l0,0v-0.1c0,0-0.1-0.1-0.1,0l-9.5,3.8c-0.1,0.1-0.3,0-0.4-0.1
	c0-0.1-0.1-0.1,0-0.2c0-0.1,0.1-0.1,0.1-0.2l8.4-5.4c0,0,0,0,0.1-0.1c0,0,0,0,0-0.1L83,76.3l-10,2.3c-0.2,0-0.3,0-0.4-0.2
	c0-0.1,0-0.1,0-0.2s0.1-0.1,0.2-0.2l9.3-4.1c0,0,0,0,0.1,0c0,0,0,0,0-0.1l-0.1-0.1l-10.3,0.7c-0.2,0-0.3-0.1-0.3-0.2s0-0.1,0-0.2
	s0.1-0.1,0.2-0.1l10-2.6c0,0,0,0,0.1,0c0,0,0,0,0-0.1l-0.1-0.1l-10.3-1c-0.1,0-0.2,0-0.2-0.1c-0.1,0-0.1-0.1-0.1-0.2
	c0-0.2,0.1-0.3,0.3-0.3l10.3-1c0.1,0,0.1,0,0.1-0.1c0,0,0,0,0-0.1h-0.1l-10-2.6c-0.1,0-0.2-0.1-0.2-0.1c0-0.1-0.1-0.1,0-0.2
	c0-0.1,0.2-0.2,0.3-0.2l10,0.6l0,0c2.6,4.6,7.9,6.5,12.7,8.1l0,0c4.6,1.6,8.6,2.9,8.6,6.5C102.7,81.7,102.3,82.6,101.5,83.3z
	 M116.2,89.1c-0.1,0.1-0.3,0.1-0.4,0l-2.4-2l0,0c0.2-0.4,0.3-0.8,0.5-1.2v-0.1l2.3,3.1C116.2,89,116.3,89,116.2,89.1
	C116.3,89,116.2,89.1,116.2,89.1z M119.6,86c-0.1,0.1-0.3,0.1-0.4,0l-4.7-2.9l0,0c0.1-0.6,0.2-1.3,0.2-2V81l4.9,4.5
	c0.1,0,0.1,0.1,0.1,0.2C119.7,85.9,119.6,86,119.6,86z M122.3,82.5c-0.1,0.1-0.3,0.2-0.4,0.1l-7.2-2.9v-0.4c0-0.7,0-1.4-0.1-2.1
	v-0.1l0,0l7.7,5c0.1,0,0.1,0.1,0.1,0.2C122.4,82.4,122.4,82.4,122.3,82.5z M126,70.3c-0.1,0.1-0.1,0.1-0.2,0.1l-10.3,1
	c-0.1,0-0.1,0-0.1,0.1c0,0,0,0,0,0.1c0,0,0,0,0.1,0l10,2.6c0.1,0,0.1,0.1,0.2,0.1c0,0.1,0.1,0.1,0,0.2c0,0.1-0.2,0.2-0.3,0.2L115,74
	c-0.1,0-0.1,0-0.1,0.1v0.1c0,0,0,0,0.1,0l9.3,4.1c0.1,0,0.1,0.1,0.2,0.1c0,0.1,0,0.1,0,0.2c-0.1,0.1-0.2,0.2-0.4,0.2l-9.6-2.1l0,0
	c-0.6-3.1-2.4-5.6-5.3-7.6c-2.6-1.8-5.7-3-8.5-4c-2.1-0.8-4.1-1.6-5.6-2.5c-1.6-1-2.4-2.1-2.4-3.5c0-1,0.3-1.8,1-2.4
	c1.1-1.1,3.2-1.6,5.9-1.6c0.1,0,0.1,0,0.1,0c1.3,0,4.2,0.5,6,1.3l6.2-7.7c0.1-0.1,0.3-0.2,0.4-0.1c0.1,0,0.1,0.1,0.1,0.2
	s0,0.1,0,0.2l-4.2,8.5c0,0,0,0,0,0.1c0,0,0,0,0,0.1h0.1l7.5-6.5c0.1-0.1,0.3-0.1,0.4,0c0.1,0,0.1,0.1,0.1,0.2s0,0.1-0.1,0.2
	l-5.8,7.7c0,0,0,0,0,0.1s0,0,0,0.1h0.1l8.6-5.2c0.1-0.1,0.3-0.1,0.4,0s0.1,0.1,0.1,0.2s0,0.1-0.1,0.2l-7.2,6.7l0,0v0.1h0.1l9.5-3.8
	c0.1-0.1,0.3,0,0.4,0.1c0,0.1,0.1,0.1,0,0.2c0,0.1-0.1,0.1-0.1,0.2l-8.4,5.5c0,0,0,0,0,0.1c0,0,0,0,0,0.1c0,0,0.1,0.1,0.1,0
	l10.1-2.2c0.2,0,0.3,0,0.4,0.2c0,0.1,0,0.1,0,0.2s-0.1,0.1-0.2,0.2l-9.3,4.1l0,0c0,0,0,0,0,0.1l0.1,0.1l10.4-0.7
	c0.2,0,0.3,0.1,0.4,0.2c0,0.1,0,0.1,0,0.2s-0.1,0.1-0.2,0.1l-10,2.6c0,0,0,0-0.1,0c0,0,0,0,0,0.1c0,0,0,0.1,0.1,0.1l10.3,1
	C126,70.2,126.1,70.2,126,70.3L126,70.3c0.2,0.1,0.2,0.1,0.2,0.2C126.1,70.1,126,70.2,126,70.3z"/>
<polygon class="st0" points="159.3,45.1 158.4,47.6 157.4,45.1 156.7,45.1 156.7,48.1 157.1,48.1 157.1,45.5 157.1,45.5 158.1,48.1 
	158.6,48.1 159.6,45.5 159.6,45.5 159.6,48.1 160,48.1 160,45.1 "/>
</svg>
