<?xml version="1.0" encoding="utf-8"?>
<!-- Generator: Adobe Illustrator 26.1.0, SVG Export Plug-In . SVG Version: 6.00 Build 0)  -->
<svg version="1.1" id="Layer_1" xmlns="http://www.w3.org/2000/svg" xmlns:xlink="http://www.w3.org/1999/xlink" x="0px" y="0px"
	 viewBox="0 0 200 140" style="enable-background:new 0 0 200 140;" xml:space="preserve">
<style type="text/css">
	.st0{fill:#A3E8F5;}
</style>
<g id="Layer_1_00000156580145042460798730000012258098416061642431_">
	<g>
		<path class="st0" d="M90.3,68.6c0-1.1-0.3-1.9-0.5-2.9c-0.4-0.9-0.8-1.7-1.4-2.4c-0.6-0.6-1.3-1.1-2.3-1.6
			c-0.9-0.4-1.9-0.5-3.2-0.5c-1.1,0-2.1,0.2-3.2,0.5c-1,0.4-1.9,1-2.6,1.6s-1.3,1.4-1.9,2.4c-0.4,1-0.7,1.9-0.8,2.9H90.3L90.3,68.6z
			 M95.7,70.8v1c0,0.4,0,0.6-0.1,0.9H74.7c0,1.1,0.4,2.1,0.7,3.1c0.4,1,1.1,1.9,1.9,2.6s1.7,1.2,2.6,1.7c1.1,0.4,2.1,0.6,3.3,0.6
			c1.8,0,3.4-0.4,4.6-1.1c1.2-0.8,2.3-1.8,3.1-2.8l3.6,2.9c-1.4,1.9-3.1,3.3-4.9,4.1c-1.9,0.9-4.1,1.3-6.4,1.3
			c-1.9,0-3.9-0.4-5.6-1.1c-1.8-0.6-3.2-1.6-4.4-2.8c-1.1-1.1-2.2-2.6-2.9-4.3c-0.7-1.8-1.1-3.5-1.1-5.6c0-2,0.4-4,1.1-5.6
			c0.7-1.8,1.7-3.2,2.8-4.4c1.2-1.1,2.6-2.2,4.3-2.8c1.7-0.7,3.4-1.1,5.4-1.1c1.9,0,3.7,0.4,5.3,1c1.6,0.6,2.9,1.5,4.1,2.6
			c1.1,1.1,1.9,2.6,2.6,4.3C95.4,66.8,95.7,68.8,95.7,70.8"/>
		<path class="st0" d="M166.5,64.4c-0.6-1-1.4-1.8-2.6-2.4c-1.1-0.6-2.3-1-3.6-1c-0.5,0-1.1,0.1-1.9,0.2c-0.6,0.2-1.1,0.4-1.6,0.6
			s-0.9,0.6-1.1,1.1c-0.4,0.4-0.4,1-0.4,1.6c0,1.1,0.4,1.9,1.5,2.5c1.1,0.5,2.6,1.1,4.5,1.5c1.2,0.4,2.5,0.6,3.4,1.1
			c1.1,0.4,1.9,1,2.8,1.5c0.8,0.6,1.4,1.3,1.9,2.2c0.4,0.9,0.6,1.9,0.6,3c0,1.6-0.4,2.8-0.9,4c-0.5,1.1-1.3,1.9-2.4,2.6
			c-1,0.7-2.1,1.1-3.4,1.5c-1.2,0.4-2.6,0.4-3.9,0.4c-1.9,0-4-0.4-5.8-1.1c-1.9-0.8-3.4-1.9-4.8-3.5l3.7-3.2
			c0.7,1.1,1.7,1.9,2.9,2.6c1.2,0.8,2.6,1.1,4.1,1.1c0.6,0,1.3-0.1,1.9-0.2c0.6-0.2,1.1-0.4,1.7-0.6s0.9-0.7,1.1-1.1
			c0.4-0.4,0.4-1.1,0.4-1.9c0-1.1-0.5-2.1-1.8-2.6c-1.1-0.5-2.8-1.1-5.1-1.7c-0.9-0.3-1.9-0.4-2.6-0.8c-0.9-0.4-1.8-0.7-2.5-1.3
			c-0.7-0.5-1.3-1.2-1.9-2c-0.4-0.9-0.7-1.9-0.7-3.1c0-1.4,0.4-2.6,0.9-3.6c0.5-1.1,1.3-1.9,2.2-2.6c1-0.6,1.9-1.1,3.2-1.4
			c1.1-0.4,2.4-0.4,3.6-0.4c1.9,0,3.7,0.4,5.5,1.1s3.1,1.9,4.1,3.3L166.5,64.4L166.5,64.4z"/>
		<path class="st0" d="M146.8,73.2V57.8h-5.2v15.4l0,0c0,3.6-2.6,7.1-6.4,7.1c-3.9,0-6.4-3.5-6.4-7.1l0,0V57.8h-5.3v15.4h0.1
			c0,6.4,5.2,11.7,11.6,11.7S146.8,79.6,146.8,73.2L146.8,73.2L146.8,73.2z"/>
		<polygon class="st0" points="65.7,84.2 60.6,84.2 60.6,45 65.7,45 		"/>
		<polygon class="st0" points="128.4,45 125.1,45 108.6,65.1 101.7,57.8 97.9,57.8 105.3,69.2 88.1,95 91.6,95 108.9,74.1 118,84.2 
			121.9,84.2 112.1,69.6 		"/>
		<path class="st0" d="M90.3,68.6c0-1.1-0.3-1.9-0.5-2.9c-0.4-0.9-0.8-1.7-1.4-2.4c-0.6-0.6-1.3-1.1-2.3-1.6
			c-0.9-0.4-1.9-0.5-3.2-0.5c-1.1,0-2.1,0.2-3.2,0.5c-1,0.4-1.9,1-2.6,1.6s-1.3,1.4-1.9,2.4c-0.4,1-0.7,1.9-0.8,2.9H90.3L90.3,68.6z
			 M95.7,70.8v1c0,0.4,0,0.6-0.1,0.9H74.7c0,1.1,0.4,2.1,0.7,3.1c0.4,1,1.1,1.9,1.9,2.6s1.7,1.2,2.6,1.7c1.1,0.4,2.1,0.6,3.3,0.6
			c1.8,0,3.4-0.4,4.6-1.1c1.2-0.8,2.3-1.8,3.1-2.8l3.6,2.9c-1.4,1.9-3.1,3.3-4.9,4.1c-1.9,0.9-4.1,1.3-6.4,1.3
			c-1.9,0-3.9-0.4-5.6-1.1c-1.8-0.6-3.2-1.6-4.4-2.8c-1.1-1.1-2.2-2.6-2.9-4.3c-0.7-1.8-1.1-3.5-1.1-5.6c0-2,0.4-4,1.1-5.6
			c0.7-1.8,1.7-3.2,2.8-4.4c1.2-1.1,2.6-2.2,4.3-2.8c1.7-0.7,3.4-1.1,5.4-1.1c1.9,0,3.7,0.4,5.3,1c1.6,0.6,2.9,1.5,4.1,2.6
			c1.1,1.1,1.9,2.6,2.6,4.3C95.4,66.8,95.7,68.8,95.7,70.8"/>
		<path class="st0" d="M166.5,64.4c-0.6-1-1.4-1.8-2.6-2.4c-1.1-0.6-2.3-1-3.6-1c-0.5,0-1.1,0.1-1.9,0.2c-0.6,0.2-1.1,0.4-1.6,0.6
			s-0.9,0.6-1.1,1.1c-0.4,0.4-0.4,1-0.4,1.6c0,1.1,0.4,1.9,1.5,2.5c1.1,0.5,2.6,1.1,4.5,1.5c1.2,0.4,2.5,0.6,3.4,1.1
			c1.1,0.4,1.9,1,2.8,1.5c0.8,0.6,1.4,1.3,1.9,2.2c0.4,0.9,0.6,1.9,0.6,3c0,1.6-0.4,2.8-0.9,4c-0.5,1.1-1.3,1.9-2.4,2.6
			c-1,0.7-2.1,1.1-3.4,1.5c-1.2,0.4-2.6,0.4-3.9,0.4c-1.9,0-4-0.4-5.8-1.1c-1.9-0.8-3.4-1.9-4.8-3.5l3.7-3.2
			c0.7,1.1,1.7,1.9,2.9,2.6c1.2,0.8,2.6,1.1,4.1,1.1c0.6,0,1.3-0.1,1.9-0.2c0.6-0.2,1.1-0.4,1.7-0.6s0.9-0.7,1.1-1.1
			c0.4-0.4,0.4-1.1,0.4-1.9c0-1.1-0.5-2.1-1.8-2.6c-1.1-0.5-2.8-1.1-5.1-1.7c-0.9-0.3-1.9-0.4-2.6-0.8c-0.9-0.4-1.8-0.7-2.5-1.3
			c-0.7-0.5-1.3-1.2-1.9-2c-0.4-0.9-0.7-1.9-0.7-3.1c0-1.4,0.4-2.6,0.9-3.6c0.5-1.1,1.3-1.9,2.2-2.6c1-0.6,1.9-1.1,3.2-1.4
			c1.1-0.4,2.4-0.4,3.6-0.4c1.9,0,3.7,0.4,5.5,1.1s3.1,1.9,4.1,3.3L166.5,64.4L166.5,64.4z"/>
		<path class="st0" d="M146.8,73.2V57.8h-5.2v15.4l0,0c0,3.6-2.6,7.1-6.4,7.1c-3.9,0-6.4-3.5-6.4-7.1l0,0V57.8h-5.3v15.4h0.1
			c0,6.4,5.2,11.7,11.6,11.7S146.8,79.6,146.8,73.2L146.8,73.2L146.8,73.2z"/>
		<path class="st0" d="M42.9,80.5c-4.9,0-9.1-3.7-9.1-9.5c0-5.3,4.1-9.5,9.1-9.5c4.9,0,9.1,4.2,9.1,9.5C51.9,76.3,48,80.5,42.9,80.5
			 M42.9,84.6c7.8,0,13.9-6.2,13.9-13.7c0-8.3-6.2-13.7-13.9-13.7c-7.6,0-13.9,5.4-13.9,14.5V95h4.9V83.6c0-1,0-1.7-0.1-2.9
			C35.5,83.3,39.7,84.6,42.9,84.6"/>
		<polygon class="st0" points="65.7,84.2 60.6,84.2 60.6,45 65.7,45 		"/>
		<polygon class="st0" points="128.4,45 125.1,45 108.6,65.1 101.7,57.8 97.9,57.8 105.3,69.2 88.1,95 91.6,95 108.9,74.1 118,84.2 
			121.9,84.2 112.1,69.6 		"/>
		<path class="st0" d="M176.2,71.4h0.3c0.4,0,0.5-0.1,0.5-0.4s-0.2-0.4-0.5-0.4c-0.2,0-0.3,0-0.4,0L176.2,71.4L176.2,71.4z
			 M176.2,72.7h-0.6v-2.5c0.3-0.1,0.5-0.1,1-0.1s0.7,0.1,0.9,0.2s0.3,0.4,0.3,0.5s-0.3,0.4-0.5,0.5l0,0c0.3,0.1,0.4,0.3,0.4,0.6
			c0.1,0.4,0.2,0.5,0.2,0.6h-0.6c-0.1-0.1-0.2-0.4-0.3-0.6c-0.1-0.3-0.3-0.4-0.5-0.4H176v1.1L176.2,72.7L176.2,72.7z M174.6,71.4
			c0,1.1,0.8,1.9,1.9,1.9c1.1,0,1.9-0.9,1.9-1.9c0-1.1-0.8-1.9-1.9-1.9C175.5,69.5,174.6,70.4,174.6,71.4L174.6,71.4z M179,71.4
			c0,1.3-1.1,2.5-2.6,2.5s-2.6-1.1-2.6-2.5c0-1.3,1.1-2.5,2.6-2.5S179,70.1,179,71.4L179,71.4z"/>
	</g>
</g>
</svg>
