<?xml version="1.0" encoding="UTF-8"?><svg xmlns="http://www.w3.org/2000/svg" width="150" height="50" viewBox="0 0 150 50"><defs><style>.e{fill:#bc204b;}</style></defs><g id="a"/><g id="b"><g id="c"><g id="d"><g><path class="e" d="M61.3,23.6c0-1.1-.3-1.9-.5-2.9-.4-.9-.8-1.7-1.4-2.4-.6-.6-1.3-1.1-2.3-1.6-.9-.4-1.9-.5-3.2-.5-1.1,0-2.1,.2-3.2,.5-1,.4-1.9,1-2.6,1.6s-1.3,1.4-1.9,2.4c-.4,1-.7,1.9-.8,2.9h15.9Zm5.4,2.2v1c0,.4,0,.6-.1,.9h-20.9c0,1.1,.4,2.1,.7,3.1,.4,1,1.1,1.9,1.9,2.6s1.7,1.2,2.6,1.7c1.1,.4,2.1,.6,3.3,.6,1.8,0,3.4-.4,4.6-1.1,1.2-.8,2.3-1.8,3.1-2.8l3.6,2.9c-1.4,1.9-3.1,3.3-4.9,4.1-1.9,.9-4.1,1.3-6.4,1.3-1.9,0-3.9-.4-5.6-1.1-1.8-.6-3.2-1.6-4.4-2.8-1.1-1.1-2.2-2.6-2.9-4.3-.7-1.8-1.1-3.5-1.1-5.6s.4-4,1.1-5.6c.7-1.8,1.7-3.2,2.8-4.4,1.2-1.1,2.6-2.2,4.3-2.8,1.7-.7,3.4-1.1,5.4-1.1s3.7,.4,5.3,1c1.6,.6,2.9,1.5,4.1,2.6,1.1,1.1,1.9,2.6,2.6,4.3,.6,1.5,.9,3.5,.9,5.5"/><path class="e" d="M137.5,19.4c-.6-1-1.4-1.8-2.6-2.4-1.1-.6-2.3-1-3.6-1-.5,0-1.1,.1-1.9,.2-.6,.2-1.1,.4-1.6,.6s-.9,.6-1.1,1.1c-.4,.4-.4,1-.4,1.6,0,1.1,.4,1.9,1.5,2.5,1.1,.5,2.6,1.1,4.5,1.5,1.2,.4,2.5,.6,3.4,1.1,1.1,.4,1.9,1,2.8,1.5,.8,.6,1.4,1.3,1.9,2.2,.4,.9,.6,1.9,.6,3,0,1.6-.4,2.8-.9,4-.5,1.1-1.3,1.9-2.4,2.6-1,.7-2.1,1.1-3.4,1.5-1.2,.4-2.6,.4-3.9,.4-1.9,0-4-.4-5.8-1.1-1.9-.8-3.4-1.9-4.8-3.5l3.7-3.2c.7,1.1,1.7,1.9,2.9,2.6,1.2,.8,2.6,1.1,4.1,1.1,.6,0,1.3-.1,1.9-.2,.6-.2,1.1-.4,1.7-.6s.9-.7,1.1-1.1c.4-.4,.4-1.1,.4-1.9,0-1.1-.5-2.1-1.8-2.6-1.1-.5-2.8-1.1-5.1-1.7-.9-.3-1.9-.4-2.6-.8-.9-.4-1.8-.7-2.5-1.3-.7-.5-1.3-1.2-1.9-2-.4-.9-.7-1.9-.7-3.1,0-1.4,.4-2.6,.9-3.6,.5-1.1,1.3-1.9,2.2-2.6,1-.6,1.9-1.1,3.2-1.4,1.1-.4,2.4-.4,3.6-.4,1.9,0,3.7,.4,5.5,1.1s3.1,1.9,4.1,3.3l-3,2.6h0Z"/><path class="e" d="M117.8,28.2V12.8h-5.2v15.4h0c0,3.6-2.6,7.1-6.4,7.1s-6.4-3.5-6.4-7.1h0V12.8h-5.3v15.4h.1c0,6.4,5.2,11.7,11.6,11.7s11.6-5.3,11.6-11.7h0Z"/><polygon class="e" points="36.7 39.2 31.6 39.2 31.6 0 36.7 0 36.7 39.2"/><polygon class="e" points="99.4 0 96.1 0 79.6 20.1 72.7 12.8 68.9 12.8 76.3 24.2 59.1 50 62.6 50 79.9 29.1 89 39.2 92.9 39.2 83.1 24.6 99.4 0"/><path class="e" d="M61.3,23.6c0-1.1-.3-1.9-.5-2.9-.4-.9-.8-1.7-1.4-2.4-.6-.6-1.3-1.1-2.3-1.6-.9-.4-1.9-.5-3.2-.5-1.1,0-2.1,.2-3.2,.5-1,.4-1.9,1-2.6,1.6s-1.3,1.4-1.9,2.4c-.4,1-.7,1.9-.8,2.9h15.9Zm5.4,2.2v1c0,.4,0,.6-.1,.9h-20.9c0,1.1,.4,2.1,.7,3.1,.4,1,1.1,1.9,1.9,2.6s1.7,1.2,2.6,1.7c1.1,.4,2.1,.6,3.3,.6,1.8,0,3.4-.4,4.6-1.1,1.2-.8,2.3-1.8,3.1-2.8l3.6,2.9c-1.4,1.9-3.1,3.3-4.9,4.1-1.9,.9-4.1,1.3-6.4,1.3-1.9,0-3.9-.4-5.6-1.1-1.8-.6-3.2-1.6-4.4-2.8-1.1-1.1-2.2-2.6-2.9-4.3-.7-1.8-1.1-3.5-1.1-5.6s.4-4,1.1-5.6c.7-1.8,1.7-3.2,2.8-4.4,1.2-1.1,2.6-2.2,4.3-2.8,1.7-.7,3.4-1.1,5.4-1.1s3.7,.4,5.3,1c1.6,.6,2.9,1.5,4.1,2.6,1.1,1.1,1.9,2.6,2.6,4.3,.6,1.5,.9,3.5,.9,5.5"/><path class="e" d="M137.5,19.4c-.6-1-1.4-1.8-2.6-2.4-1.1-.6-2.3-1-3.6-1-.5,0-1.1,.1-1.9,.2-.6,.2-1.1,.4-1.6,.6s-.9,.6-1.1,1.1c-.4,.4-.4,1-.4,1.6,0,1.1,.4,1.9,1.5,2.5,1.1,.5,2.6,1.1,4.5,1.5,1.2,.4,2.5,.6,3.4,1.1,1.1,.4,1.9,1,2.8,1.5,.8,.6,1.4,1.3,1.9,2.2,.4,.9,.6,1.9,.6,3,0,1.6-.4,2.8-.9,4-.5,1.1-1.3,1.9-2.4,2.6-1,.7-2.1,1.1-3.4,1.5-1.2,.4-2.6,.4-3.9,.4-1.9,0-4-.4-5.8-1.1-1.9-.8-3.4-1.9-4.8-3.5l3.7-3.2c.7,1.1,1.7,1.9,2.9,2.6,1.2,.8,2.6,1.1,4.1,1.1,.6,0,1.3-.1,1.9-.2,.6-.2,1.1-.4,1.7-.6s.9-.7,1.1-1.1c.4-.4,.4-1.1,.4-1.9,0-1.1-.5-2.1-1.8-2.6-1.1-.5-2.8-1.1-5.1-1.7-.9-.3-1.9-.4-2.6-.8-.9-.4-1.8-.7-2.5-1.3-.7-.5-1.3-1.2-1.9-2-.4-.9-.7-1.9-.7-3.1,0-1.4,.4-2.6,.9-3.6,.5-1.1,1.3-1.9,2.2-2.6,1-.6,1.9-1.1,3.2-1.4,1.1-.4,2.4-.4,3.6-.4,1.9,0,3.7,.4,5.5,1.1s3.1,1.9,4.1,3.3l-3,2.6h0Z"/><path class="e" d="M117.8,28.2V12.8h-5.2v15.4h0c0,3.6-2.6,7.1-6.4,7.1s-6.4-3.5-6.4-7.1h0V12.8h-5.3v15.4h.1c0,6.4,5.2,11.7,11.6,11.7s11.6-5.3,11.6-11.7h0Z"/><path class="e" d="M13.9,35.5c-4.9,0-9.1-3.7-9.1-9.5,0-5.3,4.1-9.5,9.1-9.5s9.1,4.2,9.1,9.5c-.1,5.3-4,9.5-9.1,9.5m0,4.1c7.8,0,13.9-6.2,13.9-13.7,0-8.3-6.2-13.7-13.9-13.7S0,17.6,0,26.7v23.3H4.9v-11.4c0-1,0-1.7-.1-2.9,1.7,2.6,5.9,3.9,9.1,3.9"/><polygon class="e" points="36.7 39.2 31.6 39.2 31.6 0 36.7 0 36.7 39.2"/><polygon class="e" points="99.4 0 96.1 0 79.6 20.1 72.7 12.8 68.9 12.8 76.3 24.2 59.1 50 62.6 50 79.9 29.1 89 39.2 92.9 39.2 83.1 24.6 99.4 0"/><path class="e" d="M147.2,26.4h.3c.4,0,.5-.1,.5-.4s-.2-.4-.5-.4h-.4l.1,.8h0Zm0,1.3h-.6v-2.5c.3-.1,.5-.1,1-.1s.7,.1,.9,.2,.3,.4,.3,.5-.3,.4-.5,.5h0c.3,.1,.4,.3,.4,.6,.1,.4,.2,.5,.2,.6h-.6c-.1-.1-.2-.4-.3-.6-.1-.3-.3-.4-.5-.4h-.5v1.1l.2,.1h0Zm-1.6-1.3c0,1.1,.8,1.9,1.9,1.9s1.9-.9,1.9-1.9c0-1.1-.8-1.9-1.9-1.9-1,0-1.9,.9-1.9,1.9h0Zm4.4,0c0,1.3-1.1,2.5-2.6,2.5s-2.6-1.1-2.6-2.5c0-1.3,1.1-2.5,2.6-2.5s2.6,1.2,2.6,2.5h0Z"/></g></g></g></g></svg>