<?xml version="1.0" encoding="UTF-8"?><svg xmlns="http://www.w3.org/2000/svg" width="168.63" height="50.11" viewBox="0 0 168.63 50.11"><defs><style>.d{fill:#fff;}</style></defs><g id="a"/><g id="b"><g id="c"><g><path class="d" d="M27.3,41.2h9.03V11.4h-8.26V29.97l-2.4-2.35V12.82c-.04-8.7,.99-12.82,.99-12.82-2.8,0-4.25,2.65-4.57,3.43-1.57,.17-2.86,1.08-3.72,2.84-.49,.99-.73,1.96-.82,2.43-3.31,.76-3.6,6.66-3.38,7.72l-5.14-5.01H.03v29.8H8.29V23.19l3.99,3.78c.36,1.09,.72,1.52,.72,1.52l-1.57-1.35c-.28,2.92,.54,4.42,1.3,5.53l-1.91-1.62c-.15,2.9,1.25,4.68,2.11,5.45l-2.52-1.24c-.17,1.74,1.57,4.28,2.58,4.77l-2.13-.32c.46,2.4,2.13,3.26,2.13,3.26,0,0-3.63-.08-5.3-.08-4.65,0-7.7,.44-7.7,.44,0,0,2.06,2.05,4.69,2.14l-2.34,1.44c1.7,.55,3.32,.36,3.32,.36l-1.35,1.62s4.26-1.64,6.05-1.51c1.43,.1,8.11,2.7,12.59,2.7,3.01,0,5.19-1.15,6.94-2.08,1.07-.56,1.99-1.02,2.9-1.16,1.62-.25,2.36,.34,2.36,.34,.17-.68,.67-2.41-1.97-2.83-.1-.47-.56-1.08-1.24-1.19-1.42-.21-7.37-.67-7.55-.68-.51-.03-2.23-.36-.65-2.63,.12-.17,.92-1.18,.92-1.18l2.65,2.49Zm-.21,2.23c1.96,.15,3.34,.28,4.74,.46,.53,.07,.74,.68,.81,.96-.67-.17-1.72-.21-1.72-.21l-.06,.63s.9-.26,1.89-.27c0,0,2.03,0,1.93,1.36-.55-.38-1.69-.23-2.01-.18-1.02,.17-1.99,.64-3.11,1.23-1.03,.54-2.13,1.13-3.43,1.52,.57-.55,2.06-2.2,2.06-2.2l-1.98-.69,1.62-1.42-2.5-1.35c.62,.05,1.21,.11,1.76,.15m-2.89-5.34c-.92,1.07-2.11,2.58-1.85,3.69h0c.19,.92,1.48,1.48,1.48,1.48l2.78,1.51-1.8,1.57,2.16,.68s-1.98,2.03-2.21,2.24c-.57,.09-1.17,.15-1.81,.15-4.59,0-10.97-2.71-12.55-2.73-1.9-.02-4.3,1.07-4.3,1.07l1.25-1.35s-1.63,.33-3.22,.2l2.23-1.52c-1.96-.06-3.68-.65-4.49-1.22,0,0,3.61-.29,8.51-.23,1.98,.02,5.34,.22,5.34,.22-1.66-.71-3.21-1.64-3.88-3.27l3.17,.48c-1.33-.81-3.26-2.85-3.62-4.43l3.53,1.24c-.63-.68-2.81-2.73-3.2-5.1l2.8,1.76c-.73-.74-2.72-4.66-2.38-5.8l2.61,1.75c-1.25-1.54-2.71-5.63-1.71-7.22,.79,3.08,2.56,4.2,2.56,4.2-1.16-1.68-3.66-7.62-1.27-10.24,.63,5.93,3.15,7.93,3.15,7.93-2.08-3.32-4.46-13.52-.03-15.59-.87,6.55,1.23,10.12,1.23,10.12-1.32-6.04-1.28-14.59,3.21-15.38-2.2,6.45-.64,11.43-.64,11.43C20.91,.64,25.78,.89,25.78,.89c0,0-.8,4.28-.8,11.92v22.05c0,1.52-.13,2.43-.77,3.23"/><path class="d" d="M86.16,18.71c1.04,0,1.91,.81,1.91,1.8s-.86,1.8-1.91,1.8-1.9-.8-1.9-1.8c0-.99,.86-1.8,1.9-1.8"/><path class="d" d="M134.85,18.71c1.04,0,1.9,.81,1.9,1.8s-.86,1.8-1.9,1.8-1.9-.8-1.9-1.8c0-.99,.87-1.8,1.9-1.8"/><path class="d" d="M70,29.99h-.29c-.5,0-1.7,.06-2.61,.31-.63,.17-1.15,.58-1.15,1.15,0,.81,.81,1.16,1.54,1.16,1.57,0,2.5-.99,2.5-2.28v-.34Zm3.04-1.88v6.74h-2.95v-1.13c-.77,.83-1.72,1.36-3.2,1.39-2.32,.07-4.16-1.35-4.16-3.47,0-3.26,3.48-3.98,6.88-3.98h.38c0-.9-.4-1.74-2.2-1.74-1.22,0-2.25,.39-2.99,1.07l-1.78-1.78c1.23-1.21,2.96-1.83,4.86-1.83s2.92,.27,3.98,1.21c1,.89,1.17,2.57,1.17,3.5"/><path class="d" d="M79.55,23.67v-3.53h-3.18v3.53h-2.19v2.66h2.19v4.75c0,1.59,.27,2.54,.9,3.17,.6,.6,1.51,.87,2.85,.87,.85,0,1.72-.17,2.38-.46v-2.52c-.4,.14-.99,.23-1.72,.23-.99,0-1.24-.54-1.24-1.45v-4.59h2.96v-2.66h-2.96Z"/><path class="d" d="M160.27,28.01c-.14-1.22-.81-2.11-2.4-2.08-1.35,.03-2.27,.94-2.41,2.08h4.81Zm3.38,1.46v.84h-8.2c.05,1.14,1.35,2.13,2.87,2.18,1.42,.06,2.2-.5,2.93-1.3l2.02,1.48c-1.23,1.55-2.75,2.45-4.9,2.45-3.41,0-6.19-2.12-6.19-5.86,0-2.99,1.86-5.86,5.8-5.86,4.05,0,5.67,3.14,5.67,6.06"/><polygon class="d" points="57.32 18.62 57.32 29.64 50.44 18.62 46.13 18.62 46.13 34.86 49.63 34.86 49.63 23.46 56.71 34.86 60.82 34.86 60.82 18.62 57.32 18.62"/><polygon class="d" points="128.76 23.67 126.95 30.62 125.15 23.67 121.81 23.67 120.07 30.6 118.26 23.67 114.75 23.67 118.33 34.86 121.52 34.86 123.44 27.82 125.6 34.86 128.56 34.86 132.13 23.67 128.76 23.67"/><rect class="d" x="84.56" y="23.67" width="3.22" height="11.19"/><rect class="d" x="133.24" y="23.67" width="3.22" height="11.19"/><path class="d" d="M112.76,24.43c-.67-.7-1.52-1.03-2.76-1.02-1.23,0-2.65,.61-3.33,1.48v-1.21h-3.08v11.19h3.22v-6.08c0-.79,.22-1.38,.59-1.79,.33-.37,.8-.6,1.4-.63,.73-.04,1.12,.27,1.39,.63,.34,.43,.44,1.2,.44,2.22v5.66h3.22v-6.99c0-1.37-.18-2.5-1.08-3.44"/><path class="d" d="M147.21,29.26c0-1.51-.98-3.03-2.85-3.03s-2.84,1.52-2.84,3.03,.98,3.02,2.84,3.02c1.87,0,2.85-1.52,2.85-3.02m3.13-10.65v16.24h-3.03v-1.24c-.71,.82-1.87,1.51-3.47,1.51s-2.89-.52-3.88-1.51c-1.06-1.06-1.65-2.61-1.65-4.35,0-3.4,2.28-5.86,5.42-5.86,1.38,0,2.52,.42,3.39,1.25v-6.03h3.22Z"/><path class="d" d="M95.68,26.24c-1.87,0-2.84,1.52-2.84,3.03s.97,3.02,2.84,3.02,2.84-1.52,2.84-3.02-.98-3.03-2.84-3.03m6.06,3.03c0,3.4-2.54,5.86-6.06,5.86s-6.06-2.46-6.06-5.86,2.54-5.86,6.06-5.86,6.06,2.46,6.06,5.86"/><path class="d" d="M163.97,21.16c0-1.16,.94-2.11,2.11-2.11s2.11,.94,2.11,2.11-.94,2.11-2.11,2.11-2.11-.94-2.11-2.11m-.45,0c0,1.41,1.15,2.56,2.56,2.56s2.56-1.15,2.56-2.56-1.15-2.56-2.56-2.56c-1.41,0-2.56,1.15-2.56,2.56m2.11-1.03h.39c.33,0,.7,.01,.7,.41s-.37,.41-.7,.41h-.39v-.82Zm-.54,2.47h.54v-1.2h.39l.73,1.2h.56l-.76-1.24c.4-.05,.7-.3,.7-.81,0-.56-.33-.88-1.03-.88h-1.13v2.93h0Z"/></g></g></g></svg>